<?xml version="1.0" standalone="no"?>
<!DOCTYPE svg PUBLIC "-//W3C//DTD SVG 1.1//EN" "http://www.w3.org/Graphics/SVG/1.1/DTD/svg11.dtd" >
<svg xmlns="http://www.w3.org/2000/svg" xmlns:xlink="http://www.w3.org/1999/xlink" version="1.1">
<metadata>
Created by FontForge 20170924 at Thu Jan 30 15:23:19 2020
 By www-data
copyright missing
</metadata>
<defs>
<font id="MartiresPro-DemiBold" horiz-adv-x="415" >
  <font-face 
    font-family="Martires Pro Demi Bold"
    font-weight="600"
    font-stretch="normal"
    units-per-em="1000"
    panose-1="0 0 7 0 0 0 0 0 0 0"
    ascent="800"
    descent="-200"
    x-height="699"
    cap-height="705"
    bbox="-355 -240 697 1248"
    underline-thickness="50"
    underline-position="-100"
    unicode-range="U+0020-2122"
  />
<missing-glyph horiz-adv-x="600" 
d="M0 601h600v-601h-600v601zM467 126c23 25 34 57 34 91c0 32 -10 61 -31 84c-3 3 -7 7 -11 10c17 22 25 50 25 79c0 34 -10 65 -32 87c-17 18 -51 39 -102 39h-251v-64c7 0 25 0 38 -27c11 -25 21 -61 29 -99c12 -52 23 -109 48 -155c32 -58 85 -87 147 -87
c40 0 81 15 106 42zM371 273c21 0 37 -6 49 -17c9 -10 12 -24 12 -39c0 -17 -4 -34 -15 -46c-14 -14 -32 -21 -56 -21c-81 0 -104 75 -129 190c-8 42 -18 81 -32 112h146c23 0 43 -7 55 -20c10 -10 14 -25 14 -42c0 -36 -22 -53 -44 -53h-46v-64h46z" />
    <glyph glyph-name=".notdef" horiz-adv-x="600" 
d="M0 601h600v-601h-600v601zM467 126c23 25 34 57 34 91c0 32 -10 61 -31 84c-3 3 -7 7 -11 10c17 22 25 50 25 79c0 34 -10 65 -32 87c-17 18 -51 39 -102 39h-251v-64c7 0 25 0 38 -27c11 -25 21 -61 29 -99c12 -52 23 -109 48 -155c32 -58 85 -87 147 -87
c40 0 81 15 106 42zM371 273c21 0 37 -6 49 -17c9 -10 12 -24 12 -39c0 -17 -4 -34 -15 -46c-14 -14 -32 -21 -56 -21c-81 0 -104 75 -129 190c-8 42 -18 81 -32 112h146c23 0 43 -7 55 -20c10 -10 14 -25 14 -42c0 -36 -22 -53 -44 -53h-46v-64h46z" />
    <glyph glyph-name="A" unicode="A" horiz-adv-x="411" 
d="M389 8c0 -12 12 -25 12 -25c-74 50 -94 84 -94 131v202c-17 -17 -32 -23 -53 -23h-129v-178c0 -82 -74 -108 -115 -134c24 22 32 55 32 94v445c0 34 15 69 67 110c17 22 65 78 96 78c92 0 184 -56 184 -199v-501zM176 376h131v105c0 155 -113 185 -178 158
c-2 -4 -4 -9 -4 -13v-272c16 16 31 22 51 22z" />
    <glyph glyph-name="Aacute" unicode="&#xc1;" horiz-adv-x="411" 
d="M185 776c-11 -10 -10 -27 -10 -27c-52 52 -56 76 -37 95l71 71c10 10 16 19 15 34c44 -45 65 -68 38 -96zM389 8c0 -12 12 -25 12 -25c-74 50 -94 84 -94 131v202c-17 -17 -32 -23 -53 -23h-129v-178c0 -82 -74 -108 -115 -134c24 22 32 55 32 94v445c0 34 15 69 67 110
c17 22 65 78 96 78c92 0 184 -56 184 -199v-501zM176 376h131v105c0 155 -113 185 -178 158c-2 -4 -4 -9 -4 -13v-272c16 16 31 22 51 22z" />
    <glyph glyph-name="Abreve" unicode="&#x102;" horiz-adv-x="411" 
d="M298 805c-59 -59 -120 -62 -169 -12c-12 14 -21 61 -24 83c12 -45 93 -94 158 -29l53 53c5 5 5 17 5 17c12 -57 -4 -94 -23 -112zM105 876c-1 3 -2 7 -2 10zM389 8c0 -12 12 -25 12 -25c-74 50 -94 84 -94 131v202c-17 -17 -32 -23 -53 -23h-129v-178
c0 -82 -74 -108 -115 -134c24 22 32 55 32 94v445c0 34 15 69 67 110c17 22 65 78 96 78c92 0 184 -56 184 -199v-501zM176 376h131v105c0 155 -113 185 -178 158c-2 -4 -4 -9 -4 -13v-272c16 16 31 22 51 22z" />
    <glyph glyph-name="uni01CD" unicode="&#x1cd;" horiz-adv-x="411" 
d="M196 766l-91 91c-27 28 -7 51 38 95c-1 -15 5 -23 15 -33l71 -71l65 66c28 28 51 7 95 -37c-15 0 -23 -5 -33 -15l-98 -99c-13 -14 -28 -16 -53 0c-3 0 -6 1 -9 3zM389 8c0 -12 12 -25 12 -25c-74 50 -94 84 -94 131v202c-17 -17 -32 -23 -53 -23h-129v-178
c0 -82 -74 -108 -115 -134c24 22 32 55 32 94v445c0 34 15 69 67 110c17 22 65 78 96 78c92 0 184 -56 184 -199v-501zM176 376h131v105c0 155 -113 185 -178 158c-2 -4 -4 -9 -4 -13v-272c16 16 31 22 51 22z" />
    <glyph glyph-name="Acircumflex" unicode="&#xc2;" horiz-adv-x="411" 
d="M143 752c-45 44 -65 67 -38 95l91 91c3 2 6 3 9 3c25 16 40 14 53 0l98 -99c10 -10 18 -15 33 -15c-44 -44 -67 -65 -95 -37l-65 66l-71 -71c-10 -10 -16 -18 -15 -33zM389 8c0 -12 12 -25 12 -25c-74 50 -94 84 -94 131v202c-17 -17 -32 -23 -53 -23h-129v-178
c0 -82 -74 -108 -115 -134c24 22 32 55 32 94v445c0 34 15 69 67 110c17 22 65 78 96 78c92 0 184 -56 184 -199v-501zM176 376h131v105c0 155 -113 185 -178 158c-2 -4 -4 -9 -4 -13v-272c16 16 31 22 51 22z" />
    <glyph glyph-name="Adieresis" unicode="&#xc4;" horiz-adv-x="411" 
d="M106 773l-43 44c-8 8 -26 8 -26 8c36 35 69 61 93 38l40 -39c9 -10 16 -14 31 -13c-28 -28 -67 -65 -95 -38zM287 773l-44 44c-8 8 -25 8 -25 8c35 35 69 61 93 38l39 -39c10 -10 17 -14 32 -13c-28 -28 -68 -65 -95 -38zM389 8c0 -12 12 -25 12 -25
c-74 50 -94 84 -94 131v202c-17 -17 -32 -23 -53 -23h-129v-178c0 -82 -74 -108 -115 -134c24 22 32 55 32 94v445c0 34 15 69 67 110c17 22 65 78 96 78c92 0 184 -56 184 -199v-501zM176 376h131v105c0 155 -113 185 -178 158c-2 -4 -4 -9 -4 -13v-272c16 16 31 22 51 22z
" />
    <glyph glyph-name="uni1EA0" unicode="&#x1ea0;" horiz-adv-x="411" 
d="M307 316c-17 -17 -32 -23 -53 -23h-129v-178c0 -82 -74 -108 -115 -134c24 22 32 55 32 94v445c0 34 15 69 67 110c17 22 65 78 96 78c92 0 184 -56 184 -199v-501c0 -12 12 -25 12 -25c-74 50 -94 84 -94 131v202zM125 354c16 16 31 22 51 22h131v105
c0 155 -113 185 -178 158c-2 -4 -4 -9 -4 -13v-272zM388 -96c11 -10 18 -13 33 -13c-29 -28 -68 -65 -95 -37l-44 44c-8 8 -25 8 -25 8c35 34 69 60 93 38z" />
    <glyph glyph-name="Agrave" unicode="&#xc0;" horiz-adv-x="411" 
d="M226 776l-77 77c-28 28 -7 51 38 96c-1 -15 4 -24 14 -34l71 -71c20 -19 15 -43 -36 -95c0 0 0 17 -10 27zM389 8c0 -12 12 -25 12 -25c-74 50 -94 84 -94 131v202c-17 -17 -32 -23 -53 -23h-129v-178c0 -82 -74 -108 -115 -134c24 22 32 55 32 94v445c0 34 15 69 67 110
c17 22 65 78 96 78c92 0 184 -56 184 -199v-501zM176 376h131v105c0 155 -113 185 -178 158c-2 -4 -4 -9 -4 -13v-272c16 16 31 22 51 22z" />
    <glyph glyph-name="Amacron" unicode="&#x100;" horiz-adv-x="411" 
d="M284 762h-221c-13 0 -29 -12 -29 -12c40 55 61 80 104 80h212c12 0 29 12 29 12c-38 -55 -57 -80 -95 -80zM389 8c0 -12 12 -25 12 -25c-74 50 -94 84 -94 131v202c-17 -17 -32 -23 -53 -23h-129v-178c0 -82 -74 -108 -115 -134c24 22 32 55 32 94v445c0 34 15 69 67 110
c17 22 65 78 96 78c92 0 184 -56 184 -199v-501zM176 376h131v105c0 155 -113 185 -178 158c-2 -4 -4 -9 -4 -13v-272c16 16 31 22 51 22z" />
    <glyph glyph-name="Aogonek" unicode="&#x104;" horiz-adv-x="411" 
d="M344 -63c0 -101 84 -121 121 -99c-16 -12 -52 -38 -70 -38c-67 0 -101 42 -101 133c0 23 13 59 57 89c-34 31 -44 58 -44 92v202c-17 -17 -32 -23 -53 -23h-129v-178c0 -82 -74 -108 -115 -134c24 22 32 55 32 94v445c0 34 15 69 67 110c17 22 65 78 96 78
c92 0 184 -56 184 -199v-501c0 -12 12 -25 12 -25c-21 14 -37 27 -50 39c-2 -3 -7 -9 -7 -14v-71zM176 376h131v105c0 155 -113 185 -178 158c-2 -4 -4 -9 -4 -13v-272c16 16 31 22 51 22zM465 -162l8 6c-2 -2 -5 -4 -8 -6z" />
    <glyph glyph-name="Aring" unicode="&#xc5;" horiz-adv-x="411" 
d="M116 889c0 19 9 47 37 72c-1 0 -1 0 -2 -1c1 1 3 2 4 4c6 4 12 9 19 14l-1 -1c16 12 35 23 46 23c56 0 102 -34 102 -121v-30c0 -24 -13 -44 -58 -73l1 1c-17 -11 -36 -22 -47 -22c-67 0 -101 43 -101 134zM270 863c0 89 -63 116 -103 105c-1 -2 -1 -3 -1 -5v-71
c0 -87 63 -114 104 -105v3v73zM151 960c-3 -2 -5 -4 -5 -4c2 2 3 3 5 4zM295 800l-8 -7c3 2 6 5 8 7zM389 8c0 -12 12 -25 12 -25c-74 50 -94 84 -94 131v202c-17 -17 -32 -23 -53 -23h-129v-178c0 -82 -74 -108 -115 -134c24 22 32 55 32 94v445c0 34 15 69 67 110
c17 22 65 78 96 78c92 0 184 -56 184 -199v-501zM176 376h131v105c0 155 -113 185 -178 158c-2 -4 -4 -9 -4 -13v-272c16 16 31 22 51 22z" />
    <glyph glyph-name="Aringacute" unicode="&#x1fa;" horiz-adv-x="411" 
d="M220 1075c-11 -10 -10 -27 -10 -27c-52 52 -56 76 -37 95l71 71c10 10 16 19 15 34c44 -45 65 -68 38 -96zM116 889c0 19 9 47 37 72c-1 0 -1 0 -2 -1c1 1 3 2 4 4c6 4 12 9 19 14l-1 -1c16 12 35 23 46 23c56 0 102 -34 102 -121v-30c0 -24 -13 -44 -58 -73l1 1
c-17 -11 -36 -22 -47 -22c-67 0 -101 43 -101 134zM270 863c0 89 -63 116 -103 105c-1 -2 -1 -3 -1 -5v-71c0 -87 63 -114 104 -105v3v73zM151 960c-3 -2 -5 -4 -5 -4c2 2 3 3 5 4zM295 800l-8 -7c3 2 6 5 8 7zM389 8c0 -12 12 -25 12 -25c-74 50 -94 84 -94 131v202
c-17 -17 -32 -23 -53 -23h-129v-178c0 -82 -74 -108 -115 -134c24 22 32 55 32 94v445c0 34 15 69 67 110c17 22 65 78 96 78c92 0 184 -56 184 -199v-501zM176 376h131v105c0 155 -113 185 -178 158c-2 -4 -4 -9 -4 -13v-272c16 16 31 22 51 22z" />
    <glyph glyph-name="Atilde" unicode="&#xc3;" horiz-adv-x="411" 
d="M101 811c-26 -3 -40 -22 -57 -55c22 50 46 81 77 77c70 1 141 -54 212 -40c24 2 40 22 56 55c-21 -51 -42 -80 -67 -79c-73 -5 -147 57 -221 42zM389 8c0 -12 12 -25 12 -25c-74 50 -94 84 -94 131v202c-17 -17 -32 -23 -53 -23h-129v-178c0 -82 -74 -108 -115 -134
c24 22 32 55 32 94v445c0 34 15 69 67 110c17 22 65 78 96 78c92 0 184 -56 184 -199v-501zM176 376h131v105c0 155 -113 185 -178 158c-2 -4 -4 -9 -4 -13v-272c16 16 31 22 51 22z" />
    <glyph glyph-name="AE" unicode="&#xc6;" horiz-adv-x="669" 
d="M402 78h227c11 0 25 11 25 11c-49 -72 -72 -90 -120 -90h-220c-16 -11 -31 -20 -44 -28c23 21 31 54 31 92v50c-1 5 -1 10 -1 16v177c-16 -15 -30 -21 -50 -21h-127v-176c0 -80 -72 -105 -113 -131c23 21 32 54 32 92v438c0 32 14 67 63 105c16 20 66 79 96 79
c49 0 98 -16 132 -54c34 46 59 59 90 59h211c12 0 25 12 25 12c-49 -73 -76 -93 -114 -93h-163v-214c15 11 29 15 46 15h133c11 0 24 12 24 12c-49 -74 -82 -93 -120 -93h-83v-220c0 -6 0 -12 -1 -17v-23c7 1 14 2 21 2zM174 366h126v104c0 151 -109 181 -173 155
c-2 -4 -4 -9 -4 -14v-267c16 16 30 22 51 22z" />
    <glyph glyph-name="AEacute" unicode="&#x1fc;" horiz-adv-x="669" 
d="M313 776c-11 -10 -10 -27 -10 -27c-52 52 -56 76 -37 95l71 71c10 10 16 19 15 34c44 -45 65 -68 38 -96zM402 78h227c11 0 25 11 25 11c-49 -72 -72 -90 -120 -90h-220c-16 -11 -31 -20 -44 -28c23 21 31 54 31 92v50c-1 5 -1 10 -1 16v177c-16 -15 -30 -21 -50 -21
h-127v-176c0 -80 -72 -105 -113 -131c23 21 32 54 32 92v438c0 32 14 67 63 105c16 20 66 79 96 79c49 0 98 -16 132 -54c34 46 59 59 90 59h211c12 0 25 12 25 12c-49 -73 -76 -93 -114 -93h-163v-214c15 11 29 15 46 15h133c11 0 24 12 24 12c-49 -74 -82 -93 -120 -93
h-83v-220c0 -6 0 -12 -1 -17v-23c7 1 14 2 21 2zM174 366h126v104c0 151 -109 181 -173 155c-2 -4 -4 -9 -4 -14v-267c16 16 30 22 51 22z" />
    <glyph glyph-name="B" unicode="B" horiz-adv-x="417" 
d="M407 237c0 -118 -110 -183 -151 -203c-17 -16 -35 -25 -57 -25h-145h-3c-12 -10 -25 -20 -41 -29c0 0 12 12 12 24v544c0 38 31 91 93 125l-5 -5l36 32h136c33 0 108 -11 108 -90c0 -66 -57 -144 -156 -211c70 2 173 -44 173 -162zM214 634c0 0 -64 2 -111 -2v-269
c125 68 208 147 208 207c0 53 -40 64 -97 64zM278 81c27 21 48 48 48 85c0 162 -131 177 -213 167c-3 -2 -7 -3 -10 -5v-228c0 -9 -2 -18 -5 -28c11 6 23 9 38 9h142z" />
    <glyph glyph-name="uni1E04" unicode="&#x1e04;" horiz-adv-x="417" 
d="M407 237c0 -118 -110 -183 -151 -203c-17 -16 -35 -25 -57 -25h-145h-3c-12 -10 -25 -20 -41 -29c0 0 12 12 12 24v544c0 38 31 91 93 125l-5 -5l36 32h136c33 0 108 -11 108 -90c0 -66 -57 -144 -156 -211c70 2 173 -44 173 -162zM214 634c0 0 -64 2 -111 -2v-269
c125 68 208 147 208 207c0 53 -40 64 -97 64zM278 81c27 21 48 48 48 85c0 162 -131 177 -213 167c-3 -2 -7 -3 -10 -5v-228c0 -9 -2 -18 -5 -28c11 6 23 9 38 9h142zM103 -56l38 -40c11 -10 18 -13 33 -13c-29 -28 -68 -65 -95 -37l-44 44c-8 8 -25 8 -25 8
c35 34 69 60 93 38z" />
    <glyph glyph-name="C" unicode="C" horiz-adv-x="361" 
d="M93 212c0 -169 201 -180 252 -129c0 0 -58 -92 -109 -92c-126 0 -225 57 -225 199v382c0 37 18 64 80 107c16 14 31 21 49 21h170c21 0 38 12 38 12c-46 -67 -67 -95 -105 -95l-150 1v-406z" />
    <glyph glyph-name="Cacute" unicode="&#x106;" horiz-adv-x="361" 
d="M159 776c-11 -10 -10 -27 -10 -27c-52 52 -56 76 -37 95l71 71c10 10 16 19 15 34c44 -45 65 -68 38 -96zM93 212c0 -169 201 -180 252 -129c0 0 -58 -92 -109 -92c-126 0 -225 57 -225 199v382c0 37 18 64 80 107c16 14 31 21 49 21h170c21 0 38 12 38 12
c-46 -67 -67 -95 -105 -95l-150 1v-406z" />
    <glyph glyph-name="Ccaron" unicode="&#x10c;" horiz-adv-x="361" 
d="M170 766l-91 91c-27 28 -7 51 38 95c-1 -15 5 -23 15 -33l71 -71l65 66c28 28 51 7 95 -37c-15 0 -23 -5 -33 -15l-98 -99c-13 -14 -28 -16 -53 0c-3 0 -6 1 -9 3zM243 617l-150 1v-406c0 -169 201 -180 252 -129c0 0 -58 -92 -109 -92c-126 0 -225 57 -225 199v382
c0 37 18 64 80 107c16 14 31 21 49 21h170c21 0 38 12 38 12c-46 -67 -67 -95 -105 -95z" />
    <glyph glyph-name="Ccedilla" unicode="&#xc7;" horiz-adv-x="361" 
d="M93 212c0 -169 201 -180 252 -129c0 0 -58 -92 -109 -92c-126 0 -225 57 -225 199v382c0 37 18 64 80 107c16 14 31 21 49 21h170c21 0 38 12 38 12c-46 -67 -67 -95 -105 -95l-150 1v-406zM252 -25c10 -5 17 -12 23 -22c21 -25 28 -50 28 -68c0 -84 -40 -125 -109 -125
c-18 0 -58 27 -76 40c40 -23 132 0 132 92v18h-43c-40 0 -54 23 -88 84c0 0 17 -13 36 -13h59c13 0 23 -1 32 -4c-2 3 -4 5 -4 5zM118 -200c-3 2 -6 4 -8 6z" />
    <glyph glyph-name="Ccircumflex" unicode="&#x108;" horiz-adv-x="361" 
d="M117 752c-45 44 -65 67 -38 95l91 91c3 2 6 3 9 3c25 16 40 14 53 0l98 -99c10 -10 18 -15 33 -15c-44 -44 -67 -65 -95 -37l-65 66l-71 -71c-10 -10 -16 -18 -15 -33zM243 617l-150 1v-406c0 -169 201 -180 252 -129c0 0 -58 -92 -109 -92c-126 0 -225 57 -225 199v382
c0 37 18 64 80 107c16 14 31 21 49 21h170c21 0 38 12 38 12c-46 -67 -67 -95 -105 -95z" />
    <glyph glyph-name="Cdotaccent" unicode="&#x10a;" horiz-adv-x="361" 
d="M165 768l-44 44c-8 8 -25 8 -25 8c35 34 69 60 93 38l38 -40c11 -10 18 -13 33 -13c-29 -28 -68 -65 -95 -37zM93 212c0 -169 201 -180 252 -129c0 0 -58 -92 -109 -92c-126 0 -225 57 -225 199v382c0 37 18 64 80 107c16 14 31 21 49 21h170c21 0 38 12 38 12
c-46 -67 -67 -95 -105 -95l-150 1v-406z" />
    <glyph glyph-name="D" unicode="D" horiz-adv-x="409" 
d="M399 511v-326v-2c0 -126 -92 -183 -204 -183h-8h-139h-1c-14 -9 -26 -16 -37 -23c24 22 32 55 32 94v506c0 11 2 21 6 31c-11 -1 -18 -3 -21 -6c0 0 65 99 102 99c10 0 117 -1 127 -2c78 -12 143 -84 143 -188zM233 83c21 0 84 17 84 93v292c0 129 -56 146 -101 146
c-12 0 -52 0 -92 -1v-489c0 -16 -2 -30 -7 -43c7 1 13 2 20 2h96z" />
    <glyph glyph-name="Eth" unicode="&#xd0;" horiz-adv-x="566" 
d="M516 511v-326v-2c0 -126 -92 -183 -203 -183h-8h-139h-2c-13 -9 -26 -16 -36 -23c23 22 31 55 31 94v254h-86c-11 0 -23 -12 -23 -12c38 51 60 72 97 72h12v192c0 11 2 21 6 31c-10 -1 -17 -3 -20 -6c0 0 65 99 101 99c11 0 117 -1 128 -2c78 -12 142 -84 142 -188z
M350 83c22 0 85 17 85 93v292c0 129 -57 146 -101 146c-12 0 -52 0 -92 -1v-228h83c12 0 24 11 24 11c-36 -53 -60 -71 -97 -71h-10v-201c0 -16 -2 -30 -7 -43c6 1 13 2 20 2h95z" />
    <glyph glyph-name="Dcaron" unicode="&#x10e;" horiz-adv-x="409" 
d="M194 766l-91 91c-27 28 -7 51 38 95c-1 -15 5 -23 15 -33l71 -71l65 66c28 28 51 7 95 -37c-15 0 -23 -5 -33 -15l-98 -99c-13 -14 -28 -16 -53 0c-3 0 -6 1 -9 3zM399 511v-326v-2c0 -126 -92 -183 -204 -183h-8h-139h-1c-14 -9 -26 -16 -37 -23c24 22 32 55 32 94v506
c0 11 2 21 6 31c-11 -1 -18 -3 -21 -6c0 0 65 99 102 99c10 0 117 -1 127 -2c78 -12 143 -84 143 -188zM233 83c21 0 84 17 84 93v292c0 129 -56 146 -101 146c-12 0 -52 0 -92 -1v-489c0 -16 -2 -30 -7 -43c7 1 13 2 20 2h96z" />
    <glyph glyph-name="Dcroat" unicode="&#x110;" horiz-adv-x="566" 
d="M516 511v-326v-2c0 -126 -92 -183 -203 -183h-8h-139h-2c-13 -9 -26 -16 -36 -23c23 22 31 55 31 94v254h-86c-11 0 -23 -12 -23 -12c38 51 60 72 97 72h12v192c0 11 2 21 6 31c-10 -1 -17 -3 -20 -6c0 0 65 99 101 99c11 0 117 -1 128 -2c78 -12 142 -84 142 -188z
M350 83c22 0 85 17 85 93v292c0 129 -57 146 -101 146c-12 0 -52 0 -92 -1v-228h83c12 0 24 11 24 11c-36 -53 -60 -71 -97 -71h-10v-201c0 -16 -2 -30 -7 -43c6 1 13 2 20 2h95z" />
    <glyph glyph-name="uni1E0C" unicode="&#x1e0c;" horiz-adv-x="409" 
d="M399 511v-326v-2c0 -126 -92 -183 -204 -183h-8h-139h-1c-14 -9 -26 -16 -37 -23c24 22 32 55 32 94v506c0 11 2 21 6 31c-11 -1 -18 -3 -21 -6c0 0 65 99 102 99c10 0 117 -1 127 -2c78 -12 143 -84 143 -188zM233 83c21 0 84 17 84 93v292c0 129 -56 146 -101 146
c-12 0 -52 0 -92 -1v-489c0 -16 -2 -30 -7 -43c7 1 13 2 20 2h96zM249 -56l38 -40c11 -10 18 -13 33 -13c-29 -28 -68 -65 -95 -37l-44 44c-8 8 -25 8 -25 8c35 34 69 60 93 38z" />
    <glyph glyph-name="E" unicode="E" 
d="M144 78h232c11 0 23 11 23 11c-49 -71 -72 -89 -120 -89h-225h-4c-14 -10 -28 -18 -40 -25c25 22 32 55 32 92v488c0 19 6 38 22 58c-8 -4 -14 -10 -14 -10c49 75 78 96 115 96h217c11 0 23 11 23 11c-48 -72 -78 -93 -116 -93h-163v-216c14 10 28 13 45 13h133
c14 0 25 14 25 14c-48 -73 -82 -95 -120 -95h-83v-213c0 -17 -3 -32 -8 -46c8 3 17 4 26 4z" />
    <glyph glyph-name="Eacute" unicode="&#xc9;" 
d="M186 776c-11 -10 -10 -27 -10 -27c-52 52 -56 76 -37 95l71 71c10 10 16 19 15 34c44 -45 65 -68 38 -96zM144 78h232c11 0 23 11 23 11c-49 -71 -72 -89 -120 -89h-225h-4c-14 -10 -28 -18 -40 -25c25 22 32 55 32 92v488c0 19 6 38 22 58c-8 -4 -14 -10 -14 -10
c49 75 78 96 115 96h217c11 0 23 11 23 11c-48 -72 -78 -93 -116 -93h-163v-216c14 10 28 13 45 13h133c14 0 25 14 25 14c-48 -73 -82 -95 -120 -95h-83v-213c0 -17 -3 -32 -8 -46c8 3 17 4 26 4z" />
    <glyph glyph-name="Ebreve" unicode="&#x114;" 
d="M300 805c-59 -59 -120 -62 -169 -12c-12 14 -21 61 -24 83c12 -45 93 -94 158 -29l53 53c5 5 5 17 5 17c12 -57 -4 -94 -23 -112zM107 876c-1 3 -2 7 -2 10zM144 78h232c11 0 23 11 23 11c-49 -71 -72 -89 -120 -89h-225h-4c-14 -10 -28 -18 -40 -25c25 22 32 55 32 92
v488c0 19 6 38 22 58c-8 -4 -14 -10 -14 -10c49 75 78 96 115 96h217c11 0 23 11 23 11c-48 -72 -78 -93 -116 -93h-163v-216c14 10 28 13 45 13h133c14 0 25 14 25 14c-48 -73 -82 -95 -120 -95h-83v-213c0 -17 -3 -32 -8 -46c8 3 17 4 26 4z" />
    <glyph glyph-name="Ecaron" unicode="&#x11a;" 
d="M197 766l-91 91c-27 28 -7 51 38 95c-1 -15 5 -23 15 -33l71 -71l65 66c28 28 51 7 95 -37c-15 0 -23 -5 -33 -15l-98 -99c-13 -14 -28 -16 -53 0c-3 0 -6 1 -9 3zM144 78h232c11 0 23 11 23 11c-49 -71 -72 -89 -120 -89h-225h-4c-14 -10 -28 -18 -40 -25
c25 22 32 55 32 92v488c0 19 6 38 22 58c-8 -4 -14 -10 -14 -10c49 75 78 96 115 96h217c11 0 23 11 23 11c-48 -72 -78 -93 -116 -93h-163v-216c14 10 28 13 45 13h133c14 0 25 14 25 14c-48 -73 -82 -95 -120 -95h-83v-213c0 -17 -3 -32 -8 -46c8 3 17 4 26 4z" />
    <glyph glyph-name="uni0228" unicode="&#x228;" 
d="M144 78h232c11 0 23 11 23 11c-49 -71 -72 -89 -120 -89h-225h-4c-14 -10 -28 -18 -40 -25c25 22 32 55 32 92v488c0 19 6 38 22 58c-8 -4 -14 -10 -14 -10c49 75 78 96 115 96h217c11 0 23 11 23 11c-48 -72 -78 -93 -116 -93h-163v-216c14 10 28 13 45 13h133
c14 0 25 14 25 14c-48 -73 -82 -95 -120 -95h-83v-213c0 -17 -3 -32 -8 -46c8 3 17 4 26 4zM279 -25c10 -5 17 -12 23 -22c21 -25 28 -50 28 -68c0 -84 -40 -125 -109 -125c-18 0 -58 27 -76 40c40 -23 132 0 132 92v18h-43c-40 0 -54 23 -88 84c0 0 17 -13 36 -13h59
c13 0 23 -1 32 -4c-2 3 -4 5 -4 5zM145 -200c-3 2 -6 4 -8 6z" />
    <glyph glyph-name="Ecircumflex" unicode="&#xca;" 
d="M144 752c-45 44 -65 67 -38 95l91 91c3 2 6 3 9 3c25 16 40 14 53 0l98 -99c10 -10 18 -15 33 -15c-44 -44 -67 -65 -95 -37l-65 66l-71 -71c-10 -10 -16 -18 -15 -33zM144 78h232c11 0 23 11 23 11c-49 -71 -72 -89 -120 -89h-225h-4c-14 -10 -28 -18 -40 -25
c25 22 32 55 32 92v488c0 19 6 38 22 58c-8 -4 -14 -10 -14 -10c49 75 78 96 115 96h217c11 0 23 11 23 11c-48 -72 -78 -93 -116 -93h-163v-216c14 10 28 13 45 13h133c14 0 25 14 25 14c-48 -73 -82 -95 -120 -95h-83v-213c0 -17 -3 -32 -8 -46c8 3 17 4 26 4z" />
    <glyph glyph-name="Edieresis" unicode="&#xcb;" 
d="M108 773l-43 44c-8 8 -26 8 -26 8c36 35 69 61 93 38l40 -39c9 -10 16 -14 31 -13c-28 -28 -67 -65 -95 -38zM289 773l-44 44c-8 8 -25 8 -25 8c35 35 69 61 93 38l39 -39c10 -10 17 -14 32 -13c-28 -28 -68 -65 -95 -38zM144 78h232c11 0 23 11 23 11
c-49 -71 -72 -89 -120 -89h-225h-4c-14 -10 -28 -18 -40 -25c25 22 32 55 32 92v488c0 19 6 38 22 58c-8 -4 -14 -10 -14 -10c49 75 78 96 115 96h217c11 0 23 11 23 11c-48 -72 -78 -93 -116 -93h-163v-216c14 10 28 13 45 13h133c14 0 25 14 25 14
c-48 -73 -82 -95 -120 -95h-83v-213c0 -17 -3 -32 -8 -46c8 3 17 4 26 4z" />
    <glyph glyph-name="Edotaccent" unicode="&#x116;" 
d="M192 768l-44 44c-8 8 -25 8 -25 8c35 34 69 60 93 38l38 -40c11 -10 18 -13 33 -13c-29 -28 -68 -65 -95 -37zM144 78h232c11 0 23 11 23 11c-49 -71 -72 -89 -120 -89h-225h-4c-14 -10 -28 -18 -40 -25c25 22 32 55 32 92v488c0 19 6 38 22 58c-8 -4 -14 -10 -14 -10
c49 75 78 96 115 96h217c11 0 23 11 23 11c-48 -72 -78 -93 -116 -93h-163v-216c14 10 28 13 45 13h133c14 0 25 14 25 14c-48 -73 -82 -95 -120 -95h-83v-213c0 -17 -3 -32 -8 -46c8 3 17 4 26 4z" />
    <glyph glyph-name="uni1EB8" unicode="&#x1eb8;" 
d="M144 78h232c11 0 23 11 23 11c-49 -71 -72 -89 -120 -89h-225h-4c-14 -10 -28 -18 -40 -25c25 22 32 55 32 92v488c0 19 6 38 22 58c-8 -4 -14 -10 -14 -10c49 75 78 96 115 96h217c11 0 23 11 23 11c-48 -72 -78 -93 -116 -93h-163v-216c14 10 28 13 45 13h133
c14 0 25 14 25 14c-48 -73 -82 -95 -120 -95h-83v-213c0 -17 -3 -32 -8 -46c8 3 17 4 26 4zM252 -56l38 -40c11 -10 18 -13 33 -13c-29 -28 -68 -65 -95 -37l-44 44c-8 8 -25 8 -25 8c35 34 69 60 93 38z" />
    <glyph glyph-name="Egrave" unicode="&#xc8;" 
d="M228 776l-77 77c-28 28 -7 51 38 96c-1 -15 4 -24 14 -34l71 -71c20 -19 15 -43 -36 -95c0 0 0 17 -10 27zM144 78h232c11 0 23 11 23 11c-49 -71 -72 -89 -120 -89h-225h-4c-14 -10 -28 -18 -40 -25c25 22 32 55 32 92v488c0 19 6 38 22 58c-8 -4 -14 -10 -14 -10
c49 75 78 96 115 96h217c11 0 23 11 23 11c-48 -72 -78 -93 -116 -93h-163v-216c14 10 28 13 45 13h133c14 0 25 14 25 14c-48 -73 -82 -95 -120 -95h-83v-213c0 -17 -3 -32 -8 -46c8 3 17 4 26 4z" />
    <glyph glyph-name="Emacron" unicode="&#x112;" 
d="M285 762h-221c-13 0 -29 -12 -29 -12c40 55 61 80 104 80h212c12 0 29 12 29 12c-38 -55 -57 -80 -95 -80zM144 78h232c11 0 23 11 23 11c-49 -71 -72 -89 -120 -89h-225h-4c-14 -10 -28 -18 -40 -25c25 22 32 55 32 92v488c0 19 6 38 22 58c-8 -4 -14 -10 -14 -10
c49 75 78 96 115 96h217c11 0 23 11 23 11c-48 -72 -78 -93 -116 -93h-163v-216c14 10 28 13 45 13h133c14 0 25 14 25 14c-48 -73 -82 -95 -120 -95h-83v-213c0 -17 -3 -32 -8 -46c8 3 17 4 26 4z" />
    <glyph glyph-name="Eogonek" unicode="&#x118;" 
d="M279 0h-33v-63c0 -101 84 -121 121 -99c-16 -12 -52 -38 -70 -38c-67 0 -101 42 -101 133c0 17 7 43 30 67h-172h-4c-14 -10 -28 -18 -40 -25c25 22 32 55 32 92v488c0 19 6 38 22 58c-8 -4 -14 -10 -14 -10c49 75 78 96 115 96h217c11 0 23 11 23 11
c-48 -72 -78 -93 -116 -93h-163v-216c14 10 28 13 45 13h133c14 0 25 14 25 14c-48 -73 -82 -95 -120 -95h-83v-213c0 -17 -3 -32 -8 -46c8 3 17 4 26 4h232c11 0 23 11 23 11c-49 -71 -72 -89 -120 -89zM367 -162l8 6c-2 -2 -5 -4 -8 -6z" />
    <glyph glyph-name="uni1EBC" unicode="&#x1ebc;" 
d="M102 811c-26 -3 -40 -22 -57 -55c22 50 46 81 77 77c70 1 141 -54 212 -40c24 2 40 22 56 55c-21 -51 -42 -80 -67 -79c-73 -5 -147 57 -221 42zM144 78h232c11 0 23 11 23 11c-49 -71 -72 -89 -120 -89h-225h-4c-14 -10 -28 -18 -40 -25c25 22 32 55 32 92v488
c0 19 6 38 22 58c-8 -4 -14 -10 -14 -10c49 75 78 96 115 96h217c11 0 23 11 23 11c-48 -72 -78 -93 -116 -93h-163v-216c14 10 28 13 45 13h133c14 0 25 14 25 14c-48 -73 -82 -95 -120 -95h-83v-213c0 -17 -3 -32 -8 -46c8 3 17 4 26 4z" />
    <glyph glyph-name="F" unicode="F" horiz-adv-x="423" 
d="M299 618h-177v-213c15 11 30 15 47 15h141c11 0 24 11 24 11c-49 -72 -82 -92 -119 -92h-93v-219c0 -86 -72 -118 -112 -144c23 21 31 54 31 91v490c0 20 6 38 22 58c-8 -3 -14 -9 -14 -9c48 69 76 93 114 93h226c12 0 24 12 24 12c-49 -73 -76 -93 -114 -93z" />
    <glyph glyph-name="G" unicode="G" horiz-adv-x="388" 
d="M376 373c-3 -4 -6 -8 -8 -12l3 2s-12 -13 -12 -24v-181c0 -86 -69 -116 -111 -142c-16 -14 -33 -25 -47 -25c-91 0 -190 56 -190 198v384c0 34 16 59 73 100c18 19 33 26 55 26h206c14 0 29 12 29 12c-49 -73 -66 -93 -104 -93h-177v-397c0 -157 112 -189 178 -166
c5 16 7 34 7 53v145c0 10 1 18 4 27c-3 -1 -6 -1 -10 -1h-89c-11 0 -24 -12 -24 -12c49 74 67 94 105 94h88c12 0 24 12 24 12z" />
    <glyph glyph-name="Gbreve" unicode="&#x11e;" horiz-adv-x="388" 
d="M286 805c-59 -59 -120 -62 -169 -12c-12 14 -21 61 -24 83c12 -45 93 -94 158 -29l53 53c5 5 5 17 5 17c12 -57 -4 -94 -23 -112zM93 876c-1 3 -2 7 -2 10zM376 373c-3 -4 -6 -8 -8 -12l3 2s-12 -13 -12 -24v-181c0 -86 -69 -116 -111 -142c-16 -14 -33 -25 -47 -25
c-91 0 -190 56 -190 198v384c0 34 16 59 73 100c18 19 33 26 55 26h206c14 0 29 12 29 12c-49 -73 -66 -93 -104 -93h-177v-397c0 -157 112 -189 178 -166c5 16 7 34 7 53v145c0 10 1 18 4 27c-3 -1 -6 -1 -10 -1h-89c-11 0 -24 -12 -24 -12c49 74 67 94 105 94h88
c12 0 24 12 24 12z" />
    <glyph glyph-name="Gcaron" unicode="&#x1e6;" horiz-adv-x="388" 
d="M184 766l-91 91c-27 28 -7 51 38 95c-1 -15 5 -23 15 -33l71 -71l65 66c28 28 51 7 95 -37c-15 0 -23 -5 -33 -15l-98 -99c-13 -14 -28 -16 -53 0c-3 0 -6 1 -9 3zM352 361c12 0 24 12 24 12c-3 -4 -6 -8 -8 -12l3 2s-12 -13 -12 -24v-181c0 -86 -69 -116 -111 -142
c-16 -14 -33 -25 -47 -25c-91 0 -190 56 -190 198v384c0 34 16 59 73 100c18 19 33 26 55 26h206c14 0 29 12 29 12c-49 -73 -66 -93 -104 -93h-177v-397c0 -157 112 -189 178 -166c5 16 7 34 7 53v145c0 10 1 18 4 27c-3 -1 -6 -1 -10 -1h-89c-11 0 -24 -12 -24 -12
c49 74 67 94 105 94h88z" />
    <glyph glyph-name="Gcircumflex" unicode="&#x11c;" horiz-adv-x="388" 
d="M131 752c-45 44 -65 67 -38 95l91 91c3 2 6 3 9 3c25 16 40 14 53 0l98 -99c10 -10 18 -15 33 -15c-44 -44 -67 -65 -95 -37l-65 66l-71 -71c-10 -10 -16 -18 -15 -33zM352 361c12 0 24 12 24 12c-3 -4 -6 -8 -8 -12l3 2s-12 -13 -12 -24v-181c0 -86 -69 -116 -111 -142
c-16 -14 -33 -25 -47 -25c-91 0 -190 56 -190 198v384c0 34 16 59 73 100c18 19 33 26 55 26h206c14 0 29 12 29 12c-49 -73 -66 -93 -104 -93h-177v-397c0 -157 112 -189 178 -166c5 16 7 34 7 53v145c0 10 1 18 4 27c-3 -1 -6 -1 -10 -1h-89c-11 0 -24 -12 -24 -12
c49 74 67 94 105 94h88z" />
    <glyph glyph-name="uni0122" unicode="&#x122;" horiz-adv-x="388" 
d="M205 755c16 42 -21 134 -68 108l-7 6c35 36 85 50 105 31c37 -40 10 -119 -18 -148zM376 373c-3 -4 -6 -8 -8 -12l3 2s-12 -13 -12 -24v-181c0 -86 -69 -116 -111 -142c-16 -14 -33 -25 -47 -25c-91 0 -190 56 -190 198v384c0 34 16 59 73 100c18 19 33 26 55 26h206
c14 0 29 12 29 12c-49 -73 -66 -93 -104 -93h-177v-397c0 -157 112 -189 178 -166c5 16 7 34 7 53v145c0 10 1 18 4 27c-3 -1 -6 -1 -10 -1h-89c-11 0 -24 -12 -24 -12c49 74 67 94 105 94h88c12 0 24 12 24 12z" />
    <glyph glyph-name="Gdotaccent" unicode="&#x120;" horiz-adv-x="388" 
d="M179 768l-44 44c-8 8 -25 8 -25 8c35 34 69 60 93 38l38 -40c11 -10 18 -13 33 -13c-29 -28 -68 -65 -95 -37zM376 373c-3 -4 -6 -8 -8 -12l3 2s-12 -13 -12 -24v-181c0 -86 -69 -116 -111 -142c-16 -14 -33 -25 -47 -25c-91 0 -190 56 -190 198v384c0 34 16 59 73 100
c18 19 33 26 55 26h206c14 0 29 12 29 12c-49 -73 -66 -93 -104 -93h-177v-397c0 -157 112 -189 178 -166c5 16 7 34 7 53v145c0 10 1 18 4 27c-3 -1 -6 -1 -10 -1h-89c-11 0 -24 -12 -24 -12c49 74 67 94 105 94h88c12 0 24 12 24 12z" />
    <glyph glyph-name="H" unicode="H" horiz-adv-x="395" 
d="M292 595c0 37 25 72 93 110c0 0 -11 -14 -11 -24v-556c0 -88 -73 -119 -114 -145c25 21 32 56 32 93v279c-20 -15 -38 -20 -57 -20h-114v-207c0 -88 -73 -119 -111 -145c22 21 31 56 31 93v522c0 37 21 75 91 110c0 0 -11 -14 -11 -24v-289c17 14 32 19 51 19h120v184z
" />
    <glyph glyph-name="Hbar" unicode="&#x126;" horiz-adv-x="643" 
d="M565 581c11 0 28 12 28 12c-37 -55 -57 -80 -95 -80h-16v-388c0 -88 -72 -119 -113 -145c24 21 32 56 32 93v279c-20 -15 -38 -20 -57 -20h-115v-207c0 -88 -72 -119 -110 -145c21 21 31 56 31 93v440h-71c-13 0 -29 -12 -29 -12c39 53 60 78 100 80v14
c0 37 20 75 91 110c0 0 -12 -14 -12 -24v-100h172v14c0 37 25 72 93 110c0 0 -12 -14 -12 -24v-100h83zM401 411v102h-172v-122c17 15 33 20 52 20h120z" />
    <glyph glyph-name="Hcircumflex" unicode="&#x124;" horiz-adv-x="395" 
d="M134 752c-45 44 -65 67 -38 95l91 91c3 2 6 3 9 3c25 16 40 14 53 0l98 -99c10 -10 18 -15 33 -15c-44 -44 -67 -65 -95 -37l-65 66l-71 -71c-10 -10 -16 -18 -15 -33zM292 595c0 37 25 72 93 110c0 0 -11 -14 -11 -24v-556c0 -88 -73 -119 -114 -145c25 21 32 56 32 93
v279c-20 -15 -38 -20 -57 -20h-114v-207c0 -88 -73 -119 -111 -145c22 21 31 56 31 93v522c0 37 21 75 91 110c0 0 -11 -14 -11 -24v-289c17 14 32 19 51 19h120v184z" />
    <glyph glyph-name="uni1E24" unicode="&#x1e24;" horiz-adv-x="395" 
d="M292 595c0 37 25 72 93 110c0 0 -11 -14 -11 -24v-556c0 -88 -73 -119 -114 -145c25 21 32 56 32 93v279c-20 -15 -38 -20 -57 -20h-114v-207c0 -88 -73 -119 -111 -145c22 21 31 56 31 93v522c0 37 21 75 91 110c0 0 -11 -14 -11 -24v-289c17 14 32 19 51 19h120v184z
M242 -56l38 -40c11 -10 18 -13 33 -13c-29 -28 -68 -65 -95 -37l-44 44c-8 8 -25 8 -25 8c35 34 69 60 93 38z" />
    <glyph glyph-name="I" unicode="I" horiz-adv-x="144" 
d="M122 123c0 -85 -71 -128 -112 -143c23 21 31 54 31 91v523c0 38 20 71 93 111c0 0 -12 -12 -12 -23v-559z" />
    <glyph glyph-name="IJ" unicode="&#x132;" horiz-adv-x="495" 
d="M391 591c0 38 28 77 94 120c0 0 -12 -13 -12 -24v-528c0 -72 -51 -107 -92 -131c-21 -20 -43 -37 -59 -37c-79 0 -168 56 -168 197v21c0 38 24 76 88 120c0 0 -12 -15 -12 -32v-74c0 -142 91 -176 156 -162c4 14 5 30 5 46v484zM41 594c0 38 20 71 93 111
c0 0 -12 -12 -12 -23v-559c0 -85 -71 -128 -112 -143c23 21 31 54 31 91v523z" />
    <glyph glyph-name="Iacute" unicode="&#xcd;" horiz-adv-x="144" 
d="M127 853c27 28 6 51 -38 96c1 -15 -5 -24 -15 -34l-71 -71c-20 -19 -15 -43 37 -95c0 0 -1 17 10 27zM122 123c0 -85 -71 -128 -112 -143c23 21 31 54 31 91v523c0 38 20 71 93 111c0 0 -12 -12 -12 -23v-559z" />
    <glyph glyph-name="Ibreve" unicode="&#x12c;" horiz-adv-x="144" 
d="M187 917c12 -57 -4 -94 -23 -112c-59 -59 -120 -62 -169 -12c-13 14 -21 61 -24 82c12 -45 93 -93 158 -28l53 53c5 5 5 17 5 17zM-29 875c-1 4 -2 7 -2 11zM41 594c0 38 20 71 93 111c0 0 -12 -12 -12 -23v-559c0 -85 -71 -128 -112 -143c23 21 31 54 31 91v523z" />
    <glyph glyph-name="uni01CF" unicode="&#x1cf;" horiz-adv-x="144" 
d="M159 914c28 28 51 7 95 -37c-15 0 -23 -5 -33 -15l-98 -99c-13 -14 -28 -16 -53 0c-3 0 -6 1 -9 3l-92 91c-27 28 -6 51 39 95c-1 -15 5 -23 15 -33l71 -71zM41 594c0 38 20 71 93 111c0 0 -12 -12 -12 -23v-559c0 -85 -71 -128 -112 -143c23 21 31 54 31 91v523z" />
    <glyph glyph-name="Icircumflex" unicode="&#xce;" horiz-adv-x="144" 
d="M221 842c10 -10 18 -15 33 -15c-44 -44 -67 -65 -95 -37l-65 66l-71 -71c-10 -10 -16 -18 -15 -33c-45 44 -66 67 -39 95l92 91c3 2 6 3 9 3c25 16 40 14 53 0zM41 594c0 38 20 71 93 111c0 0 -12 -12 -12 -23v-559c0 -85 -71 -128 -112 -143c23 21 31 54 31 91v523z" />
    <glyph glyph-name="Idieresis" unicode="&#xcf;" horiz-adv-x="144" 
d="M-29 773c28 -27 68 10 96 38c-15 -1 -22 3 -31 13l-40 39c-24 23 -58 -3 -93 -38c0 0 17 0 25 -8zM153 773c27 -27 67 10 95 38c-15 -1 -22 3 -32 13l-39 39c-24 23 -58 -3 -93 -38c0 0 17 0 25 -8zM122 123c0 -85 -71 -128 -112 -143c23 21 31 54 31 91v523
c0 38 20 71 93 111c0 0 -12 -12 -12 -23v-559z" />
    <glyph glyph-name="Idotaccent" unicode="&#x130;" horiz-adv-x="144" 
d="M56 768c27 -28 66 9 95 37c-15 0 -22 3 -33 13l-38 40c-24 22 -58 -4 -93 -38c0 0 17 0 25 -8zM122 123c0 -85 -71 -128 -112 -143c23 21 31 54 31 91v523c0 38 20 71 93 111c0 0 -12 -12 -12 -23v-559z" />
    <glyph glyph-name="uni1ECA" unicode="&#x1eca;" horiz-adv-x="144" 
d="M122 123c0 -85 -71 -128 -112 -143c23 21 31 54 31 91v523c0 38 20 71 93 111c0 0 -12 -12 -12 -23v-559zM92 -146c27 -28 66 9 95 37c-15 0 -22 3 -33 13l-38 40c-24 22 -58 -4 -93 -38c0 0 17 0 25 -8z" />
    <glyph glyph-name="Igrave" unicode="&#xcc;" horiz-adv-x="144" 
d="M15 853l77 -77c10 -10 10 -27 10 -27c51 52 56 76 36 95l-71 71c-10 10 -15 19 -14 34c-45 -45 -66 -68 -38 -96zM122 123c0 -85 -71 -128 -112 -143c23 21 31 54 31 91v523c0 38 20 71 93 111c0 0 -12 -12 -12 -23v-559z" />
    <glyph glyph-name="Imacron" unicode="&#x12a;" horiz-adv-x="144" 
d="M215 830h-212c-43 0 -65 -25 -104 -80c0 0 15 12 29 12h221c38 0 57 25 95 80c0 0 -17 -12 -29 -12zM122 123c0 -85 -71 -128 -112 -143c23 21 31 54 31 91v523c0 38 20 71 93 111c0 0 -12 -12 -12 -23v-559z" />
    <glyph glyph-name="Iogonek" unicode="&#x12e;" horiz-adv-x="144" 
d="M122 123c0 -85 -71 -128 -112 -143c23 21 31 54 31 91v523c0 38 20 71 93 111c0 0 -12 -12 -12 -23v-559zM110 -63c0 -101 84 -121 121 -99c-16 -12 -52 -38 -70 -38c-67 0 -101 42 -101 133c0 23 13 60 58 90c0 0 -8 -8 -8 -15v-71zM231 -162l8 6c-2 -2 -5 -4 -8 -6z
" />
    <glyph glyph-name="Itilde" unicode="&#x128;" horiz-adv-x="144" 
d="M187 769c-73 -5 -147 57 -221 42c-27 -3 -40 -22 -57 -55c22 50 46 81 76 77c71 1 142 -54 213 -40c24 2 40 22 56 55c-21 -51 -42 -80 -67 -79zM122 123c0 -85 -71 -128 -112 -143c23 21 31 54 31 91v523c0 38 20 71 93 111c0 0 -12 -12 -12 -23v-559z" />
    <glyph glyph-name="J" unicode="J" horiz-adv-x="351" 
d="M247 591c0 38 28 77 94 120c0 0 -12 -13 -12 -24v-528c0 -72 -51 -107 -92 -131c-21 -20 -43 -37 -59 -37c-79 0 -168 56 -168 197v21c0 38 24 76 88 120c0 0 -12 -15 -12 -32v-74c0 -142 91 -176 156 -162c4 14 5 30 5 46v484z" />
    <glyph glyph-name="Jcircumflex" unicode="&#x134;" horiz-adv-x="351" 
d="M112 752c-45 44 -65 67 -38 95l91 91c3 2 6 3 9 3c25 16 40 14 53 0l98 -99c10 -10 18 -15 33 -15c-44 -44 -67 -65 -95 -37l-65 66l-71 -71c-10 -10 -16 -18 -15 -33zM247 591c0 38 28 77 94 120c0 0 -12 -13 -12 -24v-528c0 -72 -51 -107 -92 -131
c-21 -20 -43 -37 -59 -37c-79 0 -168 56 -168 197v21c0 38 24 76 88 120c0 0 -12 -15 -12 -32v-74c0 -142 91 -176 156 -162c4 14 5 30 5 46v484z" />
    <glyph glyph-name="K" unicode="K" horiz-adv-x="414" 
d="M341 88c23 -44 63 -19 63 -19c-6 -39 -26 -64 -62 -71c-22 -5 -45 7 -58 31l-111 245c-11 21 -23 32 -35 37c-7 -2 -16 -4 -25 -5v-203c0 -62 -52 -88 -103 -123c12 10 22 33 22 58v550c0 38 26 76 93 122c0 0 -12 -17 -12 -29v-319l139 279c23 39 56 68 136 69
c0 0 -17 -4 -23 -14l-160 -322c7 -8 14 -17 18 -25z" />
    <glyph glyph-name="uni0136" unicode="&#x136;" horiz-adv-x="414" 
d="M211 755c16 42 -21 134 -68 108l-7 6c35 36 85 50 105 31c37 -40 10 -119 -18 -148zM341 88c23 -44 63 -19 63 -19c-6 -39 -26 -64 -62 -71c-22 -5 -45 7 -58 31l-111 245c-11 21 -23 32 -35 37c-7 -2 -16 -4 -25 -5v-203c0 -62 -52 -88 -103 -123c12 10 22 33 22 58v550
c0 38 26 76 93 122c0 0 -12 -17 -12 -29v-319l139 279c23 39 56 68 136 69c0 0 -17 -4 -23 -14l-160 -322c7 -8 14 -17 18 -25z" />
    <glyph glyph-name="L" unicode="L" 
d="M375 79c14 0 30 11 30 11c-42 -65 -69 -93 -103 -93h-246c-16 -11 -33 -19 -46 -27c24 21 32 54 32 92v614c0 12 -12 24 -12 24c73 -45 92 -73 92 -111v-480c0 -12 -1 -23 -4 -33c8 2 15 3 23 3h234z" />
    <glyph glyph-name="Lacute" unicode="&#x139;" 
d="M186 776c-11 -10 -10 -27 -10 -27c-52 52 -56 76 -37 95l71 71c10 10 16 19 15 34c44 -45 65 -68 38 -96zM375 79c14 0 30 11 30 11c-42 -65 -69 -93 -103 -93h-246c-16 -11 -33 -19 -46 -27c24 21 32 54 32 92v614c0 12 -12 24 -12 24c73 -45 92 -73 92 -111v-480
c0 -12 -1 -23 -4 -33c8 2 15 3 23 3h234z" />
    <glyph glyph-name="Lcaron" unicode="&#x13d;" 
d="M114 766l-91 91c-28 28 -7 51 38 95c-1 -15 5 -23 15 -33l71 -71l65 66c28 28 51 7 95 -37c-15 0 -23 -5 -33 -15l-98 -99c-13 -14 -28 -16 -53 0c-3 0 -6 1 -9 3zM375 79c14 0 30 11 30 11c-42 -65 -69 -93 -103 -93h-246c-16 -11 -33 -19 -46 -27c24 21 32 54 32 92
v614c0 12 -12 24 -12 24c73 -45 92 -73 92 -111v-480c0 -12 -1 -23 -4 -33c8 2 15 3 23 3h234z" />
    <glyph glyph-name="uni013B" unicode="&#x13b;" 
d="M85 755c16 42 -21 134 -68 108l-7 6c35 36 85 50 105 31c37 -40 10 -119 -18 -148zM375 79c14 0 30 11 30 11c-42 -65 -69 -93 -103 -93h-246c-16 -11 -33 -19 -46 -27c24 21 32 54 32 92v614c0 12 -12 24 -12 24c73 -45 92 -73 92 -111v-480c0 -12 -1 -23 -4 -33
c8 2 15 3 23 3h234z" />
    <glyph glyph-name="Ldot" unicode="&#x13f;" 
d="M375 79c14 0 30 11 30 11c-42 -65 -69 -93 -103 -93h-246c-16 -11 -33 -19 -46 -27c24 21 32 54 32 92v614c0 12 -12 24 -12 24c73 -45 92 -73 92 -111v-480c0 -12 -1 -23 -4 -33c8 2 15 3 23 3h234zM199 342c-7 8 -24 8 -24 8c35 35 69 61 93 38l38 -39
c11 -10 17 -14 32 -13c-28 -28 -67 -65 -95 -37z" />
    <glyph glyph-name="uni1E36" unicode="&#x1e36;" 
d="M375 79c14 0 30 11 30 11c-42 -65 -69 -93 -103 -93h-246c-16 -11 -33 -19 -46 -27c24 21 32 54 32 92v614c0 12 -12 24 -12 24c73 -45 92 -73 92 -111v-480c0 -12 -1 -23 -4 -33c8 2 15 3 23 3h234zM252 -56l38 -40c11 -10 18 -13 33 -13c-29 -28 -68 -65 -95 -37
l-44 44c-8 8 -25 8 -25 8c35 34 69 60 93 38z" />
    <glyph glyph-name="Lslash" unicode="&#x141;" horiz-adv-x="452" 
d="M413 79c13 0 29 11 29 11c-42 -65 -69 -93 -103 -93h-245c-17 -11 -33 -19 -46 -27c23 21 31 54 31 92v305l-53 -25c-10 -5 -16 -21 -16 -21c13 63 24 90 58 106l11 5v244c0 12 -11 24 -11 24c72 -45 92 -73 92 -111v-119l69 32c11 6 17 21 17 21
c-10 -64 -24 -90 -58 -106l-28 -13v-295c0 -12 -1 -23 -4 -33c8 2 15 3 23 3h234z" />
    <glyph glyph-name="M" unicode="M" horiz-adv-x="565" 
d="M544 2c0 -11 11 -24 11 -24c-74 50 -94 78 -94 116v494c0 21 -2 35 -7 44c-6 -20 -13 -46 -16 -74l-69 -392c-11 -66 -102 -110 -132 -122c-4 -3 -8 -6 -13 -8c0 0 20 40 13 67l-126 468l-6 19v-493c0 -38 -20 -72 -95 -121c0 0 13 13 13 24v578c0 39 20 81 94 129
c0 0 -3 -3 -6 -8c6 3 13 5 19 5c25 0 43 -38 48 -60l119 -437c2 -7 2 -14 3 -21l64 372c7 59 50 110 106 127c35 28 74 36 74 -35v-648z" />
    <glyph glyph-name="uni1E3E" unicode="&#x1e3e;" horiz-adv-x="565" 
d="M68 776c-11 -10 -10 -27 -10 -27c-52 52 -56 76 -37 95l71 71c10 10 16 19 15 34c44 -45 65 -68 38 -96zM544 2c0 -11 11 -24 11 -24c-74 50 -94 78 -94 116v494c0 21 -2 35 -7 44c-6 -20 -13 -46 -16 -74l-69 -392c-11 -66 -102 -110 -132 -122c-4 -3 -8 -6 -13 -8
c0 0 20 40 13 67l-126 468l-6 19v-493c0 -38 -20 -72 -95 -121c0 0 13 13 13 24v578c0 39 20 81 94 129c0 0 -3 -3 -6 -8c6 3 13 5 19 5c25 0 43 -38 48 -60l119 -437c2 -7 2 -14 3 -21l64 372c7 59 50 110 106 127c35 28 74 36 74 -35v-648z" />
    <glyph glyph-name="N" unicode="N" horiz-adv-x="403" 
d="M299 596c0 39 21 72 94 121c0 0 -12 -12 -12 -24v-591c0 -50 -18 -82 -94 -126c0 0 9 9 11 19c-4 -3 -8 -6 -12 -8c0 0 17 41 8 67l-177 515c-4 11 -8 20 -13 28v-495c0 -50 -20 -82 -94 -126c0 0 12 12 12 24v584c0 38 20 71 94 119l-4 -4c5 2 10 3 14 3
c25 0 45 -37 53 -58l120 -357v309z" />
    <glyph glyph-name="Nacute" unicode="&#x143;" horiz-adv-x="403" 
d="M180 776c-11 -10 -10 -27 -10 -27c-52 52 -56 76 -37 95l71 71c10 10 16 19 15 34c44 -45 65 -68 38 -96zM299 596c0 39 21 72 94 121c0 0 -12 -12 -12 -24v-591c0 -50 -18 -82 -94 -126c0 0 9 9 11 19c-4 -3 -8 -6 -12 -8c0 0 17 41 8 67l-177 515c-4 11 -8 20 -13 28
v-495c0 -50 -20 -82 -94 -126c0 0 12 12 12 24v584c0 38 20 71 94 119l-4 -4c5 2 10 3 14 3c25 0 45 -37 53 -58l120 -357v309z" />
    <glyph glyph-name="Ncaron" unicode="&#x147;" horiz-adv-x="403" 
d="M191 766l-91 91c-27 28 -7 51 38 95c-1 -15 5 -23 15 -33l71 -71l65 66c28 28 51 7 95 -37c-15 0 -23 -5 -33 -15l-98 -99c-13 -14 -28 -16 -53 0c-3 0 -6 1 -9 3zM299 596c0 39 21 72 94 121c0 0 -12 -12 -12 -24v-591c0 -50 -18 -82 -94 -126c0 0 9 9 11 19
c-4 -3 -8 -6 -12 -8c0 0 17 41 8 67l-177 515c-4 11 -8 20 -13 28v-495c0 -50 -20 -82 -94 -126c0 0 12 12 12 24v584c0 38 20 71 94 119l-4 -4c5 2 10 3 14 3c25 0 45 -37 53 -58l120 -357v309z" />
    <glyph glyph-name="uni0145" unicode="&#x145;" horiz-adv-x="403" 
d="M213 755c16 42 -21 134 -68 108l-7 6c35 36 85 50 105 31c37 -40 10 -119 -18 -148zM299 596c0 39 21 72 94 121c0 0 -12 -12 -12 -24v-591c0 -50 -18 -82 -94 -126c0 0 9 9 11 19c-4 -3 -8 -6 -12 -8c0 0 17 41 8 67l-177 515c-4 11 -8 20 -13 28v-495
c0 -50 -20 -82 -94 -126c0 0 12 12 12 24v584c0 38 20 71 94 119l-4 -4c5 2 10 3 14 3c25 0 45 -37 53 -58l120 -357v309z" />
    <glyph glyph-name="uni1E44" unicode="&#x1e44;" horiz-adv-x="403" 
d="M186 768l-44 44c-8 8 -25 8 -25 8c35 34 69 60 93 38l38 -40c11 -10 18 -13 33 -13c-29 -28 -68 -65 -95 -37zM299 596c0 39 21 72 94 121c0 0 -12 -12 -12 -24v-591c0 -50 -18 -82 -94 -126c0 0 9 9 11 19c-4 -3 -8 -6 -12 -8c0 0 17 41 8 67l-177 515
c-4 11 -8 20 -13 28v-495c0 -50 -20 -82 -94 -126c0 0 12 12 12 24v584c0 38 20 71 94 119l-4 -4c5 2 10 3 14 3c25 0 45 -37 53 -58l120 -357v309z" />
    <glyph glyph-name="uni1E46" unicode="&#x1e46;" horiz-adv-x="403" 
d="M299 596c0 39 21 72 94 121c0 0 -12 -12 -12 -24v-591c0 -50 -18 -82 -94 -126c0 0 9 9 11 19c-4 -3 -8 -6 -12 -8c0 0 17 41 8 67l-177 515c-4 11 -8 20 -13 28v-495c0 -50 -20 -82 -94 -126c0 0 12 12 12 24v584c0 38 20 71 94 119l-4 -4c5 2 10 3 14 3
c25 0 45 -37 53 -58l120 -357v309zM246 -56l38 -40c11 -10 18 -13 33 -13c-29 -28 -68 -65 -95 -37l-44 44c-8 8 -25 8 -25 8c35 34 69 60 93 38z" />
    <glyph glyph-name="Eng" unicode="&#x14a;" horiz-adv-x="403" 
d="M299 596c0 39 21 72 94 121c0 0 -12 -12 -12 -24v-591c0 -36 -9 -63 -43 -91c32 -27 42 -58 42 -78c0 -92 -34 -133 -101 -133c-18 0 -54 26 -70 38c37 -22 121 -2 121 99v67c-12 -9 -26 -18 -43 -28c0 0 9 9 11 19c-4 -3 -8 -6 -12 -8c0 0 17 41 8 67l-177 515
c-4 11 -8 20 -13 28v-495c0 -50 -20 -82 -94 -126c0 0 12 12 12 24v584c0 38 20 71 94 119l-4 -4c5 2 10 3 14 3c25 0 45 -37 53 -58l120 -357v309zM209 -162c-3 2 -6 4 -8 6z" />
    <glyph glyph-name="uni019D" unicode="&#x19d;" horiz-adv-x="469" 
d="M365 596c0 39 21 72 94 121c0 0 -11 -12 -11 -24v-591c0 -50 -19 -82 -94 -126c0 0 8 8 10 18c-3 -3 -7 -5 -11 -7c0 0 16 41 8 67l-178 515c-4 12 -8 21 -13 28v-495c0 -32 -8 -57 -34 -82c42 -29 53 -65 53 -87c0 -92 -34 -133 -101 -133c-17 0 -53 25 -69 38
c37 -22 121 -1 121 99v71c0 4 -2 8 -5 11c-14 -14 -33 -28 -58 -43c0 0 11 12 11 24v584c0 34 17 64 73 104c3 3 6 5 9 7c4 2 9 5 13 8c0 0 -2 -1 -4 -4c5 2 9 3 13 3c26 0 46 -37 53 -58l120 -355v307zM19 -162c-4 1 -7 4 -9 6c0 0 3 -3 9 -6z" />
    <glyph glyph-name="Ntilde" unicode="&#xd1;" horiz-adv-x="403" 
d="M96 811c-26 -3 -40 -22 -57 -55c22 50 46 81 77 77c70 1 141 -54 212 -40c24 2 40 22 56 55c-21 -51 -42 -80 -67 -79c-73 -5 -147 57 -221 42zM299 596c0 39 21 72 94 121c0 0 -12 -12 -12 -24v-591c0 -50 -18 -82 -94 -126c0 0 9 9 11 19c-4 -3 -8 -6 -12 -8
c0 0 17 41 8 67l-177 515c-4 11 -8 20 -13 28v-495c0 -50 -20 -82 -94 -126c0 0 12 12 12 24v584c0 38 20 71 94 119l-4 -4c5 2 10 3 14 3c25 0 45 -37 53 -58l120 -357v309z" />
    <glyph glyph-name="O" unicode="O" horiz-adv-x="356" 
d="M180 711c91 0 166 -56 166 -197v-369c0 -30 -12 -57 -54 -91c0 0 0 -1 -1 -1h1c-11 -9 -25 -18 -40 -28l1 1c-27 -18 -58 -35 -76 -35c-91 0 -166 56 -166 197v367c0 38 20 71 93 120c0 0 -2 -2 -3 -4c26 19 59 40 79 40zM92 215c0 -143 104 -186 171 -172c1 2 1 4 1 6
v438c0 148 -106 190 -171 171c-1 -2 -1 -5 -1 -7v-436zM60 639c0 0 3 3 9 7c-3 -2 -6 -4 -9 -7zM304 63c-4 -4 -8 -7 -12 -10v1c8 5 12 9 12 9z" />
    <glyph glyph-name="Oacute" unicode="&#xd3;" horiz-adv-x="356" 
d="M157 776c-11 -10 -10 -27 -10 -27c-52 52 -56 76 -37 95l71 71c10 10 16 19 15 34c44 -45 65 -68 38 -96zM180 711c91 0 166 -56 166 -197v-369c0 -30 -12 -57 -54 -91c0 0 0 -1 -1 -1h1c-11 -9 -25 -18 -40 -28l1 1c-27 -18 -58 -35 -76 -35c-91 0 -166 56 -166 197v367
c0 38 20 71 93 120c0 0 -2 -2 -3 -4c26 19 59 40 79 40zM92 215c0 -143 104 -186 171 -172c1 2 1 4 1 6v438c0 148 -106 190 -171 171c-1 -2 -1 -5 -1 -7v-436zM60 639c0 0 3 3 9 7c-3 -2 -6 -4 -9 -7zM304 63c-4 -4 -8 -7 -12 -10v1c8 5 12 9 12 9z" />
    <glyph glyph-name="Obreve" unicode="&#x14e;" horiz-adv-x="356" 
d="M270 805c-59 -59 -120 -62 -169 -12c-12 14 -21 61 -24 83c12 -45 93 -94 158 -29l53 53c5 5 5 17 5 17c12 -57 -4 -94 -23 -112zM77 876c-1 3 -2 7 -2 10zM180 711c91 0 166 -56 166 -197v-369c0 -30 -12 -57 -54 -91c0 0 0 -1 -1 -1h1c-11 -9 -25 -18 -40 -28l1 1
c-27 -18 -58 -35 -76 -35c-91 0 -166 56 -166 197v367c0 38 20 71 93 120c0 0 -2 -2 -3 -4c26 19 59 40 79 40zM92 215c0 -143 104 -186 171 -172c1 2 1 4 1 6v438c0 148 -106 190 -171 171c-1 -2 -1 -5 -1 -7v-436zM60 639c0 0 3 3 9 7c-3 -2 -6 -4 -9 -7zM304 63
c-4 -4 -8 -7 -12 -10v1c8 5 12 9 12 9z" />
    <glyph glyph-name="uni01D1" unicode="&#x1d1;" horiz-adv-x="356" 
d="M168 766l-91 91c-27 28 -7 51 38 95c-1 -15 5 -23 15 -33l71 -71l65 66c28 28 51 7 95 -37c-15 0 -23 -5 -33 -15l-98 -99c-13 -14 -28 -16 -53 0c-3 0 -6 1 -9 3zM180 711c91 0 166 -56 166 -197v-369c0 -30 -12 -57 -54 -91c0 0 0 -1 -1 -1h1c-11 -9 -25 -18 -40 -28
l1 1c-27 -18 -58 -35 -76 -35c-91 0 -166 56 -166 197v367c0 38 20 71 93 120c0 0 -2 -2 -3 -4c26 19 59 40 79 40zM92 215c0 -143 104 -186 171 -172c1 2 1 4 1 6v438c0 148 -106 190 -171 171c-1 -2 -1 -5 -1 -7v-436zM60 639c0 0 3 3 9 7c-3 -2 -6 -4 -9 -7zM304 63
c-4 -4 -8 -7 -12 -10v1c8 5 12 9 12 9z" />
    <glyph glyph-name="Ocircumflex" unicode="&#xd4;" horiz-adv-x="356" 
d="M115 752c-45 44 -65 67 -38 95l91 91c3 2 6 3 9 3c25 16 40 14 53 0l98 -99c10 -10 18 -15 33 -15c-44 -44 -67 -65 -95 -37l-65 66l-71 -71c-10 -10 -16 -18 -15 -33zM180 711c91 0 166 -56 166 -197v-369c0 -30 -12 -57 -54 -91c0 0 0 -1 -1 -1h1
c-11 -9 -25 -18 -40 -28l1 1c-27 -18 -58 -35 -76 -35c-91 0 -166 56 -166 197v367c0 38 20 71 93 120c0 0 -2 -2 -3 -4c26 19 59 40 79 40zM92 215c0 -143 104 -186 171 -172c1 2 1 4 1 6v438c0 148 -106 190 -171 171c-1 -2 -1 -5 -1 -7v-436zM60 639c0 0 3 3 9 7
c-3 -2 -6 -4 -9 -7zM304 63c-4 -4 -8 -7 -12 -10v1c8 5 12 9 12 9z" />
    <glyph glyph-name="Odieresis" unicode="&#xd6;" horiz-adv-x="356" 
d="M78 773l-43 44c-8 8 -26 8 -26 8c36 35 69 61 93 38l40 -39c9 -10 16 -14 31 -13c-28 -28 -67 -65 -95 -38zM259 773l-44 44c-8 8 -25 8 -25 8c35 35 69 61 93 38l39 -39c10 -10 17 -14 32 -13c-28 -28 -68 -65 -95 -38zM180 711c91 0 166 -56 166 -197v-369
c0 -30 -12 -57 -54 -91c0 0 0 -1 -1 -1h1c-11 -9 -25 -18 -40 -28l1 1c-27 -18 -58 -35 -76 -35c-91 0 -166 56 -166 197v367c0 38 20 71 93 120c0 0 -2 -2 -3 -4c26 19 59 40 79 40zM92 215c0 -143 104 -186 171 -172c1 2 1 4 1 6v438c0 148 -106 190 -171 171
c-1 -2 -1 -5 -1 -7v-436zM60 639c0 0 3 3 9 7c-3 -2 -6 -4 -9 -7zM304 63c-4 -4 -8 -7 -12 -10v1c8 5 12 9 12 9z" />
    <glyph glyph-name="uni1ECC" unicode="&#x1ecc;" horiz-adv-x="356" 
d="M180 711c91 0 166 -56 166 -197v-369c0 -30 -12 -57 -54 -91c0 0 0 -1 -1 -1h1c-11 -9 -25 -18 -40 -28l1 1c-27 -18 -58 -35 -76 -35c-91 0 -166 56 -166 197v367c0 38 20 71 93 120c0 0 -2 -2 -3 -4c26 19 59 40 79 40zM92 215c0 -143 104 -186 171 -172c1 2 1 4 1 6
v438c0 148 -106 190 -171 171c-1 -2 -1 -5 -1 -7v-436zM60 639c0 0 3 3 9 7c-3 -2 -6 -4 -9 -7zM304 63c-4 -4 -8 -7 -12 -10v1c8 5 12 9 12 9zM222 -56l38 -40c11 -10 18 -13 33 -13c-29 -28 -68 -65 -95 -37l-44 44c-8 8 -25 8 -25 8c35 34 69 60 93 38z" />
    <glyph glyph-name="Ograve" unicode="&#xd2;" horiz-adv-x="356" 
d="M198 776l-77 77c-28 28 -7 51 38 96c-1 -15 4 -24 14 -34l71 -71c20 -19 15 -43 -36 -95c0 0 0 17 -10 27zM180 711c91 0 166 -56 166 -197v-369c0 -30 -12 -57 -54 -91c0 0 0 -1 -1 -1h1c-11 -9 -25 -18 -40 -28l1 1c-27 -18 -58 -35 -76 -35c-91 0 -166 56 -166 197
v367c0 38 20 71 93 120c0 0 -2 -2 -3 -4c26 19 59 40 79 40zM92 215c0 -143 104 -186 171 -172c1 2 1 4 1 6v438c0 148 -106 190 -171 171c-1 -2 -1 -5 -1 -7v-436zM60 639c0 0 3 3 9 7c-3 -2 -6 -4 -9 -7zM304 63c-4 -4 -8 -7 -12 -10v1c8 5 12 9 12 9z" />
    <glyph glyph-name="Ohungarumlaut" unicode="&#x150;" horiz-adv-x="356" 
d="M98 755c16 42 -21 134 -68 108l-7 6c35 36 85 50 105 31c37 -40 10 -119 -18 -148zM255 755c16 42 -21 134 -68 108l-7 6c35 36 85 50 105 31c37 -40 10 -119 -18 -148zM180 711c91 0 166 -56 166 -197v-369c0 -30 -12 -57 -54 -91c0 0 0 -1 -1 -1h1
c-11 -9 -25 -18 -40 -28l1 1c-27 -18 -58 -35 -76 -35c-91 0 -166 56 -166 197v367c0 38 20 71 93 120c0 0 -2 -2 -3 -4c26 19 59 40 79 40zM92 215c0 -143 104 -186 171 -172c1 2 1 4 1 6v438c0 148 -106 190 -171 171c-1 -2 -1 -5 -1 -7v-436zM60 639c0 0 3 3 9 7
c-3 -2 -6 -4 -9 -7zM304 63c-4 -4 -8 -7 -12 -10v1c8 5 12 9 12 9z" />
    <glyph glyph-name="Omacron" unicode="&#x14c;" horiz-adv-x="356" 
d="M255 762h-221c-13 0 -29 -12 -29 -12c40 55 61 80 104 80h212c12 0 29 12 29 12c-38 -55 -57 -80 -95 -80zM180 711c91 0 166 -56 166 -197v-369c0 -30 -12 -57 -54 -91c0 0 0 -1 -1 -1h1c-11 -9 -25 -18 -40 -28l1 1c-27 -18 -58 -35 -76 -35c-91 0 -166 56 -166 197
v367c0 38 20 71 93 120c0 0 -2 -2 -3 -4c26 19 59 40 79 40zM92 215c0 -143 104 -186 171 -172c1 2 1 4 1 6v438c0 148 -106 190 -171 171c-1 -2 -1 -5 -1 -7v-436zM60 639c0 0 3 3 9 7c-3 -2 -6 -4 -9 -7zM304 63c-4 -4 -8 -7 -12 -10v1c8 5 12 9 12 9z" />
    <glyph glyph-name="uni01EA" unicode="&#x1ea;" horiz-adv-x="356" 
d="M346 145c0 -30 -12 -57 -54 -91c0 0 0 -1 -1 -1h1c-11 -9 -25 -18 -40 -28l1 1c-12 -8 -25 -16 -37 -22v-67c0 -101 84 -121 121 -99c-16 -12 -52 -38 -70 -38c-67 0 -101 42 -101 133c0 16 6 38 24 60c-5 -1 -9 -2 -13 -2c-91 0 -166 56 -166 197v367c0 38 20 71 93 120
c0 0 -2 -2 -3 -4c26 19 59 40 79 40c91 0 166 -56 166 -197v-369zM92 215c0 -143 104 -186 171 -172c1 2 1 4 1 6v438c0 148 -106 190 -171 171c-1 -2 -1 -5 -1 -7v-436zM60 639c0 0 3 3 9 7c-3 -2 -6 -4 -9 -7zM304 63c-4 -4 -8 -7 -12 -10v1c8 5 12 9 12 9zM337 -162l8 6
c-2 -2 -5 -4 -8 -6z" />
    <glyph glyph-name="Oslash" unicode="&#xd8;" horiz-adv-x="479" 
d="M383 759c43 -45 56 -72 38 -109l-21 -46c8 -25 13 -55 13 -90v-369c0 -31 -13 -58 -56 -93c1 0 2 1 2 1c-4 -3 -9 -7 -15 -11c-8 -6 -16 -11 -25 -17c-26 -17 -57 -34 -75 -34c-42 0 -81 12 -111 40l-34 -73c-5 -12 1 -24 1 -24c-45 43 -59 64 -42 102l31 68
c-7 23 -11 51 -11 84v367c0 38 21 71 94 120l-2 -2c26 18 58 38 77 38c41 0 79 -11 108 -37l25 54c6 12 3 31 3 31zM160 651v-396l152 327c-33 70 -103 90 -151 76c-1 -2 -1 -5 -1 -7zM136 646c-3 -2 -6 -4 -9 -7c0 0 3 3 9 7zM331 49v408l-154 -331c32 -72 102 -94 153 -84
c1 3 1 5 1 7zM359 53l13 10c-4 -4 -8 -7 -13 -10z" />
    <glyph glyph-name="Oslashacute" unicode="&#x1fe;" horiz-adv-x="479" 
d="M254 776c-11 -10 -10 -27 -10 -27c-52 52 -56 76 -37 95l71 71c10 10 16 19 15 34c44 -45 65 -68 38 -96zM383 759c43 -45 56 -72 38 -109l-21 -46c8 -25 13 -55 13 -90v-369c0 -31 -13 -58 -56 -93c1 0 2 1 2 1c-4 -3 -9 -7 -15 -11c-8 -6 -16 -11 -25 -17
c-26 -17 -57 -34 -75 -34c-42 0 -81 12 -111 40l-34 -73c-5 -12 1 -24 1 -24c-45 43 -59 64 -42 102l31 68c-7 23 -11 51 -11 84v367c0 38 21 71 94 120l-2 -2c26 18 58 38 77 38c41 0 79 -11 108 -37l25 54c6 12 3 31 3 31zM160 651v-396l152 327c-33 70 -103 90 -151 76
c-1 -2 -1 -5 -1 -7zM136 646c-3 -2 -6 -4 -9 -7c0 0 3 3 9 7zM331 49v408l-154 -331c32 -72 102 -94 153 -84c1 3 1 5 1 7zM359 53l13 10c-4 -4 -8 -7 -13 -10z" />
    <glyph glyph-name="Otilde" unicode="&#xd5;" horiz-adv-x="356" 
d="M73 811c-26 -3 -40 -22 -57 -55c22 50 46 81 77 77c70 1 141 -54 212 -40c24 2 40 22 56 55c-21 -51 -42 -80 -67 -79c-73 -5 -147 57 -221 42zM180 711c91 0 166 -56 166 -197v-369c0 -30 -12 -57 -54 -91c0 0 0 -1 -1 -1h1c-11 -9 -25 -18 -40 -28l1 1
c-27 -18 -58 -35 -76 -35c-91 0 -166 56 -166 197v367c0 38 20 71 93 120c0 0 -2 -2 -3 -4c26 19 59 40 79 40zM92 215c0 -143 104 -186 171 -172c1 2 1 4 1 6v438c0 148 -106 190 -171 171c-1 -2 -1 -5 -1 -7v-436zM60 639c0 0 3 3 9 7c-3 -2 -6 -4 -9 -7zM304 63
c-4 -4 -8 -7 -12 -10v1c8 5 12 9 12 9z" />
    <glyph glyph-name="OE" unicode="&#x152;" horiz-adv-x="633" 
d="M366 77h228c11 0 24 12 24 12c-49 -74 -71 -91 -119 -91h-220c-17 -11 -33 -20 -46 -28c16 15 25 35 29 59c-3 -3 -7 -5 -11 -8l2 2c-27 -17 -58 -35 -76 -35c-91 0 -166 56 -166 197v366c0 38 20 71 93 120l-2 -3c25 19 57 39 77 39c50 0 96 -17 126 -57
c30 37 53 48 82 48h212c12 0 24 12 24 12c-48 -73 -76 -93 -114 -93h-163v-215c15 11 29 15 46 15h133c11 0 24 12 24 12c-49 -74 -82 -93 -120 -93h-83v-221c0 -15 -2 -29 -6 -42c8 3 17 4 26 4zM92 211c0 -141 103 -186 170 -172c1 2 1 4 1 6v438c0 148 -105 189 -170 171
c0 -3 -1 -5 -1 -8v-435zM60 635l7 6c-3 -2 -5 -4 -7 -6zM290 50c5 3 10 6 14 10c0 0 -5 -4 -14 -10z" />
    <glyph glyph-name="P" unicode="P" horiz-adv-x="377" 
d="M240 698c100 0 127 -78 127 -203v-60c0 -125 -69 -170 -168 -176c-4 -1 -7 -1 -11 -1h-65v-137c0 -87 -72 -119 -113 -145c23 21 32 54 32 92v517c0 6 1 13 2 19c-2 -1 -3 -2 -4 -3l6 9c4 16 15 31 34 48c19 22 39 42 56 42zM210 340c38 0 75 21 75 88v33
c0 116 -13 153 -102 153h-60v-278c7 3 15 4 24 4h63z" />
    <glyph glyph-name="Thorn" unicode="&#xde;" horiz-adv-x="388" 
d="M252 591c100 0 126 -78 126 -203v-61c0 -123 -68 -167 -166 -174c-4 -1 -8 -1 -12 -1h-77v-31c0 -87 -71 -119 -113 -145c24 21 32 55 32 92v527c0 39 20 66 93 115c0 0 -12 -12 -12 -24v-98c6 3 11 5 16 5zM221 233c39 0 76 21 76 87v33c0 118 -14 154 -104 154
c-11 0 -40 0 -70 -1v-280c10 5 20 7 32 7h66z" />
    <glyph glyph-name="Q" unicode="Q" horiz-adv-x="417" 
d="M374 14c13 -12 33 -18 33 -18c-63 -17 -107 -21 -135 9l-20 20c-27 -17 -57 -34 -75 -34c-91 0 -166 56 -166 197v367c0 38 20 71 93 120c0 0 -2 -2 -3 -4c26 19 59 40 79 40c91 0 166 -56 166 -197v-369c0 -24 -8 -46 -32 -71zM92 215c0 -125 80 -174 145 -175l-97 97
c-14 14 -38 22 -38 22c62 12 106 21 133 -5l29 -29v362c0 148 -106 190 -171 171c-1 -2 -1 -5 -1 -7v-436zM60 639c0 0 3 3 9 7c-3 -2 -6 -4 -9 -7zM292 53c4 3 8 6 12 10c0 0 -4 -4 -12 -9v-1z" />
    <glyph glyph-name="R" unicode="R" horiz-adv-x="439" 
d="M403 54c14 0 26 8 26 8s-21 -67 -83 -67c-50 0 -107 199 -149 264h-8h-65v-138c0 -87 -73 -119 -114 -145c24 21 32 54 32 92v517c0 6 1 12 2 18l-3 -2s1 2 4 6c4 17 15 33 36 51c18 22 39 42 55 42l104 -2c101 0 127 -78 127 -202v-61c0 -86 -32 -133 -84 -157
c41 -79 83 -224 120 -224zM124 337c7 2 14 3 23 3h63c39 0 75 21 75 88v33c0 116 -13 153 -102 153h-59v-277z" />
    <glyph glyph-name="Racute" unicode="&#x154;" horiz-adv-x="439" 
d="M198 776c-11 -10 -10 -27 -10 -27c-52 52 -56 76 -37 95l71 71c10 10 16 19 15 34c44 -45 65 -68 38 -96zM403 54c14 0 26 8 26 8s-21 -67 -83 -67c-50 0 -107 199 -149 264h-8h-65v-138c0 -87 -73 -119 -114 -145c24 21 32 54 32 92v517c0 6 1 12 2 18l-3 -2s1 2 4 6
c4 17 15 33 36 51c18 22 39 42 55 42l104 -2c101 0 127 -78 127 -202v-61c0 -86 -32 -133 -84 -157c41 -79 83 -224 120 -224zM124 337c7 2 14 3 23 3h63c39 0 75 21 75 88v33c0 116 -13 153 -102 153h-59v-277z" />
    <glyph glyph-name="Rcaron" unicode="&#x158;" horiz-adv-x="439" 
d="M209 766l-91 91c-27 28 -7 51 38 95c-1 -15 5 -23 15 -33l71 -71l65 66c28 28 51 7 95 -37c-15 0 -23 -5 -33 -15l-98 -99c-13 -14 -28 -16 -53 0c-3 0 -6 1 -9 3zM403 54c14 0 26 8 26 8s-21 -67 -83 -67c-50 0 -107 199 -149 264h-8h-65v-138c0 -87 -73 -119 -114 -145
c24 21 32 54 32 92v517c0 6 1 12 2 18l-3 -2s1 2 4 6c4 17 15 33 36 51c18 22 39 42 55 42l104 -2c101 0 127 -78 127 -202v-61c0 -86 -32 -133 -84 -157c41 -79 83 -224 120 -224zM124 337c7 2 14 3 23 3h63c39 0 75 21 75 88v33c0 116 -13 153 -102 153h-59v-277z" />
    <glyph glyph-name="uni0156" unicode="&#x156;" horiz-adv-x="439" 
d="M231 755c16 42 -21 134 -68 108l-7 6c35 36 85 50 105 31c37 -40 10 -119 -18 -148zM403 54c14 0 26 8 26 8s-21 -67 -83 -67c-50 0 -107 199 -149 264h-8h-65v-138c0 -87 -73 -119 -114 -145c24 21 32 54 32 92v517c0 6 1 12 2 18l-3 -2s1 2 4 6c4 17 15 33 36 51
c18 22 39 42 55 42l104 -2c101 0 127 -78 127 -202v-61c0 -86 -32 -133 -84 -157c41 -79 83 -224 120 -224zM124 337c7 2 14 3 23 3h63c39 0 75 21 75 88v33c0 116 -13 153 -102 153h-59v-277z" />
    <glyph glyph-name="S" unicode="S" horiz-adv-x="385" 
d="M370 187c0 -31 -17 -56 -36 -73c-19 -27 -94 -123 -155 -123c-67 0 -158 70 -169 115c0 0 34 53 67 65c-2 -15 68 -106 165 -106c15 0 33 9 48 19c59 112 -171 301 -243 392c-71 91 46 171 63 180h2c25 19 60 45 72 49c11 0 177 36 172 -105c-3 -31 -64 -79 -64 -79
c29 61 -33 119 -117 119c-22 0 -40 -1 -54 -2c-24 -26 -48 -62 21 -140c82 -92 228 -217 228 -311z" />
    <glyph glyph-name="Sacute" unicode="&#x15a;" horiz-adv-x="385" 
d="M171 776c-11 -10 -10 -27 -10 -27c-52 52 -56 76 -37 95l71 71c10 10 16 19 15 34c44 -45 65 -68 38 -96zM370 187c0 -31 -17 -56 -36 -73c-19 -27 -94 -123 -155 -123c-67 0 -158 70 -169 115c0 0 34 53 67 65c-2 -15 68 -106 165 -106c15 0 33 9 48 19
c59 112 -171 301 -243 392c-71 91 46 171 63 180h2c25 19 60 45 72 49c11 0 177 36 172 -105c-3 -31 -64 -79 -64 -79c29 61 -33 119 -117 119c-22 0 -40 -1 -54 -2c-24 -26 -48 -62 21 -140c82 -92 228 -217 228 -311z" />
    <glyph glyph-name="Scaron" unicode="&#x160;" horiz-adv-x="385" 
d="M182 766l-91 91c-27 28 -7 51 38 95c-1 -15 5 -23 15 -33l71 -71l65 66c28 28 51 7 95 -37c-15 0 -23 -5 -33 -15l-98 -99c-13 -14 -28 -16 -53 0c-3 0 -6 1 -9 3zM121 638c-24 -26 -48 -62 21 -140c82 -92 228 -217 228 -311c0 -31 -17 -56 -36 -73
c-19 -27 -94 -123 -155 -123c-67 0 -158 70 -169 115c0 0 34 53 67 65c-2 -15 68 -106 165 -106c15 0 33 9 48 19c59 112 -171 301 -243 392c-71 91 46 171 63 180h2c25 19 60 45 72 49c11 0 177 36 172 -105c-3 -31 -64 -79 -64 -79c29 61 -33 119 -117 119
c-22 0 -40 -1 -54 -2z" />
    <glyph glyph-name="Scedilla" unicode="&#x15e;" horiz-adv-x="385" 
d="M370 187c0 -31 -17 -56 -36 -73c-19 -27 -94 -123 -155 -123c-67 0 -158 70 -169 115c0 0 34 53 67 65c-2 -15 68 -106 165 -106c15 0 33 9 48 19c59 112 -171 301 -243 392c-71 91 46 171 63 180h2c25 19 60 45 72 49c11 0 177 36 172 -105c-3 -31 -64 -79 -64 -79
c29 61 -33 119 -117 119c-22 0 -40 -1 -54 -2c-24 -26 -48 -62 21 -140c82 -92 228 -217 228 -311zM264 -25c10 -5 17 -12 23 -22c21 -25 28 -50 28 -68c0 -84 -40 -125 -109 -125c-18 0 -58 27 -76 40c40 -23 132 0 132 92v18h-43c-40 0 -54 23 -88 84c0 0 17 -13 36 -13
h59c13 0 23 -1 32 -4c-2 3 -4 5 -4 5zM130 -200c-3 2 -6 4 -8 6z" />
    <glyph glyph-name="Scircumflex" unicode="&#x15c;" horiz-adv-x="385" 
d="M129 752c-45 44 -65 67 -38 95l91 91c3 2 6 3 9 3c25 16 40 14 53 0l98 -99c10 -10 18 -15 33 -15c-44 -44 -67 -65 -95 -37l-65 66l-71 -71c-10 -10 -16 -18 -15 -33zM121 638c-24 -26 -48 -62 21 -140c82 -92 228 -217 228 -311c0 -31 -17 -56 -36 -73
c-19 -27 -94 -123 -155 -123c-67 0 -158 70 -169 115c0 0 34 53 67 65c-2 -15 68 -106 165 -106c15 0 33 9 48 19c59 112 -171 301 -243 392c-71 91 46 171 63 180h2c25 19 60 45 72 49c11 0 177 36 172 -105c-3 -31 -64 -79 -64 -79c29 61 -33 119 -117 119
c-22 0 -40 -1 -54 -2z" />
    <glyph glyph-name="uni0218" unicode="&#x218;" horiz-adv-x="385" 
d="M204 755c16 42 -21 134 -68 108l-7 6c35 36 85 50 105 31c37 -40 10 -119 -18 -148zM370 187c0 -31 -17 -56 -36 -73c-19 -27 -94 -123 -155 -123c-67 0 -158 70 -169 115c0 0 34 53 67 65c-2 -15 68 -106 165 -106c15 0 33 9 48 19c59 112 -171 301 -243 392
c-71 91 46 171 63 180h2c25 19 60 45 72 49c11 0 177 36 172 -105c-3 -31 -64 -79 -64 -79c29 61 -33 119 -117 119c-22 0 -40 -1 -54 -2c-24 -26 -48 -62 21 -140c82 -92 228 -217 228 -311z" />
    <glyph glyph-name="uni1E62" unicode="&#x1e62;" horiz-adv-x="385" 
d="M370 187c0 -31 -17 -56 -36 -73c-19 -27 -94 -123 -155 -123c-67 0 -158 70 -169 115c0 0 34 53 67 65c-2 -15 68 -106 165 -106c15 0 33 9 48 19c59 112 -171 301 -243 392c-71 91 46 171 63 180h2c25 19 60 45 72 49c11 0 177 36 172 -105c-3 -31 -64 -79 -64 -79
c29 61 -33 119 -117 119c-22 0 -40 -1 -54 -2c-24 -26 -48 -62 21 -140c82 -92 228 -217 228 -311zM237 -56l38 -40c11 -10 18 -13 33 -13c-29 -28 -68 -65 -95 -37l-44 44c-8 8 -25 8 -25 8c35 34 69 60 93 38z" />
    <glyph glyph-name="uni1E9E" unicode="&#x1e9e;" horiz-adv-x="362" 
d="M221 408c40 -28 131 -102 131 -203c0 -129 -86 -198 -137 -198c-28 0 -65 8 -103 33c-2 1 -4 2 -6 4c-4 -35 -28 -67 -96 -113c0 0 12 13 12 25v557c0 73 49 109 90 134c16 33 72 61 72 61c47 -12 111 -97 111 -169c0 -55 -44 -105 -74 -131zM261 174
c16 142 -20 183 -79 230l4 4l-3 1s44 43 44 68c0 99 -74 150 -106 162c-10 -20 -14 -45 -14 -71v-486c6 -2 11 -3 17 -4c56 -7 125 -3 137 96z" />
    <glyph glyph-name="uni018F" unicode="&#x18f;" horiz-adv-x="369" 
d="M133 714c126 0 225 -56 225 -198v-382c0 -37 -18 -64 -80 -107c-16 -14 -31 -21 -49 -21h-170c-21 0 -38 -12 -38 -12l10 15c-6 -5 -14 -10 -21 -15c0 0 12 17 12 38v216c0 9 2 17 5 24l-6 -3c46 67 67 95 105 95l150 -1v131c0 169 -201 180 -252 129c0 0 58 91 109 91z
M126 89l150 -1v213c-15 -14 -29 -20 -47 -20h-125l1 -182c0 -5 0 -10 -1 -14c7 3 14 4 22 4z" />
    <glyph glyph-name="T" unicode="T" horiz-adv-x="388" 
d="M394 700c13 0 24 14 24 14c-42 -65 -78 -93 -114 -93h-64v-499c0 -84 -72 -117 -109 -142c21 21 30 54 30 92v489c0 21 6 39 24 60h-151c-11 0 -24 -11 -24 -11c45 62 77 90 114 90h270z" />
    <glyph glyph-name="Tbar" unicode="&#x166;" horiz-adv-x="428" 
d="M304 621h-64v-236h85c12 0 24 11 24 11c-36 -53 -60 -71 -97 -71h-12v-203c0 -84 -72 -117 -109 -142c21 21 30 54 30 92v253h-88c-11 0 -23 -12 -23 -12c38 51 60 72 97 72h14v176c0 21 6 39 24 60h-151c-11 0 -24 -11 -24 -11c45 62 77 90 114 90h270c13 0 24 14 24 14
c-42 -65 -78 -93 -114 -93z" />
    <glyph glyph-name="Tcaron" unicode="&#x164;" horiz-adv-x="388" 
d="M204 766l-91 91c-27 28 -7 51 38 95c-1 -15 5 -23 15 -33l71 -71l65 66c28 28 51 7 95 -37c-15 0 -23 -5 -33 -15l-98 -99c-13 -14 -28 -16 -53 0c-3 0 -6 1 -9 3zM394 700c13 0 24 14 24 14c-42 -65 -78 -93 -114 -93h-64v-499c0 -84 -72 -117 -109 -142
c21 21 30 54 30 92v489c0 21 6 39 24 60h-151c-11 0 -24 -11 -24 -11c45 62 77 90 114 90h270z" />
    <glyph glyph-name="uni0162" unicode="&#x162;" horiz-adv-x="388" 
d="M394 700c13 0 24 14 24 14c-42 -65 -78 -93 -114 -93h-64v-499c0 -84 -72 -117 -109 -142c21 21 30 54 30 92v489c0 21 6 39 24 60h-151c-11 0 -24 -11 -24 -11c45 62 77 90 114 90h270zM286 -25c10 -5 17 -12 23 -22c21 -25 28 -50 28 -68c0 -84 -40 -125 -109 -125
c-18 0 -58 27 -76 40c40 -23 132 0 132 92v18h-43c-40 0 -54 23 -88 84c0 0 17 -13 36 -13h59c13 0 23 -1 32 -4c-2 3 -4 5 -4 5zM152 -200c-3 2 -6 4 -8 6z" />
    <glyph glyph-name="uni021A" unicode="&#x21a;" horiz-adv-x="388" 
d="M226 755c16 42 -21 134 -68 108l-7 6c35 36 85 50 105 31c37 -40 10 -119 -18 -148zM394 700c13 0 24 14 24 14c-42 -65 -78 -93 -114 -93h-64v-499c0 -84 -72 -117 -109 -142c21 21 30 54 30 92v489c0 21 6 39 24 60h-151c-11 0 -24 -11 -24 -11c45 62 77 90 114 90h270
z" />
    <glyph glyph-name="uni1E6C" unicode="&#x1e6c;" horiz-adv-x="388" 
d="M394 700c13 0 24 14 24 14c-42 -65 -78 -93 -114 -93h-64v-499c0 -84 -72 -117 -109 -142c21 21 30 54 30 92v489c0 21 6 39 24 60h-151c-11 0 -24 -11 -24 -11c45 62 77 90 114 90h270zM259 -56l38 -40c11 -10 18 -13 33 -13c-29 -28 -68 -65 -95 -37l-44 44
c-8 8 -25 8 -25 8c35 34 69 60 93 38z" />
    <glyph glyph-name="U" unicode="U" horiz-adv-x="368" 
d="M264 708c73 -43 94 -81 94 -120v-428c0 -82 -63 -115 -104 -140c-18 -16 -36 -29 -51 -29c-90 0 -181 57 -181 197v498c0 11 -12 24 -12 24c73 -42 94 -74 94 -111v-384c0 -147 102 -180 166 -159c4 16 6 33 6 51v578c0 11 -12 23 -12 23z" />
    <glyph glyph-name="Uacute" unicode="&#xda;" horiz-adv-x="368" 
d="M163 776c-11 -10 -10 -27 -10 -27c-52 52 -56 76 -37 95l71 71c10 10 16 19 15 34c44 -45 65 -68 38 -96zM264 708c73 -43 94 -81 94 -120v-428c0 -82 -63 -115 -104 -140c-18 -16 -36 -29 -51 -29c-90 0 -181 57 -181 197v498c0 11 -12 24 -12 24c73 -42 94 -74 94 -111
v-384c0 -147 102 -180 166 -159c4 16 6 33 6 51v578c0 11 -12 23 -12 23z" />
    <glyph glyph-name="Ubreve" unicode="&#x16c;" horiz-adv-x="368" 
d="M277 805c-59 -59 -120 -62 -169 -12c-12 14 -21 61 -24 83c12 -45 93 -94 158 -29l53 53c5 5 5 17 5 17c12 -57 -4 -94 -23 -112zM84 876c-1 3 -2 7 -2 10zM264 708c73 -43 94 -81 94 -120v-428c0 -82 -63 -115 -104 -140c-18 -16 -36 -29 -51 -29
c-90 0 -181 57 -181 197v498c0 11 -12 24 -12 24c73 -42 94 -74 94 -111v-384c0 -147 102 -180 166 -159c4 16 6 33 6 51v578c0 11 -12 23 -12 23z" />
    <glyph glyph-name="uni01D3" unicode="&#x1d3;" horiz-adv-x="368" 
d="M174 766l-91 91c-27 28 -7 51 38 95c-1 -15 5 -23 15 -33l71 -71l65 66c28 28 51 7 95 -37c-15 0 -23 -5 -33 -15l-98 -99c-13 -14 -28 -16 -53 0c-3 0 -6 1 -9 3zM264 708c73 -43 94 -81 94 -120v-428c0 -82 -63 -115 -104 -140c-18 -16 -36 -29 -51 -29
c-90 0 -181 57 -181 197v498c0 11 -12 24 -12 24c73 -42 94 -74 94 -111v-384c0 -147 102 -180 166 -159c4 16 6 33 6 51v578c0 11 -12 23 -12 23z" />
    <glyph glyph-name="Ucircumflex" unicode="&#xdb;" horiz-adv-x="368" 
d="M121 752c-45 44 -65 67 -38 95l91 91c3 2 6 3 9 3c25 16 40 14 53 0l98 -99c10 -10 18 -15 33 -15c-44 -44 -67 -65 -95 -37l-65 66l-71 -71c-10 -10 -16 -18 -15 -33zM264 708c73 -43 94 -81 94 -120v-428c0 -82 -63 -115 -104 -140c-18 -16 -36 -29 -51 -29
c-90 0 -181 57 -181 197v498c0 11 -12 24 -12 24c73 -42 94 -74 94 -111v-384c0 -147 102 -180 166 -159c4 16 6 33 6 51v578c0 11 -12 23 -12 23z" />
    <glyph glyph-name="Udieresis" unicode="&#xdc;" horiz-adv-x="368" 
d="M85 773l-43 44c-8 8 -26 8 -26 8c36 35 69 61 93 38l40 -39c9 -10 16 -14 31 -13c-28 -28 -67 -65 -95 -38zM266 773l-44 44c-8 8 -25 8 -25 8c35 35 69 61 93 38l39 -39c10 -10 17 -14 32 -13c-28 -28 -68 -65 -95 -38zM264 708c73 -43 94 -81 94 -120v-428
c0 -82 -63 -115 -104 -140c-18 -16 -36 -29 -51 -29c-90 0 -181 57 -181 197v498c0 11 -12 24 -12 24c73 -42 94 -74 94 -111v-384c0 -147 102 -180 166 -159c4 16 6 33 6 51v578c0 11 -12 23 -12 23z" />
    <glyph glyph-name="uni1EE4" unicode="&#x1ee4;" horiz-adv-x="368" 
d="M264 708c73 -43 94 -81 94 -120v-428c0 -82 -63 -115 -104 -140c-18 -16 -36 -29 -51 -29c-90 0 -181 57 -181 197v498c0 11 -12 24 -12 24c73 -42 94 -74 94 -111v-384c0 -147 102 -180 166 -159c4 16 6 33 6 51v578c0 11 -12 23 -12 23zM229 -56l38 -40
c11 -10 18 -13 33 -13c-29 -28 -68 -65 -95 -37l-44 44c-8 8 -25 8 -25 8c35 34 69 60 93 38z" />
    <glyph glyph-name="Ugrave" unicode="&#xd9;" horiz-adv-x="368" 
d="M205 776l-77 77c-28 28 -7 51 38 96c-1 -15 4 -24 14 -34l71 -71c20 -19 15 -43 -36 -95c0 0 0 17 -10 27zM264 708c73 -43 94 -81 94 -120v-428c0 -82 -63 -115 -104 -140c-18 -16 -36 -29 -51 -29c-90 0 -181 57 -181 197v498c0 11 -12 24 -12 24
c73 -42 94 -74 94 -111v-384c0 -147 102 -180 166 -159c4 16 6 33 6 51v578c0 11 -12 23 -12 23z" />
    <glyph glyph-name="Uhungarumlaut" unicode="&#x170;" horiz-adv-x="368" 
d="M104 755c16 42 -21 134 -68 108l-7 6c35 36 85 50 105 31c37 -40 10 -119 -18 -148zM261 755c16 42 -21 134 -68 108l-7 6c35 36 85 50 105 31c37 -40 10 -119 -18 -148zM264 708c73 -43 94 -81 94 -120v-428c0 -82 -63 -115 -104 -140c-18 -16 -36 -29 -51 -29
c-90 0 -181 57 -181 197v498c0 11 -12 24 -12 24c73 -42 94 -74 94 -111v-384c0 -147 102 -180 166 -159c4 16 6 33 6 51v578c0 11 -12 23 -12 23z" />
    <glyph glyph-name="Umacron" unicode="&#x16a;" horiz-adv-x="368" 
d="M262 762h-221c-13 0 -29 -12 -29 -12c40 55 61 80 104 80h212c12 0 29 12 29 12c-38 -55 -57 -80 -95 -80zM264 708c73 -43 94 -81 94 -120v-428c0 -82 -63 -115 -104 -140c-18 -16 -36 -29 -51 -29c-90 0 -181 57 -181 197v498c0 11 -12 24 -12 24
c73 -42 94 -74 94 -111v-384c0 -147 102 -180 166 -159c4 16 6 33 6 51v578c0 11 -12 23 -12 23z" />
    <glyph glyph-name="Uogonek" unicode="&#x172;" horiz-adv-x="368" 
d="M254 20c-11 -9 -21 -17 -31 -23v-60c0 -101 84 -121 121 -99c-16 -12 -52 -38 -70 -38c-67 0 -101 42 -101 133c0 15 6 37 23 58c-88 3 -174 61 -174 197v498c0 11 -12 24 -12 24c73 -42 94 -74 94 -111v-384c0 -147 102 -180 166 -159c4 16 6 33 6 51v578
c0 11 -12 23 -12 23c73 -43 94 -81 94 -120v-428c0 -82 -63 -115 -104 -140zM344 -162l8 6c-2 -2 -5 -4 -8 -6z" />
    <glyph glyph-name="Uring" unicode="&#x16e;" horiz-adv-x="368" 
d="M95 889c0 19 9 47 37 72c-1 0 -1 0 -2 -1c1 1 3 2 4 4c6 4 12 9 19 14l-1 -1c16 12 35 23 46 23c56 0 102 -34 102 -121v-30c0 -24 -13 -44 -58 -73l1 1c-17 -11 -36 -22 -47 -22c-67 0 -101 43 -101 134zM249 863c0 89 -63 116 -103 105c-1 -2 -1 -3 -1 -5v-71
c0 -87 63 -114 104 -105v3v73zM130 960c-3 -2 -5 -4 -5 -4c2 2 3 3 5 4zM274 800l-8 -7c3 2 6 5 8 7zM264 708c73 -43 94 -81 94 -120v-428c0 -82 -63 -115 -104 -140c-18 -16 -36 -29 -51 -29c-90 0 -181 57 -181 197v498c0 11 -12 24 -12 24c73 -42 94 -74 94 -111v-384
c0 -147 102 -180 166 -159c4 16 6 33 6 51v578c0 11 -12 23 -12 23z" />
    <glyph glyph-name="Utilde" unicode="&#x168;" horiz-adv-x="368" 
d="M79 811c-26 -3 -40 -22 -57 -55c22 50 46 81 77 77c70 1 141 -54 212 -40c24 2 40 22 56 55c-21 -51 -42 -80 -67 -79c-73 -5 -147 57 -221 42zM264 708c73 -43 94 -81 94 -120v-428c0 -82 -63 -115 -104 -140c-18 -16 -36 -29 -51 -29c-90 0 -181 57 -181 197v498
c0 11 -12 24 -12 24c73 -42 94 -74 94 -111v-384c0 -147 102 -180 166 -159c4 16 6 33 6 51v578c0 11 -12 23 -12 23z" />
    <glyph glyph-name="V" unicode="V" horiz-adv-x="471" 
d="M343 615c14 54 48 96 118 97c0 0 -24 -21 -33 -59l-114 -556c-33 -130 -118 -105 -118 -105c-24 2 -45 23 -51 56l-70 529c-11 79 -65 72 -65 72s59 63 97 60c27 -3 40 -35 43 -58l72 -545c2 -15 6 -26 10 -34l3 10z" />
    <glyph glyph-name="W" unicode="W" horiz-adv-x="707" 
d="M589 605c8 55 39 100 108 108c0 0 -21 -23 -27 -62l-71 -543c-18 -119 -89 -118 -103 -116c-29 -5 -56 17 -63 55l-68 495l-55 -434c-18 -117 -87 -118 -103 -116c-29 -5 -56 17 -62 55l-70 523c-11 83 -65 79 -65 79s59 63 97 59c26 -2 39 -35 42 -57l72 -545
c3 -16 7 -28 11 -37c0 6 1 11 2 17l62 502c6 43 26 79 67 97c11 8 22 12 32 11c1 0 3 0 4 -1c2 1 3 1 5 1c0 0 -1 -1 -1 -2c21 -7 31 -35 34 -57l73 -531c2 -16 6 -28 11 -36c0 5 1 11 2 16z" />
    <glyph glyph-name="Wacute" unicode="&#x1e82;" horiz-adv-x="707" 
d="M333 776c-11 -10 -10 -27 -10 -27c-52 52 -56 76 -37 95l71 71c10 10 16 19 15 34c44 -45 65 -68 38 -96zM589 605c8 55 39 100 108 108c0 0 -21 -23 -27 -62l-71 -543c-18 -119 -89 -118 -103 -116c-29 -5 -56 17 -63 55l-68 495l-55 -434c-18 -117 -87 -118 -103 -116
c-29 -5 -56 17 -62 55l-70 523c-11 83 -65 79 -65 79s59 63 97 59c26 -2 39 -35 42 -57l72 -545c3 -16 7 -28 11 -37c0 6 1 11 2 17l62 502c6 43 26 79 67 97c11 8 22 12 32 11c1 0 3 0 4 -1c2 1 3 1 5 1c0 0 -1 -1 -1 -2c21 -7 31 -35 34 -57l73 -531c2 -16 6 -28 11 -36
c0 5 1 11 2 16z" />
    <glyph glyph-name="Wcircumflex" unicode="&#x174;" horiz-adv-x="707" 
d="M291 752c-45 44 -65 67 -38 95l91 91c3 2 6 3 9 3c25 16 40 14 53 0l98 -99c10 -10 18 -15 33 -15c-44 -44 -67 -65 -95 -37l-65 66l-71 -71c-10 -10 -16 -18 -15 -33zM589 605c8 55 39 100 108 108c0 0 -21 -23 -27 -62l-71 -543c-18 -119 -89 -118 -103 -116
c-29 -5 -56 17 -63 55l-68 495l-55 -434c-18 -117 -87 -118 -103 -116c-29 -5 -56 17 -62 55l-70 523c-11 83 -65 79 -65 79s59 63 97 59c26 -2 39 -35 42 -57l72 -545c3 -16 7 -28 11 -37c0 6 1 11 2 17l62 502c6 43 26 79 67 97c11 8 22 12 32 11c1 0 3 0 4 -1
c2 1 3 1 5 1c0 0 -1 -1 -1 -2c21 -7 31 -35 34 -57l73 -531c2 -16 6 -28 11 -36c0 5 1 11 2 16z" />
    <glyph glyph-name="Wdieresis" unicode="&#x1e84;" horiz-adv-x="707" 
d="M254 773l-43 44c-8 8 -26 8 -26 8c36 35 69 61 93 38l40 -39c9 -10 16 -14 31 -13c-28 -28 -67 -65 -95 -38zM435 773l-44 44c-8 8 -25 8 -25 8c35 35 69 61 93 38l39 -39c10 -10 17 -14 32 -13c-28 -28 -68 -65 -95 -38zM589 605c8 55 39 100 108 108
c0 0 -21 -23 -27 -62l-71 -543c-18 -119 -89 -118 -103 -116c-29 -5 -56 17 -63 55l-68 495l-55 -434c-18 -117 -87 -118 -103 -116c-29 -5 -56 17 -62 55l-70 523c-11 83 -65 79 -65 79s59 63 97 59c26 -2 39 -35 42 -57l72 -545c3 -16 7 -28 11 -37c0 6 1 11 2 17l62 502
c6 43 26 79 67 97c11 8 22 12 32 11c1 0 3 0 4 -1c2 1 3 1 5 1c0 0 -1 -1 -1 -2c21 -7 31 -35 34 -57l73 -531c2 -16 6 -28 11 -36c0 5 1 11 2 16z" />
    <glyph glyph-name="Wgrave" unicode="&#x1e80;" horiz-adv-x="707" 
d="M374 776l-77 77c-28 28 -7 51 38 96c-1 -15 4 -24 14 -34l71 -71c20 -19 15 -43 -36 -95c0 0 0 17 -10 27zM589 605c8 55 39 100 108 108c0 0 -21 -23 -27 -62l-71 -543c-18 -119 -89 -118 -103 -116c-29 -5 -56 17 -63 55l-68 495l-55 -434c-18 -117 -87 -118 -103 -116
c-29 -5 -56 17 -62 55l-70 523c-11 83 -65 79 -65 79s59 63 97 59c26 -2 39 -35 42 -57l72 -545c3 -16 7 -28 11 -37c0 6 1 11 2 17l62 502c6 43 26 79 67 97c11 8 22 12 32 11c1 0 3 0 4 -1c2 1 3 1 5 1c0 0 -1 -1 -1 -2c21 -7 31 -35 34 -57l73 -531c2 -16 6 -28 11 -36
c0 5 1 11 2 16z" />
    <glyph glyph-name="X" unicode="X" horiz-adv-x="459" 
d="M381 93c20 -49 59 -27 59 -27c-4 -33 -15 -64 -53 -69c-25 -4 -63 16 -75 46l-82 212l-82 -178c-44 -97 -138 -81 -138 -81c27 16 42 49 58 81l124 276l-86 221c-30 74 -77 58 -77 58s43 63 81 69c26 5 44 -24 54 -45l76 -196l73 163c22 50 67 83 136 71
c0 0 -27 -16 -43 -53l-128 -280z" />
    <glyph glyph-name="Y" unicode="Y" horiz-adv-x="438" 
d="M303 623c20 48 58 84 125 76c0 0 -25 -17 -39 -53l-108 -271c-6 -15 -13 -26 -20 -34v-6v-233c0 -43 -20 -74 -93 -122c0 0 12 14 12 34v231c0 15 2 28 5 39l-106 296c-23 66 -69 53 -69 53s46 63 83 66c25 3 41 -30 52 -58l79 -221z" />
    <glyph glyph-name="Yacute" unicode="&#xdd;" horiz-adv-x="438" 
d="M198 776c-11 -10 -10 -27 -10 -27c-52 52 -56 76 -37 95l71 71c10 10 16 19 15 34c44 -45 65 -68 38 -96zM303 623c20 48 58 84 125 76c0 0 -25 -17 -39 -53l-108 -271c-6 -15 -13 -26 -20 -34v-6v-233c0 -43 -20 -74 -93 -122c0 0 12 14 12 34v231c0 15 2 28 5 39
l-106 296c-23 66 -69 53 -69 53s46 63 83 66c25 3 41 -30 52 -58l79 -221z" />
    <glyph glyph-name="Ycircumflex" unicode="&#x176;" horiz-adv-x="438" 
d="M156 752c-45 44 -65 67 -38 95l91 91c3 2 6 3 9 3c25 16 40 14 53 0l98 -99c10 -10 18 -15 33 -15c-44 -44 -67 -65 -95 -37l-65 66l-71 -71c-10 -10 -16 -18 -15 -33zM303 623c20 48 58 84 125 76c0 0 -25 -17 -39 -53l-108 -271c-6 -15 -13 -26 -20 -34v-6v-233
c0 -43 -20 -74 -93 -122c0 0 12 14 12 34v231c0 15 2 28 5 39l-106 296c-23 66 -69 53 -69 53s46 63 83 66c25 3 41 -30 52 -58l79 -221z" />
    <glyph glyph-name="Ydieresis" unicode="&#x178;" horiz-adv-x="438" 
d="M120 773l-43 44c-8 8 -26 8 -26 8c36 35 69 61 93 38l40 -39c9 -10 16 -14 31 -13c-28 -28 -67 -65 -95 -38zM301 773l-44 44c-8 8 -25 8 -25 8c35 35 69 61 93 38l39 -39c10 -10 17 -14 32 -13c-28 -28 -68 -65 -95 -38zM303 623c20 48 58 84 125 76
c0 0 -25 -17 -39 -53l-108 -271c-6 -15 -13 -26 -20 -34v-6v-233c0 -43 -20 -74 -93 -122c0 0 12 14 12 34v231c0 15 2 28 5 39l-106 296c-23 66 -69 53 -69 53s46 63 83 66c25 3 41 -30 52 -58l79 -221z" />
    <glyph glyph-name="Ygrave" unicode="&#x1ef2;" horiz-adv-x="438" 
d="M240 776l-77 77c-28 28 -7 51 38 96c-1 -15 4 -24 14 -34l71 -71c20 -19 15 -43 -36 -95c0 0 0 17 -10 27zM303 623c20 48 58 84 125 76c0 0 -25 -17 -39 -53l-108 -271c-6 -15 -13 -26 -20 -34v-6v-233c0 -43 -20 -74 -93 -122c0 0 12 14 12 34v231c0 15 2 28 5 39
l-106 296c-23 66 -69 53 -69 53s46 63 83 66c25 3 41 -30 52 -58l79 -221z" />
    <glyph glyph-name="uni0232" unicode="&#x232;" horiz-adv-x="438" 
d="M297 762h-221c-13 0 -29 -12 -29 -12c40 55 61 80 104 80h212c12 0 29 12 29 12c-38 -55 -57 -80 -95 -80zM303 623c20 48 58 84 125 76c0 0 -25 -17 -39 -53l-108 -271c-6 -15 -13 -26 -20 -34v-6v-233c0 -43 -20 -74 -93 -122c0 0 12 14 12 34v231c0 15 2 28 5 39
l-106 296c-23 66 -69 53 -69 53s46 63 83 66c25 3 41 -30 52 -58l79 -221z" />
    <glyph glyph-name="uni1EF8" unicode="&#x1ef8;" horiz-adv-x="438" 
d="M114 811c-26 -3 -40 -22 -57 -55c22 50 46 81 77 77c70 1 141 -54 212 -40c24 2 40 22 56 55c-21 -51 -42 -80 -67 -79c-73 -5 -147 57 -221 42zM303 623c20 48 58 84 125 76c0 0 -25 -17 -39 -53l-108 -271c-6 -15 -13 -26 -20 -34v-6v-233c0 -43 -20 -74 -93 -122
c0 0 12 14 12 34v231c0 15 2 28 5 39l-106 296c-23 66 -69 53 -69 53s46 63 83 66c25 3 41 -30 52 -58l79 -221z" />
    <glyph glyph-name="Z" unicode="Z" horiz-adv-x="467" 
d="M457 710c0 0 -8 -6 -15 -13c-2 -4 -5 -7 -8 -11l-277 -595l-6 -11h229c17 0 33 12 33 12c-44 -62 -74 -95 -122 -95h-244h-1c-11 -6 -23 -12 -36 -19c0 0 17 13 23 24l277 595c3 7 8 14 12 21h-237c-21 0 -40 -12 -40 -12c45 64 74 94 121 94h258c13 0 29 12 29 12l-5 -6
c3 1 6 3 9 4z" />
    <glyph glyph-name="Zacute" unicode="&#x179;" horiz-adv-x="467" 
d="M213 776c-11 -10 -10 -27 -10 -27c-52 52 -56 76 -37 95l71 71c10 10 16 19 15 34c44 -45 65 -68 38 -96zM457 710c0 0 -8 -6 -15 -13c-2 -4 -5 -7 -8 -11l-277 -595l-6 -11h229c17 0 33 12 33 12c-44 -62 -74 -95 -122 -95h-244h-1c-11 -6 -23 -12 -36 -19
c0 0 17 13 23 24l277 595c3 7 8 14 12 21h-237c-21 0 -40 -12 -40 -12c45 64 74 94 121 94h258c13 0 29 12 29 12l-5 -6c3 1 6 3 9 4z" />
    <glyph glyph-name="Zcaron" unicode="&#x17d;" horiz-adv-x="467" 
d="M224 766l-91 91c-27 28 -7 51 38 95c-1 -15 5 -23 15 -33l71 -71l65 66c28 28 51 7 95 -37c-15 0 -23 -5 -33 -15l-98 -99c-13 -14 -28 -16 -53 0c-3 0 -6 1 -9 3zM457 710c0 0 -8 -6 -15 -13c-2 -4 -5 -7 -8 -11l-277 -595l-6 -11h229c17 0 33 12 33 12
c-44 -62 -74 -95 -122 -95h-244h-1c-11 -6 -23 -12 -36 -19c0 0 17 13 23 24l277 595c3 7 8 14 12 21h-237c-21 0 -40 -12 -40 -12c45 64 74 94 121 94h258c13 0 29 12 29 12l-5 -6c3 1 6 3 9 4z" />
    <glyph glyph-name="Zdotaccent" unicode="&#x17b;" horiz-adv-x="467" 
d="M219 768l-44 44c-8 8 -25 8 -25 8c35 34 69 60 93 38l38 -40c11 -10 18 -13 33 -13c-29 -28 -68 -65 -95 -37zM457 710c0 0 -8 -6 -15 -13c-2 -4 -5 -7 -8 -11l-277 -595l-6 -11h229c17 0 33 12 33 12c-44 -62 -74 -95 -122 -95h-244h-1c-11 -6 -23 -12 -36 -19
c0 0 17 13 23 24l277 595c3 7 8 14 12 21h-237c-21 0 -40 -12 -40 -12c45 64 74 94 121 94h258c13 0 29 12 29 12l-5 -6c3 1 6 3 9 4z" />
    <glyph glyph-name="uni1E92" unicode="&#x1e92;" horiz-adv-x="467" 
d="M457 710c0 0 -8 -6 -15 -13c-2 -4 -5 -7 -8 -11l-277 -595l-6 -11h229c17 0 33 12 33 12c-44 -62 -74 -95 -122 -95h-244h-1c-11 -6 -23 -12 -36 -19c0 0 17 13 23 24l277 595c3 7 8 14 12 21h-237c-21 0 -40 -12 -40 -12c45 64 74 94 121 94h258c13 0 29 12 29 12l-5 -6
c3 1 6 3 9 4zM278 -56l38 -40c11 -10 18 -13 33 -13c-29 -28 -68 -65 -95 -37l-44 44c-8 8 -25 8 -25 8c35 34 69 60 93 38z" />
    <glyph glyph-name="a" unicode="a" horiz-adv-x="411" 
d="M389 8c0 -12 12 -25 12 -25c-74 50 -94 84 -94 131v202c-17 -17 -32 -23 -53 -23h-129v-178c0 -82 -74 -108 -115 -134c24 22 32 55 32 94v445c0 34 15 69 67 110c17 22 65 78 96 78c92 0 184 -56 184 -199v-501zM176 376h131v105c0 155 -113 185 -178 158
c-2 -4 -4 -9 -4 -13v-272c16 16 31 22 51 22z" />
    <glyph glyph-name="aacute" unicode="&#xe1;" horiz-adv-x="411" 
d="M185 776c-11 -10 -10 -27 -10 -27c-52 52 -56 76 -37 95l71 71c10 10 16 19 15 34c44 -45 65 -68 38 -96zM389 8c0 -12 12 -25 12 -25c-74 50 -94 84 -94 131v202c-17 -17 -32 -23 -53 -23h-129v-178c0 -82 -74 -108 -115 -134c24 22 32 55 32 94v445c0 34 15 69 67 110
c17 22 65 78 96 78c92 0 184 -56 184 -199v-501zM176 376h131v105c0 155 -113 185 -178 158c-2 -4 -4 -9 -4 -13v-272c16 16 31 22 51 22z" />
    <glyph glyph-name="abreve" unicode="&#x103;" horiz-adv-x="411" 
d="M298 805c-59 -59 -120 -62 -169 -12c-12 14 -21 61 -24 83c12 -45 93 -94 158 -29l53 53c5 5 5 17 5 17c12 -57 -4 -94 -23 -112zM105 876c-1 3 -2 7 -2 10zM389 8c0 -12 12 -25 12 -25c-74 50 -94 84 -94 131v202c-17 -17 -32 -23 -53 -23h-129v-178
c0 -82 -74 -108 -115 -134c24 22 32 55 32 94v445c0 34 15 69 67 110c17 22 65 78 96 78c92 0 184 -56 184 -199v-501zM176 376h131v105c0 155 -113 185 -178 158c-2 -4 -4 -9 -4 -13v-272c16 16 31 22 51 22z" />
    <glyph glyph-name="uni01CE" unicode="&#x1ce;" horiz-adv-x="411" 
d="M196 766l-91 91c-27 28 -7 51 38 95c-1 -15 5 -23 15 -33l71 -71l65 66c28 28 51 7 95 -37c-15 0 -23 -5 -33 -15l-98 -99c-13 -14 -28 -16 -53 0c-3 0 -6 1 -9 3zM389 8c0 -12 12 -25 12 -25c-74 50 -94 84 -94 131v202c-17 -17 -32 -23 -53 -23h-129v-178
c0 -82 -74 -108 -115 -134c24 22 32 55 32 94v445c0 34 15 69 67 110c17 22 65 78 96 78c92 0 184 -56 184 -199v-501zM176 376h131v105c0 155 -113 185 -178 158c-2 -4 -4 -9 -4 -13v-272c16 16 31 22 51 22z" />
    <glyph glyph-name="acircumflex" unicode="&#xe2;" horiz-adv-x="411" 
d="M143 752c-45 44 -65 67 -38 95l91 91c3 2 6 3 9 3c25 16 40 14 53 0l98 -99c10 -10 18 -15 33 -15c-44 -44 -67 -65 -95 -37l-65 66l-71 -71c-10 -10 -16 -18 -15 -33zM389 8c0 -12 12 -25 12 -25c-74 50 -94 84 -94 131v202c-17 -17 -32 -23 -53 -23h-129v-178
c0 -82 -74 -108 -115 -134c24 22 32 55 32 94v445c0 34 15 69 67 110c17 22 65 78 96 78c92 0 184 -56 184 -199v-501zM176 376h131v105c0 155 -113 185 -178 158c-2 -4 -4 -9 -4 -13v-272c16 16 31 22 51 22z" />
    <glyph glyph-name="adieresis" unicode="&#xe4;" horiz-adv-x="411" 
d="M106 773l-43 44c-8 8 -26 8 -26 8c36 35 69 61 93 38l40 -39c9 -10 16 -14 31 -13c-28 -28 -67 -65 -95 -38zM287 773l-44 44c-8 8 -25 8 -25 8c35 35 69 61 93 38l39 -39c10 -10 17 -14 32 -13c-28 -28 -68 -65 -95 -38zM389 8c0 -12 12 -25 12 -25
c-74 50 -94 84 -94 131v202c-17 -17 -32 -23 -53 -23h-129v-178c0 -82 -74 -108 -115 -134c24 22 32 55 32 94v445c0 34 15 69 67 110c17 22 65 78 96 78c92 0 184 -56 184 -199v-501zM176 376h131v105c0 155 -113 185 -178 158c-2 -4 -4 -9 -4 -13v-272c16 16 31 22 51 22z
" />
    <glyph glyph-name="uni1EA1" unicode="&#x1ea1;" horiz-adv-x="411" 
d="M307 316c-17 -17 -32 -23 -53 -23h-129v-178c0 -82 -74 -108 -115 -134c24 22 32 55 32 94v445c0 34 15 69 67 110c17 22 65 78 96 78c92 0 184 -56 184 -199v-501c0 -12 12 -25 12 -25c-74 50 -94 84 -94 131v202zM125 354c16 16 31 22 51 22h131v105
c0 155 -113 185 -178 158c-2 -4 -4 -9 -4 -13v-272zM388 -96c11 -10 18 -13 33 -13c-29 -28 -68 -65 -95 -37l-44 44c-8 8 -25 8 -25 8c35 34 69 60 93 38z" />
    <glyph glyph-name="agrave" unicode="&#xe0;" horiz-adv-x="411" 
d="M226 776l-77 77c-28 28 -7 51 38 96c-1 -15 4 -24 14 -34l71 -71c20 -19 15 -43 -36 -95c0 0 0 17 -10 27zM389 8c0 -12 12 -25 12 -25c-74 50 -94 84 -94 131v202c-17 -17 -32 -23 -53 -23h-129v-178c0 -82 -74 -108 -115 -134c24 22 32 55 32 94v445c0 34 15 69 67 110
c17 22 65 78 96 78c92 0 184 -56 184 -199v-501zM176 376h131v105c0 155 -113 185 -178 158c-2 -4 -4 -9 -4 -13v-272c16 16 31 22 51 22z" />
    <glyph glyph-name="amacron" unicode="&#x101;" horiz-adv-x="411" 
d="M284 762h-221c-13 0 -29 -12 -29 -12c40 55 61 80 104 80h212c12 0 29 12 29 12c-38 -55 -57 -80 -95 -80zM389 8c0 -12 12 -25 12 -25c-74 50 -94 84 -94 131v202c-17 -17 -32 -23 -53 -23h-129v-178c0 -82 -74 -108 -115 -134c24 22 32 55 32 94v445c0 34 15 69 67 110
c17 22 65 78 96 78c92 0 184 -56 184 -199v-501zM176 376h131v105c0 155 -113 185 -178 158c-2 -4 -4 -9 -4 -13v-272c16 16 31 22 51 22z" />
    <glyph glyph-name="aogonek" unicode="&#x105;" horiz-adv-x="411" 
d="M344 -63c0 -101 84 -121 121 -99c-16 -12 -52 -38 -70 -38c-67 0 -101 42 -101 133c0 23 13 59 57 89c-34 31 -44 58 -44 92v202c-17 -17 -32 -23 -53 -23h-129v-178c0 -82 -74 -108 -115 -134c24 22 32 55 32 94v445c0 34 15 69 67 110c17 22 65 78 96 78
c92 0 184 -56 184 -199v-501c0 -12 12 -25 12 -25c-21 14 -37 27 -50 39c-2 -3 -7 -9 -7 -14v-71zM176 376h131v105c0 155 -113 185 -178 158c-2 -4 -4 -9 -4 -13v-272c16 16 31 22 51 22zM465 -162l8 6c-2 -2 -5 -4 -8 -6z" />
    <glyph glyph-name="aring" unicode="&#xe5;" horiz-adv-x="411" 
d="M116 889c0 19 9 47 37 72c-1 0 -1 0 -2 -1c1 1 3 2 4 4c6 4 12 9 19 14l-1 -1c16 12 35 23 46 23c56 0 102 -34 102 -121v-30c0 -24 -13 -44 -58 -73l1 1c-17 -11 -36 -22 -47 -22c-67 0 -101 43 -101 134zM270 863c0 89 -63 116 -103 105c-1 -2 -1 -3 -1 -5v-71
c0 -87 63 -114 104 -105v3v73zM151 960c-3 -2 -5 -4 -5 -4c2 2 3 3 5 4zM295 800l-8 -7c3 2 6 5 8 7zM389 8c0 -12 12 -25 12 -25c-74 50 -94 84 -94 131v202c-17 -17 -32 -23 -53 -23h-129v-178c0 -82 -74 -108 -115 -134c24 22 32 55 32 94v445c0 34 15 69 67 110
c17 22 65 78 96 78c92 0 184 -56 184 -199v-501zM176 376h131v105c0 155 -113 185 -178 158c-2 -4 -4 -9 -4 -13v-272c16 16 31 22 51 22z" />
    <glyph glyph-name="aringacute" unicode="&#x1fb;" horiz-adv-x="411" 
d="M220 1075c-11 -10 -10 -27 -10 -27c-52 52 -56 76 -37 95l71 71c10 10 16 19 15 34c44 -45 65 -68 38 -96zM116 889c0 19 9 47 37 72c-1 0 -1 0 -2 -1c1 1 3 2 4 4c6 4 12 9 19 14l-1 -1c16 12 35 23 46 23c56 0 102 -34 102 -121v-30c0 -24 -13 -44 -58 -73l1 1
c-17 -11 -36 -22 -47 -22c-67 0 -101 43 -101 134zM270 863c0 89 -63 116 -103 105c-1 -2 -1 -3 -1 -5v-71c0 -87 63 -114 104 -105v3v73zM151 960c-3 -2 -5 -4 -5 -4c2 2 3 3 5 4zM295 800l-8 -7c3 2 6 5 8 7zM389 8c0 -12 12 -25 12 -25c-74 50 -94 84 -94 131v202
c-17 -17 -32 -23 -53 -23h-129v-178c0 -82 -74 -108 -115 -134c24 22 32 55 32 94v445c0 34 15 69 67 110c17 22 65 78 96 78c92 0 184 -56 184 -199v-501zM176 376h131v105c0 155 -113 185 -178 158c-2 -4 -4 -9 -4 -13v-272c16 16 31 22 51 22z" />
    <glyph glyph-name="atilde" unicode="&#xe3;" horiz-adv-x="411" 
d="M101 811c-26 -3 -40 -22 -57 -55c22 50 46 81 77 77c70 1 141 -54 212 -40c24 2 40 22 56 55c-21 -51 -42 -80 -67 -79c-73 -5 -147 57 -221 42zM389 8c0 -12 12 -25 12 -25c-74 50 -94 84 -94 131v202c-17 -17 -32 -23 -53 -23h-129v-178c0 -82 -74 -108 -115 -134
c24 22 32 55 32 94v445c0 34 15 69 67 110c17 22 65 78 96 78c92 0 184 -56 184 -199v-501zM176 376h131v105c0 155 -113 185 -178 158c-2 -4 -4 -9 -4 -13v-272c16 16 31 22 51 22z" />
    <glyph glyph-name="ae" unicode="&#xe6;" horiz-adv-x="669" 
d="M402 78h227c11 0 25 11 25 11c-49 -72 -72 -90 -120 -90h-220c-16 -11 -31 -20 -44 -28c23 21 31 54 31 92v50c-1 5 -1 10 -1 16v177c-16 -15 -30 -21 -50 -21h-127v-176c0 -80 -72 -105 -113 -131c23 21 32 54 32 92v438c0 32 14 67 63 105c16 20 66 79 96 79
c49 0 98 -16 132 -54c34 46 59 59 90 59h211c12 0 25 12 25 12c-49 -73 -76 -93 -114 -93h-163v-214c15 11 29 15 46 15h133c11 0 24 12 24 12c-49 -74 -82 -93 -120 -93h-83v-220c0 -6 0 -12 -1 -17v-23c7 1 14 2 21 2zM174 366h126v104c0 151 -109 181 -173 155
c-2 -4 -4 -9 -4 -14v-267c16 16 30 22 51 22z" />
    <glyph glyph-name="aeacute" unicode="&#x1fd;" horiz-adv-x="669" 
d="M313 776c-11 -10 -10 -27 -10 -27c-52 52 -56 76 -37 95l71 71c10 10 16 19 15 34c44 -45 65 -68 38 -96zM402 78h227c11 0 25 11 25 11c-49 -72 -72 -90 -120 -90h-220c-16 -11 -31 -20 -44 -28c23 21 31 54 31 92v50c-1 5 -1 10 -1 16v177c-16 -15 -30 -21 -50 -21
h-127v-176c0 -80 -72 -105 -113 -131c23 21 32 54 32 92v438c0 32 14 67 63 105c16 20 66 79 96 79c49 0 98 -16 132 -54c34 46 59 59 90 59h211c12 0 25 12 25 12c-49 -73 -76 -93 -114 -93h-163v-214c15 11 29 15 46 15h133c11 0 24 12 24 12c-49 -74 -82 -93 -120 -93
h-83v-220c0 -6 0 -12 -1 -17v-23c7 1 14 2 21 2zM174 366h126v104c0 151 -109 181 -173 155c-2 -4 -4 -9 -4 -14v-267c16 16 30 22 51 22z" />
    <glyph glyph-name="b" unicode="b" horiz-adv-x="417" 
d="M407 237c0 -118 -110 -183 -151 -203c-17 -16 -35 -25 -57 -25h-145h-3c-12 -10 -25 -20 -41 -29c0 0 12 12 12 24v544c0 38 31 91 93 125l-5 -5l36 32h136c33 0 108 -11 108 -90c0 -66 -57 -144 -156 -211c70 2 173 -44 173 -162zM214 634c0 0 -64 2 -111 -2v-269
c125 68 208 147 208 207c0 53 -40 64 -97 64zM278 81c27 21 48 48 48 85c0 162 -131 177 -213 167c-3 -2 -7 -3 -10 -5v-228c0 -9 -2 -18 -5 -28c11 6 23 9 38 9h142z" />
    <glyph glyph-name="uni1E05" unicode="&#x1e05;" horiz-adv-x="417" 
d="M407 237c0 -118 -110 -183 -151 -203c-17 -16 -35 -25 -57 -25h-145h-3c-12 -10 -25 -20 -41 -29c0 0 12 12 12 24v544c0 38 31 91 93 125l-5 -5l36 32h136c33 0 108 -11 108 -90c0 -66 -57 -144 -156 -211c70 2 173 -44 173 -162zM214 634c0 0 -64 2 -111 -2v-269
c125 68 208 147 208 207c0 53 -40 64 -97 64zM278 81c27 21 48 48 48 85c0 162 -131 177 -213 167c-3 -2 -7 -3 -10 -5v-228c0 -9 -2 -18 -5 -28c11 6 23 9 38 9h142zM103 -56l38 -40c11 -10 18 -13 33 -13c-29 -28 -68 -65 -95 -37l-44 44c-8 8 -25 8 -25 8
c35 34 69 60 93 38z" />
    <glyph glyph-name="c" unicode="c" horiz-adv-x="361" 
d="M93 212c0 -169 201 -180 252 -129c0 0 -58 -92 -109 -92c-126 0 -225 57 -225 199v382c0 37 18 64 80 107c16 14 31 21 49 21h170c21 0 38 12 38 12c-46 -67 -67 -95 -105 -95l-150 1v-406z" />
    <glyph glyph-name="cacute" unicode="&#x107;" horiz-adv-x="361" 
d="M159 776c-11 -10 -10 -27 -10 -27c-52 52 -56 76 -37 95l71 71c10 10 16 19 15 34c44 -45 65 -68 38 -96zM93 212c0 -169 201 -180 252 -129c0 0 -58 -92 -109 -92c-126 0 -225 57 -225 199v382c0 37 18 64 80 107c16 14 31 21 49 21h170c21 0 38 12 38 12
c-46 -67 -67 -95 -105 -95l-150 1v-406z" />
    <glyph glyph-name="ccaron" unicode="&#x10d;" horiz-adv-x="361" 
d="M170 766l-91 91c-27 28 -7 51 38 95c-1 -15 5 -23 15 -33l71 -71l65 66c28 28 51 7 95 -37c-15 0 -23 -5 -33 -15l-98 -99c-13 -14 -28 -16 -53 0c-3 0 -6 1 -9 3zM243 617l-150 1v-406c0 -169 201 -180 252 -129c0 0 -58 -92 -109 -92c-126 0 -225 57 -225 199v382
c0 37 18 64 80 107c16 14 31 21 49 21h170c21 0 38 12 38 12c-46 -67 -67 -95 -105 -95z" />
    <glyph glyph-name="ccedilla" unicode="&#xe7;" horiz-adv-x="361" 
d="M93 212c0 -169 201 -180 252 -129c0 0 -58 -92 -109 -92c-126 0 -225 57 -225 199v382c0 37 18 64 80 107c16 14 31 21 49 21h170c21 0 38 12 38 12c-46 -67 -67 -95 -105 -95l-150 1v-406zM252 -25c10 -5 17 -12 23 -22c21 -25 28 -50 28 -68c0 -84 -40 -125 -109 -125
c-18 0 -58 27 -76 40c40 -23 132 0 132 92v18h-43c-40 0 -54 23 -88 84c0 0 17 -13 36 -13h59c13 0 23 -1 32 -4c-2 3 -4 5 -4 5zM118 -200c-3 2 -6 4 -8 6z" />
    <glyph glyph-name="ccircumflex" unicode="&#x109;" horiz-adv-x="361" 
d="M117 752c-45 44 -65 67 -38 95l91 91c3 2 6 3 9 3c25 16 40 14 53 0l98 -99c10 -10 18 -15 33 -15c-44 -44 -67 -65 -95 -37l-65 66l-71 -71c-10 -10 -16 -18 -15 -33zM243 617l-150 1v-406c0 -169 201 -180 252 -129c0 0 -58 -92 -109 -92c-126 0 -225 57 -225 199v382
c0 37 18 64 80 107c16 14 31 21 49 21h170c21 0 38 12 38 12c-46 -67 -67 -95 -105 -95z" />
    <glyph glyph-name="cdotaccent" unicode="&#x10b;" horiz-adv-x="361" 
d="M165 768l-44 44c-8 8 -25 8 -25 8c35 34 69 60 93 38l38 -40c11 -10 18 -13 33 -13c-29 -28 -68 -65 -95 -37zM93 212c0 -169 201 -180 252 -129c0 0 -58 -92 -109 -92c-126 0 -225 57 -225 199v382c0 37 18 64 80 107c16 14 31 21 49 21h170c21 0 38 12 38 12
c-46 -67 -67 -95 -105 -95l-150 1v-406z" />
    <glyph glyph-name="d" unicode="d" horiz-adv-x="409" 
d="M399 511v-326v-2c0 -126 -92 -183 -204 -183h-8h-139h-1c-14 -9 -26 -16 -37 -23c24 22 32 55 32 94v506c0 11 2 21 6 31c-11 -1 -18 -3 -21 -6c0 0 65 99 102 99c10 0 117 -1 127 -2c78 -12 143 -84 143 -188zM233 83c21 0 84 17 84 93v292c0 129 -56 146 -101 146
c-12 0 -52 0 -92 -1v-489c0 -16 -2 -30 -7 -43c7 1 13 2 20 2h96z" />
    <glyph glyph-name="eth" unicode="&#xf0;" horiz-adv-x="566" 
d="M516 511v-326v-2c0 -126 -92 -183 -203 -183h-8h-139h-2c-13 -9 -26 -16 -36 -23c23 22 31 55 31 94v254h-86c-11 0 -23 -12 -23 -12c38 51 60 72 97 72h12v192c0 11 2 21 6 31c-10 -1 -17 -3 -20 -6c0 0 65 99 101 99c11 0 117 -1 128 -2c78 -12 142 -84 142 -188z
M350 83c22 0 85 17 85 93v292c0 129 -57 146 -101 146c-12 0 -52 0 -92 -1v-228h83c12 0 24 11 24 11c-36 -53 -60 -71 -97 -71h-10v-201c0 -16 -2 -30 -7 -43c6 1 13 2 20 2h95z" />
    <glyph glyph-name="dcaron" unicode="&#x10f;" horiz-adv-x="409" 
d="M194 766l-91 91c-27 28 -7 51 38 95c-1 -15 5 -23 15 -33l71 -71l65 66c28 28 51 7 95 -37c-15 0 -23 -5 -33 -15l-98 -99c-13 -14 -28 -16 -53 0c-3 0 -6 1 -9 3zM399 511v-326v-2c0 -126 -92 -183 -204 -183h-8h-139h-1c-14 -9 -26 -16 -37 -23c24 22 32 55 32 94v506
c0 11 2 21 6 31c-11 -1 -18 -3 -21 -6c0 0 65 99 102 99c10 0 117 -1 127 -2c78 -12 143 -84 143 -188zM233 83c21 0 84 17 84 93v292c0 129 -56 146 -101 146c-12 0 -52 0 -92 -1v-489c0 -16 -2 -30 -7 -43c7 1 13 2 20 2h96z" />
    <glyph glyph-name="dcroat" unicode="&#x111;" horiz-adv-x="566" 
d="M516 511v-326v-2c0 -126 -92 -183 -203 -183h-8h-139h-2c-13 -9 -26 -16 -36 -23c23 22 31 55 31 94v254h-86c-11 0 -23 -12 -23 -12c38 51 60 72 97 72h12v192c0 11 2 21 6 31c-10 -1 -17 -3 -20 -6c0 0 65 99 101 99c11 0 117 -1 128 -2c78 -12 142 -84 142 -188z
M350 83c22 0 85 17 85 93v292c0 129 -57 146 -101 146c-12 0 -52 0 -92 -1v-228h83c12 0 24 11 24 11c-36 -53 -60 -71 -97 -71h-10v-201c0 -16 -2 -30 -7 -43c6 1 13 2 20 2h95z" />
    <glyph glyph-name="uni1E0D" unicode="&#x1e0d;" horiz-adv-x="409" 
d="M399 511v-326v-2c0 -126 -92 -183 -204 -183h-8h-139h-1c-14 -9 -26 -16 -37 -23c24 22 32 55 32 94v506c0 11 2 21 6 31c-11 -1 -18 -3 -21 -6c0 0 65 99 102 99c10 0 117 -1 127 -2c78 -12 143 -84 143 -188zM233 83c21 0 84 17 84 93v292c0 129 -56 146 -101 146
c-12 0 -52 0 -92 -1v-489c0 -16 -2 -30 -7 -43c7 1 13 2 20 2h96zM249 -56l38 -40c11 -10 18 -13 33 -13c-29 -28 -68 -65 -95 -37l-44 44c-8 8 -25 8 -25 8c35 34 69 60 93 38z" />
    <glyph glyph-name="e" unicode="e" 
d="M144 78h232c11 0 23 11 23 11c-49 -71 -72 -89 -120 -89h-225h-4c-14 -10 -28 -18 -40 -25c25 22 32 55 32 92v488c0 19 6 38 22 58c-8 -4 -14 -10 -14 -10c49 75 78 96 115 96h217c11 0 23 11 23 11c-48 -72 -78 -93 -116 -93h-163v-216c14 10 28 13 45 13h133
c14 0 25 14 25 14c-48 -73 -82 -95 -120 -95h-83v-213c0 -17 -3 -32 -8 -46c8 3 17 4 26 4z" />
    <glyph glyph-name="eacute" unicode="&#xe9;" 
d="M186 776c-11 -10 -10 -27 -10 -27c-52 52 -56 76 -37 95l71 71c10 10 16 19 15 34c44 -45 65 -68 38 -96zM144 78h232c11 0 23 11 23 11c-49 -71 -72 -89 -120 -89h-225h-4c-14 -10 -28 -18 -40 -25c25 22 32 55 32 92v488c0 19 6 38 22 58c-8 -4 -14 -10 -14 -10
c49 75 78 96 115 96h217c11 0 23 11 23 11c-48 -72 -78 -93 -116 -93h-163v-216c14 10 28 13 45 13h133c14 0 25 14 25 14c-48 -73 -82 -95 -120 -95h-83v-213c0 -17 -3 -32 -8 -46c8 3 17 4 26 4z" />
    <glyph glyph-name="ebreve" unicode="&#x115;" 
d="M300 805c-59 -59 -120 -62 -169 -12c-12 14 -21 61 -24 83c12 -45 93 -94 158 -29l53 53c5 5 5 17 5 17c12 -57 -4 -94 -23 -112zM107 876c-1 3 -2 7 -2 10zM144 78h232c11 0 23 11 23 11c-49 -71 -72 -89 -120 -89h-225h-4c-14 -10 -28 -18 -40 -25c25 22 32 55 32 92
v488c0 19 6 38 22 58c-8 -4 -14 -10 -14 -10c49 75 78 96 115 96h217c11 0 23 11 23 11c-48 -72 -78 -93 -116 -93h-163v-216c14 10 28 13 45 13h133c14 0 25 14 25 14c-48 -73 -82 -95 -120 -95h-83v-213c0 -17 -3 -32 -8 -46c8 3 17 4 26 4z" />
    <glyph glyph-name="ecaron" unicode="&#x11b;" 
d="M197 766l-91 91c-27 28 -7 51 38 95c-1 -15 5 -23 15 -33l71 -71l65 66c28 28 51 7 95 -37c-15 0 -23 -5 -33 -15l-98 -99c-13 -14 -28 -16 -53 0c-3 0 -6 1 -9 3zM144 78h232c11 0 23 11 23 11c-49 -71 -72 -89 -120 -89h-225h-4c-14 -10 -28 -18 -40 -25
c25 22 32 55 32 92v488c0 19 6 38 22 58c-8 -4 -14 -10 -14 -10c49 75 78 96 115 96h217c11 0 23 11 23 11c-48 -72 -78 -93 -116 -93h-163v-216c14 10 28 13 45 13h133c14 0 25 14 25 14c-48 -73 -82 -95 -120 -95h-83v-213c0 -17 -3 -32 -8 -46c8 3 17 4 26 4z" />
    <glyph glyph-name="uni0229" unicode="&#x229;" 
d="M144 78h232c11 0 23 11 23 11c-49 -71 -72 -89 -120 -89h-225h-4c-14 -10 -28 -18 -40 -25c25 22 32 55 32 92v488c0 19 6 38 22 58c-8 -4 -14 -10 -14 -10c49 75 78 96 115 96h217c11 0 23 11 23 11c-48 -72 -78 -93 -116 -93h-163v-216c14 10 28 13 45 13h133
c14 0 25 14 25 14c-48 -73 -82 -95 -120 -95h-83v-213c0 -17 -3 -32 -8 -46c8 3 17 4 26 4zM279 -25c10 -5 17 -12 23 -22c21 -25 28 -50 28 -68c0 -84 -40 -125 -109 -125c-18 0 -58 27 -76 40c40 -23 132 0 132 92v18h-43c-40 0 -54 23 -88 84c0 0 17 -13 36 -13h59
c13 0 23 -1 32 -4c-2 3 -4 5 -4 5zM145 -200c-3 2 -6 4 -8 6z" />
    <glyph glyph-name="ecircumflex" unicode="&#xea;" 
d="M144 752c-45 44 -65 67 -38 95l91 91c3 2 6 3 9 3c25 16 40 14 53 0l98 -99c10 -10 18 -15 33 -15c-44 -44 -67 -65 -95 -37l-65 66l-71 -71c-10 -10 -16 -18 -15 -33zM144 78h232c11 0 23 11 23 11c-49 -71 -72 -89 -120 -89h-225h-4c-14 -10 -28 -18 -40 -25
c25 22 32 55 32 92v488c0 19 6 38 22 58c-8 -4 -14 -10 -14 -10c49 75 78 96 115 96h217c11 0 23 11 23 11c-48 -72 -78 -93 -116 -93h-163v-216c14 10 28 13 45 13h133c14 0 25 14 25 14c-48 -73 -82 -95 -120 -95h-83v-213c0 -17 -3 -32 -8 -46c8 3 17 4 26 4z" />
    <glyph glyph-name="edieresis" unicode="&#xeb;" 
d="M108 773l-43 44c-8 8 -26 8 -26 8c36 35 69 61 93 38l40 -39c9 -10 16 -14 31 -13c-28 -28 -67 -65 -95 -38zM289 773l-44 44c-8 8 -25 8 -25 8c35 35 69 61 93 38l39 -39c10 -10 17 -14 32 -13c-28 -28 -68 -65 -95 -38zM144 78h232c11 0 23 11 23 11
c-49 -71 -72 -89 -120 -89h-225h-4c-14 -10 -28 -18 -40 -25c25 22 32 55 32 92v488c0 19 6 38 22 58c-8 -4 -14 -10 -14 -10c49 75 78 96 115 96h217c11 0 23 11 23 11c-48 -72 -78 -93 -116 -93h-163v-216c14 10 28 13 45 13h133c14 0 25 14 25 14
c-48 -73 -82 -95 -120 -95h-83v-213c0 -17 -3 -32 -8 -46c8 3 17 4 26 4z" />
    <glyph glyph-name="edotaccent" unicode="&#x117;" 
d="M192 768l-44 44c-8 8 -25 8 -25 8c35 34 69 60 93 38l38 -40c11 -10 18 -13 33 -13c-29 -28 -68 -65 -95 -37zM144 78h232c11 0 23 11 23 11c-49 -71 -72 -89 -120 -89h-225h-4c-14 -10 -28 -18 -40 -25c25 22 32 55 32 92v488c0 19 6 38 22 58c-8 -4 -14 -10 -14 -10
c49 75 78 96 115 96h217c11 0 23 11 23 11c-48 -72 -78 -93 -116 -93h-163v-216c14 10 28 13 45 13h133c14 0 25 14 25 14c-48 -73 -82 -95 -120 -95h-83v-213c0 -17 -3 -32 -8 -46c8 3 17 4 26 4z" />
    <glyph glyph-name="uni1EB9" unicode="&#x1eb9;" 
d="M144 78h232c11 0 23 11 23 11c-49 -71 -72 -89 -120 -89h-225h-4c-14 -10 -28 -18 -40 -25c25 22 32 55 32 92v488c0 19 6 38 22 58c-8 -4 -14 -10 -14 -10c49 75 78 96 115 96h217c11 0 23 11 23 11c-48 -72 -78 -93 -116 -93h-163v-216c14 10 28 13 45 13h133
c14 0 25 14 25 14c-48 -73 -82 -95 -120 -95h-83v-213c0 -17 -3 -32 -8 -46c8 3 17 4 26 4zM252 -56l38 -40c11 -10 18 -13 33 -13c-29 -28 -68 -65 -95 -37l-44 44c-8 8 -25 8 -25 8c35 34 69 60 93 38z" />
    <glyph glyph-name="egrave" unicode="&#xe8;" 
d="M228 776l-77 77c-28 28 -7 51 38 96c-1 -15 4 -24 14 -34l71 -71c20 -19 15 -43 -36 -95c0 0 0 17 -10 27zM144 78h232c11 0 23 11 23 11c-49 -71 -72 -89 -120 -89h-225h-4c-14 -10 -28 -18 -40 -25c25 22 32 55 32 92v488c0 19 6 38 22 58c-8 -4 -14 -10 -14 -10
c49 75 78 96 115 96h217c11 0 23 11 23 11c-48 -72 -78 -93 -116 -93h-163v-216c14 10 28 13 45 13h133c14 0 25 14 25 14c-48 -73 -82 -95 -120 -95h-83v-213c0 -17 -3 -32 -8 -46c8 3 17 4 26 4z" />
    <glyph glyph-name="emacron" unicode="&#x113;" 
d="M285 762h-221c-13 0 -29 -12 -29 -12c40 55 61 80 104 80h212c12 0 29 12 29 12c-38 -55 -57 -80 -95 -80zM144 78h232c11 0 23 11 23 11c-49 -71 -72 -89 -120 -89h-225h-4c-14 -10 -28 -18 -40 -25c25 22 32 55 32 92v488c0 19 6 38 22 58c-8 -4 -14 -10 -14 -10
c49 75 78 96 115 96h217c11 0 23 11 23 11c-48 -72 -78 -93 -116 -93h-163v-216c14 10 28 13 45 13h133c14 0 25 14 25 14c-48 -73 -82 -95 -120 -95h-83v-213c0 -17 -3 -32 -8 -46c8 3 17 4 26 4z" />
    <glyph glyph-name="eogonek" unicode="&#x119;" 
d="M279 0h-33v-63c0 -101 84 -121 121 -99c-16 -12 -52 -38 -70 -38c-67 0 -101 42 -101 133c0 17 7 43 30 67h-172h-4c-14 -10 -28 -18 -40 -25c25 22 32 55 32 92v488c0 19 6 38 22 58c-8 -4 -14 -10 -14 -10c49 75 78 96 115 96h217c11 0 23 11 23 11
c-48 -72 -78 -93 -116 -93h-163v-216c14 10 28 13 45 13h133c14 0 25 14 25 14c-48 -73 -82 -95 -120 -95h-83v-213c0 -17 -3 -32 -8 -46c8 3 17 4 26 4h232c11 0 23 11 23 11c-49 -71 -72 -89 -120 -89zM367 -162l8 6c-2 -2 -5 -4 -8 -6z" />
    <glyph glyph-name="uni1EBD" unicode="&#x1ebd;" 
d="M102 811c-26 -3 -40 -22 -57 -55c22 50 46 81 77 77c70 1 141 -54 212 -40c24 2 40 22 56 55c-21 -51 -42 -80 -67 -79c-73 -5 -147 57 -221 42zM144 78h232c11 0 23 11 23 11c-49 -71 -72 -89 -120 -89h-225h-4c-14 -10 -28 -18 -40 -25c25 22 32 55 32 92v488
c0 19 6 38 22 58c-8 -4 -14 -10 -14 -10c49 75 78 96 115 96h217c11 0 23 11 23 11c-48 -72 -78 -93 -116 -93h-163v-216c14 10 28 13 45 13h133c14 0 25 14 25 14c-48 -73 -82 -95 -120 -95h-83v-213c0 -17 -3 -32 -8 -46c8 3 17 4 26 4z" />
    <glyph glyph-name="uni0259" unicode="&#x259;" horiz-adv-x="369" 
d="M133 714c126 0 225 -56 225 -198v-382c0 -37 -18 -64 -80 -107c-16 -14 -31 -21 -49 -21h-170c-21 0 -38 -12 -38 -12l10 15c-6 -5 -14 -10 -21 -15c0 0 12 17 12 38v216c0 9 2 17 5 24l-6 -3c46 67 67 95 105 95l150 -1v131c0 169 -201 180 -252 129c0 0 58 91 109 91z
M126 89l150 -1v213c-15 -14 -29 -20 -47 -20h-125l1 -182c0 -5 0 -10 -1 -14c7 3 14 4 22 4z" />
    <glyph glyph-name="f" unicode="f" horiz-adv-x="423" 
d="M299 618h-177v-213c15 11 30 15 47 15h141c11 0 24 11 24 11c-49 -72 -82 -92 -119 -92h-93v-219c0 -86 -72 -118 -112 -144c23 21 31 54 31 91v490c0 20 6 38 22 58c-8 -3 -14 -9 -14 -9c48 69 76 93 114 93h226c12 0 24 12 24 12c-49 -73 -76 -93 -114 -93z" />
    <glyph glyph-name="g" unicode="g" horiz-adv-x="388" 
d="M376 373c-3 -4 -6 -8 -8 -12l3 2s-12 -13 -12 -24v-181c0 -86 -69 -116 -111 -142c-16 -14 -33 -25 -47 -25c-91 0 -190 56 -190 198v384c0 34 16 59 73 100c18 19 33 26 55 26h206c14 0 29 12 29 12c-49 -73 -66 -93 -104 -93h-177v-397c0 -157 112 -189 178 -166
c5 16 7 34 7 53v145c0 10 1 18 4 27c-3 -1 -6 -1 -10 -1h-89c-11 0 -24 -12 -24 -12c49 74 67 94 105 94h88c12 0 24 12 24 12z" />
    <glyph glyph-name="gbreve" unicode="&#x11f;" horiz-adv-x="388" 
d="M286 805c-59 -59 -120 -62 -169 -12c-12 14 -21 61 -24 83c12 -45 93 -94 158 -29l53 53c5 5 5 17 5 17c12 -57 -4 -94 -23 -112zM93 876c-1 3 -2 7 -2 10zM376 373c-3 -4 -6 -8 -8 -12l3 2s-12 -13 -12 -24v-181c0 -86 -69 -116 -111 -142c-16 -14 -33 -25 -47 -25
c-91 0 -190 56 -190 198v384c0 34 16 59 73 100c18 19 33 26 55 26h206c14 0 29 12 29 12c-49 -73 -66 -93 -104 -93h-177v-397c0 -157 112 -189 178 -166c5 16 7 34 7 53v145c0 10 1 18 4 27c-3 -1 -6 -1 -10 -1h-89c-11 0 -24 -12 -24 -12c49 74 67 94 105 94h88
c12 0 24 12 24 12z" />
    <glyph glyph-name="gcaron" unicode="&#x1e7;" horiz-adv-x="388" 
d="M184 766l-91 91c-27 28 -7 51 38 95c-1 -15 5 -23 15 -33l71 -71l65 66c28 28 51 7 95 -37c-15 0 -23 -5 -33 -15l-98 -99c-13 -14 -28 -16 -53 0c-3 0 -6 1 -9 3zM352 361c12 0 24 12 24 12c-3 -4 -6 -8 -8 -12l3 2s-12 -13 -12 -24v-181c0 -86 -69 -116 -111 -142
c-16 -14 -33 -25 -47 -25c-91 0 -190 56 -190 198v384c0 34 16 59 73 100c18 19 33 26 55 26h206c14 0 29 12 29 12c-49 -73 -66 -93 -104 -93h-177v-397c0 -157 112 -189 178 -166c5 16 7 34 7 53v145c0 10 1 18 4 27c-3 -1 -6 -1 -10 -1h-89c-11 0 -24 -12 -24 -12
c49 74 67 94 105 94h88z" />
    <glyph glyph-name="gcircumflex" unicode="&#x11d;" horiz-adv-x="388" 
d="M131 752c-45 44 -65 67 -38 95l91 91c3 2 6 3 9 3c25 16 40 14 53 0l98 -99c10 -10 18 -15 33 -15c-44 -44 -67 -65 -95 -37l-65 66l-71 -71c-10 -10 -16 -18 -15 -33zM352 361c12 0 24 12 24 12c-3 -4 -6 -8 -8 -12l3 2s-12 -13 -12 -24v-181c0 -86 -69 -116 -111 -142
c-16 -14 -33 -25 -47 -25c-91 0 -190 56 -190 198v384c0 34 16 59 73 100c18 19 33 26 55 26h206c14 0 29 12 29 12c-49 -73 -66 -93 -104 -93h-177v-397c0 -157 112 -189 178 -166c5 16 7 34 7 53v145c0 10 1 18 4 27c-3 -1 -6 -1 -10 -1h-89c-11 0 -24 -12 -24 -12
c49 74 67 94 105 94h88z" />
    <glyph glyph-name="uni0123" unicode="&#x123;" horiz-adv-x="388" 
d="M205 755c16 42 -21 134 -68 108l-7 6c35 36 85 50 105 31c37 -40 10 -119 -18 -148zM376 373c-3 -4 -6 -8 -8 -12l3 2s-12 -13 -12 -24v-181c0 -86 -69 -116 -111 -142c-16 -14 -33 -25 -47 -25c-91 0 -190 56 -190 198v384c0 34 16 59 73 100c18 19 33 26 55 26h206
c14 0 29 12 29 12c-49 -73 -66 -93 -104 -93h-177v-397c0 -157 112 -189 178 -166c5 16 7 34 7 53v145c0 10 1 18 4 27c-3 -1 -6 -1 -10 -1h-89c-11 0 -24 -12 -24 -12c49 74 67 94 105 94h88c12 0 24 12 24 12z" />
    <glyph glyph-name="gdotaccent" unicode="&#x121;" horiz-adv-x="388" 
d="M179 768l-44 44c-8 8 -25 8 -25 8c35 34 69 60 93 38l38 -40c11 -10 18 -13 33 -13c-29 -28 -68 -65 -95 -37zM376 373c-3 -4 -6 -8 -8 -12l3 2s-12 -13 -12 -24v-181c0 -86 -69 -116 -111 -142c-16 -14 -33 -25 -47 -25c-91 0 -190 56 -190 198v384c0 34 16 59 73 100
c18 19 33 26 55 26h206c14 0 29 12 29 12c-49 -73 -66 -93 -104 -93h-177v-397c0 -157 112 -189 178 -166c5 16 7 34 7 53v145c0 10 1 18 4 27c-3 -1 -6 -1 -10 -1h-89c-11 0 -24 -12 -24 -12c49 74 67 94 105 94h88c12 0 24 12 24 12z" />
    <glyph glyph-name="h" unicode="h" horiz-adv-x="395" 
d="M292 595c0 37 25 72 93 110c0 0 -11 -14 -11 -24v-556c0 -88 -73 -119 -114 -145c25 21 32 56 32 93v279c-20 -15 -38 -20 -57 -20h-114v-207c0 -88 -73 -119 -111 -145c22 21 31 56 31 93v522c0 37 21 75 91 110c0 0 -11 -14 -11 -24v-289c17 14 32 19 51 19h120v184z
" />
    <glyph glyph-name="hbar" unicode="&#x127;" horiz-adv-x="643" 
d="M565 581c11 0 28 12 28 12c-37 -55 -57 -80 -95 -80h-16v-388c0 -88 -72 -119 -113 -145c24 21 32 56 32 93v279c-20 -15 -38 -20 -57 -20h-115v-207c0 -88 -72 -119 -110 -145c21 21 31 56 31 93v440h-71c-13 0 -29 -12 -29 -12c39 53 60 78 100 80v14
c0 37 20 75 91 110c0 0 -12 -14 -12 -24v-100h172v14c0 37 25 72 93 110c0 0 -12 -14 -12 -24v-100h83zM401 411v102h-172v-122c17 15 33 20 52 20h120z" />
    <glyph glyph-name="hcircumflex" unicode="&#x125;" horiz-adv-x="395" 
d="M134 752c-45 44 -65 67 -38 95l91 91c3 2 6 3 9 3c25 16 40 14 53 0l98 -99c10 -10 18 -15 33 -15c-44 -44 -67 -65 -95 -37l-65 66l-71 -71c-10 -10 -16 -18 -15 -33zM292 595c0 37 25 72 93 110c0 0 -11 -14 -11 -24v-556c0 -88 -73 -119 -114 -145c25 21 32 56 32 93
v279c-20 -15 -38 -20 -57 -20h-114v-207c0 -88 -73 -119 -111 -145c22 21 31 56 31 93v522c0 37 21 75 91 110c0 0 -11 -14 -11 -24v-289c17 14 32 19 51 19h120v184z" />
    <glyph glyph-name="uni1E25" unicode="&#x1e25;" horiz-adv-x="395" 
d="M292 595c0 37 25 72 93 110c0 0 -11 -14 -11 -24v-556c0 -88 -73 -119 -114 -145c25 21 32 56 32 93v279c-20 -15 -38 -20 -57 -20h-114v-207c0 -88 -73 -119 -111 -145c22 21 31 56 31 93v522c0 37 21 75 91 110c0 0 -11 -14 -11 -24v-289c17 14 32 19 51 19h120v184z
M242 -56l38 -40c11 -10 18 -13 33 -13c-29 -28 -68 -65 -95 -37l-44 44c-8 8 -25 8 -25 8c35 34 69 60 93 38z" />
    <glyph glyph-name="i" unicode="i" horiz-adv-x="144" 
d="M122 123c0 -85 -71 -128 -112 -143c23 21 31 54 31 91v523c0 38 20 71 93 111c0 0 -12 -12 -12 -23v-559z" />
    <glyph glyph-name="dotlessi" unicode="&#x131;" horiz-adv-x="144" 
d="M122 123c0 -85 -71 -128 -112 -143c23 21 31 54 31 91v523c0 38 20 71 93 111c0 0 -12 -12 -12 -23v-559z" />
    <glyph glyph-name="iacute" unicode="&#xed;" horiz-adv-x="144" 
d="M127 853c27 28 6 51 -38 96c1 -15 -5 -24 -15 -34l-71 -71c-20 -19 -15 -43 37 -95c0 0 -1 17 10 27zM122 123c0 -85 -71 -128 -112 -143c23 21 31 54 31 91v523c0 38 20 71 93 111c0 0 -12 -12 -12 -23v-559z" />
    <glyph glyph-name="ibreve" unicode="&#x12d;" horiz-adv-x="144" 
d="M187 917c12 -57 -4 -94 -23 -112c-59 -59 -120 -62 -169 -12c-13 14 -21 61 -24 82c12 -45 93 -93 158 -28l53 53c5 5 5 17 5 17zM-29 875c-1 4 -2 7 -2 11zM41 594c0 38 20 71 93 111c0 0 -12 -12 -12 -23v-559c0 -85 -71 -128 -112 -143c23 21 31 54 31 91v523z" />
    <glyph glyph-name="uni01D0" unicode="&#x1d0;" horiz-adv-x="144" 
d="M159 914c28 28 51 7 95 -37c-15 0 -23 -5 -33 -15l-98 -99c-13 -14 -28 -16 -53 0c-3 0 -6 1 -9 3l-92 91c-27 28 -6 51 39 95c-1 -15 5 -23 15 -33l71 -71zM41 594c0 38 20 71 93 111c0 0 -12 -12 -12 -23v-559c0 -85 -71 -128 -112 -143c23 21 31 54 31 91v523z" />
    <glyph glyph-name="icircumflex" unicode="&#xee;" horiz-adv-x="144" 
d="M221 842c10 -10 18 -15 33 -15c-44 -44 -67 -65 -95 -37l-65 66l-71 -71c-10 -10 -16 -18 -15 -33c-45 44 -66 67 -39 95l92 91c3 2 6 3 9 3c25 16 40 14 53 0zM41 594c0 38 20 71 93 111c0 0 -12 -12 -12 -23v-559c0 -85 -71 -128 -112 -143c23 21 31 54 31 91v523z" />
    <glyph glyph-name="idieresis" unicode="&#xef;" horiz-adv-x="144" 
d="M-29 773c28 -27 68 10 96 38c-15 -1 -22 3 -31 13l-40 39c-24 23 -58 -3 -93 -38c0 0 17 0 25 -8zM153 773c27 -27 67 10 95 38c-15 -1 -22 3 -32 13l-39 39c-24 23 -58 -3 -93 -38c0 0 17 0 25 -8zM122 123c0 -85 -71 -128 -112 -143c23 21 31 54 31 91v523
c0 38 20 71 93 111c0 0 -12 -12 -12 -23v-559z" />
    <glyph glyph-name="i.loclTRK" horiz-adv-x="144" 
d="M56 768c27 -28 66 9 95 37c-15 0 -22 3 -33 13l-38 40c-24 22 -58 -4 -93 -38c0 0 17 0 25 -8zM122 123c0 -85 -71 -128 -112 -143c23 21 31 54 31 91v523c0 38 20 71 93 111c0 0 -12 -12 -12 -23v-559z" />
    <glyph glyph-name="uni1ECB" unicode="&#x1ecb;" horiz-adv-x="144" 
d="M122 123c0 -85 -71 -128 -112 -143c23 21 31 54 31 91v523c0 38 20 71 93 111c0 0 -12 -12 -12 -23v-559zM92 -146c27 -28 66 9 95 37c-15 0 -22 3 -33 13l-38 40c-24 22 -58 -4 -93 -38c0 0 17 0 25 -8z" />
    <glyph glyph-name="igrave" unicode="&#xec;" horiz-adv-x="144" 
d="M15 853l77 -77c10 -10 10 -27 10 -27c51 52 56 76 36 95l-71 71c-10 10 -15 19 -14 34c-45 -45 -66 -68 -38 -96zM122 123c0 -85 -71 -128 -112 -143c23 21 31 54 31 91v523c0 38 20 71 93 111c0 0 -12 -12 -12 -23v-559z" />
    <glyph glyph-name="ij" unicode="&#x133;" horiz-adv-x="495" 
d="M391 591c0 38 28 77 94 120c0 0 -12 -13 -12 -24v-528c0 -72 -51 -107 -92 -131c-21 -20 -43 -37 -59 -37c-79 0 -168 56 -168 197v21c0 38 24 76 88 120c0 0 -12 -15 -12 -32v-74c0 -142 91 -176 156 -162c4 14 5 30 5 46v484zM41 594c0 38 20 71 93 111
c0 0 -12 -12 -12 -23v-559c0 -85 -71 -128 -112 -143c23 21 31 54 31 91v523z" />
    <glyph glyph-name="imacron" unicode="&#x12b;" horiz-adv-x="144" 
d="M215 830h-212c-43 0 -65 -25 -104 -80c0 0 15 12 29 12h221c38 0 57 25 95 80c0 0 -17 -12 -29 -12zM122 123c0 -85 -71 -128 -112 -143c23 21 31 54 31 91v523c0 38 20 71 93 111c0 0 -12 -12 -12 -23v-559z" />
    <glyph glyph-name="iogonek" unicode="&#x12f;" horiz-adv-x="144" 
d="M56 768l-44 44c-8 8 -25 8 -25 8c35 34 69 60 93 38l38 -40c11 -10 18 -13 33 -13c-29 -28 -68 -65 -95 -37zM122 123c0 -85 -71 -128 -112 -143c23 21 31 54 31 91v523c0 38 20 71 93 111c0 0 -12 -12 -12 -23v-559zM107 -63c0 -100 84 -121 121 -99
c-16 -13 -52 -38 -69 -38c-67 0 -101 42 -101 133c0 23 12 60 57 90c0 0 -8 -8 -8 -15v-71zM228 -162c6 3 9 6 9 6c-2 -2 -5 -5 -9 -6z" />
    <glyph glyph-name="itilde" unicode="&#x129;" horiz-adv-x="144" 
d="M187 769c-73 -5 -147 57 -221 42c-27 -3 -40 -22 -57 -55c22 50 46 81 76 77c71 1 142 -54 213 -40c24 2 40 22 56 55c-21 -51 -42 -80 -67 -79zM122 123c0 -85 -71 -128 -112 -143c23 21 31 54 31 91v523c0 38 20 71 93 111c0 0 -12 -12 -12 -23v-559z" />
    <glyph glyph-name="j" unicode="j" horiz-adv-x="351" 
d="M247 591c0 38 28 77 94 120c0 0 -12 -13 -12 -24v-528c0 -72 -51 -107 -92 -131c-21 -20 -43 -37 -59 -37c-79 0 -168 56 -168 197v21c0 38 24 76 88 120c0 0 -12 -15 -12 -32v-74c0 -142 91 -176 156 -162c4 14 5 30 5 46v484z" />
    <glyph glyph-name="uni0237" unicode="&#x237;" horiz-adv-x="351" 
d="M247 591c0 38 28 77 94 120c0 0 -12 -13 -12 -24v-528c0 -72 -51 -107 -92 -131c-21 -20 -43 -37 -59 -37c-79 0 -168 56 -168 197v21c0 38 24 76 88 120c0 0 -12 -15 -12 -32v-74c0 -142 91 -176 156 -162c4 14 5 30 5 46v484z" />
    <glyph glyph-name="jcircumflex" unicode="&#x135;" horiz-adv-x="351" 
d="M112 752c-45 44 -65 67 -38 95l91 91c3 2 6 3 9 3c25 16 40 14 53 0l98 -99c10 -10 18 -15 33 -15c-44 -44 -67 -65 -95 -37l-65 66l-71 -71c-10 -10 -16 -18 -15 -33zM247 591c0 38 28 77 94 120c0 0 -12 -13 -12 -24v-528c0 -72 -51 -107 -92 -131
c-21 -20 -43 -37 -59 -37c-79 0 -168 56 -168 197v21c0 38 24 76 88 120c0 0 -12 -15 -12 -32v-74c0 -142 91 -176 156 -162c4 14 5 30 5 46v484z" />
    <glyph glyph-name="k" unicode="k" horiz-adv-x="414" 
d="M341 88c23 -44 63 -19 63 -19c-6 -39 -26 -64 -62 -71c-22 -5 -45 7 -58 31l-111 245c-11 21 -23 32 -35 37c-7 -2 -16 -4 -25 -5v-203c0 -62 -52 -88 -103 -123c12 10 22 33 22 58v550c0 38 26 76 93 122c0 0 -12 -17 -12 -29v-319l139 279c23 39 56 68 136 69
c0 0 -17 -4 -23 -14l-160 -322c7 -8 14 -17 18 -25z" />
    <glyph glyph-name="uni0137" unicode="&#x137;" horiz-adv-x="414" 
d="M211 755c16 42 -21 134 -68 108l-7 6c35 36 85 50 105 31c37 -40 10 -119 -18 -148zM341 88c23 -44 63 -19 63 -19c-6 -39 -26 -64 -62 -71c-22 -5 -45 7 -58 31l-111 245c-11 21 -23 32 -35 37c-7 -2 -16 -4 -25 -5v-203c0 -62 -52 -88 -103 -123c12 10 22 33 22 58v550
c0 38 26 76 93 122c0 0 -12 -17 -12 -29v-319l139 279c23 39 56 68 136 69c0 0 -17 -4 -23 -14l-160 -322c7 -8 14 -17 18 -25z" />
    <glyph glyph-name="kgreenlandic" unicode="&#x138;" horiz-adv-x="414" 
d="M341 88c23 -44 63 -19 63 -19c-6 -39 -26 -64 -62 -71c-22 -5 -45 7 -58 31l-111 245c-11 21 -23 32 -35 37c-7 -2 -16 -4 -25 -5v-203c0 -62 -52 -88 -103 -123c12 10 22 33 22 58v550c0 38 26 76 93 122c0 0 -12 -17 -12 -29v-319l139 279c23 39 56 68 136 69
c0 0 -17 -4 -23 -14l-160 -322c7 -8 14 -17 18 -25z" />
    <glyph glyph-name="l" unicode="l" 
d="M375 79c14 0 30 11 30 11c-42 -65 -69 -93 -103 -93h-246c-16 -11 -33 -19 -46 -27c24 21 32 54 32 92v614c0 12 -12 24 -12 24c73 -45 92 -73 92 -111v-480c0 -12 -1 -23 -4 -33c8 2 15 3 23 3h234z" />
    <glyph glyph-name="lacute" unicode="&#x13a;" 
d="M186 776c-11 -10 -10 -27 -10 -27c-52 52 -56 76 -37 95l71 71c10 10 16 19 15 34c44 -45 65 -68 38 -96zM375 79c14 0 30 11 30 11c-42 -65 -69 -93 -103 -93h-246c-16 -11 -33 -19 -46 -27c24 21 32 54 32 92v614c0 12 -12 24 -12 24c73 -45 92 -73 92 -111v-480
c0 -12 -1 -23 -4 -33c8 2 15 3 23 3h234z" />
    <glyph glyph-name="lcaron" unicode="&#x13e;" 
d="M114 766l-91 91c-28 28 -7 51 38 95c-1 -15 5 -23 15 -33l71 -71l65 66c28 28 51 7 95 -37c-15 0 -23 -5 -33 -15l-98 -99c-13 -14 -28 -16 -53 0c-3 0 -6 1 -9 3zM375 79c14 0 30 11 30 11c-42 -65 -69 -93 -103 -93h-246c-16 -11 -33 -19 -46 -27c24 21 32 54 32 92
v614c0 12 -12 24 -12 24c73 -45 92 -73 92 -111v-480c0 -12 -1 -23 -4 -33c8 2 15 3 23 3h234z" />
    <glyph glyph-name="uni013C" unicode="&#x13c;" 
d="M85 755c16 42 -21 134 -68 108l-7 6c35 36 85 50 105 31c37 -40 10 -119 -18 -148zM375 79c14 0 30 11 30 11c-42 -65 -69 -93 -103 -93h-246c-16 -11 -33 -19 -46 -27c24 21 32 54 32 92v614c0 12 -12 24 -12 24c73 -45 92 -73 92 -111v-480c0 -12 -1 -23 -4 -33
c8 2 15 3 23 3h234z" />
    <glyph glyph-name="ldot" unicode="&#x140;" 
d="M375 79c14 0 30 11 30 11c-42 -65 -69 -93 -103 -93h-246c-16 -11 -33 -19 -46 -27c24 21 32 54 32 92v614c0 12 -12 24 -12 24c73 -45 92 -73 92 -111v-480c0 -12 -1 -23 -4 -33c8 2 15 3 23 3h234zM199 342c-7 8 -24 8 -24 8c35 35 69 61 93 38l38 -39
c11 -10 17 -14 32 -13c-28 -28 -67 -65 -95 -37z" />
    <glyph glyph-name="uni1E37" unicode="&#x1e37;" 
d="M375 79c14 0 30 11 30 11c-42 -65 -69 -93 -103 -93h-246c-16 -11 -33 -19 -46 -27c24 21 32 54 32 92v614c0 12 -12 24 -12 24c73 -45 92 -73 92 -111v-480c0 -12 -1 -23 -4 -33c8 2 15 3 23 3h234zM252 -56l38 -40c11 -10 18 -13 33 -13c-29 -28 -68 -65 -95 -37
l-44 44c-8 8 -25 8 -25 8c35 34 69 60 93 38z" />
    <glyph glyph-name="lslash" unicode="&#x142;" horiz-adv-x="452" 
d="M413 79c13 0 29 11 29 11c-42 -65 -69 -93 -103 -93h-245c-17 -11 -33 -19 -46 -27c23 21 31 54 31 92v305l-53 -25c-10 -5 -16 -21 -16 -21c13 63 24 90 58 106l11 5v244c0 12 -11 24 -11 24c72 -45 92 -73 92 -111v-119l69 32c11 6 17 21 17 21
c-10 -64 -24 -90 -58 -106l-28 -13v-295c0 -12 -1 -23 -4 -33c8 2 15 3 23 3h234z" />
    <glyph glyph-name="m" unicode="m" horiz-adv-x="565" 
d="M544 2c0 -11 11 -24 11 -24c-74 50 -94 78 -94 116v494c0 21 -2 35 -7 44c-6 -20 -13 -46 -16 -74l-69 -392c-11 -66 -102 -110 -132 -122c-4 -3 -8 -6 -13 -8c0 0 20 40 13 67l-126 468l-6 19v-493c0 -38 -20 -72 -95 -121c0 0 13 13 13 24v578c0 39 20 81 94 129
c0 0 -3 -3 -6 -8c6 3 13 5 19 5c25 0 43 -38 48 -60l119 -437c2 -7 2 -14 3 -21l64 372c7 59 50 110 106 127c35 28 74 36 74 -35v-648z" />
    <glyph glyph-name="uni1E3F" unicode="&#x1e3f;" horiz-adv-x="565" 
d="M68 776c-11 -10 -10 -27 -10 -27c-52 52 -56 76 -37 95l71 71c10 10 16 19 15 34c44 -45 65 -68 38 -96zM544 2c0 -11 11 -24 11 -24c-74 50 -94 78 -94 116v494c0 21 -2 35 -7 44c-6 -20 -13 -46 -16 -74l-69 -392c-11 -66 -102 -110 -132 -122c-4 -3 -8 -6 -13 -8
c0 0 20 40 13 67l-126 468l-6 19v-493c0 -38 -20 -72 -95 -121c0 0 13 13 13 24v578c0 39 20 81 94 129c0 0 -3 -3 -6 -8c6 3 13 5 19 5c25 0 43 -38 48 -60l119 -437c2 -7 2 -14 3 -21l64 372c7 59 50 110 106 127c35 28 74 36 74 -35v-648z" />
    <glyph glyph-name="n" unicode="n" horiz-adv-x="403" 
d="M299 596c0 39 21 72 94 121c0 0 -12 -12 -12 -24v-591c0 -50 -18 -82 -94 -126c0 0 9 9 11 19c-4 -3 -8 -6 -12 -8c0 0 17 41 8 67l-177 515c-4 11 -8 20 -13 28v-495c0 -50 -20 -82 -94 -126c0 0 12 12 12 24v584c0 38 20 71 94 119l-4 -4c5 2 10 3 14 3
c25 0 45 -37 53 -58l120 -357v309z" />
    <glyph glyph-name="nacute" unicode="&#x144;" horiz-adv-x="403" 
d="M180 776c-11 -10 -10 -27 -10 -27c-52 52 -56 76 -37 95l71 71c10 10 16 19 15 34c44 -45 65 -68 38 -96zM299 596c0 39 21 72 94 121c0 0 -12 -12 -12 -24v-591c0 -50 -18 -82 -94 -126c0 0 9 9 11 19c-4 -3 -8 -6 -12 -8c0 0 17 41 8 67l-177 515c-4 11 -8 20 -13 28
v-495c0 -50 -20 -82 -94 -126c0 0 12 12 12 24v584c0 38 20 71 94 119l-4 -4c5 2 10 3 14 3c25 0 45 -37 53 -58l120 -357v309z" />
    <glyph glyph-name="napostrophe" unicode="&#x149;" horiz-adv-x="403" 
d="M141 807v91c0 14 -12 26 -12 26c73 0 93 -14 93 -42v-82c0 -14 2 -24 13 -34c-63 0 -94 2 -94 41zM299 596c0 39 21 72 94 121c0 0 -12 -12 -12 -24v-591c0 -50 -18 -82 -94 -126c0 0 9 9 11 19c-4 -3 -8 -6 -12 -8c0 0 17 41 8 67l-177 515c-4 11 -8 20 -13 28v-495
c0 -50 -20 -82 -94 -126c0 0 12 12 12 24v584c0 38 20 71 94 119l-4 -4c5 2 10 3 14 3c25 0 45 -37 53 -58l120 -357v309z" />
    <glyph glyph-name="ncaron" unicode="&#x148;" horiz-adv-x="403" 
d="M191 766l-91 91c-27 28 -7 51 38 95c-1 -15 5 -23 15 -33l71 -71l65 66c28 28 51 7 95 -37c-15 0 -23 -5 -33 -15l-98 -99c-13 -14 -28 -16 -53 0c-3 0 -6 1 -9 3zM299 596c0 39 21 72 94 121c0 0 -12 -12 -12 -24v-591c0 -50 -18 -82 -94 -126c0 0 9 9 11 19
c-4 -3 -8 -6 -12 -8c0 0 17 41 8 67l-177 515c-4 11 -8 20 -13 28v-495c0 -50 -20 -82 -94 -126c0 0 12 12 12 24v584c0 38 20 71 94 119l-4 -4c5 2 10 3 14 3c25 0 45 -37 53 -58l120 -357v309z" />
    <glyph glyph-name="uni0146" unicode="&#x146;" horiz-adv-x="403" 
d="M213 755c16 42 -21 134 -68 108l-7 6c35 36 85 50 105 31c37 -40 10 -119 -18 -148zM299 596c0 39 21 72 94 121c0 0 -12 -12 -12 -24v-591c0 -50 -18 -82 -94 -126c0 0 9 9 11 19c-4 -3 -8 -6 -12 -8c0 0 17 41 8 67l-177 515c-4 11 -8 20 -13 28v-495
c0 -50 -20 -82 -94 -126c0 0 12 12 12 24v584c0 38 20 71 94 119l-4 -4c5 2 10 3 14 3c25 0 45 -37 53 -58l120 -357v309z" />
    <glyph glyph-name="uni1E45" unicode="&#x1e45;" horiz-adv-x="403" 
d="M186 768l-44 44c-8 8 -25 8 -25 8c35 34 69 60 93 38l38 -40c11 -10 18 -13 33 -13c-29 -28 -68 -65 -95 -37zM299 596c0 39 21 72 94 121c0 0 -12 -12 -12 -24v-591c0 -50 -18 -82 -94 -126c0 0 9 9 11 19c-4 -3 -8 -6 -12 -8c0 0 17 41 8 67l-177 515
c-4 11 -8 20 -13 28v-495c0 -50 -20 -82 -94 -126c0 0 12 12 12 24v584c0 38 20 71 94 119l-4 -4c5 2 10 3 14 3c25 0 45 -37 53 -58l120 -357v309z" />
    <glyph glyph-name="uni1E47" unicode="&#x1e47;" horiz-adv-x="403" 
d="M299 596c0 39 21 72 94 121c0 0 -12 -12 -12 -24v-591c0 -50 -18 -82 -94 -126c0 0 9 9 11 19c-4 -3 -8 -6 -12 -8c0 0 17 41 8 67l-177 515c-4 11 -8 20 -13 28v-495c0 -50 -20 -82 -94 -126c0 0 12 12 12 24v584c0 38 20 71 94 119l-4 -4c5 2 10 3 14 3
c25 0 45 -37 53 -58l120 -357v309zM246 -56l38 -40c11 -10 18 -13 33 -13c-29 -28 -68 -65 -95 -37l-44 44c-8 8 -25 8 -25 8c35 34 69 60 93 38z" />
    <glyph glyph-name="eng" unicode="&#x14b;" horiz-adv-x="403" 
d="M299 596c0 39 21 72 94 121c0 0 -12 -12 -12 -24v-591c0 -36 -9 -63 -43 -91c32 -27 42 -58 42 -78c0 -92 -34 -133 -101 -133c-18 0 -54 26 -70 38c37 -22 121 -2 121 99v67c-12 -9 -26 -18 -43 -28c0 0 9 9 11 19c-4 -3 -8 -6 -12 -8c0 0 17 41 8 67l-177 515
c-4 11 -8 20 -13 28v-495c0 -50 -20 -82 -94 -126c0 0 12 12 12 24v584c0 38 20 71 94 119l-4 -4c5 2 10 3 14 3c25 0 45 -37 53 -58l120 -357v309zM209 -162c-3 2 -6 4 -8 6z" />
    <glyph glyph-name="uni0272" unicode="&#x272;" horiz-adv-x="469" 
d="M365 596c0 39 21 72 94 121c0 0 -11 -12 -11 -24v-591c0 -50 -19 -82 -94 -126c0 0 8 8 10 18c-3 -3 -7 -5 -11 -7c0 0 16 41 8 67l-178 515c-4 12 -8 21 -13 28v-495c0 -32 -8 -57 -34 -82c42 -29 53 -65 53 -87c0 -92 -34 -133 -101 -133c-17 0 -53 25 -69 38
c37 -22 121 -1 121 99v71c0 4 -2 8 -5 11c-14 -14 -33 -28 -58 -43c0 0 11 12 11 24v584c0 34 17 64 73 104c3 3 6 5 9 7c4 2 9 5 13 8c0 0 -2 -1 -4 -4c5 2 9 3 13 3c26 0 46 -37 53 -58l120 -355v307zM19 -162c-4 1 -7 4 -9 6c0 0 3 -3 9 -6z" />
    <glyph glyph-name="ntilde" unicode="&#xf1;" horiz-adv-x="403" 
d="M96 811c-26 -3 -40 -22 -57 -55c22 50 46 81 77 77c70 1 141 -54 212 -40c24 2 40 22 56 55c-21 -51 -42 -80 -67 -79c-73 -5 -147 57 -221 42zM299 596c0 39 21 72 94 121c0 0 -12 -12 -12 -24v-591c0 -50 -18 -82 -94 -126c0 0 9 9 11 19c-4 -3 -8 -6 -12 -8
c0 0 17 41 8 67l-177 515c-4 11 -8 20 -13 28v-495c0 -50 -20 -82 -94 -126c0 0 12 12 12 24v584c0 38 20 71 94 119l-4 -4c5 2 10 3 14 3c25 0 45 -37 53 -58l120 -357v309z" />
    <glyph glyph-name="o" unicode="o" horiz-adv-x="356" 
d="M180 711c91 0 166 -56 166 -197v-369c0 -30 -12 -57 -54 -91c0 0 0 -1 -1 -1h1c-11 -9 -25 -18 -40 -28l1 1c-27 -18 -58 -35 -76 -35c-91 0 -166 56 -166 197v367c0 38 20 71 93 120c0 0 -2 -2 -3 -4c26 19 59 40 79 40zM92 215c0 -143 104 -186 171 -172c1 2 1 4 1 6
v438c0 148 -106 190 -171 171c-1 -2 -1 -5 -1 -7v-436zM60 639c0 0 3 3 9 7c-3 -2 -6 -4 -9 -7zM304 63c-4 -4 -8 -7 -12 -10v1c8 5 12 9 12 9z" />
    <glyph glyph-name="oacute" unicode="&#xf3;" horiz-adv-x="356" 
d="M157 776c-11 -10 -10 -27 -10 -27c-52 52 -56 76 -37 95l71 71c10 10 16 19 15 34c44 -45 65 -68 38 -96zM180 711c91 0 166 -56 166 -197v-369c0 -30 -12 -57 -54 -91c0 0 0 -1 -1 -1h1c-11 -9 -25 -18 -40 -28l1 1c-27 -18 -58 -35 -76 -35c-91 0 -166 56 -166 197v367
c0 38 20 71 93 120c0 0 -2 -2 -3 -4c26 19 59 40 79 40zM92 215c0 -143 104 -186 171 -172c1 2 1 4 1 6v438c0 148 -106 190 -171 171c-1 -2 -1 -5 -1 -7v-436zM60 639c0 0 3 3 9 7c-3 -2 -6 -4 -9 -7zM304 63c-4 -4 -8 -7 -12 -10v1c8 5 12 9 12 9z" />
    <glyph glyph-name="obreve" unicode="&#x14f;" horiz-adv-x="356" 
d="M270 805c-59 -59 -120 -62 -169 -12c-12 14 -21 61 -24 83c12 -45 93 -94 158 -29l53 53c5 5 5 17 5 17c12 -57 -4 -94 -23 -112zM77 876c-1 3 -2 7 -2 10zM180 711c91 0 166 -56 166 -197v-369c0 -30 -12 -57 -54 -91c0 0 0 -1 -1 -1h1c-11 -9 -25 -18 -40 -28l1 1
c-27 -18 -58 -35 -76 -35c-91 0 -166 56 -166 197v367c0 38 20 71 93 120c0 0 -2 -2 -3 -4c26 19 59 40 79 40zM92 215c0 -143 104 -186 171 -172c1 2 1 4 1 6v438c0 148 -106 190 -171 171c-1 -2 -1 -5 -1 -7v-436zM60 639c0 0 3 3 9 7c-3 -2 -6 -4 -9 -7zM304 63
c-4 -4 -8 -7 -12 -10v1c8 5 12 9 12 9z" />
    <glyph glyph-name="uni01D2" unicode="&#x1d2;" horiz-adv-x="356" 
d="M168 766l-91 91c-27 28 -7 51 38 95c-1 -15 5 -23 15 -33l71 -71l65 66c28 28 51 7 95 -37c-15 0 -23 -5 -33 -15l-98 -99c-13 -14 -28 -16 -53 0c-3 0 -6 1 -9 3zM180 711c91 0 166 -56 166 -197v-369c0 -30 -12 -57 -54 -91c0 0 0 -1 -1 -1h1c-11 -9 -25 -18 -40 -28
l1 1c-27 -18 -58 -35 -76 -35c-91 0 -166 56 -166 197v367c0 38 20 71 93 120c0 0 -2 -2 -3 -4c26 19 59 40 79 40zM92 215c0 -143 104 -186 171 -172c1 2 1 4 1 6v438c0 148 -106 190 -171 171c-1 -2 -1 -5 -1 -7v-436zM60 639c0 0 3 3 9 7c-3 -2 -6 -4 -9 -7zM304 63
c-4 -4 -8 -7 -12 -10v1c8 5 12 9 12 9z" />
    <glyph glyph-name="ocircumflex" unicode="&#xf4;" horiz-adv-x="356" 
d="M115 752c-45 44 -65 67 -38 95l91 91c3 2 6 3 9 3c25 16 40 14 53 0l98 -99c10 -10 18 -15 33 -15c-44 -44 -67 -65 -95 -37l-65 66l-71 -71c-10 -10 -16 -18 -15 -33zM180 711c91 0 166 -56 166 -197v-369c0 -30 -12 -57 -54 -91c0 0 0 -1 -1 -1h1
c-11 -9 -25 -18 -40 -28l1 1c-27 -18 -58 -35 -76 -35c-91 0 -166 56 -166 197v367c0 38 20 71 93 120c0 0 -2 -2 -3 -4c26 19 59 40 79 40zM92 215c0 -143 104 -186 171 -172c1 2 1 4 1 6v438c0 148 -106 190 -171 171c-1 -2 -1 -5 -1 -7v-436zM60 639c0 0 3 3 9 7
c-3 -2 -6 -4 -9 -7zM304 63c-4 -4 -8 -7 -12 -10v1c8 5 12 9 12 9z" />
    <glyph glyph-name="odieresis" unicode="&#xf6;" horiz-adv-x="356" 
d="M78 773l-43 44c-8 8 -26 8 -26 8c36 35 69 61 93 38l40 -39c9 -10 16 -14 31 -13c-28 -28 -67 -65 -95 -38zM259 773l-44 44c-8 8 -25 8 -25 8c35 35 69 61 93 38l39 -39c10 -10 17 -14 32 -13c-28 -28 -68 -65 -95 -38zM180 711c91 0 166 -56 166 -197v-369
c0 -30 -12 -57 -54 -91c0 0 0 -1 -1 -1h1c-11 -9 -25 -18 -40 -28l1 1c-27 -18 -58 -35 -76 -35c-91 0 -166 56 -166 197v367c0 38 20 71 93 120c0 0 -2 -2 -3 -4c26 19 59 40 79 40zM92 215c0 -143 104 -186 171 -172c1 2 1 4 1 6v438c0 148 -106 190 -171 171
c-1 -2 -1 -5 -1 -7v-436zM60 639c0 0 3 3 9 7c-3 -2 -6 -4 -9 -7zM304 63c-4 -4 -8 -7 -12 -10v1c8 5 12 9 12 9z" />
    <glyph glyph-name="uni1ECD" unicode="&#x1ecd;" horiz-adv-x="356" 
d="M180 711c91 0 166 -56 166 -197v-369c0 -30 -12 -57 -54 -91c0 0 0 -1 -1 -1h1c-11 -9 -25 -18 -40 -28l1 1c-27 -18 -58 -35 -76 -35c-91 0 -166 56 -166 197v367c0 38 20 71 93 120c0 0 -2 -2 -3 -4c26 19 59 40 79 40zM92 215c0 -143 104 -186 171 -172c1 2 1 4 1 6
v438c0 148 -106 190 -171 171c-1 -2 -1 -5 -1 -7v-436zM60 639c0 0 3 3 9 7c-3 -2 -6 -4 -9 -7zM304 63c-4 -4 -8 -7 -12 -10v1c8 5 12 9 12 9zM222 -56l38 -40c11 -10 18 -13 33 -13c-29 -28 -68 -65 -95 -37l-44 44c-8 8 -25 8 -25 8c35 34 69 60 93 38z" />
    <glyph glyph-name="ograve" unicode="&#xf2;" horiz-adv-x="356" 
d="M198 776l-77 77c-28 28 -7 51 38 96c-1 -15 4 -24 14 -34l71 -71c20 -19 15 -43 -36 -95c0 0 0 17 -10 27zM180 711c91 0 166 -56 166 -197v-369c0 -30 -12 -57 -54 -91c0 0 0 -1 -1 -1h1c-11 -9 -25 -18 -40 -28l1 1c-27 -18 -58 -35 -76 -35c-91 0 -166 56 -166 197
v367c0 38 20 71 93 120c0 0 -2 -2 -3 -4c26 19 59 40 79 40zM92 215c0 -143 104 -186 171 -172c1 2 1 4 1 6v438c0 148 -106 190 -171 171c-1 -2 -1 -5 -1 -7v-436zM60 639c0 0 3 3 9 7c-3 -2 -6 -4 -9 -7zM304 63c-4 -4 -8 -7 -12 -10v1c8 5 12 9 12 9z" />
    <glyph glyph-name="ohungarumlaut" unicode="&#x151;" horiz-adv-x="356" 
d="M98 755c16 42 -21 134 -68 108l-7 6c35 36 85 50 105 31c37 -40 10 -119 -18 -148zM255 755c16 42 -21 134 -68 108l-7 6c35 36 85 50 105 31c37 -40 10 -119 -18 -148zM180 711c91 0 166 -56 166 -197v-369c0 -30 -12 -57 -54 -91c0 0 0 -1 -1 -1h1
c-11 -9 -25 -18 -40 -28l1 1c-27 -18 -58 -35 -76 -35c-91 0 -166 56 -166 197v367c0 38 20 71 93 120c0 0 -2 -2 -3 -4c26 19 59 40 79 40zM92 215c0 -143 104 -186 171 -172c1 2 1 4 1 6v438c0 148 -106 190 -171 171c-1 -2 -1 -5 -1 -7v-436zM60 639c0 0 3 3 9 7
c-3 -2 -6 -4 -9 -7zM304 63c-4 -4 -8 -7 -12 -10v1c8 5 12 9 12 9z" />
    <glyph glyph-name="omacron" unicode="&#x14d;" horiz-adv-x="356" 
d="M255 762h-221c-13 0 -29 -12 -29 -12c40 55 61 80 104 80h212c12 0 29 12 29 12c-38 -55 -57 -80 -95 -80zM180 711c91 0 166 -56 166 -197v-369c0 -30 -12 -57 -54 -91c0 0 0 -1 -1 -1h1c-11 -9 -25 -18 -40 -28l1 1c-27 -18 -58 -35 -76 -35c-91 0 -166 56 -166 197
v367c0 38 20 71 93 120c0 0 -2 -2 -3 -4c26 19 59 40 79 40zM92 215c0 -143 104 -186 171 -172c1 2 1 4 1 6v438c0 148 -106 190 -171 171c-1 -2 -1 -5 -1 -7v-436zM60 639c0 0 3 3 9 7c-3 -2 -6 -4 -9 -7zM304 63c-4 -4 -8 -7 -12 -10v1c8 5 12 9 12 9z" />
    <glyph glyph-name="uni01EB" unicode="&#x1eb;" horiz-adv-x="356" 
d="M346 145c0 -30 -12 -57 -54 -91c0 0 0 -1 -1 -1h1c-11 -9 -25 -18 -40 -28l1 1c-12 -8 -25 -16 -37 -22v-67c0 -101 84 -121 121 -99c-16 -12 -52 -38 -70 -38c-67 0 -101 42 -101 133c0 16 6 38 24 60c-5 -1 -9 -2 -13 -2c-91 0 -166 56 -166 197v367c0 38 20 71 93 120
c0 0 -2 -2 -3 -4c26 19 59 40 79 40c91 0 166 -56 166 -197v-369zM92 215c0 -143 104 -186 171 -172c1 2 1 4 1 6v438c0 148 -106 190 -171 171c-1 -2 -1 -5 -1 -7v-436zM60 639c0 0 3 3 9 7c-3 -2 -6 -4 -9 -7zM304 63c-4 -4 -8 -7 -12 -10v1c8 5 12 9 12 9zM337 -162l8 6
c-2 -2 -5 -4 -8 -6z" />
    <glyph glyph-name="oslash" unicode="&#xf8;" horiz-adv-x="479" 
d="M383 759c43 -45 56 -72 38 -109l-21 -46c8 -25 13 -55 13 -90v-369c0 -31 -13 -58 -56 -93c1 0 2 1 2 1c-4 -3 -9 -7 -15 -11c-8 -6 -16 -11 -25 -17c-26 -17 -57 -34 -75 -34c-42 0 -81 12 -111 40l-34 -73c-5 -12 1 -24 1 -24c-45 43 -59 64 -42 102l31 68
c-7 23 -11 51 -11 84v367c0 38 21 71 94 120l-2 -2c26 18 58 38 77 38c41 0 79 -11 108 -37l25 54c6 12 3 31 3 31zM160 651v-396l152 327c-33 70 -103 90 -151 76c-1 -2 -1 -5 -1 -7zM136 646c-3 -2 -6 -4 -9 -7c0 0 3 3 9 7zM331 49v408l-154 -331c32 -72 102 -94 153 -84
c1 3 1 5 1 7zM359 53l13 10c-4 -4 -8 -7 -13 -10z" />
    <glyph glyph-name="oslashacute" unicode="&#x1ff;" horiz-adv-x="479" 
d="M254 776c-11 -10 -10 -27 -10 -27c-52 52 -56 76 -37 95l71 71c10 10 16 19 15 34c44 -45 65 -68 38 -96zM383 759c43 -45 56 -72 38 -109l-21 -46c8 -25 13 -55 13 -90v-369c0 -31 -13 -58 -56 -93c1 0 2 1 2 1c-4 -3 -9 -7 -15 -11c-8 -6 -16 -11 -25 -17
c-26 -17 -57 -34 -75 -34c-42 0 -81 12 -111 40l-34 -73c-5 -12 1 -24 1 -24c-45 43 -59 64 -42 102l31 68c-7 23 -11 51 -11 84v367c0 38 21 71 94 120l-2 -2c26 18 58 38 77 38c41 0 79 -11 108 -37l25 54c6 12 3 31 3 31zM160 651v-396l152 327c-33 70 -103 90 -151 76
c-1 -2 -1 -5 -1 -7zM136 646c-3 -2 -6 -4 -9 -7c0 0 3 3 9 7zM331 49v408l-154 -331c32 -72 102 -94 153 -84c1 3 1 5 1 7zM359 53l13 10c-4 -4 -8 -7 -13 -10z" />
    <glyph glyph-name="otilde" unicode="&#xf5;" horiz-adv-x="356" 
d="M73 811c-26 -3 -40 -22 -57 -55c22 50 46 81 77 77c70 1 141 -54 212 -40c24 2 40 22 56 55c-21 -51 -42 -80 -67 -79c-73 -5 -147 57 -221 42zM180 711c91 0 166 -56 166 -197v-369c0 -30 -12 -57 -54 -91c0 0 0 -1 -1 -1h1c-11 -9 -25 -18 -40 -28l1 1
c-27 -18 -58 -35 -76 -35c-91 0 -166 56 -166 197v367c0 38 20 71 93 120c0 0 -2 -2 -3 -4c26 19 59 40 79 40zM92 215c0 -143 104 -186 171 -172c1 2 1 4 1 6v438c0 148 -106 190 -171 171c-1 -2 -1 -5 -1 -7v-436zM60 639c0 0 3 3 9 7c-3 -2 -6 -4 -9 -7zM304 63
c-4 -4 -8 -7 -12 -10v1c8 5 12 9 12 9z" />
    <glyph glyph-name="oe" unicode="&#x153;" horiz-adv-x="633" 
d="M366 77h228c11 0 24 12 24 12c-49 -74 -71 -91 -119 -91h-220c-17 -11 -33 -20 -46 -28c16 15 25 35 29 59c-3 -3 -7 -5 -11 -8l2 2c-27 -17 -58 -35 -76 -35c-91 0 -166 56 -166 197v366c0 38 20 71 93 120l-2 -3c25 19 57 39 77 39c50 0 96 -17 126 -57
c30 37 53 48 82 48h212c12 0 24 12 24 12c-48 -73 -76 -93 -114 -93h-163v-215c15 11 29 15 46 15h133c11 0 24 12 24 12c-49 -74 -82 -93 -120 -93h-83v-221c0 -15 -2 -29 -6 -42c8 3 17 4 26 4zM92 211c0 -141 103 -186 170 -172c1 2 1 4 1 6v438c0 148 -105 189 -170 171
c0 -3 -1 -5 -1 -8v-435zM60 635l7 6c-3 -2 -5 -4 -7 -6zM290 50c5 3 10 6 14 10c0 0 -5 -4 -14 -10z" />
    <glyph glyph-name="p" unicode="p" horiz-adv-x="377" 
d="M240 698c100 0 127 -78 127 -203v-60c0 -125 -69 -170 -168 -176c-4 -1 -7 -1 -11 -1h-65v-137c0 -87 -72 -119 -113 -145c23 21 32 54 32 92v517c0 6 1 13 2 19c-2 -1 -3 -2 -4 -3l6 9c4 16 15 31 34 48c19 22 39 42 56 42zM210 340c38 0 75 21 75 88v33
c0 116 -13 153 -102 153h-60v-278c7 3 15 4 24 4h63z" />
    <glyph glyph-name="thorn" unicode="&#xfe;" horiz-adv-x="371" 
d="M231 437c103 0 130 -79 130 -207v-63c0 -125 -69 -171 -170 -178c-3 -1 -7 -1 -11 -1h-55v-41c0 -88 -75 -120 -115 -147c23 21 33 55 33 93v449c-2 0 -3 -1 -4 -2l4 6v250c0 39 21 68 93 117c0 0 -11 -12 -11 -26v-252c5 3 10 4 15 4zM202 70c38 0 77 22 77 91v34
c0 119 -15 157 -107 157h-47v-286c7 3 15 4 24 4h53z" />
    <glyph glyph-name="q" unicode="q" horiz-adv-x="417" 
d="M374 14c13 -12 33 -18 33 -18c-63 -17 -107 -21 -135 9l-20 20c-27 -17 -57 -34 -75 -34c-91 0 -166 56 -166 197v367c0 38 20 71 93 120c0 0 -2 -2 -3 -4c26 19 59 40 79 40c91 0 166 -56 166 -197v-369c0 -24 -8 -46 -32 -71zM92 215c0 -125 80 -174 145 -175l-97 97
c-14 14 -38 22 -38 22c62 12 106 21 133 -5l29 -29v362c0 148 -106 190 -171 171c-1 -2 -1 -5 -1 -7v-436zM60 639c0 0 3 3 9 7c-3 -2 -6 -4 -9 -7zM292 53c4 3 8 6 12 10c0 0 -4 -4 -12 -9v-1z" />
    <glyph glyph-name="r" unicode="r" horiz-adv-x="439" 
d="M403 54c14 0 26 8 26 8s-21 -67 -83 -67c-50 0 -107 199 -149 264h-8h-65v-138c0 -87 -73 -119 -114 -145c24 21 32 54 32 92v517c0 6 1 12 2 18l-3 -2s1 2 4 6c4 17 15 33 36 51c18 22 39 42 55 42l104 -2c101 0 127 -78 127 -202v-61c0 -86 -32 -133 -84 -157
c41 -79 83 -224 120 -224zM124 337c7 2 14 3 23 3h63c39 0 75 21 75 88v33c0 116 -13 153 -102 153h-59v-277z" />
    <glyph glyph-name="racute" unicode="&#x155;" horiz-adv-x="439" 
d="M198 776c-11 -10 -10 -27 -10 -27c-52 52 -56 76 -37 95l71 71c10 10 16 19 15 34c44 -45 65 -68 38 -96zM403 54c14 0 26 8 26 8s-21 -67 -83 -67c-50 0 -107 199 -149 264h-8h-65v-138c0 -87 -73 -119 -114 -145c24 21 32 54 32 92v517c0 6 1 12 2 18l-3 -2s1 2 4 6
c4 17 15 33 36 51c18 22 39 42 55 42l104 -2c101 0 127 -78 127 -202v-61c0 -86 -32 -133 -84 -157c41 -79 83 -224 120 -224zM124 337c7 2 14 3 23 3h63c39 0 75 21 75 88v33c0 116 -13 153 -102 153h-59v-277z" />
    <glyph glyph-name="rcaron" unicode="&#x159;" horiz-adv-x="439" 
d="M209 766l-91 91c-27 28 -7 51 38 95c-1 -15 5 -23 15 -33l71 -71l65 66c28 28 51 7 95 -37c-15 0 -23 -5 -33 -15l-98 -99c-13 -14 -28 -16 -53 0c-3 0 -6 1 -9 3zM403 54c14 0 26 8 26 8s-21 -67 -83 -67c-50 0 -107 199 -149 264h-8h-65v-138c0 -87 -73 -119 -114 -145
c24 21 32 54 32 92v517c0 6 1 12 2 18l-3 -2s1 2 4 6c4 17 15 33 36 51c18 22 39 42 55 42l104 -2c101 0 127 -78 127 -202v-61c0 -86 -32 -133 -84 -157c41 -79 83 -224 120 -224zM124 337c7 2 14 3 23 3h63c39 0 75 21 75 88v33c0 116 -13 153 -102 153h-59v-277z" />
    <glyph glyph-name="uni0157" unicode="&#x157;" horiz-adv-x="439" 
d="M231 755c16 42 -21 134 -68 108l-7 6c35 36 85 50 105 31c37 -40 10 -119 -18 -148zM403 54c14 0 26 8 26 8s-21 -67 -83 -67c-50 0 -107 199 -149 264h-8h-65v-138c0 -87 -73 -119 -114 -145c24 21 32 54 32 92v517c0 6 1 12 2 18l-3 -2s1 2 4 6c4 17 15 33 36 51
c18 22 39 42 55 42l104 -2c101 0 127 -78 127 -202v-61c0 -86 -32 -133 -84 -157c41 -79 83 -224 120 -224zM124 337c7 2 14 3 23 3h63c39 0 75 21 75 88v33c0 116 -13 153 -102 153h-59v-277z" />
    <glyph glyph-name="s" unicode="s" horiz-adv-x="385" 
d="M370 187c0 -31 -17 -56 -36 -73c-19 -27 -94 -123 -155 -123c-67 0 -158 70 -169 115c0 0 34 53 67 65c-2 -15 68 -106 165 -106c15 0 33 9 48 19c59 112 -171 301 -243 392c-71 91 46 171 63 180h2c25 19 60 45 72 49c11 0 177 36 172 -105c-3 -31 -64 -79 -64 -79
c29 61 -33 119 -117 119c-22 0 -40 -1 -54 -2c-24 -26 -48 -62 21 -140c82 -92 228 -217 228 -311z" />
    <glyph glyph-name="sacute" unicode="&#x15b;" horiz-adv-x="385" 
d="M171 776c-11 -10 -10 -27 -10 -27c-52 52 -56 76 -37 95l71 71c10 10 16 19 15 34c44 -45 65 -68 38 -96zM370 187c0 -31 -17 -56 -36 -73c-19 -27 -94 -123 -155 -123c-67 0 -158 70 -169 115c0 0 34 53 67 65c-2 -15 68 -106 165 -106c15 0 33 9 48 19
c59 112 -171 301 -243 392c-71 91 46 171 63 180h2c25 19 60 45 72 49c11 0 177 36 172 -105c-3 -31 -64 -79 -64 -79c29 61 -33 119 -117 119c-22 0 -40 -1 -54 -2c-24 -26 -48 -62 21 -140c82 -92 228 -217 228 -311z" />
    <glyph glyph-name="scaron" unicode="&#x161;" horiz-adv-x="385" 
d="M182 766l-91 91c-27 28 -7 51 38 95c-1 -15 5 -23 15 -33l71 -71l65 66c28 28 51 7 95 -37c-15 0 -23 -5 -33 -15l-98 -99c-13 -14 -28 -16 -53 0c-3 0 -6 1 -9 3zM121 638c-24 -26 -48 -62 21 -140c82 -92 228 -217 228 -311c0 -31 -17 -56 -36 -73
c-19 -27 -94 -123 -155 -123c-67 0 -158 70 -169 115c0 0 34 53 67 65c-2 -15 68 -106 165 -106c15 0 33 9 48 19c59 112 -171 301 -243 392c-71 91 46 171 63 180h2c25 19 60 45 72 49c11 0 177 36 172 -105c-3 -31 -64 -79 -64 -79c29 61 -33 119 -117 119
c-22 0 -40 -1 -54 -2z" />
    <glyph glyph-name="scedilla" unicode="&#x15f;" horiz-adv-x="385" 
d="M370 187c0 -31 -17 -56 -36 -73c-19 -27 -94 -123 -155 -123c-67 0 -158 70 -169 115c0 0 34 53 67 65c-2 -15 68 -106 165 -106c15 0 33 9 48 19c59 112 -171 301 -243 392c-71 91 46 171 63 180h2c25 19 60 45 72 49c11 0 177 36 172 -105c-3 -31 -64 -79 -64 -79
c29 61 -33 119 -117 119c-22 0 -40 -1 -54 -2c-24 -26 -48 -62 21 -140c82 -92 228 -217 228 -311zM264 -25c10 -5 17 -12 23 -22c21 -25 28 -50 28 -68c0 -84 -40 -125 -109 -125c-18 0 -58 27 -76 40c40 -23 132 0 132 92v18h-43c-40 0 -54 23 -88 84c0 0 17 -13 36 -13
h59c13 0 23 -1 32 -4c-2 3 -4 5 -4 5zM130 -200c-3 2 -6 4 -8 6z" />
    <glyph glyph-name="scircumflex" unicode="&#x15d;" horiz-adv-x="385" 
d="M129 752c-45 44 -65 67 -38 95l91 91c3 2 6 3 9 3c25 16 40 14 53 0l98 -99c10 -10 18 -15 33 -15c-44 -44 -67 -65 -95 -37l-65 66l-71 -71c-10 -10 -16 -18 -15 -33zM121 638c-24 -26 -48 -62 21 -140c82 -92 228 -217 228 -311c0 -31 -17 -56 -36 -73
c-19 -27 -94 -123 -155 -123c-67 0 -158 70 -169 115c0 0 34 53 67 65c-2 -15 68 -106 165 -106c15 0 33 9 48 19c59 112 -171 301 -243 392c-71 91 46 171 63 180h2c25 19 60 45 72 49c11 0 177 36 172 -105c-3 -31 -64 -79 -64 -79c29 61 -33 119 -117 119
c-22 0 -40 -1 -54 -2z" />
    <glyph glyph-name="uni0219" unicode="&#x219;" horiz-adv-x="385" 
d="M204 755c16 42 -21 134 -68 108l-7 6c35 36 85 50 105 31c37 -40 10 -119 -18 -148zM370 187c0 -31 -17 -56 -36 -73c-19 -27 -94 -123 -155 -123c-67 0 -158 70 -169 115c0 0 34 53 67 65c-2 -15 68 -106 165 -106c15 0 33 9 48 19c59 112 -171 301 -243 392
c-71 91 46 171 63 180h2c25 19 60 45 72 49c11 0 177 36 172 -105c-3 -31 -64 -79 -64 -79c29 61 -33 119 -117 119c-22 0 -40 -1 -54 -2c-24 -26 -48 -62 21 -140c82 -92 228 -217 228 -311z" />
    <glyph glyph-name="uni1E63" unicode="&#x1e63;" horiz-adv-x="385" 
d="M370 187c0 -31 -17 -56 -36 -73c-19 -27 -94 -123 -155 -123c-67 0 -158 70 -169 115c0 0 34 53 67 65c-2 -15 68 -106 165 -106c15 0 33 9 48 19c59 112 -171 301 -243 392c-71 91 46 171 63 180h2c25 19 60 45 72 49c11 0 177 36 172 -105c-3 -31 -64 -79 -64 -79
c29 61 -33 119 -117 119c-22 0 -40 -1 -54 -2c-24 -26 -48 -62 21 -140c82 -92 228 -217 228 -311zM237 -56l38 -40c11 -10 18 -13 33 -13c-29 -28 -68 -65 -95 -37l-44 44c-8 8 -25 8 -25 8c35 34 69 60 93 38z" />
    <glyph glyph-name="germandbls" unicode="&#xdf;" horiz-adv-x="338" 
d="M221 408c40 -28 131 -102 131 -203c0 -129 -86 -198 -137 -198c-28 0 -65 8 -103 33c-2 1 -4 2 -6 4c-4 -35 -28 -67 -96 -113c0 0 12 13 12 25v557c0 73 49 109 90 134c16 33 72 61 72 61c47 -12 111 -97 111 -169c0 -55 -44 -105 -74 -131zM261 174
c16 142 -20 183 -79 230l4 4l-3 1s44 43 44 68c0 99 -74 150 -106 162c-10 -20 -14 -45 -14 -71v-486c6 -2 11 -3 17 -4c56 -7 125 -3 137 96z" />
    <glyph glyph-name="t" unicode="t" horiz-adv-x="388" 
d="M394 700c13 0 24 14 24 14c-42 -65 -78 -93 -114 -93h-64v-499c0 -84 -72 -117 -109 -142c21 21 30 54 30 92v489c0 21 6 39 24 60h-151c-11 0 -24 -11 -24 -11c45 62 77 90 114 90h270z" />
    <glyph glyph-name="tbar" unicode="&#x167;" horiz-adv-x="428" 
d="M304 621h-64v-236h85c12 0 24 11 24 11c-36 -53 -60 -71 -97 -71h-12v-203c0 -84 -72 -117 -109 -142c21 21 30 54 30 92v253h-88c-11 0 -23 -12 -23 -12c38 51 60 72 97 72h14v176c0 21 6 39 24 60h-151c-11 0 -24 -11 -24 -11c45 62 77 90 114 90h270c13 0 24 14 24 14
c-42 -65 -78 -93 -114 -93z" />
    <glyph glyph-name="tcaron" unicode="&#x165;" horiz-adv-x="388" 
d="M204 766l-91 91c-27 28 -7 51 38 95c-1 -15 5 -23 15 -33l71 -71l65 66c28 28 51 7 95 -37c-15 0 -23 -5 -33 -15l-98 -99c-13 -14 -28 -16 -53 0c-3 0 -6 1 -9 3zM394 700c13 0 24 14 24 14c-42 -65 -78 -93 -114 -93h-64v-499c0 -84 -72 -117 -109 -142
c21 21 30 54 30 92v489c0 21 6 39 24 60h-151c-11 0 -24 -11 -24 -11c45 62 77 90 114 90h270z" />
    <glyph glyph-name="uni0163" unicode="&#x163;" horiz-adv-x="388" 
d="M394 700c13 0 24 14 24 14c-42 -65 -78 -93 -114 -93h-64v-499c0 -84 -72 -117 -109 -142c21 21 30 54 30 92v489c0 21 6 39 24 60h-151c-11 0 -24 -11 -24 -11c45 62 77 90 114 90h270zM286 -25c10 -5 17 -12 23 -22c21 -25 28 -50 28 -68c0 -84 -40 -125 -109 -125
c-18 0 -58 27 -76 40c40 -23 132 0 132 92v18h-43c-40 0 -54 23 -88 84c0 0 17 -13 36 -13h59c13 0 23 -1 32 -4c-2 3 -4 5 -4 5zM152 -200c-3 2 -6 4 -8 6z" />
    <glyph glyph-name="uni021B" unicode="&#x21b;" horiz-adv-x="388" 
d="M226 755c16 42 -21 134 -68 108l-7 6c35 36 85 50 105 31c37 -40 10 -119 -18 -148zM394 700c13 0 24 14 24 14c-42 -65 -78 -93 -114 -93h-64v-499c0 -84 -72 -117 -109 -142c21 21 30 54 30 92v489c0 21 6 39 24 60h-151c-11 0 -24 -11 -24 -11c45 62 77 90 114 90h270
z" />
    <glyph glyph-name="uni1E6D" unicode="&#x1e6d;" horiz-adv-x="388" 
d="M394 700c13 0 24 14 24 14c-42 -65 -78 -93 -114 -93h-64v-499c0 -84 -72 -117 -109 -142c21 21 30 54 30 92v489c0 21 6 39 24 60h-151c-11 0 -24 -11 -24 -11c45 62 77 90 114 90h270zM259 -56l38 -40c11 -10 18 -13 33 -13c-29 -28 -68 -65 -95 -37l-44 44
c-8 8 -25 8 -25 8c35 34 69 60 93 38z" />
    <glyph glyph-name="u" unicode="u" horiz-adv-x="368" 
d="M264 708c73 -43 94 -81 94 -120v-428c0 -82 -63 -115 -104 -140c-18 -16 -36 -29 -51 -29c-90 0 -181 57 -181 197v498c0 11 -12 24 -12 24c73 -42 94 -74 94 -111v-384c0 -147 102 -180 166 -159c4 16 6 33 6 51v578c0 11 -12 23 -12 23z" />
    <glyph glyph-name="uacute" unicode="&#xfa;" horiz-adv-x="368" 
d="M163 776c-11 -10 -10 -27 -10 -27c-52 52 -56 76 -37 95l71 71c10 10 16 19 15 34c44 -45 65 -68 38 -96zM264 708c73 -43 94 -81 94 -120v-428c0 -82 -63 -115 -104 -140c-18 -16 -36 -29 -51 -29c-90 0 -181 57 -181 197v498c0 11 -12 24 -12 24c73 -42 94 -74 94 -111
v-384c0 -147 102 -180 166 -159c4 16 6 33 6 51v578c0 11 -12 23 -12 23z" />
    <glyph glyph-name="ubreve" unicode="&#x16d;" horiz-adv-x="368" 
d="M277 805c-59 -59 -120 -62 -169 -12c-12 14 -21 61 -24 83c12 -45 93 -94 158 -29l53 53c5 5 5 17 5 17c12 -57 -4 -94 -23 -112zM84 876c-1 3 -2 7 -2 10zM264 708c73 -43 94 -81 94 -120v-428c0 -82 -63 -115 -104 -140c-18 -16 -36 -29 -51 -29
c-90 0 -181 57 -181 197v498c0 11 -12 24 -12 24c73 -42 94 -74 94 -111v-384c0 -147 102 -180 166 -159c4 16 6 33 6 51v578c0 11 -12 23 -12 23z" />
    <glyph glyph-name="uni01D4" unicode="&#x1d4;" horiz-adv-x="368" 
d="M174 766l-91 91c-27 28 -7 51 38 95c-1 -15 5 -23 15 -33l71 -71l65 66c28 28 51 7 95 -37c-15 0 -23 -5 -33 -15l-98 -99c-13 -14 -28 -16 -53 0c-3 0 -6 1 -9 3zM264 708c73 -43 94 -81 94 -120v-428c0 -82 -63 -115 -104 -140c-18 -16 -36 -29 -51 -29
c-90 0 -181 57 -181 197v498c0 11 -12 24 -12 24c73 -42 94 -74 94 -111v-384c0 -147 102 -180 166 -159c4 16 6 33 6 51v578c0 11 -12 23 -12 23z" />
    <glyph glyph-name="ucircumflex" unicode="&#xfb;" horiz-adv-x="368" 
d="M121 752c-45 44 -65 67 -38 95l91 91c3 2 6 3 9 3c25 16 40 14 53 0l98 -99c10 -10 18 -15 33 -15c-44 -44 -67 -65 -95 -37l-65 66l-71 -71c-10 -10 -16 -18 -15 -33zM264 708c73 -43 94 -81 94 -120v-428c0 -82 -63 -115 -104 -140c-18 -16 -36 -29 -51 -29
c-90 0 -181 57 -181 197v498c0 11 -12 24 -12 24c73 -42 94 -74 94 -111v-384c0 -147 102 -180 166 -159c4 16 6 33 6 51v578c0 11 -12 23 -12 23z" />
    <glyph glyph-name="udieresis" unicode="&#xfc;" horiz-adv-x="368" 
d="M85 773l-43 44c-8 8 -26 8 -26 8c36 35 69 61 93 38l40 -39c9 -10 16 -14 31 -13c-28 -28 -67 -65 -95 -38zM266 773l-44 44c-8 8 -25 8 -25 8c35 35 69 61 93 38l39 -39c10 -10 17 -14 32 -13c-28 -28 -68 -65 -95 -38zM264 708c73 -43 94 -81 94 -120v-428
c0 -82 -63 -115 -104 -140c-18 -16 -36 -29 -51 -29c-90 0 -181 57 -181 197v498c0 11 -12 24 -12 24c73 -42 94 -74 94 -111v-384c0 -147 102 -180 166 -159c4 16 6 33 6 51v578c0 11 -12 23 -12 23z" />
    <glyph glyph-name="uni1EE5" unicode="&#x1ee5;" horiz-adv-x="368" 
d="M264 708c73 -43 94 -81 94 -120v-428c0 -82 -63 -115 -104 -140c-18 -16 -36 -29 -51 -29c-90 0 -181 57 -181 197v498c0 11 -12 24 -12 24c73 -42 94 -74 94 -111v-384c0 -147 102 -180 166 -159c4 16 6 33 6 51v578c0 11 -12 23 -12 23zM229 -56l38 -40
c11 -10 18 -13 33 -13c-29 -28 -68 -65 -95 -37l-44 44c-8 8 -25 8 -25 8c35 34 69 60 93 38z" />
    <glyph glyph-name="ugrave" unicode="&#xf9;" horiz-adv-x="368" 
d="M205 776l-77 77c-28 28 -7 51 38 96c-1 -15 4 -24 14 -34l71 -71c20 -19 15 -43 -36 -95c0 0 0 17 -10 27zM264 708c73 -43 94 -81 94 -120v-428c0 -82 -63 -115 -104 -140c-18 -16 -36 -29 -51 -29c-90 0 -181 57 -181 197v498c0 11 -12 24 -12 24
c73 -42 94 -74 94 -111v-384c0 -147 102 -180 166 -159c4 16 6 33 6 51v578c0 11 -12 23 -12 23z" />
    <glyph glyph-name="uhungarumlaut" unicode="&#x171;" horiz-adv-x="368" 
d="M104 755c16 42 -21 134 -68 108l-7 6c35 36 85 50 105 31c37 -40 10 -119 -18 -148zM261 755c16 42 -21 134 -68 108l-7 6c35 36 85 50 105 31c37 -40 10 -119 -18 -148zM264 708c73 -43 94 -81 94 -120v-428c0 -82 -63 -115 -104 -140c-18 -16 -36 -29 -51 -29
c-90 0 -181 57 -181 197v498c0 11 -12 24 -12 24c73 -42 94 -74 94 -111v-384c0 -147 102 -180 166 -159c4 16 6 33 6 51v578c0 11 -12 23 -12 23z" />
    <glyph glyph-name="umacron" unicode="&#x16b;" horiz-adv-x="368" 
d="M262 762h-221c-13 0 -29 -12 -29 -12c40 55 61 80 104 80h212c12 0 29 12 29 12c-38 -55 -57 -80 -95 -80zM264 708c73 -43 94 -81 94 -120v-428c0 -82 -63 -115 -104 -140c-18 -16 -36 -29 -51 -29c-90 0 -181 57 -181 197v498c0 11 -12 24 -12 24
c73 -42 94 -74 94 -111v-384c0 -147 102 -180 166 -159c4 16 6 33 6 51v578c0 11 -12 23 -12 23z" />
    <glyph glyph-name="uogonek" unicode="&#x173;" horiz-adv-x="368" 
d="M254 20c-11 -9 -21 -17 -31 -23v-60c0 -101 84 -121 121 -99c-16 -12 -52 -38 -70 -38c-67 0 -101 42 -101 133c0 15 6 37 23 58c-88 3 -174 61 -174 197v498c0 11 -12 24 -12 24c73 -42 94 -74 94 -111v-384c0 -147 102 -180 166 -159c4 16 6 33 6 51v578
c0 11 -12 23 -12 23c73 -43 94 -81 94 -120v-428c0 -82 -63 -115 -104 -140zM344 -162l8 6c-2 -2 -5 -4 -8 -6z" />
    <glyph glyph-name="uring" unicode="&#x16f;" horiz-adv-x="368" 
d="M95 889c0 19 9 47 37 72c-1 0 -1 0 -2 -1c1 1 3 2 4 4c6 4 12 9 19 14l-1 -1c16 12 35 23 46 23c56 0 102 -34 102 -121v-30c0 -24 -13 -44 -58 -73l1 1c-17 -11 -36 -22 -47 -22c-67 0 -101 43 -101 134zM249 863c0 89 -63 116 -103 105c-1 -2 -1 -3 -1 -5v-71
c0 -87 63 -114 104 -105v3v73zM130 960c-3 -2 -5 -4 -5 -4c2 2 3 3 5 4zM274 800l-8 -7c3 2 6 5 8 7zM264 708c73 -43 94 -81 94 -120v-428c0 -82 -63 -115 -104 -140c-18 -16 -36 -29 -51 -29c-90 0 -181 57 -181 197v498c0 11 -12 24 -12 24c73 -42 94 -74 94 -111v-384
c0 -147 102 -180 166 -159c4 16 6 33 6 51v578c0 11 -12 23 -12 23z" />
    <glyph glyph-name="utilde" unicode="&#x169;" horiz-adv-x="368" 
d="M79 811c-26 -3 -40 -22 -57 -55c22 50 46 81 77 77c70 1 141 -54 212 -40c24 2 40 22 56 55c-21 -51 -42 -80 -67 -79c-73 -5 -147 57 -221 42zM264 708c73 -43 94 -81 94 -120v-428c0 -82 -63 -115 -104 -140c-18 -16 -36 -29 -51 -29c-90 0 -181 57 -181 197v498
c0 11 -12 24 -12 24c73 -42 94 -74 94 -111v-384c0 -147 102 -180 166 -159c4 16 6 33 6 51v578c0 11 -12 23 -12 23z" />
    <glyph glyph-name="v" unicode="v" horiz-adv-x="471" 
d="M343 615c14 54 48 96 118 97c0 0 -24 -21 -33 -59l-114 -556c-33 -130 -118 -105 -118 -105c-24 2 -45 23 -51 56l-70 529c-11 79 -65 72 -65 72s59 63 97 60c27 -3 40 -35 43 -58l72 -545c2 -15 6 -26 10 -34l3 10z" />
    <glyph glyph-name="w" unicode="w" horiz-adv-x="707" 
d="M589 605c8 55 39 100 108 108c0 0 -21 -23 -27 -62l-71 -543c-18 -119 -89 -118 -103 -116c-29 -5 -56 17 -63 55l-68 495l-55 -434c-18 -117 -87 -118 -103 -116c-29 -5 -56 17 -62 55l-70 523c-11 83 -65 79 -65 79s59 63 97 59c26 -2 39 -35 42 -57l72 -545
c3 -16 7 -28 11 -37c0 6 1 11 2 17l62 502c6 43 26 79 67 97c11 8 22 12 32 11c1 0 3 0 4 -1c2 1 3 1 5 1c0 0 -1 -1 -1 -2c21 -7 31 -35 34 -57l73 -531c2 -16 6 -28 11 -36c0 5 1 11 2 16z" />
    <glyph glyph-name="wacute" unicode="&#x1e83;" horiz-adv-x="707" 
d="M353 776c-11 -10 -10 -27 -10 -27c-52 52 -56 76 -37 95l71 71c10 10 16 19 15 34c44 -45 65 -68 38 -96zM589 605c8 55 39 100 108 108c0 0 -21 -23 -27 -62l-71 -543c-18 -119 -89 -118 -103 -116c-29 -5 -56 17 -63 55l-68 495l-55 -434c-18 -117 -87 -118 -103 -116
c-29 -5 -56 17 -62 55l-70 523c-11 83 -65 79 -65 79s59 63 97 59c26 -2 39 -35 42 -57l72 -545c3 -16 7 -28 11 -37c0 6 1 11 2 17l62 502c6 43 26 79 67 97c11 8 22 12 32 11c1 0 3 0 4 -1c2 1 3 1 5 1c0 0 -1 -1 -1 -2c21 -7 31 -35 34 -57l73 -531c2 -16 6 -28 11 -36
c0 5 1 11 2 16z" />
    <glyph glyph-name="wcircumflex" unicode="&#x175;" horiz-adv-x="707" 
d="M311 752c-45 44 -65 67 -38 95l91 91c3 2 6 3 9 3c25 16 40 14 53 0l98 -99c10 -10 18 -15 33 -15c-44 -44 -67 -65 -95 -37l-65 66l-71 -71c-10 -10 -16 -18 -15 -33zM589 605c8 55 39 100 108 108c0 0 -21 -23 -27 -62l-71 -543c-18 -119 -89 -118 -103 -116
c-29 -5 -56 17 -63 55l-68 495l-55 -434c-18 -117 -87 -118 -103 -116c-29 -5 -56 17 -62 55l-70 523c-11 83 -65 79 -65 79s59 63 97 59c26 -2 39 -35 42 -57l72 -545c3 -16 7 -28 11 -37c0 6 1 11 2 17l62 502c6 43 26 79 67 97c11 8 22 12 32 11c1 0 3 0 4 -1
c2 1 3 1 5 1c0 0 -1 -1 -1 -2c21 -7 31 -35 34 -57l73 -531c2 -16 6 -28 11 -36c0 5 1 11 2 16z" />
    <glyph glyph-name="wdieresis" unicode="&#x1e85;" horiz-adv-x="707" 
d="M274 773l-43 44c-8 8 -26 8 -26 8c36 35 69 61 93 38l40 -39c9 -10 16 -14 31 -13c-28 -28 -67 -65 -95 -38zM455 773l-44 44c-8 8 -25 8 -25 8c35 35 69 61 93 38l39 -39c10 -10 17 -14 32 -13c-28 -28 -68 -65 -95 -38zM589 605c8 55 39 100 108 108
c0 0 -21 -23 -27 -62l-71 -543c-18 -119 -89 -118 -103 -116c-29 -5 -56 17 -63 55l-68 495l-55 -434c-18 -117 -87 -118 -103 -116c-29 -5 -56 17 -62 55l-70 523c-11 83 -65 79 -65 79s59 63 97 59c26 -2 39 -35 42 -57l72 -545c3 -16 7 -28 11 -37c0 6 1 11 2 17l62 502
c6 43 26 79 67 97c11 8 22 12 32 11c1 0 3 0 4 -1c2 1 3 1 5 1c0 0 -1 -1 -1 -2c21 -7 31 -35 34 -57l73 -531c2 -16 6 -28 11 -36c0 5 1 11 2 16z" />
    <glyph glyph-name="wgrave" unicode="&#x1e81;" horiz-adv-x="707" 
d="M394 776l-77 77c-28 28 -7 51 38 96c-1 -15 4 -24 14 -34l71 -71c20 -19 15 -43 -36 -95c0 0 0 17 -10 27zM589 605c8 55 39 100 108 108c0 0 -21 -23 -27 -62l-71 -543c-18 -119 -89 -118 -103 -116c-29 -5 -56 17 -63 55l-68 495l-55 -434c-18 -117 -87 -118 -103 -116
c-29 -5 -56 17 -62 55l-70 523c-11 83 -65 79 -65 79s59 63 97 59c26 -2 39 -35 42 -57l72 -545c3 -16 7 -28 11 -37c0 6 1 11 2 17l62 502c6 43 26 79 67 97c11 8 22 12 32 11c1 0 3 0 4 -1c2 1 3 1 5 1c0 0 -1 -1 -1 -2c21 -7 31 -35 34 -57l73 -531c2 -16 6 -28 11 -36
c0 5 1 11 2 16z" />
    <glyph glyph-name="x" unicode="x" horiz-adv-x="459" 
d="M381 93c20 -49 59 -27 59 -27c-4 -33 -15 -64 -53 -69c-25 -4 -63 16 -75 46l-82 212l-82 -178c-44 -97 -138 -81 -138 -81c27 16 42 49 58 81l124 276l-86 221c-30 74 -77 58 -77 58s43 63 81 69c26 5 44 -24 54 -45l76 -196l73 163c22 50 67 83 136 71
c0 0 -27 -16 -43 -53l-128 -280z" />
    <glyph glyph-name="y" unicode="y" horiz-adv-x="438" 
d="M303 623c20 48 58 84 125 76c0 0 -25 -17 -39 -53l-108 -271c-6 -15 -13 -26 -20 -34v-6v-233c0 -43 -20 -74 -93 -122c0 0 12 14 12 34v231c0 15 2 28 5 39l-106 296c-23 66 -69 53 -69 53s46 63 83 66c25 3 41 -30 52 -58l79 -221z" />
    <glyph glyph-name="yacute" unicode="&#xfd;" horiz-adv-x="438" 
d="M198 776c-11 -10 -10 -27 -10 -27c-52 52 -56 76 -37 95l71 71c10 10 16 19 15 34c44 -45 65 -68 38 -96zM303 623c20 48 58 84 125 76c0 0 -25 -17 -39 -53l-108 -271c-6 -15 -13 -26 -20 -34v-6v-233c0 -43 -20 -74 -93 -122c0 0 12 14 12 34v231c0 15 2 28 5 39
l-106 296c-23 66 -69 53 -69 53s46 63 83 66c25 3 41 -30 52 -58l79 -221z" />
    <glyph glyph-name="ycircumflex" unicode="&#x177;" horiz-adv-x="438" 
d="M156 752c-45 44 -65 67 -38 95l91 91c3 2 6 3 9 3c25 16 40 14 53 0l98 -99c10 -10 18 -15 33 -15c-44 -44 -67 -65 -95 -37l-65 66l-71 -71c-10 -10 -16 -18 -15 -33zM303 623c20 48 58 84 125 76c0 0 -25 -17 -39 -53l-108 -271c-6 -15 -13 -26 -20 -34v-6v-233
c0 -43 -20 -74 -93 -122c0 0 12 14 12 34v231c0 15 2 28 5 39l-106 296c-23 66 -69 53 -69 53s46 63 83 66c25 3 41 -30 52 -58l79 -221z" />
    <glyph glyph-name="ydieresis" unicode="&#xff;" horiz-adv-x="438" 
d="M120 773l-43 44c-8 8 -26 8 -26 8c36 35 69 61 93 38l40 -39c9 -10 16 -14 31 -13c-28 -28 -67 -65 -95 -38zM301 773l-44 44c-8 8 -25 8 -25 8c35 35 69 61 93 38l39 -39c10 -10 17 -14 32 -13c-28 -28 -68 -65 -95 -38zM303 623c20 48 58 84 125 76
c0 0 -25 -17 -39 -53l-108 -271c-6 -15 -13 -26 -20 -34v-6v-233c0 -43 -20 -74 -93 -122c0 0 12 14 12 34v231c0 15 2 28 5 39l-106 296c-23 66 -69 53 -69 53s46 63 83 66c25 3 41 -30 52 -58l79 -221z" />
    <glyph glyph-name="ygrave" unicode="&#x1ef3;" horiz-adv-x="438" 
d="M240 776l-77 77c-28 28 -7 51 38 96c-1 -15 4 -24 14 -34l71 -71c20 -19 15 -43 -36 -95c0 0 0 17 -10 27zM303 623c20 48 58 84 125 76c0 0 -25 -17 -39 -53l-108 -271c-6 -15 -13 -26 -20 -34v-6v-233c0 -43 -20 -74 -93 -122c0 0 12 14 12 34v231c0 15 2 28 5 39
l-106 296c-23 66 -69 53 -69 53s46 63 83 66c25 3 41 -30 52 -58l79 -221z" />
    <glyph glyph-name="uni0233" unicode="&#x233;" horiz-adv-x="438" 
d="M297 762h-221c-13 0 -29 -12 -29 -12c40 55 61 80 104 80h212c12 0 29 12 29 12c-38 -55 -57 -80 -95 -80zM303 623c20 48 58 84 125 76c0 0 -25 -17 -39 -53l-108 -271c-6 -15 -13 -26 -20 -34v-6v-233c0 -43 -20 -74 -93 -122c0 0 12 14 12 34v231c0 15 2 28 5 39
l-106 296c-23 66 -69 53 -69 53s46 63 83 66c25 3 41 -30 52 -58l79 -221z" />
    <glyph glyph-name="uni1EF9" unicode="&#x1ef9;" horiz-adv-x="438" 
d="M114 811c-26 -3 -40 -22 -57 -55c22 50 46 81 77 77c70 1 141 -54 212 -40c24 2 40 22 56 55c-21 -51 -42 -80 -67 -79c-73 -5 -147 57 -221 42zM303 623c20 48 58 84 125 76c0 0 -25 -17 -39 -53l-108 -271c-6 -15 -13 -26 -20 -34v-6v-233c0 -43 -20 -74 -93 -122
c0 0 12 14 12 34v231c0 15 2 28 5 39l-106 296c-23 66 -69 53 -69 53s46 63 83 66c25 3 41 -30 52 -58l79 -221z" />
    <glyph glyph-name="z" unicode="z" horiz-adv-x="467" 
d="M457 710c0 0 -8 -6 -15 -13c-2 -4 -5 -7 -8 -11l-277 -595l-6 -11h229c17 0 33 12 33 12c-44 -62 -74 -95 -122 -95h-244h-1c-11 -6 -23 -12 -36 -19c0 0 17 13 23 24l277 595c3 7 8 14 12 21h-237c-21 0 -40 -12 -40 -12c45 64 74 94 121 94h258c13 0 29 12 29 12l-5 -6
c3 1 6 3 9 4z" />
    <glyph glyph-name="zacute" unicode="&#x17a;" horiz-adv-x="467" 
d="M213 776c-11 -10 -10 -27 -10 -27c-52 52 -56 76 -37 95l71 71c10 10 16 19 15 34c44 -45 65 -68 38 -96zM457 710c0 0 -8 -6 -15 -13c-2 -4 -5 -7 -8 -11l-277 -595l-6 -11h229c17 0 33 12 33 12c-44 -62 -74 -95 -122 -95h-244h-1c-11 -6 -23 -12 -36 -19
c0 0 17 13 23 24l277 595c3 7 8 14 12 21h-237c-21 0 -40 -12 -40 -12c45 64 74 94 121 94h258c13 0 29 12 29 12l-5 -6c3 1 6 3 9 4z" />
    <glyph glyph-name="zcaron" unicode="&#x17e;" horiz-adv-x="467" 
d="M224 766l-91 91c-27 28 -7 51 38 95c-1 -15 5 -23 15 -33l71 -71l65 66c28 28 51 7 95 -37c-15 0 -23 -5 -33 -15l-98 -99c-13 -14 -28 -16 -53 0c-3 0 -6 1 -9 3zM457 710c0 0 -8 -6 -15 -13c-2 -4 -5 -7 -8 -11l-277 -595l-6 -11h229c17 0 33 12 33 12
c-44 -62 -74 -95 -122 -95h-244h-1c-11 -6 -23 -12 -36 -19c0 0 17 13 23 24l277 595c3 7 8 14 12 21h-237c-21 0 -40 -12 -40 -12c45 64 74 94 121 94h258c13 0 29 12 29 12l-5 -6c3 1 6 3 9 4z" />
    <glyph glyph-name="zdotaccent" unicode="&#x17c;" horiz-adv-x="467" 
d="M219 768l-44 44c-8 8 -25 8 -25 8c35 34 69 60 93 38l38 -40c11 -10 18 -13 33 -13c-29 -28 -68 -65 -95 -37zM457 710c0 0 -8 -6 -15 -13c-2 -4 -5 -7 -8 -11l-277 -595l-6 -11h229c17 0 33 12 33 12c-44 -62 -74 -95 -122 -95h-244h-1c-11 -6 -23 -12 -36 -19
c0 0 17 13 23 24l277 595c3 7 8 14 12 21h-237c-21 0 -40 -12 -40 -12c45 64 74 94 121 94h258c13 0 29 12 29 12l-5 -6c3 1 6 3 9 4z" />
    <glyph glyph-name="uni1E93" unicode="&#x1e93;" horiz-adv-x="467" 
d="M457 710c0 0 -8 -6 -15 -13c-2 -4 -5 -7 -8 -11l-277 -595l-6 -11h229c17 0 33 12 33 12c-44 -62 -74 -95 -122 -95h-244h-1c-11 -6 -23 -12 -36 -19c0 0 17 13 23 24l277 595c3 7 8 14 12 21h-237c-21 0 -40 -12 -40 -12c45 64 74 94 121 94h258c13 0 29 12 29 12l-5 -6
c3 1 6 3 9 4zM278 -56l38 -40c11 -10 18 -13 33 -13c-29 -28 -68 -65 -95 -37l-44 44c-8 8 -25 8 -25 8c35 34 69 60 93 38z" />
    <glyph glyph-name="zero" unicode="0" horiz-adv-x="359" 
d="M345 475c17 -200 -17 -328 -71 -408c-11 -19 -47 -71 -110 -76c-77 -7 -140 123 -150 235c-17 197 19 330 71 409c8 18 39 69 102 75c77 6 148 -123 158 -235zM224 48c9 0 19 4 28 9l-26 -5c56 96 56 200 40 377c-15 177 -92 225 -125 223c-5 0 -9 -1 -14 -2
c-54 -94 -50 -206 -35 -379c16 -176 101 -224 132 -223z" />
    <glyph glyph-name="one" unicode="1" horiz-adv-x="217" 
d="M165 679c11 10 25 20 42 31c0 0 -12 -12 -12 -24v-564c0 -85 -72 -117 -112 -142c23 21 31 53 31 91v518v3c-52 -52 -104 11 -104 11s86 32 155 76z" />
    <glyph glyph-name="two" unicode="2" horiz-adv-x="406" 
d="M366 84c11 0 30 11 30 11c-48 -74 -71 -95 -116 -95h-245c-10 0 -25 -11 -25 -11c11 16 21 29 29 41c64 95 264 401 264 499c0 91 -22 132 -70 132c-38 0 -69 -24 -82 -37h1c-67 -84 -51 -172 -3 -178c-39 -24 -78 -37 -78 -37s-37 35 -37 73c0 99 96 148 96 148
s70 78 112 78c65 0 141 -20 141 -145c0 -91 -157 -360 -229 -479h212z" />
    <glyph glyph-name="three" unicode="3" horiz-adv-x="431" 
d="M209 427c77 4 204 -45 204 -165c0 -87 -57 -154 -102 -193c-27 -33 -74 -78 -123 -78c-69 0 -167 70 -178 115c0 0 34 53 67 65c-3 -15 52 -114 163 -114c8 0 19 5 30 11c35 34 63 83 63 130c0 182 -171 183 -223 173l-11 7l183 240h-229c-18 0 -32 -12 -32 -12
c48 74 76 94 117 94h260c11 0 23 11 23 11c-15 -23 -28 -41 -39 -54z" />
    <glyph glyph-name="four" unicode="4" horiz-adv-x="405" 
d="M395 367c-13 -19 -25 -35 -36 -48v-197c0 -85 -72 -117 -112 -142c23 21 31 53 31 91v204h-1h-236c-11 0 -31 -12 -31 -12c179 273 121 333 92 348c0 0 55 29 74 53c0 0 71 -55 29 -141c-28 -58 -61 -126 -80 -168h3h150v237c0 38 20 70 92 118c0 0 -11 -25 -11 -36v-319
h4c12 0 32 12 32 12z" />
    <glyph glyph-name="five" unicode="5" horiz-adv-x="445" 
d="M145 454c69 32 276 -19 276 -171c0 -108 -80 -191 -125 -230c-27 -31 -63 -62 -100 -62c-68 0 -174 70 -186 115c0 0 42 45 76 57c-3 -15 51 -106 162 -106h5v1c46 33 88 98 88 158c0 197 -188 191 -254 173c-13 -11 -26 -19 -38 -24c23 21 19 58 19 69v134
c0 16 3 31 13 46c-7 -3 -12 -8 -12 -8c49 73 74 93 112 93h230c12 0 24 12 24 12c-48 -73 -73 -93 -111 -93h-175v-124c0 -15 -4 -29 -10 -43c3 2 6 3 6 3z" />
    <glyph glyph-name="six" unicode="6" horiz-adv-x="400" 
d="M390 236c0 -102 -107 -176 -144 -198c-14 -19 -42 -47 -84 -47c-77 0 -152 135 -152 248c0 204 43 336 105 409h2c15 19 41 50 55 54c12 0 214 39 205 -112c-3 -31 -76 -62 -76 -62c29 61 -7 111 -90 111c-18 0 -34 -1 -48 -1c-45 -74 -64 -164 -70 -287
c65 55 123 82 166 82c49 0 131 -73 131 -197zM228 46c55 45 83 81 75 209c-8 136 -150 123 -180 99l-30 -26c-1 -16 -1 -33 -1 -51c0 -177 90 -234 115 -234c7 0 14 1 21 3z" />
    <glyph glyph-name="seven" unicode="7" horiz-adv-x="431" 
d="M417 710l-6 -10l3 -3s-266 -301 -275 -654c0 0 -74 -33 -101 -67c0 0 -19 265 261 640h-251c-21 0 -38 -12 -38 -12c44 64 80 94 116 94h267c12 0 24 12 24 12z" />
    <glyph glyph-name="eight" unicode="8" horiz-adv-x="418" 
d="M408 174c0 -53 -61 -99 -90 -117c-27 -27 -78 -66 -137 -66c-117 0 -171 77 -171 126c0 88 46 180 151 251c-65 42 -124 75 -124 143c0 97 91 146 91 146c15 15 71 56 107 56c37 0 147 -21 147 -151c0 -59 -71 -133 -111 -170c70 -51 137 -116 137 -218zM117 550
c0 -53 62 -92 129 -139c25 28 57 74 57 117c0 132 -115 115 -157 104c-23 -28 -29 -46 -29 -82zM88 172c0 -57 48 -114 155 -114c44 0 76 39 76 39l4 -3c2 4 4 7 4 9c0 133 -68 198 -138 246c-79 -48 -101 -124 -101 -177z" />
    <glyph glyph-name="nine" unicode="9" horiz-adv-x="407" 
d="M319 96c-3 -5 -7 -11 -13 -18l-10 -13c-29 -33 -76 -74 -121 -74c-69 0 -153 70 -165 115c0 0 43 52 76 64c-3 -14 28 -113 139 -113c24 0 53 38 53 38c31 56 36 146 37 260c-62 -56 -109 -89 -152 -89c-49 0 -132 66 -132 190s135 211 135 211c26 17 69 43 97 43
c77 0 134 -135 134 -249c0 -160 -30 -288 -78 -365zM294 364l21 20v39c0 178 -80 225 -105 225c-9 0 -17 -3 -25 -7l1 -1c-56 -45 -84 -78 -70 -203c16 -143 148 -96 178 -73z" />
    <glyph glyph-name="period" unicode="." horiz-adv-x="174" 
d="M69 -22c27 -28 66 9 95 38c-15 -1 -22 3 -33 13l-38 39c-24 23 -58 -3 -93 -38c0 0 17 0 25 -8z" />
    <glyph glyph-name="comma" unicode="," horiz-adv-x="144" 
d="M10 31l7 -5c47 25 84 -67 68 -109l12 -3c28 29 55 109 18 148c-20 20 -70 5 -105 -31z" />
    <glyph glyph-name="colon" unicode=":" horiz-adv-x="185" 
d="M79 339c28 -27 67 10 96 38c-15 -1 -22 3 -32 13l-39 39c-24 23 -58 -3 -94 -38c0 0 18 0 26 -8zM79 80c28 -28 67 9 96 38c-15 -1 -22 2 -32 12l-39 40c-24 23 -58 -3 -94 -38c0 0 18 -1 26 -9z" />
    <glyph glyph-name="semicolon" unicode=";" horiz-adv-x="184" 
d="M79 238c28 -28 67 10 95 38c-15 -1 -21 3 -31 13l-39 39c-25 23 -58 -3 -94 -38c0 0 18 0 25 -8zM24 31l8 -5c46 25 83 -67 68 -110l12 -2c28 29 55 108 17 148c-19 20 -69 5 -105 -31z" />
    <glyph glyph-name="exclam" unicode="!" horiz-adv-x="184" 
d="M143 250c0 -86 -73 -107 -113 -133c23 21 31 54 31 91v402c0 37 21 69 93 111c0 0 -11 -13 -11 -24v-447zM79 -22c28 -28 67 9 95 38c-14 -1 -21 3 -31 13l-40 40c-23 22 -57 -3 -93 -39c0 0 17 0 25 -8z" />
    <glyph glyph-name="question" unicode="?" horiz-adv-x="350" 
d="M275 656c37 -29 98 -94 42 -165c-71 -90 -248 -262 -188 -373c0 0 -82 28 -82 94c0 94 89 199 171 291c71 80 43 121 20 150c-16 1 -37 2 -60 2c-83 0 -122 -66 -93 -127c0 0 -72 47 -75 78c-10 151 176 111 188 111c16 -4 59 -44 77 -61zM178 29c10 -10 17 -14 32 -13
c-29 -28 -68 -66 -96 -38l-43 44c-8 8 -25 8 -25 8c35 36 69 61 93 39z" />
    <glyph glyph-name="asterisk" unicode="*" horiz-adv-x="354" 
d="M235 434l-20 121l-85 -88l-120 20l58 -108l-56 -109l120 22l86 -87l17 121l109 55z" />
    <glyph glyph-name="numbersign" unicode="#" horiz-adv-x="502" 
d="M358 280h100c11 0 23 12 23 12c-37 -54 -62 -79 -100 -79h-23v-134c0 -11 12 -29 12 -29c-55 31 -79 58 -79 95v68h-76v-134c0 -11 12 -29 12 -29c-55 33 -80 58 -80 95v68h-113c-11 0 -24 -12 -24 -12c40 55 63 79 101 79h36v81h-103c-11 0 -23 -12 -23 -12
c39 55 62 79 100 79h26v133c0 11 -12 29 -12 29c55 -35 80 -60 80 -98v-64h76v133c0 11 -12 29 -12 29c55 -36 79 -60 79 -98v-64h110c12 0 24 12 24 12c-38 -55 -63 -79 -100 -79h-34v-81zM215 280h76v81h-76v-81z" />
    <glyph glyph-name="slash" unicode="/" horiz-adv-x="357" 
d="M59 4l280 601c18 38 5 65 -38 110c0 0 3 -20 -3 -31l-280 -602c-17 -38 -3 -59 42 -102c0 0 -6 12 -1 24z" />
    <glyph glyph-name="backslash" unicode="\" horiz-adv-x="357" 
d="M299 4c5 -12 -1 -24 -1 -24c45 43 59 64 42 102l-281 602c-6 11 -3 31 -3 31c-42 -45 -55 -72 -38 -110z" />
    <glyph glyph-name="parenleft" unicode="(" horiz-adv-x="260" 
d="M185 -60c0 0 -1 16 -12 28c-199 218 -216 542 -51 778c32 44 69 48 128 26c0 0 -22 -6 -31 -17c-173 -195 -184 -484 -34 -691c29 -39 23 -62 0 -124z" />
    <glyph glyph-name="parenright" unicode=")" horiz-adv-x="260" 
d="M10 -47c0 0 22 6 31 17c173 196 184 484 34 691c-29 39 -23 63 0 124c0 0 1 -16 12 -28c199 -217 216 -541 51 -778c-32 -44 -69 -48 -128 -26z" />
    <glyph glyph-name="braceleft" unicode="{" horiz-adv-x="324" 
d="M148 458c0 -48 -44 -97 -138 -97c0 0 62 31 62 72v171c0 30 15 49 53 77c26 30 48 40 75 40h90c11 0 24 12 24 12c-44 -65 -66 -87 -103 -87h-63v-188zM211 76c37 0 59 -23 103 -88c0 0 -13 12 -24 12h-90c-27 0 -49 10 -76 41c-37 28 -52 47 -52 77v171
c0 41 -62 72 -62 72c94 0 138 -49 138 -98v-187h63z" />
    <glyph glyph-name="braceright" unicode="}" horiz-adv-x="324" 
d="M252 433c0 -41 62 -72 62 -72c-93 0 -137 49 -137 97v188h-63c-38 0 -60 22 -104 87c0 0 13 -12 24 -12h90c26 0 48 -9 73 -37c39 -30 55 -49 55 -80v-171zM177 263c0 49 44 98 137 98c0 0 -62 -31 -62 -72v-171c0 -30 -15 -50 -54 -79c-26 -29 -47 -39 -74 -39h-90
c-11 0 -24 -12 -24 -12c44 65 66 88 104 88h63v187z" />
    <glyph glyph-name="bracketleft" unicode="[" horiz-adv-x="265" 
d="M113 75h106c11 0 28 12 28 12c-43 -65 -57 -87 -95 -87h-118c-12 0 -24 -12 -24 -12c4 6 8 11 12 16c-2 0 -3 -1 -4 -2c0 0 11 13 11 24v601c0 26 12 45 41 68c14 16 27 25 41 31c2 1 4 2 6 4l-3 -3c9 3 18 4 28 4h90c11 0 23 12 23 12c-43 -65 -65 -87 -103 -87h-47
v-551c0 -12 -2 -22 -7 -31c5 1 10 1 15 1z" />
    <glyph glyph-name="bracketright" unicode="]" horiz-adv-x="272" 
d="M262 743c-4 -6 -7 -11 -11 -16l4 3s-12 -12 -12 -24v-601c0 -7 -1 -13 -2 -19l1 1c-1 -1 -1 -2 -2 -3c-4 -13 -12 -24 -25 -37c-24 -34 -39 -47 -68 -47h-113c-12 0 -24 -12 -24 -12c44 63 65 87 103 87h55v552c0 11 2 21 7 31c-5 -2 -10 -2 -16 -2h-108
c-12 0 -24 -12 -24 -12c44 64 66 87 116 87h95c11 0 24 12 24 12z" />
    <glyph glyph-name="hyphen" unicode="-" horiz-adv-x="404" 
d="M370 304h-263c-37 0 -59 -20 -97 -71c0 0 12 11 23 11h264c37 0 61 18 97 72c0 0 -12 -12 -24 -12z" />
    <glyph glyph-name="underscore" unicode="_" horiz-adv-x="483" 
d="M445 0h-331c-43 0 -64 -25 -104 -80c0 0 16 12 29 12h339c38 0 58 25 95 80c0 0 -17 -12 -28 -12z" />
    <glyph glyph-name="quotedblleft" unicode="&#x201c;" horiz-adv-x="281" 
d="M60 760c-15 -42 21 -134 68 -109l8 -6c-36 -35 -86 -50 -106 -30c-38 39 -10 119 18 148zM271 645c-36 -35 -86 -50 -106 -30c-37 39 -10 119 18 148l12 -3c-16 -42 22 -134 68 -109z" />
    <glyph glyph-name="quotedblright" unicode="&#x201d;" horiz-adv-x="280" 
d="M10 699c36 36 86 51 105 31c38 -40 11 -119 -17 -148l-12 3c15 42 -22 134 -68 109zM251 730c37 -40 10 -119 -18 -148l-12 3c16 42 -22 134 -68 109l-8 5c36 36 86 51 106 31z" />
    <glyph glyph-name="quoteleft" unicode="&#x2018;" horiz-adv-x="146" 
d="M136 645c-36 -35 -86 -50 -106 -30c-38 39 -10 119 18 148l12 -3c-15 -42 21 -134 68 -109z" />
    <glyph glyph-name="quoteright" unicode="&#x2019;" horiz-adv-x="145" 
d="M115 730c38 -40 11 -119 -17 -148l-12 3c15 42 -22 134 -68 109l-8 5c36 36 86 51 105 31z" />
    <glyph glyph-name="quotedbl" unicode="&#x22;" horiz-adv-x="255" 
d="M104 616c0 -14 2 -24 13 -34c-63 0 -95 1 -95 40v91c0 15 -12 27 -12 27c73 0 94 -15 94 -42v-82zM231 616c0 -14 3 -24 14 -34c-64 0 -95 1 -95 40v91c0 15 -12 27 -12 27c73 0 93 -15 93 -42v-82z" />
    <glyph glyph-name="quotesingle" unicode="'" horiz-adv-x="127" 
d="M104 616c0 -14 2 -24 13 -34c-63 0 -95 1 -95 40v91c0 15 -12 27 -12 27c73 0 94 -15 94 -42v-82z" />
    <glyph glyph-name="space" unicode=" " horiz-adv-x="200" 
 />
    <glyph glyph-name="cent" unicode="&#xa2;" horiz-adv-x="310" 
d="M176 169c37 -5 74 4 92 22c0 0 -46 -89 -76 -89c-5 0 -11 0 -16 1v-8c0 -38 0 -53 -48 -95c0 0 12 12 12 24v85c-64 16 -130 64 -130 155v136c0 22 14 41 40 63c25 29 44 43 69 43h21v21c0 38 2 55 48 95c0 0 -12 -12 -12 -23v-93h104c10 0 20 10 20 10
c-35 -51 -58 -74 -89 -74h-35v-273zM78 291c0 -59 27 -94 62 -111v262h-62v-151z" />
    <glyph glyph-name="currency" unicode="&#xa4;" horiz-adv-x="346" 
d="M253 222l47 -47c19 -19 22 -32 20 -75c0 0 -1 12 -6 18l-52 52c-10 10 -16 18 -19 30c-7 -11 -15 -21 -24 -29c-6 -6 -20 -19 -46 -20c-19 -1 -37 9 -50 23l-38 -38c-18 -19 -30 -23 -75 -20c0 0 12 1 18 6l52 52c10 10 18 15 29 18c-5 9 -9 19 -10 28c-5 34 0 62 10 83
l-57 58c-18 18 -22 30 -19 75c0 0 0 -12 6 -18l69 -71c7 -7 12 -13 15 -20c4 6 9 11 14 15h1c6 7 20 20 46 21c13 1 27 -4 38 -12l39 39c19 18 32 22 75 19c0 0 -12 0 -18 -6l-52 -52c-9 -9 -16 -14 -26 -17c9 -12 16 -27 18 -40c4 -28 1 -52 -5 -72zM207 170
c27 29 21 58 14 110s-55 64 -66 64c-2 0 -4 0 -6 -1c-26 -29 -21 -57 -13 -110c2 -17 9 -29 17 -39h2h-2c17 -19 42 -25 49 -24h5z" />
    <glyph glyph-name="dollar" unicode="$" horiz-adv-x="384" 
d="M369 186c0 -31 -18 -56 -37 -73l2 1c-15 -21 -62 -82 -111 -110v-37c0 -38 -8 -53 -56 -95c0 0 12 12 12 24v95c-68 0 -157 70 -169 115c0 0 34 52 68 64c-2 -11 38 -68 101 -93v255c-50 56 -103 107 -132 143c-71 91 46 171 63 180l3 -1c22 18 52 40 66 47v13
c0 38 10 55 56 96c0 0 -12 -13 -12 -24v-79c52 3 137 -7 133 -109c-3 -30 -64 -78 -64 -78c22 49 -12 95 -69 112v-221c72 -75 146 -158 146 -225zM142 497c11 -13 24 -26 37 -40v182h-4c-22 0 -40 -1 -54 -2c-24 -26 -48 -62 21 -140zM242 64c16 0 36 11 52 23l-5 -3
c29 54 -10 126 -66 197v-216c6 -1 13 -1 19 -1z" />
    <glyph glyph-name="Euro" unicode="&#x20ac;" horiz-adv-x="450" 
d="M197 212c0 -168 186 -180 238 -129c0 0 -68 -92 -105 -92c-126 0 -215 57 -215 199v225h-81c-11 0 -24 -12 -24 -12c30 40 44 52 65 56c15 19 28 35 40 46v68c0 38 20 67 94 116c0 0 -12 -13 -12 -25v-135h176c16 3 27 12 27 12l-6 -9c7 4 13 9 13 9
c-34 -51 -45 -64 -64 -67c-9 -7 -17 -11 -27 -14h30c11 0 24 12 24 12c-38 -55 -51 -57 -89 -57h-84v-203z" />
    <glyph glyph-name="sterling" unicode="&#xa3;" horiz-adv-x="504" 
d="M465 81c17 0 29 12 29 12c-44 -65 -81 -93 -119 -93h-271c-11 0 -23 -12 -23 -12c10 15 19 27 27 38l-29 -22s12 13 12 24v269h-57c-11 0 -24 -12 -24 -12c36 48 48 55 81 56v194c0 59 33 88 66 109c30 28 66 58 86 58c89 0 155 -38 155 -148v-21c0 -38 -19 -63 -92 -111
c0 0 12 13 12 26v80c0 104 -76 122 -139 106c-6 -16 -8 -35 -8 -55v-238h108c12 0 24 12 24 12c-37 -54 -50 -56 -87 -56h-45v-182c0 -15 -5 -29 -15 -43c11 6 23 9 36 9h273z" />
    <glyph glyph-name="yen" unicode="&#xa5;" horiz-adv-x="437" 
d="M427 697c0 0 -25 -17 -39 -52l-74 -187h52c11 0 23 11 23 11c-36 -53 -49 -55 -87 -55h-5l-16 -40c-3 -7 -6 -13 -9 -18h94c11 0 23 12 23 12c-36 -54 -49 -56 -87 -56h-41v-210c0 -43 -20 -74 -93 -122c0 0 12 14 12 33v232c0 15 2 27 5 38l-10 29h-115
c-11 0 -24 -11 -24 -11c39 51 50 55 88 55h35l-21 58h-78c-11 0 -24 -12 -24 -12c38 50 50 56 86 56l-43 121c-23 67 -69 53 -69 53s46 62 83 66c25 2 41 -30 51 -58l66 -182h29l64 163c20 49 58 85 124 76z" />
    <glyph glyph-name="plus" unicode="+" horiz-adv-x="405" 
d="M371 341c12 0 24 12 24 12c-36 -54 -60 -72 -98 -72h-60v-140c0 -11 11 -26 11 -26c-49 35 -71 52 -71 90v76h-143c-11 0 -24 -11 -24 -11c39 51 61 71 99 71h68v143c0 11 -12 23 -12 23c51 -34 72 -60 72 -97v-69h134z" />
    <glyph glyph-name="multiply" unicode="&#xd7;" horiz-adv-x="351" 
d="M316 213c8 -8 25 -9 25 -9c-63 -11 -93 -8 -120 19l-43 43l-98 -99c-8 -8 -11 -26 -11 -26c-9 59 -13 87 14 113l53 54l-101 101c-7 8 -25 9 -25 9c64 9 94 8 121 -19l48 -48l100 101c9 8 9 24 9 24c12 -59 8 -93 -19 -119l-48 -48z" />
    <glyph glyph-name="divide" unicode="&#xf7;" horiz-adv-x="420" 
d="M197 357c27 -28 67 9 95 37c-15 0 -22 4 -32 14l-39 39c-24 22 -58 -3 -93 -38c0 0 17 -1 25 -9zM387 304h-279c-38 0 -60 -21 -98 -72c0 0 12 12 24 12h279c37 0 61 18 97 72c0 0 -12 -12 -23 -12zM197 102c27 -28 67 9 95 38c-15 -1 -22 2 -32 12l-39 40
c-24 22 -58 -3 -93 -39c0 0 17 0 25 -8z" />
    <glyph glyph-name="equal" unicode="=" horiz-adv-x="413" 
d="M379 357h-263c-37 0 -59 -21 -98 -72c0 0 13 12 24 12h263c38 0 61 18 98 72c0 0 -12 -12 -24 -12zM372 245h-264c-37 0 -59 -21 -98 -72c0 0 13 12 24 12h263c38 0 61 18 98 72c0 0 -12 -12 -23 -12z" />
    <glyph glyph-name="greater" unicode="&#x3e;" horiz-adv-x="413" 
d="M380 230c7 -4 15 -8 23 -13c0 0 -17 6 -34 0l-235 -85c-35 -13 -69 -5 -124 31c0 0 16 -7 27 -3l250 91c28 10 50 4 86 -16c-4 3 -10 7 -16 10l-235 85c-36 13 -56 41 -75 103c0 0 8 -15 18 -19l250 -91c34 -12 46 -36 65 -93z" />
    <glyph glyph-name="less" unicode="&#x3c;" horiz-adv-x="413" 
d="M376 160c11 -4 27 3 27 3c-55 -36 -89 -44 -124 -31l-235 85c-17 6 -34 0 -34 0c8 5 16 9 23 13c19 57 31 81 65 93l250 91c10 4 18 19 18 19c-19 -62 -39 -90 -75 -103l-235 -85c-6 -3 -12 -7 -16 -10c36 20 58 26 86 16z" />
    <glyph glyph-name="percent" unicode="%" horiz-adv-x="481" 
d="M96 347c-40 -4 -79 63 -84 121c-9 102 15 167 42 208c7 12 24 38 54 40c39 3 85 -65 90 -123c9 -105 -19 -170 -47 -210c-8 -12 -26 -34 -55 -36zM112 6c-5 -12 1 -24 1 -24c-45 43 -59 64 -41 102l280 602c5 11 3 31 3 31c42 -45 55 -72 38 -110zM79 676
c-27 -48 -21 -96 -13 -185c6 -74 47 -101 65 -105c27 49 19 97 11 186c-7 83 -46 102 -63 104zM469 246c9 -105 -19 -170 -47 -210c-8 -12 -26 -34 -55 -36c-39 -4 -78 63 -83 120c-9 104 16 171 43 212c8 13 25 34 52 37c40 3 85 -66 90 -123zM337 144
c6 -75 47 -101 65 -105c28 49 19 97 11 186c-7 83 -45 102 -62 104c-27 -48 -22 -97 -14 -185z" />
    <glyph glyph-name="perthousand" unicode="&#x2030;" horiz-adv-x="698" 
d="M96 347c-40 -4 -79 63 -84 121c-9 105 16 171 44 212h1c7 13 24 34 51 36c39 3 85 -65 90 -123c9 -99 -17 -163 -43 -203c0 0 -20 -40 -59 -43zM112 6c-5 -12 1 -24 1 -24c-46 43 -59 64 -42 102l281 602c5 11 2 31 2 31c43 -45 56 -72 39 -110zM79 676
c-27 -48 -21 -96 -13 -185c6 -74 47 -101 65 -105c27 49 18 97 11 186c-7 83 -46 102 -63 104zM379 369c39 3 85 -66 90 -123c9 -105 -19 -170 -47 -210c-8 -12 -26 -34 -55 -36c-39 -4 -79 63 -84 120c-9 102 16 168 43 210c7 12 24 36 53 39zM686 246
c9 -105 -19 -170 -47 -210h-1c-7 -12 -25 -34 -54 -36c-39 -4 -78 63 -83 120c-9 103 14 169 42 210c7 13 24 36 52 39c40 3 86 -66 91 -123zM337 144c6 -74 47 -101 65 -105c27 49 19 97 11 186c-7 84 -47 102 -63 104c-27 -48 -21 -97 -13 -185zM554 144
c6 -74 47 -101 65 -105c27 49 19 97 11 186c-7 84 -47 102 -63 104c-27 -48 -21 -97 -13 -185z" />
    <glyph glyph-name="at" unicode="@" horiz-adv-x="516" 
d="M176 621c111 0 330 -29 330 -192v-160c0 -35 -4 -59 -61 -100c-19 -17 -49 -41 -71 -41c-12 0 -33 12 -51 34c-19 -21 -44 -44 -64 -44c-77 0 -156 53 -156 142v124c0 32 3 47 49 81c23 35 33 36 62 36h121c12 0 24 12 24 12l-14 -21c4 3 10 6 15 10c0 0 -11 -20 -11 -31
v-184c0 -93 44 -129 87 -114c2 4 4 10 4 16v232c0 145 -290 172 -361 131c-2 -4 -3 -8 -3 -12v-339c0 -138 248 -190 299 -139c0 0 -59 -72 -95 -72c-90 0 -269 55 -269 195v268c0 38 4 63 76 111c21 22 59 57 89 57zM168 268c0 -82 86 -113 146 -94c-17 24 -30 57 -30 96
v135c0 13 0 22 4 32c-5 -1 -10 -1 -16 -1h-104v-168z" />
    <glyph glyph-name="ampersand" unicode="&#x26;" horiz-adv-x="603" 
d="M569 294c12 0 24 11 24 11c-38 -52 -66 -71 -103 -71h-25c10 -10 16 -17 16 -17c-7 -28 -48 -80 -99 -128l14 -24c19 -33 9 -81 -20 -150c0 0 4 17 -2 27l-55 96c-40 -28 -80 -48 -111 -48c-72 0 -121 61 -150 106c-22 15 -48 40 -48 78c0 62 50 144 107 219l-52 91
c-23 40 -21 77 -10 109c-2 4 -3 8 -3 11c-9 139 139 104 151 104c12 -3 38 -26 57 -45c17 -9 112 -88 41 -179c-21 -26 -52 -62 -85 -103l128 -224c25 28 46 56 58 77h-62c-12 0 -24 -12 -24 -12c37 50 60 72 98 72h155zM108 570l63 -110c11 13 22 26 33 38
c70 79 64 117 47 145c-16 1 -37 2 -63 2c-62 0 -85 -33 -80 -75zM161 55c43 0 85 19 122 47l-121 211c-48 -68 -88 -140 -83 -197c13 -18 49 -61 82 -61z" />
    <glyph glyph-name="copyright" unicode="&#xa9;" horiz-adv-x="460" 
d="M208 626c103 0 241 -50 241 -183v-291c0 -33 -22 -62 -93 -101c10 2 18 5 25 9c-26 -17 -96 -60 -128 -60c-103 0 -242 53 -242 184v290c0 33 21 60 85 99c-6 -2 -12 -4 -17 -7c26 17 96 60 129 60zM372 84v341c0 122 -174 168 -263 151c-9 -9 -20 -23 -20 -33v-342
c0 -120 169 -167 259 -152c10 9 24 23 24 35zM79 566l-9 -6zM196 488h106c6 0 13 6 13 6c-27 -39 -40 -50 -60 -50h-75v-207c0 -96 102 -109 129 -82c0 0 -40 -47 -60 -47c-49 0 -113 30 -113 106v213c0 4 1 8 2 12c-1 0 -2 -1 -2 -1l3 4c2 7 7 13 15 21c12 14 21 21 32 24
c3 1 6 1 10 1zM381 60c6 4 10 6 10 6c-3 -2 -6 -5 -10 -6z" />
    <glyph glyph-name="registered" unicode="&#xae;" horiz-adv-x="460" 
d="M208 626c103 0 241 -50 241 -183v-291c0 -33 -22 -61 -93 -101c10 2 18 5 25 9c-26 -17 -96 -60 -129 -60c-103 0 -241 53 -241 184v290c0 33 21 60 85 99l-16 -6c26 16 95 59 128 59zM372 84v341c0 122 -175 168 -263 151c-10 -9 -21 -23 -21 -33v-342
c0 -41 20 -73 49 -97c8 11 12 26 12 43v106c-4 -2 -8 -5 -8 -5l8 12v171c0 3 0 6 1 9c-5 -1 -9 -2 -10 -4c0 0 40 53 60 53l48 -2c53 0 68 -37 68 -104v-34c0 -48 -19 -74 -49 -86c24 -42 47 -125 67 -125c8 0 12 6 12 6s-19 -36 -44 -36c-26 0 -61 125 -83 146h-8h-18v-78
c0 -42 -32 -60 -54 -74c57 -46 150 -63 209 -53c10 9 24 23 24 35zM80 567l-10 -7c3 2 6 5 10 7zM272 360c0 65 4 82 -56 82h-23v-145c3 1 5 1 8 1h30c11 0 41 11 41 47v15zM381 60c6 4 10 6 10 6c-3 -2 -6 -5 -10 -6z" />
    <glyph glyph-name="trademark" unicode="&#x2122;" horiz-adv-x="478" 
d="M71 700h122c5 0 11 6 11 6c-23 -35 -43 -52 -60 -52h-17v-224c0 -41 -42 -56 -61 -68c11 10 15 25 15 43v232c0 6 2 12 6 17h-66c-5 0 -11 -6 -11 -6c23 35 43 52 61 52zM463 381c0 -5 5 -19 5 -19c-34 23 -51 32 -51 50v238c0 5 0 9 -1 12c-2 -8 -5 -19 -6 -30l-23 -178
c-6 -37 -75 -63 -75 -63s2 1 4 3l-6 -3s10 14 7 27l-55 225l-1 4v-233c0 -18 -18 -30 -52 -53c0 0 5 6 5 11v269c0 18 18 37 52 60l-4 -6c6 3 11 5 16 5c12 0 19 -15 21 -25l48 -198l20 155c4 26 30 49 54 58c19 13 42 18 42 -11v-298z" />
    <glyph glyph-name="uni0308" unicode="&#x308;" horiz-adv-x="0" 
d="M-286 773c28 -27 67 10 95 38c-15 -1 -22 3 -31 13l-40 39c-24 23 -57 -3 -93 -38c0 0 18 0 26 -8zM-105 773c27 -27 67 10 95 38c-15 -1 -22 3 -32 13l-39 39c-24 23 -58 -3 -93 -38c0 0 17 0 25 -8z" />
    <glyph glyph-name="uni0307" unicode="&#x307;" horiz-adv-x="0" 
d="M-105 768c27 -28 66 9 95 37c-15 0 -22 3 -33 13l-38 40c-24 22 -58 -4 -93 -38c0 0 17 0 25 -8z" />
    <glyph glyph-name="gravecomb" unicode="&#x300;" horiz-adv-x="0" 
d="M-144 853l77 -77c10 -10 10 -27 10 -27c51 52 56 76 36 95l-71 71c-10 10 -15 19 -14 34c-45 -45 -66 -68 -38 -96z" />
    <glyph glyph-name="acutecomb" unicode="&#x301;" horiz-adv-x="0" 
d="M-22 853c27 28 6 51 -38 96c1 -15 -5 -24 -15 -34l-71 -71c-19 -19 -15 -43 37 -95c0 0 -1 17 10 27z" />
    <glyph glyph-name="uni030B" unicode="&#x30b;" horiz-adv-x="0" 
d="M-291 869l7 -6c47 26 84 -66 68 -108l12 -3c28 29 55 108 18 148c-20 19 -70 5 -105 -31zM-134 869l7 -6c47 26 84 -66 68 -108l12 -3c28 29 55 108 18 148c-20 19 -70 5 -105 -31z" />
    <glyph glyph-name="uni0302" unicode="&#x302;" horiz-adv-x="0" 
d="M-43 842c10 -10 18 -15 33 -15c-44 -44 -67 -65 -95 -37l-65 66l-71 -71c-10 -10 -16 -18 -15 -33c-45 44 -66 67 -38 95l91 91c3 2 6 3 9 3c25 16 40 14 53 0z" />
    <glyph glyph-name="uni030C" unicode="&#x30c;" horiz-adv-x="0" 
d="M-105 914c28 28 51 7 95 -37c-15 0 -23 -5 -33 -15l-98 -99c-13 -14 -28 -16 -53 0c-3 0 -6 1 -9 3l-91 91c-28 28 -7 51 38 95c-1 -15 5 -23 15 -33l71 -71z" />
    <glyph glyph-name="uni0306" unicode="&#x306;" horiz-adv-x="0" 
d="M-56 917c12 -57 -4 -94 -23 -112c-59 -59 -120 -62 -169 -12c-12 14 -21 61 -24 83c12 -45 93 -94 158 -29l53 53c5 5 5 17 5 17zM-272 876c-1 3 -2 7 -2 10z" />
    <glyph glyph-name="uni030A" unicode="&#x30a;" horiz-adv-x="0" 
d="M-112 1000c56 0 102 -34 102 -121v-30c0 -24 -13 -44 -58 -73l1 1c-17 -11 -36 -22 -47 -22c-67 0 -101 43 -101 134c0 19 9 47 37 72c-1 0 -1 0 -2 -1c1 1 3 2 4 4c6 4 12 9 19 14l-1 -1c16 12 35 23 46 23zM-165 892c0 -87 63 -114 104 -105v3v73
c0 89 -63 116 -103 105c-1 -2 -1 -3 -1 -5v-71zM-180 960c-3 -2 -5 -4 -5 -4c2 2 3 3 5 4zM-44 793c3 2 6 5 8 7z" />
    <glyph glyph-name="tildecomb" unicode="&#x303;" horiz-adv-x="0" 
d="M-77 769c-73 -5 -147 57 -221 42c-26 -3 -40 -22 -57 -55c22 50 46 81 77 77c70 1 141 -54 212 -40c24 2 40 22 56 55c-21 -51 -42 -80 -67 -79z" />
    <glyph glyph-name="uni0304" unicode="&#x304;" horiz-adv-x="0" 
d="M-39 830h-212c-43 0 -64 -25 -104 -80c0 0 16 12 29 12h221c38 0 57 25 95 80c0 0 -17 -12 -29 -12z" />
    <glyph glyph-name="uni0312" unicode="&#x312;" horiz-adv-x="0" 
d="M-10 793l-7 6c-46 -26 -83 66 -68 108l-12 3c-28 -29 -55 -108 -17 -148c19 -19 69 -5 104 31z" />
    <glyph glyph-name="dotbelowcomb" unicode="&#x323;" horiz-adv-x="0" 
d="M-105 -146c27 -28 66 9 95 37c-15 0 -22 3 -33 13l-38 40c-24 22 -58 -4 -93 -38c0 0 17 0 25 -8z" />
    <glyph glyph-name="uni0326" unicode="&#x326;" horiz-adv-x="0" 
d="M-134 869l7 -6c47 26 84 -66 68 -108l12 -3c28 29 55 108 18 148c-20 19 -70 5 -105 -31z" />
    <glyph glyph-name="uni0327" unicode="&#x327;" horiz-adv-x="0" 
d="M-78 -47c21 -25 28 -50 28 -68c0 -84 -40 -125 -109 -125c-18 0 -58 27 -76 40c40 -23 132 0 132 92v18h-43c-40 0 -54 23 -88 84c0 0 17 -13 36 -13h59c13 0 23 -1 32 -4c-2 3 -4 5 -4 5l10 -7c10 -5 17 -12 23 -22zM-235 -200c-3 2 -6 4 -8 6z" />
    <glyph glyph-name="uni0328" unicode="&#x328;" horiz-adv-x="0" 
d="M-179 -63c0 -101 84 -121 121 -99c-16 -12 -52 -38 -70 -38c-67 0 -101 42 -101 133c0 23 13 60 58 90c0 0 -8 -8 -8 -15v-71zM-58 -162l8 6c-2 -2 -5 -4 -8 -6z" />
    <glyph glyph-name="uni20b1" horiz-adv-x="446" 
d="M378 445h34c11 0 24 12 24 12c-26 -38 -40 -50 -60 -54c-11 -101 -76 -138 -166 -144c-4 -1 -7 -1 -11 -1h-50v-137c0 -87 -73 -119 -113 -145c23 21 31 54 31 92v333h-33c-11 0 -24 -12 -24 -12c26 34 39 47 57 53v61h-33c-11 0 -24 -12 -24 -12c26 34 39 48 57 54v40
c0 6 1 12 2 18c-1 0 -2 -1 -3 -2l4 6c5 17 16 32 36 51c18 22 39 42 56 42l89 -2c85 0 117 -56 125 -150h36c11 0 24 11 24 11c-25 -37 -39 -49 -58 -54v-10v-50zM193 614h-44v-66h141c-10 49 -35 66 -97 66zM295 503h-146v-58h147v16c0 15 0 29 -1 42zM173 340h48
c32 0 64 15 73 61h-145v-65c7 3 15 4 24 4z" />
    <glyph glyph-name="IJacute" horiz-adv-x="495" 
d="M254 776c-10 -10 -10 -27 -10 -27c-51 52 -56 76 -36 95l71 71c10 10 15 19 14 34c45 -45 66 -68 38 -96zM391 591c0 38 28 77 94 120c0 0 -12 -13 -12 -24v-528c0 -72 -51 -107 -92 -131c-21 -20 -43 -37 -59 -37c-79 0 -168 56 -168 197v21c0 38 24 76 88 120
c0 0 -12 -15 -12 -32v-74c0 -142 91 -176 156 -162c4 14 5 30 5 46v484zM41 594c0 38 20 71 93 111c0 0 -12 -12 -12 -23v-559c0 -85 -71 -128 -112 -143c23 21 31 54 31 91v523z" />
    <glyph glyph-name="ijacute" horiz-adv-x="495" 
d="M254 776c-10 -10 -10 -27 -10 -27c-51 52 -56 76 -36 95l71 71c10 10 15 19 14 34c45 -45 66 -68 38 -96zM391 591c0 38 28 77 94 120c0 0 -12 -13 -12 -24v-528c0 -72 -51 -107 -92 -131c-21 -20 -43 -37 -59 -37c-79 0 -168 56 -168 197v21c0 38 24 76 88 120
c0 0 -12 -15 -12 -32v-74c0 -142 91 -176 156 -162c4 14 5 30 5 46v484zM41 594c0 38 20 71 93 111c0 0 -12 -12 -12 -23v-559c0 -85 -71 -128 -112 -143c23 21 31 54 31 91v523z" />
    </font>
</defs>
</svg>
