<?xml version="1.0" standalone="no"?>
<!DOCTYPE svg PUBLIC "-//W3C//DTD SVG 1.1//EN" "http://www.w3.org/Graphics/SVG/1.1/DTD/svg11.dtd" >
<svg xmlns="http://www.w3.org/2000/svg" xmlns:xlink="http://www.w3.org/1999/xlink" version="1.1">
<metadata>
Created by FontForge 20170924 at Thu Jan 30 15:23:19 2020
 By www-data
copyright missing
</metadata>
<defs>
<font id="MartiresPro-Regular" horiz-adv-x="394" >
  <font-face 
    font-family="Martires Pro"
    font-weight="400"
    font-stretch="normal"
    units-per-em="1000"
    panose-1="0 0 5 0 0 0 0 0 0 0"
    ascent="800"
    descent="-200"
    x-height="698"
    cap-height="703"
    bbox="-339 -240 679.126 1228"
    underline-thickness="50"
    underline-position="-100"
    unicode-range="U+0020-2122"
  />
<missing-glyph horiz-adv-x="600" 
d="M0 601h600v-601h-600v601zM467 126c23 25 34 57 34 91c0 32 -10 61 -31 84c-3 3 -7 7 -11 10c17 22 25 50 25 79c0 34 -10 65 -32 87c-17 18 -51 39 -102 39h-251v-64c7 0 25 0 38 -27c11 -25 21 -61 29 -99c12 -52 23 -109 48 -155c32 -58 85 -87 147 -87
c40 0 81 15 106 42zM371 273c21 0 37 -6 49 -17c9 -10 12 -24 12 -39c0 -17 -4 -34 -15 -46c-14 -14 -32 -21 -56 -21c-81 0 -104 75 -129 190c-8 42 -18 81 -32 112h146c23 0 43 -7 55 -20c10 -10 14 -25 14 -42c0 -36 -22 -53 -44 -53h-46v-64h46z" />
    <glyph glyph-name=".notdef" horiz-adv-x="600" 
d="M0 601h600v-601h-600v601zM467 126c23 25 34 57 34 91c0 32 -10 61 -31 84c-3 3 -7 7 -11 10c17 22 25 50 25 79c0 34 -10 65 -32 87c-17 18 -51 39 -102 39h-251v-64c7 0 25 0 38 -27c11 -25 21 -61 29 -99c12 -52 23 -109 48 -155c32 -58 85 -87 147 -87
c40 0 81 15 106 42zM371 273c21 0 37 -6 49 -17c9 -10 12 -24 12 -39c0 -17 -4 -34 -15 -46c-14 -14 -32 -21 -56 -21c-81 0 -104 75 -129 190c-8 42 -18 81 -32 112h146c23 0 43 -7 55 -20c10 -10 14 -25 14 -42c0 -36 -22 -53 -44 -53h-46v-64h46z" />
    <glyph glyph-name="A" unicode="A" 
d="M372 6c0 -11 12 -24 12 -24c-75 50 -84 81 -84 125v211c-16 -17 -29 -20 -51 -20h-135v-188c0 -80 -63 -103 -104 -129c24 22 32 55 32 94v456c0 33 7 64 55 104c16 20 63 73 93 73c92 0 182 -57 182 -199v-503zM166 370h134v117c0 154 -117 185 -182 158
c-2 -4 -4 -9 -4 -13v-284c17 18 29 22 52 22z" />
    <glyph glyph-name="Aacute" unicode="&#xc1;" 
d="M181 775c-10 -9 -10 -26 -10 -26c-46 46 -50 67 -31 86l67 66c10 10 14 17 13 32c39 -39 58 -60 30 -88zM372 6c0 -11 12 -24 12 -24c-75 50 -84 81 -84 125v211c-16 -17 -29 -20 -51 -20h-135v-188c0 -80 -63 -103 -104 -129c24 22 32 55 32 94v456c0 33 7 64 55 104
c16 20 63 73 93 73c92 0 182 -57 182 -199v-503zM166 370h134v117c0 154 -117 185 -182 158c-2 -4 -4 -9 -4 -13v-284c17 18 29 22 52 22z" />
    <glyph glyph-name="Abreve" unicode="&#x102;" 
d="M285 801c-56 -56 -118 -55 -165 -7c-12 13 -20 55 -24 77c14 -45 97 -93 158 -32l56 56c5 5 5 18 5 18c12 -58 -11 -94 -30 -112zM96 871c-1 4 -2 8 -2 12zM372 6c0 -11 12 -24 12 -24c-75 50 -84 81 -84 125v211c-16 -17 -29 -20 -51 -20h-135v-188
c0 -80 -63 -103 -104 -129c24 22 32 55 32 94v456c0 33 7 64 55 104c16 20 63 73 93 73c92 0 182 -57 182 -199v-503zM166 370h134v117c0 154 -117 185 -182 158c-2 -4 -4 -9 -4 -13v-284c17 18 29 22 52 22z" />
    <glyph glyph-name="uni01CD" unicode="&#x1cd;" 
d="M186 764l-89 88c-27 28 -8 49 31 88c-1 -15 3 -22 13 -32l73 -72l65 66c28 28 49 9 88 -30c-15 0 -22 -3 -32 -13l-94 -95c-13 -13 -26 -16 -47 -3c-3 0 -6 1 -8 3zM372 6c0 -11 12 -24 12 -24c-75 50 -84 81 -84 125v211c-16 -17 -29 -20 -51 -20h-135v-188
c0 -80 -63 -103 -104 -129c24 22 32 55 32 94v456c0 33 7 64 55 104c16 20 63 73 93 73c92 0 182 -57 182 -199v-503zM166 370h134v117c0 154 -117 185 -182 158c-2 -4 -4 -9 -4 -13v-284c17 18 29 22 52 22z" />
    <glyph glyph-name="Acircumflex" unicode="&#xc2;" 
d="M141 784c-10 -10 -14 -17 -13 -32c-39 39 -58 60 -31 88l59 58h-1l16 16l15 14c3 3 6 3 8 3c21 13 35 10 47 -2l94 -95c10 -10 17 -14 32 -13c-39 -40 -60 -59 -88 -31l-66 66zM372 6c0 -11 12 -24 12 -24c-75 50 -84 81 -84 125v211c-16 -17 -29 -20 -51 -20h-135v-188
c0 -80 -63 -103 -104 -129c24 22 32 55 32 94v456c0 33 7 64 55 104c16 20 63 73 93 73c92 0 182 -57 182 -199v-503zM166 370h134v117c0 154 -117 185 -182 158c-2 -4 -4 -9 -4 -13v-284c17 18 29 22 52 22z" />
    <glyph glyph-name="Adieresis" unicode="&#xc4;" 
d="M93 775l-40 40c-8 8 -25 8 -25 8c35 35 62 54 84 32l38 -38c10 -10 16 -13 31 -12c-28 -28 -60 -58 -88 -30zM268 775l-40 40c-8 8 -25 8 -25 8c35 35 62 54 85 32l37 -38c10 -10 16 -13 31 -12c-28 -28 -60 -58 -88 -30zM372 6c0 -11 12 -24 12 -24
c-75 50 -84 81 -84 125v211c-16 -17 -29 -20 -51 -20h-135v-188c0 -80 -63 -103 -104 -129c24 22 32 55 32 94v456c0 33 7 64 55 104c16 20 63 73 93 73c92 0 182 -57 182 -199v-503zM166 370h134v117c0 154 -117 185 -182 158c-2 -4 -4 -9 -4 -13v-284c17 18 29 22 52 22z
" />
    <glyph glyph-name="uni1EA0" unicode="&#x1ea0;" 
d="M300 318c-16 -17 -29 -20 -51 -20h-135v-188c0 -80 -63 -103 -104 -129c24 22 32 55 32 94v456c0 33 7 64 55 104c16 20 63 73 93 73c92 0 182 -57 182 -199v-503c0 -11 12 -24 12 -24c-75 50 -84 81 -84 125v211zM114 348c17 18 29 22 52 22h134v117
c0 154 -117 185 -182 158c-2 -4 -4 -9 -4 -13v-284zM374 -98c11 -10 16 -12 31 -12c-28 -28 -60 -57 -87 -30l-41 40c-7 9 -24 9 -24 9c35 34 62 53 84 31z" />
    <glyph glyph-name="Agrave" unicode="&#xc0;" 
d="M212 775l-70 70c-27 28 -8 49 31 88c-1 -15 2 -22 12 -32l67 -66c19 -19 15 -40 -31 -86c0 0 0 17 -9 26zM372 6c0 -11 12 -24 12 -24c-75 50 -84 81 -84 125v211c-16 -17 -29 -20 -51 -20h-135v-188c0 -80 -63 -103 -104 -129c24 22 32 55 32 94v456c0 33 7 64 55 104
c16 20 63 73 93 73c92 0 182 -57 182 -199v-503zM166 370h134v117c0 154 -117 185 -182 158c-2 -4 -4 -9 -4 -13v-284c17 18 29 22 52 22z" />
    <glyph glyph-name="Amacron" unicode="&#x100;" 
d="M271 762h-212c-13 0 -27 -12 -27 -12c38 52 55 72 96 72h206c11 0 27 12 27 12c-36 -52 -52 -72 -90 -72zM372 6c0 -11 12 -24 12 -24c-75 50 -84 81 -84 125v211c-16 -17 -29 -20 -51 -20h-135v-188c0 -80 -63 -103 -104 -129c24 22 32 55 32 94v456c0 33 7 64 55 104
c16 20 63 73 93 73c92 0 182 -57 182 -199v-503zM166 370h134v117c0 154 -117 185 -182 158c-2 -4 -4 -9 -4 -13v-284c17 18 29 22 52 22z" />
    <glyph glyph-name="Aogonek" unicode="&#x104;" 
d="M328 -67c0 -99 84 -120 121 -98c-15 -12 -49 -35 -65 -35c-63 0 -99 40 -99 128c0 23 6 62 50 92c-30 30 -35 55 -35 87v211c-16 -17 -29 -20 -51 -20h-135v-188c0 -80 -63 -103 -104 -129c24 22 32 55 32 94v456c0 33 7 64 55 104c16 20 63 73 93 73
c92 0 182 -57 182 -199v-503c0 -11 12 -24 12 -24c-21 14 -37 27 -49 38c-2 -2 -7 -8 -7 -14v-73zM166 370h134v117c0 154 -117 185 -182 158c-2 -4 -4 -9 -4 -13v-284c17 18 29 22 52 22zM449 -165c6 3 9 6 9 6c-2 -2 -5 -5 -9 -6z" />
    <glyph glyph-name="Aring" unicode="&#xc5;" 
d="M206 753c-63 0 -99 40 -99 129c0 23 6 63 50 91c15 12 34 24 46 24c56 0 100 -34 100 -120v-32c0 -20 -5 -36 -33 -58c0 0 1 0 1 1c-15 -12 -49 -35 -65 -35zM259 864c0 92 -69 117 -107 102c-1 -2 -2 -4 -2 -6v-74c0 -88 66 -115 108 -104c0 2 1 4 1 6v76zM140 960
l-4 -4zM271 788c6 3 9 6 9 6c-2 -2 -5 -5 -9 -6zM372 6c0 -11 12 -24 12 -24c-75 50 -84 81 -84 125v211c-16 -17 -29 -20 -51 -20h-135v-188c0 -80 -63 -103 -104 -129c24 22 32 55 32 94v456c0 33 7 64 55 104c16 20 63 73 93 73c92 0 182 -57 182 -199v-503zM166 370h134
v117c0 154 -117 185 -182 158c-2 -4 -4 -9 -4 -13v-284c17 18 29 22 52 22z" />
    <glyph glyph-name="Aringacute" unicode="&#x1fa;" 
d="M211 1070c-10 -9 -10 -26 -10 -26c-46 46 -50 67 -31 86l67 66c10 10 14 17 13 32c39 -39 58 -60 30 -88zM206 753c-63 0 -99 40 -99 129c0 23 6 63 50 91c15 12 34 24 46 24c56 0 100 -34 100 -120v-32c0 -20 -5 -36 -33 -58c0 0 1 0 1 1c-15 -12 -49 -35 -65 -35z
M259 864c0 92 -69 117 -107 102c-1 -2 -2 -4 -2 -6v-74c0 -88 66 -115 108 -104c0 2 1 4 1 6v76zM140 960l-4 -4zM271 788c6 3 9 6 9 6c-2 -2 -5 -5 -9 -6zM372 6c0 -11 12 -24 12 -24c-75 50 -84 81 -84 125v211c-16 -17 -29 -20 -51 -20h-135v-188
c0 -80 -63 -103 -104 -129c24 22 32 55 32 94v456c0 33 7 64 55 104c16 20 63 73 93 73c92 0 182 -57 182 -199v-503zM166 370h134v117c0 154 -117 185 -182 158c-2 -4 -4 -9 -4 -13v-284c17 18 29 22 52 22z" />
    <glyph glyph-name="Atilde" unicode="&#xc3;" 
d="M316 778c-14 -2 -27 -2 -41 0c10 -1 19 -1 29 0c29 0 43 18 64 61c-14 -34 -32 -60 -52 -61zM98 814c-12 1 -22 -5 -32 -15c10 11 21 16 38 17c57 6 114 -29 171 -38c-59 7 -118 45 -177 36zM66 799c-9 -10 -17 -24 -27 -44c8 17 17 33 27 44zM372 6c0 -11 12 -24 12 -24
c-75 50 -84 81 -84 125v211c-16 -17 -29 -20 -51 -20h-135v-188c0 -80 -63 -103 -104 -129c24 22 32 55 32 94v456c0 33 7 64 55 104c16 20 63 73 93 73c92 0 182 -57 182 -199v-503zM166 370h134v117c0 154 -117 185 -182 158c-2 -4 -4 -9 -4 -13v-284c17 18 29 22 52 22z
" />
    <glyph glyph-name="AE" unicode="&#xc6;" horiz-adv-x="655" 
d="M386 68h230c11 0 24 11 24 11c-49 -72 -67 -80 -112 -80h-223c-14 -10 -29 -19 -41 -27c23 21 31 54 31 92v242c-15 -15 -28 -18 -49 -18h-134v-186c0 -78 -61 -101 -102 -127c23 22 32 54 32 92v451c0 32 6 63 52 100c15 18 63 74 93 74c49 0 97 -16 131 -54
c37 51 60 59 93 59h210c12 0 24 12 24 12c-49 -74 -72 -83 -109 -83h-170v-226c15 11 29 13 48 13h133c11 0 24 12 24 12c-49 -74 -80 -83 -117 -83h-88v-226c0 -6 0 -13 -1 -18v-31c7 1 13 1 21 1zM164 359h131v115c0 152 -115 182 -179 156c-2 -4 -4 -9 -4 -14v-279
c17 18 29 22 52 22z" />
    <glyph glyph-name="AEacute" unicode="&#x1fc;" horiz-adv-x="655" 
d="M312 775c-10 -9 -10 -26 -10 -26c-46 46 -50 67 -31 86l67 66c10 10 14 17 13 32c39 -39 58 -60 30 -88zM386 68h230c11 0 24 11 24 11c-49 -72 -67 -80 -112 -80h-223c-14 -10 -29 -19 -41 -27c23 21 31 54 31 92v242c-15 -15 -28 -18 -49 -18h-134v-186
c0 -78 -61 -101 -102 -127c23 22 32 54 32 92v451c0 32 6 63 52 100c15 18 63 74 93 74c49 0 97 -16 131 -54c37 51 60 59 93 59h210c12 0 24 12 24 12c-49 -74 -72 -83 -109 -83h-170v-226c15 11 29 13 48 13h133c11 0 24 12 24 12c-49 -74 -80 -83 -117 -83h-88v-226
c0 -6 0 -13 -1 -18v-31c7 1 13 1 21 1zM164 359h131v115c0 152 -115 182 -179 156c-2 -4 -4 -9 -4 -14v-279c17 18 29 22 52 22z" />
    <glyph glyph-name="B" unicode="B" horiz-adv-x="403" 
d="M393 234c0 -118 -108 -182 -146 -201c-18 -17 -36 -25 -60 -25h-138c-10 -10 -23 -19 -39 -28c0 0 12 12 12 24v547c0 38 23 91 82 121l-1 -1l33 29h138c33 0 103 -14 103 -93c0 -65 -58 -145 -160 -213c69 5 176 -40 176 -160zM209 638c0 0 -69 1 -117 -2v-279
c128 73 216 154 216 215c0 56 -36 66 -99 66zM263 73c33 23 60 55 60 96c0 167 -134 177 -220 163c-3 -1 -7 -3 -11 -5v-230c0 -11 -2 -22 -5 -33c12 7 24 9 40 9h136z" />
    <glyph glyph-name="uni1E04" unicode="&#x1e04;" horiz-adv-x="403" 
d="M393 234c0 -118 -108 -182 -146 -201c-18 -17 -36 -25 -60 -25h-138c-10 -10 -23 -19 -39 -28c0 0 12 12 12 24v547c0 38 23 91 82 121l-1 -1l33 29h138c33 0 103 -14 103 -93c0 -65 -58 -145 -160 -213c69 5 176 -40 176 -160zM209 638c0 0 -69 1 -117 -2v-279
c128 73 216 154 216 215c0 56 -36 66 -99 66zM263 73c33 23 60 55 60 96c0 167 -134 177 -220 163c-3 -1 -7 -3 -11 -5v-230c0 -11 -2 -22 -5 -33c12 7 24 9 40 9h136zM94 -60l37 -38c11 -10 16 -12 31 -12c-28 -28 -60 -57 -87 -30l-41 40c-7 9 -24 9 -24 9
c35 34 62 53 84 31z" />
    <glyph glyph-name="C" unicode="C" horiz-adv-x="352" 
d="M82 205c0 -166 202 -183 253 -132c0 0 -57 -81 -103 -81c-128 0 -221 56 -221 198v387c0 36 8 56 70 99c17 17 31 24 53 24h173c18 0 33 12 33 12c-45 -64 -59 -84 -97 -84h-161v-423z" />
    <glyph glyph-name="Cacute" unicode="&#x106;" horiz-adv-x="352" 
d="M160 775c-10 -9 -10 -26 -10 -26c-46 46 -50 67 -31 86l67 66c10 10 14 17 13 32c39 -39 58 -60 30 -88zM82 205c0 -166 202 -183 253 -132c0 0 -57 -81 -103 -81c-128 0 -221 56 -221 198v387c0 36 8 56 70 99c17 17 31 24 53 24h173c18 0 33 12 33 12
c-45 -64 -59 -84 -97 -84h-161v-423z" />
    <glyph glyph-name="Ccaron" unicode="&#x10c;" horiz-adv-x="352" 
d="M165 764l-89 88c-27 28 -8 49 31 88c-1 -15 3 -22 13 -32l73 -72l65 66c28 28 49 9 88 -30c-15 0 -22 -3 -32 -13l-94 -95c-13 -13 -26 -16 -47 -3c-3 0 -6 1 -8 3zM243 628h-161v-423c0 -166 202 -183 253 -132c0 0 -57 -81 -103 -81c-128 0 -221 56 -221 198v387
c0 36 8 56 70 99c17 17 31 24 53 24h173c18 0 33 12 33 12c-45 -64 -59 -84 -97 -84z" />
    <glyph glyph-name="Ccedilla" unicode="&#xc7;" horiz-adv-x="352" 
d="M82 205c0 -166 202 -183 253 -132c0 0 -57 -81 -103 -81c-128 0 -221 56 -221 198v387c0 36 8 56 70 99c17 17 31 24 53 24h173c18 0 33 12 33 12c-45 -64 -59 -84 -97 -84h-161v-423zM251 -27c4 -3 8 -6 11 -10c29 -30 32 -64 32 -85c0 -79 -41 -118 -108 -118
c-18 0 -55 25 -72 37c41 -22 134 2 134 89v31h-43c-42 0 -54 19 -89 77c0 0 16 -13 33 -13h61c15 0 25 -1 34 -5c-2 3 -4 5 -4 5c4 -3 8 -5 11 -8zM114 -203c-3 2 -6 4 -9 7z" />
    <glyph glyph-name="Ccircumflex" unicode="&#x108;" horiz-adv-x="352" 
d="M120 784c-10 -10 -14 -17 -13 -32c-39 39 -58 60 -31 88l59 58h-1l16 16l15 14c3 3 6 3 8 3c21 13 35 10 47 -2l94 -95c10 -10 17 -14 32 -13c-39 -40 -60 -59 -88 -31l-66 66zM243 628h-161v-423c0 -166 202 -183 253 -132c0 0 -57 -81 -103 -81
c-128 0 -221 56 -221 198v387c0 36 8 56 70 99c17 17 31 24 53 24h173c18 0 33 12 33 12c-45 -64 -59 -84 -97 -84z" />
    <glyph glyph-name="Cdotaccent" unicode="&#x10a;" horiz-adv-x="352" 
d="M120 811c-7 8 -24 8 -24 8c35 35 62 53 84 32l37 -38c11 -10 16 -13 31 -12c-28 -28 -60 -58 -87 -30zM82 205c0 -166 202 -183 253 -132c0 0 -57 -81 -103 -81c-128 0 -221 56 -221 198v387c0 36 8 56 70 99c17 17 31 24 53 24h173c18 0 33 12 33 12
c-45 -64 -59 -84 -97 -84h-161v-423z" />
    <glyph glyph-name="D" unicode="D" horiz-adv-x="397" 
d="M387 518v-336v-8c0 -123 -85 -174 -196 -174h-10h-134c-13 -9 -26 -16 -37 -23c23 21 31 54 31 93v512c0 13 1 25 6 37c-10 -2 -16 -4 -19 -7c0 0 61 88 98 88c10 0 113 -1 124 -2c78 -12 137 -82 137 -180zM229 72c21 0 87 16 87 95v309c0 123 -56 149 -100 149
c-13 0 -60 1 -103 -1v-507c0 -18 -3 -34 -7 -47c7 1 16 2 25 2h98z" />
    <glyph glyph-name="Eth" unicode="&#xd0;" horiz-adv-x="549" 
d="M499 518v-336v-8c0 -123 -85 -174 -195 -174v1c-3 -1 -7 -1 -11 -1h-134c-13 -9 -26 -16 -37 -23c24 21 32 54 32 93v258h-81c-11 0 -23 -11 -23 -11c36 47 53 61 91 61h13v204c0 13 1 25 6 37c-10 -2 -17 -4 -20 -7c0 0 62 88 98 88c11 0 113 -1 124 -2
c78 -12 137 -82 137 -180zM341 72c22 0 87 16 87 95v309c0 123 -55 149 -100 149c-13 0 -59 1 -102 -1v-246h86c12 0 24 11 24 11c-34 -49 -54 -61 -91 -61h-19v-211c0 -18 -3 -34 -7 -47c7 2 15 2 24 2h98z" />
    <glyph glyph-name="Dcaron" unicode="&#x10e;" horiz-adv-x="397" 
d="M188 764l-89 88c-27 28 -8 49 31 88c-1 -15 3 -22 13 -32l73 -72l65 66c28 28 49 9 88 -30c-15 0 -22 -3 -32 -13l-94 -95c-13 -13 -26 -16 -47 -3c-3 0 -6 1 -8 3zM387 518v-336v-8c0 -123 -85 -174 -196 -174h-10h-134c-13 -9 -26 -16 -37 -23c23 21 31 54 31 93v512
c0 13 1 25 6 37c-10 -2 -16 -4 -19 -7c0 0 61 88 98 88c10 0 113 -1 124 -2c78 -12 137 -82 137 -180zM229 72c21 0 87 16 87 95v309c0 123 -56 149 -100 149c-13 0 -60 1 -103 -1v-507c0 -18 -3 -34 -7 -47c7 1 16 2 25 2h98z" />
    <glyph glyph-name="Dcroat" unicode="&#x110;" horiz-adv-x="549" 
d="M499 518v-336v-8c0 -123 -85 -174 -195 -174v1c-3 -1 -7 -1 -11 -1h-134c-13 -9 -26 -16 -37 -23c24 21 32 54 32 93v258h-81c-11 0 -23 -11 -23 -11c36 47 53 61 91 61h13v204c0 13 1 25 6 37c-10 -2 -17 -4 -20 -7c0 0 62 88 98 88c11 0 113 -1 124 -2
c78 -12 137 -82 137 -180zM341 72c22 0 87 16 87 95v309c0 123 -55 149 -100 149c-13 0 -59 1 -102 -1v-246h86c12 0 24 11 24 11c-34 -49 -54 -61 -91 -61h-19v-211c0 -18 -3 -34 -7 -47c7 2 15 2 24 2h98z" />
    <glyph glyph-name="uni1E0C" unicode="&#x1e0c;" horiz-adv-x="397" 
d="M387 518v-336v-8c0 -123 -85 -174 -196 -174h-10h-134c-13 -9 -26 -16 -37 -23c23 21 31 54 31 93v512c0 13 1 25 6 37c-10 -2 -16 -4 -19 -7c0 0 61 88 98 88c10 0 113 -1 124 -2c78 -12 137 -82 137 -180zM229 72c21 0 87 16 87 95v309c0 123 -56 149 -100 149
c-13 0 -60 1 -103 -1v-507c0 -18 -3 -34 -7 -47c7 1 16 2 25 2h98zM239 -60l37 -38c11 -10 16 -12 31 -12c-28 -28 -60 -57 -87 -30l-41 40c-7 9 -24 9 -24 9c35 34 62 53 84 31z" />
    <glyph glyph-name="E" unicode="E" horiz-adv-x="405" 
d="M133 69h233c11 0 23 11 23 11c-49 -72 -67 -80 -112 -80h-228c-14 -9 -27 -17 -39 -25c25 22 32 54 32 92v495c0 21 3 41 20 62c-8 -3 -15 -10 -15 -10c49 74 73 84 111 84h214c11 0 23 11 23 11c-48 -72 -73 -82 -111 -82h-170v-227c15 10 29 12 48 12h133
c13 0 25 13 25 13c-49 -73 -80 -84 -118 -84h-88v-221c0 -21 -4 -39 -10 -54c9 2 19 3 29 3z" />
    <glyph glyph-name="Eacute" unicode="&#xc9;" horiz-adv-x="405" 
d="M187 775c-10 -9 -10 -26 -10 -26c-46 46 -50 67 -31 86l67 66c10 10 14 17 13 32c39 -39 58 -60 30 -88zM133 69h233c11 0 23 11 23 11c-49 -72 -67 -80 -112 -80h-228c-14 -9 -27 -17 -39 -25c25 22 32 54 32 92v495c0 21 3 41 20 62c-8 -3 -15 -10 -15 -10
c49 74 73 84 111 84h214c11 0 23 11 23 11c-48 -72 -73 -82 -111 -82h-170v-227c15 10 29 12 48 12h133c13 0 25 13 25 13c-49 -73 -80 -84 -118 -84h-88v-221c0 -21 -4 -39 -10 -54c9 2 19 3 29 3z" />
    <glyph glyph-name="Ebreve" unicode="&#x114;" horiz-adv-x="405" 
d="M291 801c-56 -56 -118 -55 -165 -7c-12 13 -20 55 -24 77c14 -45 97 -93 158 -32l56 56c5 5 5 18 5 18c12 -58 -11 -94 -30 -112zM102 871c-1 4 -2 8 -2 12zM133 69h233c11 0 23 11 23 11c-49 -72 -67 -80 -112 -80h-228c-14 -9 -27 -17 -39 -25c25 22 32 54 32 92v495
c0 21 3 41 20 62c-8 -3 -15 -10 -15 -10c49 74 73 84 111 84h214c11 0 23 11 23 11c-48 -72 -73 -82 -111 -82h-170v-227c15 10 29 12 48 12h133c13 0 25 13 25 13c-49 -73 -80 -84 -118 -84h-88v-221c0 -21 -4 -39 -10 -54c9 2 19 3 29 3z" />
    <glyph glyph-name="Ecaron" unicode="&#x11a;" horiz-adv-x="405" 
d="M192 764l-89 88c-27 28 -8 49 31 88c-1 -15 3 -22 13 -32l73 -72l65 66c28 28 49 9 88 -30c-15 0 -22 -3 -32 -13l-94 -95c-13 -13 -26 -16 -47 -3c-3 0 -6 1 -8 3zM133 69h233c11 0 23 11 23 11c-49 -72 -67 -80 -112 -80h-228c-14 -9 -27 -17 -39 -25
c25 22 32 54 32 92v495c0 21 3 41 20 62c-8 -3 -15 -10 -15 -10c49 74 73 84 111 84h214c11 0 23 11 23 11c-48 -72 -73 -82 -111 -82h-170v-227c15 10 29 12 48 12h133c13 0 25 13 25 13c-49 -73 -80 -84 -118 -84h-88v-221c0 -21 -4 -39 -10 -54c9 2 19 3 29 3z" />
    <glyph glyph-name="uni0228" unicode="&#x228;" horiz-adv-x="405" 
d="M133 69h233c11 0 23 11 23 11c-49 -72 -67 -80 -112 -80h-228c-14 -9 -27 -17 -39 -25c25 22 32 54 32 92v495c0 21 3 41 20 62c-8 -3 -15 -10 -15 -10c49 74 73 84 111 84h214c11 0 23 11 23 11c-48 -72 -73 -82 -111 -82h-170v-227c15 10 29 12 48 12h133
c13 0 25 13 25 13c-49 -73 -80 -84 -118 -84h-88v-221c0 -21 -4 -39 -10 -54c9 2 19 3 29 3zM278 -27c4 -3 8 -6 11 -10c29 -30 32 -64 32 -85c0 -79 -41 -118 -108 -118c-18 0 -55 25 -72 37c41 -22 134 2 134 89v31h-43c-42 0 -54 19 -89 77c0 0 16 -13 33 -13h61
c15 0 25 -1 34 -5c-2 3 -4 5 -4 5c4 -3 8 -5 11 -8zM141 -203c-3 2 -6 4 -9 7z" />
    <glyph glyph-name="Ecircumflex" unicode="&#xca;" horiz-adv-x="405" 
d="M147 784c-10 -10 -14 -17 -13 -32c-39 39 -58 60 -31 88l59 58h-1l16 16l15 14c3 3 6 3 8 3c21 13 35 10 47 -2l94 -95c10 -10 17 -14 32 -13c-39 -40 -60 -59 -88 -31l-66 66zM133 69h233c11 0 23 11 23 11c-49 -72 -67 -80 -112 -80h-228c-14 -9 -27 -17 -39 -25
c25 22 32 54 32 92v495c0 21 3 41 20 62c-8 -3 -15 -10 -15 -10c49 74 73 84 111 84h214c11 0 23 11 23 11c-48 -72 -73 -82 -111 -82h-170v-227c15 10 29 12 48 12h133c13 0 25 13 25 13c-49 -73 -80 -84 -118 -84h-88v-221c0 -21 -4 -39 -10 -54c9 2 19 3 29 3z" />
    <glyph glyph-name="Edieresis" unicode="&#xcb;" horiz-adv-x="405" 
d="M99 775l-40 40c-8 8 -25 8 -25 8c35 35 62 54 84 32l38 -38c10 -10 16 -13 31 -12c-28 -28 -60 -58 -88 -30zM274 775l-40 40c-8 8 -25 8 -25 8c35 35 62 54 85 32l37 -38c10 -10 16 -13 31 -12c-28 -28 -60 -58 -88 -30zM133 69h233c11 0 23 11 23 11
c-49 -72 -67 -80 -112 -80h-228c-14 -9 -27 -17 -39 -25c25 22 32 54 32 92v495c0 21 3 41 20 62c-8 -3 -15 -10 -15 -10c49 74 73 84 111 84h214c11 0 23 11 23 11c-48 -72 -73 -82 -111 -82h-170v-227c15 10 29 12 48 12h133c13 0 25 13 25 13c-49 -73 -80 -84 -118 -84
h-88v-221c0 -21 -4 -39 -10 -54c9 2 19 3 29 3z" />
    <glyph glyph-name="Edotaccent" unicode="&#x116;" horiz-adv-x="405" 
d="M147 811c-7 8 -24 8 -24 8c35 35 62 53 84 32l37 -38c11 -10 16 -13 31 -12c-28 -28 -60 -58 -87 -30zM133 69h233c11 0 23 11 23 11c-49 -72 -67 -80 -112 -80h-228c-14 -9 -27 -17 -39 -25c25 22 32 54 32 92v495c0 21 3 41 20 62c-8 -3 -15 -10 -15 -10
c49 74 73 84 111 84h214c11 0 23 11 23 11c-48 -72 -73 -82 -111 -82h-170v-227c15 10 29 12 48 12h133c13 0 25 13 25 13c-49 -73 -80 -84 -118 -84h-88v-221c0 -21 -4 -39 -10 -54c9 2 19 3 29 3z" />
    <glyph glyph-name="uni1EB8" unicode="&#x1eb8;" horiz-adv-x="405" 
d="M133 69h233c11 0 23 11 23 11c-49 -72 -67 -80 -112 -80h-228c-14 -9 -27 -17 -39 -25c25 22 32 54 32 92v495c0 21 3 41 20 62c-8 -3 -15 -10 -15 -10c49 74 73 84 111 84h214c11 0 23 11 23 11c-48 -72 -73 -82 -111 -82h-170v-227c15 10 29 12 48 12h133
c13 0 25 13 25 13c-49 -73 -80 -84 -118 -84h-88v-221c0 -21 -4 -39 -10 -54c9 2 19 3 29 3zM243 -60l37 -38c11 -10 16 -12 31 -12c-28 -28 -60 -57 -87 -30l-41 40c-7 9 -24 9 -24 9c35 34 62 53 84 31z" />
    <glyph glyph-name="Egrave" unicode="&#xc8;" horiz-adv-x="405" 
d="M217 775l-70 70c-27 28 -8 49 31 88c-1 -15 2 -22 12 -32l67 -66c19 -19 15 -40 -31 -86c0 0 0 17 -9 26zM133 69h233c11 0 23 11 23 11c-49 -72 -67 -80 -112 -80h-228c-14 -9 -27 -17 -39 -25c25 22 32 54 32 92v495c0 21 3 41 20 62c-8 -3 -15 -10 -15 -10
c49 74 73 84 111 84h214c11 0 23 11 23 11c-48 -72 -73 -82 -111 -82h-170v-227c15 10 29 12 48 12h133c13 0 25 13 25 13c-49 -73 -80 -84 -118 -84h-88v-221c0 -21 -4 -39 -10 -54c9 2 19 3 29 3z" />
    <glyph glyph-name="Emacron" unicode="&#x112;" horiz-adv-x="405" 
d="M277 762h-212c-13 0 -27 -12 -27 -12c38 52 55 72 96 72h206c11 0 27 12 27 12c-36 -52 -52 -72 -90 -72zM133 69h233c11 0 23 11 23 11c-49 -72 -67 -80 -112 -80h-228c-14 -9 -27 -17 -39 -25c25 22 32 54 32 92v495c0 21 3 41 20 62c-8 -3 -15 -10 -15 -10
c49 74 73 84 111 84h214c11 0 23 11 23 11c-48 -72 -73 -82 -111 -82h-170v-227c15 10 29 12 48 12h133c13 0 25 13 25 13c-49 -73 -80 -84 -118 -84h-88v-221c0 -21 -4 -39 -10 -54c9 2 19 3 29 3z" />
    <glyph glyph-name="Eogonek" unicode="&#x118;" horiz-adv-x="405" 
d="M277 0h-43v-67c0 -99 84 -120 121 -98c-15 -12 -49 -35 -65 -35c-63 0 -99 40 -99 128c0 18 4 46 27 72h-169c-14 -9 -27 -17 -39 -25c25 22 32 54 32 92v495c0 21 3 41 20 62c-8 -3 -15 -10 -15 -10c49 74 73 84 111 84h214c11 0 23 11 23 11c-48 -72 -73 -82 -111 -82
h-170v-227c15 10 29 12 48 12h133c13 0 25 13 25 13c-49 -73 -80 -84 -118 -84h-88v-221c0 -21 -4 -39 -10 -54c9 2 19 3 29 3h233c11 0 23 11 23 11c-49 -72 -67 -80 -112 -80zM355 -165c6 3 9 6 9 6c-2 -2 -5 -5 -9 -6z" />
    <glyph glyph-name="uni1EBC" unicode="&#x1ebc;" horiz-adv-x="405" 
d="M321 778c-14 -2 -27 -2 -41 0c10 -1 19 -1 29 0c29 0 43 18 64 61c-14 -34 -32 -60 -52 -61zM103 814c-12 1 -22 -5 -32 -15c10 11 21 16 38 17c57 6 114 -29 171 -38c-59 7 -118 45 -177 36zM71 799c-9 -10 -17 -24 -27 -44c8 17 17 33 27 44zM133 69h233
c11 0 23 11 23 11c-49 -72 -67 -80 -112 -80h-228c-14 -9 -27 -17 -39 -25c25 22 32 54 32 92v495c0 21 3 41 20 62c-8 -3 -15 -10 -15 -10c49 74 73 84 111 84h214c11 0 23 11 23 11c-48 -72 -73 -82 -111 -82h-170v-227c15 10 29 12 48 12h133c13 0 25 13 25 13
c-49 -73 -80 -84 -118 -84h-88v-221c0 -21 -4 -39 -10 -54c9 2 19 3 29 3z" />
    <glyph glyph-name="F" unicode="F" horiz-adv-x="410" 
d="M290 628h-179v-225c16 11 30 13 49 13h138c11 0 25 12 25 12c-49 -73 -80 -82 -117 -82h-95v-226c0 -86 -61 -118 -101 -144c23 22 31 54 31 92v495c0 21 3 41 19 62c-8 -4 -14 -9 -14 -9c48 68 72 83 111 83h219c12 0 24 12 24 12c-49 -74 -72 -83 -110 -83z" />
    <glyph glyph-name="G" unicode="G" horiz-adv-x="372" 
d="M361 369c-3 -4 -6 -8 -8 -12l3 2s-12 -13 -12 -24v-182c0 -82 -54 -109 -95 -133c-18 -16 -37 -29 -53 -29c-92 0 -185 56 -185 198v388c0 34 7 53 64 93c20 25 33 29 59 29h196c13 0 28 12 28 12c-49 -74 -59 -83 -97 -83h-179v-410c0 -160 115 -194 181 -170
c7 17 10 38 10 60v145c0 13 1 23 5 34c-4 -1 -8 -1 -13 -1h-84c-11 0 -24 -12 -24 -12c49 74 58 83 96 83h84c12 0 24 12 24 12z" />
    <glyph glyph-name="Gbreve" unicode="&#x11e;" horiz-adv-x="372" 
d="M274 801c-56 -56 -118 -55 -165 -7c-12 13 -20 55 -24 77c14 -45 97 -93 158 -32l56 56c5 5 5 18 5 18c12 -58 -11 -94 -30 -112zM85 871c-1 4 -2 8 -2 12zM361 369c-3 -4 -6 -8 -8 -12l3 2s-12 -13 -12 -24v-182c0 -82 -54 -109 -95 -133c-18 -16 -37 -29 -53 -29
c-92 0 -185 56 -185 198v388c0 34 7 53 64 93c20 25 33 29 59 29h196c13 0 28 12 28 12c-49 -74 -59 -83 -97 -83h-179v-410c0 -160 115 -194 181 -170c7 17 10 38 10 60v145c0 13 1 23 5 34c-4 -1 -8 -1 -13 -1h-84c-11 0 -24 -12 -24 -12c49 74 58 83 96 83h84
c12 0 24 12 24 12z" />
    <glyph glyph-name="Gcaron" unicode="&#x1e6;" horiz-adv-x="372" 
d="M175 764l-89 88c-27 28 -8 49 31 88c-1 -15 3 -22 13 -32l73 -72l65 66c28 28 49 9 88 -30c-15 0 -22 -3 -32 -13l-94 -95c-13 -13 -26 -16 -47 -3c-3 0 -6 1 -8 3zM361 369c-3 -4 -6 -8 -8 -12l3 2s-12 -13 -12 -24v-182c0 -82 -54 -109 -95 -133
c-18 -16 -37 -29 -53 -29c-92 0 -185 56 -185 198v388c0 34 7 53 64 93c20 25 33 29 59 29h196c13 0 28 12 28 12c-49 -74 -59 -83 -97 -83h-179v-410c0 -160 115 -194 181 -170c7 17 10 38 10 60v145c0 13 1 23 5 34c-4 -1 -8 -1 -13 -1h-84c-11 0 -24 -12 -24 -12
c49 74 58 83 96 83h84c12 0 24 12 24 12z" />
    <glyph glyph-name="Gcircumflex" unicode="&#x11c;" horiz-adv-x="372" 
d="M130 784c-10 -10 -14 -17 -13 -32c-39 39 -58 60 -31 88l59 58h-1l16 16l15 14c3 3 6 3 8 3c21 13 35 10 47 -2l94 -95c10 -10 17 -14 32 -13c-39 -40 -60 -59 -88 -31l-66 66zM361 369c-3 -4 -6 -8 -8 -12l3 2s-12 -13 -12 -24v-182c0 -82 -54 -109 -95 -133
c-18 -16 -37 -29 -53 -29c-92 0 -185 56 -185 198v388c0 34 7 53 64 93c20 25 33 29 59 29h196c13 0 28 12 28 12c-49 -74 -59 -83 -97 -83h-179v-410c0 -160 115 -194 181 -170c7 17 10 38 10 60v145c0 13 1 23 5 34c-4 -1 -8 -1 -13 -1h-84c-11 0 -24 -12 -24 -12
c49 74 58 83 96 83h84c12 0 24 12 24 12z" />
    <glyph glyph-name="uni0122" unicode="&#x122;" horiz-adv-x="372" 
d="M201 755c16 42 -24 134 -68 108l-7 5c35 36 76 46 96 27c35 -37 17 -114 -11 -143zM361 369c-3 -4 -6 -8 -8 -12l3 2s-12 -13 -12 -24v-182c0 -82 -54 -109 -95 -133c-18 -16 -37 -29 -53 -29c-92 0 -185 56 -185 198v388c0 34 7 53 64 93c20 25 33 29 59 29h196
c13 0 28 12 28 12c-49 -74 -59 -83 -97 -83h-179v-410c0 -160 115 -194 181 -170c7 17 10 38 10 60v145c0 13 1 23 5 34c-4 -1 -8 -1 -13 -1h-84c-11 0 -24 -12 -24 -12c49 74 58 83 96 83h84c12 0 24 12 24 12z" />
    <glyph glyph-name="Gdotaccent" unicode="&#x120;" horiz-adv-x="372" 
d="M130 811c-7 8 -24 8 -24 8c35 35 62 53 84 32l37 -38c11 -10 16 -13 31 -12c-28 -28 -60 -58 -87 -30zM361 369c-3 -4 -6 -8 -8 -12l3 2s-12 -13 -12 -24v-182c0 -82 -54 -109 -95 -133c-18 -16 -37 -29 -53 -29c-92 0 -185 56 -185 198v388c0 34 7 53 64 93
c20 25 33 29 59 29h196c13 0 28 12 28 12c-49 -74 -59 -83 -97 -83h-179v-410c0 -160 115 -194 181 -170c7 17 10 38 10 60v145c0 13 1 23 5 34c-4 -1 -8 -1 -13 -1h-84c-11 0 -24 -12 -24 -12c49 74 58 83 96 83h84c12 0 24 12 24 12z" />
    <glyph glyph-name="H" unicode="H" horiz-adv-x="384" 
d="M291 594c0 36 18 69 83 109c0 0 -11 -14 -11 -25v-553c0 -88 -62 -119 -104 -145c25 21 32 56 32 93v286c-21 -16 -41 -18 -62 -18h-120v-216c0 -88 -62 -119 -99 -145c21 21 31 56 31 93v521c0 36 14 74 80 109c0 0 -12 -14 -12 -25v-289c19 17 35 20 56 20h126v185z
" />
    <glyph glyph-name="Hbar" unicode="&#x126;" horiz-adv-x="640" 
d="M564 577c11 0 26 12 26 12c-35 -52 -51 -72 -89 -72h-28v-392c0 -88 -62 -119 -103 -145c25 21 32 56 32 93v287c-22 -17 -41 -19 -62 -19h-120v-216c0 -88 -62 -119 -99 -145c21 21 31 56 31 93v444h-75c-13 0 -27 -12 -27 -12c38 52 55 72 96 72h6v17
c0 36 13 74 79 109c0 0 -11 -14 -11 -25v-101h182v17c0 36 18 69 83 109c0 0 -12 -14 -12 -25v-101h91zM402 409v108h-182v-128c18 17 34 20 55 20h127z" />
    <glyph glyph-name="Hcircumflex" unicode="&#x124;" horiz-adv-x="384" 
d="M136 784c-10 -10 -14 -17 -13 -32c-39 39 -58 60 -31 88l59 58h-1l16 16l15 14c3 3 6 3 8 3c21 13 35 10 47 -2l94 -95c10 -10 17 -14 32 -13c-39 -40 -60 -59 -88 -31l-66 66zM291 594c0 36 18 69 83 109c0 0 -11 -14 -11 -25v-553c0 -88 -62 -119 -104 -145
c25 21 32 56 32 93v286c-21 -16 -41 -18 -62 -18h-120v-216c0 -88 -62 -119 -99 -145c21 21 31 56 31 93v521c0 36 14 74 80 109c0 0 -12 -14 -12 -25v-289c19 17 35 20 56 20h126v185z" />
    <glyph glyph-name="uni1E24" unicode="&#x1e24;" horiz-adv-x="384" 
d="M291 594c0 36 18 69 83 109c0 0 -11 -14 -11 -25v-553c0 -88 -62 -119 -104 -145c25 21 32 56 32 93v286c-21 -16 -41 -18 -62 -18h-120v-216c0 -88 -62 -119 -99 -145c21 21 31 56 31 93v521c0 36 14 74 80 109c0 0 -12 -14 -12 -25v-289c19 17 35 20 56 20h126v185z
M232 -60l37 -38c11 -10 16 -12 31 -12c-28 -28 -60 -57 -87 -30l-41 40c-7 9 -24 9 -24 9c35 34 62 53 84 31z" />
    <glyph glyph-name="I" unicode="I" horiz-adv-x="133" 
d="M111 123c0 -86 -61 -124 -101 -143c23 21 31 53 31 90v523c0 37 9 67 82 110c0 0 -12 -12 -12 -23v-557z" />
    <glyph glyph-name="IJ" unicode="&#x132;" horiz-adv-x="475" 
d="M382 594c0 38 19 75 83 117c0 0 -12 -13 -12 -24v-528c0 -75 -47 -109 -86 -134c-21 -18 -44 -34 -60 -34c-82 0 -164 56 -164 197v21c0 38 18 74 79 117c0 0 -12 -16 -12 -34v-77c0 -147 97 -179 164 -161c6 16 8 34 8 53v487zM41 593c0 37 9 67 82 110
c0 0 -12 -12 -12 -23v-557c0 -86 -61 -124 -101 -143c23 21 31 53 31 90v523z" />
    <glyph glyph-name="Iacute" unicode="&#xcd;" horiz-adv-x="133" 
d="M120 845c28 28 9 49 -30 88c1 -15 -3 -22 -13 -32l-67 -66c-19 -19 -15 -40 31 -86c0 0 0 17 10 26zM111 123c0 -86 -61 -124 -101 -143c23 21 31 53 31 90v523c0 37 9 67 82 110c0 0 -12 -12 -12 -23v-557z" />
    <glyph glyph-name="Ibreve" unicode="&#x12c;" horiz-adv-x="133" 
d="M185 913c12 -58 -11 -94 -30 -112c-56 -56 -118 -55 -165 -7c-12 13 -20 55 -24 77c14 -45 97 -93 158 -32l56 56c5 5 5 18 5 18zM-34 871c-1 4 -2 8 -2 12zM41 593c0 37 9 67 82 110c0 0 -12 -12 -12 -23v-557c0 -86 -61 -124 -101 -143c23 21 31 53 31 90v523z" />
    <glyph glyph-name="uni01CF" unicode="&#x1cf;" horiz-adv-x="133" 
d="M149 902c28 28 49 9 88 -30c-15 0 -22 -3 -32 -13l-94 -95c-13 -13 -26 -16 -47 -3c-3 0 -6 1 -8 3l-89 88c-27 28 -8 49 31 88c-1 -15 3 -22 13 -32l73 -72zM41 593c0 37 9 67 82 110c0 0 -12 -12 -12 -23v-557c0 -86 -61 -124 -101 -143c23 21 31 53 31 90v523z" />
    <glyph glyph-name="Icircumflex" unicode="&#xce;" horiz-adv-x="133" 
d="M205 834c10 -10 17 -14 32 -13c-39 -40 -60 -59 -88 -31l-66 66l-72 -72c-10 -10 -14 -17 -13 -32c-39 39 -58 60 -31 88l59 58h-1l16 16l15 14c3 3 6 3 8 3c21 13 35 10 47 -2zM41 593c0 37 9 67 82 110c0 0 -12 -12 -12 -23v-557c0 -86 -61 -124 -101 -143
c23 21 31 53 31 90v523z" />
    <glyph glyph-name="Idieresis" unicode="&#xcf;" horiz-adv-x="133" 
d="M-37 775c28 -28 60 2 88 30c-15 -1 -21 2 -31 12l-38 38c-22 22 -49 3 -84 -32c0 0 17 0 25 -8zM138 775c28 -28 60 2 88 30c-15 -1 -21 2 -31 12l-37 38c-23 22 -50 3 -85 -32c0 0 17 0 25 -8zM111 123c0 -86 -61 -124 -101 -143c23 21 31 53 31 90v523
c0 37 9 67 82 110c0 0 -12 -12 -12 -23v-557z" />
    <glyph glyph-name="Idotaccent" unicode="&#x130;" horiz-adv-x="133" 
d="M52 771c27 -28 59 2 87 30c-15 -1 -20 2 -31 12l-37 38c-22 21 -49 3 -84 -32c0 0 17 0 24 -8zM111 123c0 -86 -61 -124 -101 -143c23 21 31 53 31 90v523c0 37 9 67 82 110c0 0 -12 -12 -12 -23v-557z" />
    <glyph glyph-name="uni1ECA" unicode="&#x1eca;" horiz-adv-x="133" 
d="M111 123c0 -86 -61 -124 -101 -143c23 21 31 53 31 90v523c0 37 9 67 82 110c0 0 -12 -12 -12 -23v-557zM88 -140c27 -27 59 2 87 30c-15 0 -20 2 -31 12l-37 38c-22 22 -49 3 -84 -31c0 0 17 0 24 -9z" />
    <glyph glyph-name="Igrave" unicode="&#xcc;" horiz-adv-x="133" 
d="M11 845l70 -70c9 -9 9 -26 9 -26c46 46 50 67 31 86l-67 66c-10 10 -13 17 -12 32c-39 -39 -58 -60 -31 -88zM111 123c0 -86 -61 -124 -101 -143c23 21 31 53 31 90v523c0 37 9 67 82 110c0 0 -12 -12 -12 -23v-557z" />
    <glyph glyph-name="Imacron" unicode="&#x12a;" horiz-adv-x="133" 
d="M204 822h-206c-41 0 -58 -20 -96 -72c0 0 14 12 27 12h212c38 0 54 20 90 72c0 0 -16 -12 -27 -12zM111 123c0 -86 -61 -124 -101 -143c23 21 31 53 31 90v523c0 37 9 67 82 110c0 0 -12 -12 -12 -23v-557z" />
    <glyph glyph-name="Iogonek" unicode="&#x12e;" horiz-adv-x="133" 
d="M111 123c0 -86 -61 -124 -101 -143c23 21 31 53 31 90v523c0 37 9 67 82 110c0 0 -12 -12 -12 -23v-557zM98 -67c0 -99 84 -120 121 -98c-15 -12 -49 -35 -65 -35c-63 0 -99 40 -99 128c0 23 6 63 51 93c0 0 -8 -8 -8 -15v-73zM219 -165c6 3 9 6 9 6c-2 -2 -5 -5 -9 -6z
" />
    <glyph glyph-name="Itilde" unicode="&#x128;" horiz-adv-x="133" 
d="M173 778c29 0 43 18 64 61c-14 -34 -32 -60 -52 -61c-14 -2 -27 -2 -41 0c10 -1 19 -1 29 0zM-27 816c57 6 114 -29 171 -38c-59 7 -118 45 -177 36c-12 1 -22 -5 -32 -15c10 11 21 16 38 17zM-65 799c-9 -10 -17 -24 -27 -44c8 17 17 33 27 44zM41 593c0 37 9 67 82 110
c0 0 -12 -12 -12 -23v-557c0 -86 -61 -124 -101 -143c23 21 31 53 31 90v523z" />
    <glyph glyph-name="J" unicode="J" horiz-adv-x="342" 
d="M249 594c0 38 19 75 83 117c0 0 -12 -13 -12 -24v-528c0 -75 -47 -109 -86 -134c-21 -18 -44 -34 -60 -34c-82 0 -164 56 -164 197v21c0 38 18 74 79 117c0 0 -12 -16 -12 -34v-77c0 -147 97 -179 164 -161c6 16 8 34 8 53v487z" />
    <glyph glyph-name="Jcircumflex" unicode="&#x134;" horiz-adv-x="342" 
d="M115 784c-10 -10 -14 -17 -13 -32c-39 39 -58 60 -31 88l59 58h-1l16 16l15 14c3 3 6 3 8 3c21 13 35 10 47 -2l94 -95c10 -10 17 -14 32 -13c-39 -40 -60 -59 -88 -31l-66 66zM249 594c0 38 19 75 83 117c0 0 -12 -13 -12 -24v-528c0 -75 -47 -109 -86 -134
c-21 -18 -44 -34 -60 -34c-82 0 -164 56 -164 197v21c0 38 18 74 79 117c0 0 -12 -16 -12 -34v-77c0 -147 97 -179 164 -161c6 16 8 34 8 53v487z" />
    <glyph glyph-name="K" unicode="K" horiz-adv-x="396" 
d="M323 83c24 -44 63 -19 63 -19c-6 -36 -18 -57 -52 -66c-22 -6 -45 6 -57 27l-112 249c-12 23 -25 34 -37 39c-8 -3 -18 -6 -29 -8v-210c0 -54 -35 -77 -89 -115c8 7 18 26 18 47v564c0 38 18 73 83 119c0 0 -12 -19 -12 -31v-325l146 288c22 36 48 67 125 68
c0 0 -16 -4 -22 -14l-163 -323c8 -8 15 -18 20 -27z" />
    <glyph glyph-name="uni0136" unicode="&#x136;" horiz-adv-x="396" 
d="M205 755c16 42 -24 134 -68 108l-7 5c35 36 76 46 96 27c35 -37 17 -114 -11 -143zM323 83c24 -44 63 -19 63 -19c-6 -36 -18 -57 -52 -66c-22 -6 -45 6 -57 27l-112 249c-12 23 -25 34 -37 39c-8 -3 -18 -6 -29 -8v-210c0 -54 -35 -77 -89 -115c8 7 18 26 18 47v564
c0 38 18 73 83 119c0 0 -12 -19 -12 -31v-325l146 288c22 36 48 67 125 68c0 0 -16 -4 -22 -14l-163 -323c8 -8 15 -18 20 -27z" />
    <glyph glyph-name="L" unicode="L" horiz-adv-x="400" 
d="M358 67c15 0 32 12 32 12c-40 -63 -63 -82 -96 -82h-240c-15 -10 -31 -18 -44 -27c24 21 32 54 32 92v614c0 11 -12 24 -12 24c73 -46 82 -68 82 -106v-489c0 -16 -2 -29 -6 -41c8 2 17 3 26 3h226z" />
    <glyph glyph-name="Lacute" unicode="&#x139;" horiz-adv-x="400" 
d="M184 775c-10 -9 -10 -26 -10 -26c-46 46 -50 67 -31 86l67 66c10 10 14 17 13 32c39 -39 58 -60 30 -88zM358 67c15 0 32 12 32 12c-40 -63 -63 -82 -96 -82h-240c-15 -10 -31 -18 -44 -27c24 21 32 54 32 92v614c0 11 -12 24 -12 24c73 -46 82 -68 82 -106v-489
c0 -16 -2 -29 -6 -41c8 2 17 3 26 3h226z" />
    <glyph glyph-name="Lcaron" unicode="&#x13d;" horiz-adv-x="400" 
d="M112 764l-89 88c-27 28 -8 49 31 88c-1 -15 3 -22 13 -32l73 -72l65 66c28 28 49 9 88 -30c-15 0 -22 -3 -32 -13l-94 -95c-13 -13 -26 -16 -47 -3c-3 0 -6 1 -8 3zM358 67c15 0 32 12 32 12c-40 -63 -63 -82 -96 -82h-240c-15 -10 -31 -18 -44 -27c24 21 32 54 32 92
v614c0 11 -12 24 -12 24c73 -46 82 -68 82 -106v-489c0 -16 -2 -29 -6 -41c8 2 17 3 26 3h226z" />
    <glyph glyph-name="uni013B" unicode="&#x13b;" horiz-adv-x="400" 
d="M85 755c16 42 -24 134 -68 108l-7 5c35 36 76 46 96 27c35 -37 17 -114 -11 -143zM358 67c15 0 32 12 32 12c-40 -63 -63 -82 -96 -82h-240c-15 -10 -31 -18 -44 -27c24 21 32 54 32 92v614c0 11 -12 24 -12 24c73 -46 82 -68 82 -106v-489c0 -16 -2 -29 -6 -41
c8 2 17 3 26 3h226z" />
    <glyph glyph-name="Ldot" unicode="&#x13f;" horiz-adv-x="400" 
d="M358 67c15 0 32 12 32 12c-40 -63 -63 -82 -96 -82h-240c-15 -10 -31 -18 -44 -27c24 21 32 54 32 92v614c0 11 -12 24 -12 24c73 -46 82 -68 82 -106v-489c0 -16 -2 -29 -6 -41c8 2 17 3 26 3h226zM236 304l-40 40c-8 8 -25 8 -25 8c35 34 62 53 85 32l36 -39
c11 -10 17 -12 32 -11c-29 -28 -60 -58 -88 -30z" />
    <glyph glyph-name="uni1E36" unicode="&#x1e36;" horiz-adv-x="400" 
d="M358 67c15 0 32 12 32 12c-40 -63 -63 -82 -96 -82h-240c-15 -10 -31 -18 -44 -27c24 21 32 54 32 92v614c0 11 -12 24 -12 24c73 -46 82 -68 82 -106v-489c0 -16 -2 -29 -6 -41c8 2 17 3 26 3h226zM240 -60l37 -38c11 -10 16 -12 31 -12c-28 -28 -60 -57 -87 -30l-41 40
c-7 9 -24 9 -24 9c35 34 62 53 84 31z" />
    <glyph glyph-name="Lslash" unicode="&#x141;" horiz-adv-x="440" 
d="M399 67c14 0 31 12 31 12c-40 -63 -62 -82 -95 -82h-241c-15 -10 -31 -18 -44 -27c24 21 32 54 32 92v316l-56 -26c-10 -5 -16 -20 -16 -20c13 58 22 78 57 94l15 7v243c0 11 -12 24 -12 24c73 -46 82 -68 82 -106v-129l70 33c11 5 17 20 17 20c-11 -59 -24 -77 -58 -93
l-29 -14v-306c0 -16 -2 -29 -6 -41c8 2 17 3 26 3h227z" />
    <glyph glyph-name="M" unicode="M" horiz-adv-x="548" 
d="M527 2c0 -11 11 -24 11 -24c-74 50 -83 75 -83 113v501c0 23 -2 37 -9 45c-7 -21 -14 -48 -18 -78l-73 -390c-10 -61 -82 -104 -115 -121c-5 -5 -11 -8 -17 -11l2 3h-1h1c4 10 17 40 12 61l-131 475c-3 13 -7 23 -12 31v-512c0 -39 -9 -70 -84 -119c0 0 13 13 13 24v585
c0 38 9 75 83 123l-5 -6c5 2 10 3 15 3c25 0 42 -36 47 -58l124 -443c4 -17 4 -37 1 -59c3 10 5 20 6 31l71 383c7 59 41 110 96 127c32 28 66 36 66 -32v-652z" />
    <glyph glyph-name="uni1E3E" unicode="&#x1e3e;" horiz-adv-x="548" 
d="M62 775c-10 -9 -10 -26 -10 -26c-46 46 -50 67 -31 86l67 66c10 10 14 17 13 32c39 -39 58 -60 30 -88zM527 2c0 -11 11 -24 11 -24c-74 50 -83 75 -83 113v501c0 23 -2 37 -9 45c-7 -21 -14 -48 -18 -78l-73 -390c-10 -61 -82 -104 -115 -121c-5 -5 -11 -8 -17 -11l2 3
h-1h1c4 10 17 40 12 61l-131 475c-3 13 -7 23 -12 31v-512c0 -39 -9 -70 -84 -119c0 0 13 13 13 24v585c0 38 9 75 83 123l-5 -6c5 2 10 3 15 3c25 0 42 -36 47 -58l124 -443c4 -17 4 -37 1 -59c3 10 5 20 6 31l71 383c7 59 41 110 96 127c32 28 66 36 66 -32v-652z" />
    <glyph glyph-name="N" unicode="N" horiz-adv-x="389" 
d="M295 599c0 39 10 69 84 118c0 0 -12 -13 -12 -24v-595c0 -47 -8 -77 -83 -122c0 0 7 8 10 17l-10 -6s17 37 8 64l-178 522c-6 17 -13 30 -21 38v-513c0 -47 -9 -77 -83 -122c0 0 12 13 12 24v587c0 34 7 62 63 103c2 2 5 4 8 6c4 2 8 5 12 8l-4 -4c4 1 7 2 11 2
c26 0 45 -35 53 -56l130 -387v340z" />
    <glyph glyph-name="Nacute" unicode="&#x143;" horiz-adv-x="389" 
d="M179 775c-10 -9 -10 -26 -10 -26c-46 46 -50 67 -31 86l67 66c10 10 14 17 13 32c39 -39 58 -60 30 -88zM295 599c0 39 10 69 84 118c0 0 -12 -13 -12 -24v-595c0 -47 -8 -77 -83 -122c0 0 7 8 10 17l-10 -6s17 37 8 64l-178 522c-6 17 -13 30 -21 38v-513
c0 -47 -9 -77 -83 -122c0 0 12 13 12 24v587c0 34 7 62 63 103c2 2 5 4 8 6c4 2 8 5 12 8l-4 -4c4 1 7 2 11 2c26 0 45 -35 53 -56l130 -387v340z" />
    <glyph glyph-name="Ncaron" unicode="&#x147;" horiz-adv-x="389" 
d="M184 764l-89 88c-27 28 -8 49 31 88c-1 -15 3 -22 13 -32l73 -72l65 66c28 28 49 9 88 -30c-15 0 -22 -3 -32 -13l-94 -95c-13 -13 -26 -16 -47 -3c-3 0 -6 1 -8 3zM295 599c0 39 10 69 84 118c0 0 -12 -13 -12 -24v-595c0 -47 -8 -77 -83 -122c0 0 7 8 10 17l-10 -6
s17 37 8 64l-178 522c-6 17 -13 30 -21 38v-513c0 -47 -9 -77 -83 -122c0 0 12 13 12 24v587c0 34 7 62 63 103c2 2 5 4 8 6c4 2 8 5 12 8l-4 -4c4 1 7 2 11 2c26 0 45 -35 53 -56l130 -387v340z" />
    <glyph glyph-name="uni0145" unicode="&#x145;" horiz-adv-x="389" 
d="M209 755c16 42 -24 134 -68 108l-7 5c35 36 76 46 96 27c35 -37 17 -114 -11 -143zM295 599c0 39 10 69 84 118c0 0 -12 -13 -12 -24v-595c0 -47 -8 -77 -83 -122c0 0 7 8 10 17l-10 -6s17 37 8 64l-178 522c-6 17 -13 30 -21 38v-513c0 -47 -9 -77 -83 -122
c0 0 12 13 12 24v587c0 34 7 62 63 103c2 2 5 4 8 6c4 2 8 5 12 8l-4 -4c4 1 7 2 11 2c26 0 45 -35 53 -56l130 -387v340z" />
    <glyph glyph-name="uni1E44" unicode="&#x1e44;" horiz-adv-x="389" 
d="M139 811c-7 8 -24 8 -24 8c35 35 62 53 84 32l37 -38c11 -10 16 -13 31 -12c-28 -28 -60 -58 -87 -30zM295 599c0 39 10 69 84 118c0 0 -12 -13 -12 -24v-595c0 -47 -8 -77 -83 -122c0 0 7 8 10 17l-10 -6s17 37 8 64l-178 522c-6 17 -13 30 -21 38v-513
c0 -47 -9 -77 -83 -122c0 0 12 13 12 24v587c0 34 7 62 63 103c2 2 5 4 8 6c4 2 8 5 12 8l-4 -4c4 1 7 2 11 2c26 0 45 -35 53 -56l130 -387v340z" />
    <glyph glyph-name="uni1E46" unicode="&#x1e46;" horiz-adv-x="389" 
d="M295 599c0 39 10 69 84 118c0 0 -12 -13 -12 -24v-595c0 -47 -8 -77 -83 -122c0 0 7 8 10 17l-10 -6s17 37 8 64l-178 522c-6 17 -13 30 -21 38v-513c0 -47 -9 -77 -83 -122c0 0 12 13 12 24v587c0 34 7 62 63 103c2 2 5 4 8 6c4 2 8 5 12 8l-4 -4c4 1 7 2 11 2
c26 0 45 -35 53 -56l130 -387v340zM235 -60l37 -38c11 -10 16 -12 31 -12c-28 -28 -60 -57 -87 -30l-41 40c-7 9 -24 9 -24 9c35 34 62 53 84 31z" />
    <glyph glyph-name="Eng" unicode="&#x14a;" horiz-adv-x="389" 
d="M333 11c32 -28 37 -62 37 -83c0 -89 -36 -128 -98 -128c-17 0 -51 23 -66 35c37 -22 122 -1 122 98v73v1c-11 -10 -26 -20 -44 -31c0 0 7 8 10 17l-10 -6s17 37 8 64l-178 522c-6 17 -13 30 -21 38v-513c0 -47 -9 -77 -83 -122c0 0 12 13 12 24v587c0 34 7 62 63 103
c2 2 5 4 8 6c4 2 8 5 12 8l-4 -4c4 1 7 2 11 2c26 0 45 -35 53 -56l130 -387v340c0 39 10 69 84 118c0 0 -12 -13 -12 -24v-595c0 -34 -4 -59 -34 -87zM206 -165c-4 1 -7 4 -9 6c0 0 3 -3 9 -6z" />
    <glyph glyph-name="uni019D" unicode="&#x19d;" horiz-adv-x="463" 
d="M370 599c0 39 10 69 83 118c0 0 -11 -13 -11 -24v-595c0 -47 -9 -77 -84 -122c0 0 8 9 11 18c-4 -3 -7 -5 -11 -7c0 0 17 37 9 64l-178 522c-6 17 -13 29 -21 38v-513c0 -32 -5 -56 -30 -81c40 -30 45 -67 45 -89c0 -89 -36 -128 -99 -128c-16 0 -50 23 -65 35
c37 -22 121 -1 121 98v73c0 3 -2 6 -3 9c-12 -12 -29 -25 -52 -39c0 0 11 13 11 24v587c0 34 8 61 61 101l12 9c4 2 7 5 11 7c0 0 -2 -2 -3 -4c3 1 6 2 10 2c26 0 45 -35 53 -56l130 -389v342zM19 -165c-4 1 -7 4 -9 6c0 0 3 -3 9 -6z" />
    <glyph glyph-name="Ntilde" unicode="&#xd1;" horiz-adv-x="389" 
d="M313 778c-14 -2 -27 -2 -41 0c10 -1 19 -1 29 0c29 0 43 18 64 61c-14 -34 -32 -60 -52 -61zM95 814c-12 1 -22 -5 -32 -15c10 11 21 16 38 17c57 6 114 -29 171 -38c-59 7 -118 45 -177 36zM63 799c-9 -10 -17 -24 -27 -44c8 17 17 33 27 44zM295 599c0 39 10 69 84 118
c0 0 -12 -13 -12 -24v-595c0 -47 -8 -77 -83 -122c0 0 7 8 10 17l-10 -6s17 37 8 64l-178 522c-6 17 -13 30 -21 38v-513c0 -47 -9 -77 -83 -122c0 0 12 13 12 24v587c0 34 7 62 63 103c2 2 5 4 8 6c4 2 8 5 12 8l-4 -4c4 1 7 2 11 2c26 0 45 -35 53 -56l130 -387v340z" />
    <glyph glyph-name="O" unicode="O" horiz-adv-x="344" 
d="M170 711c91 0 163 -56 163 -197v-372c0 -31 -6 -58 -49 -93c0 0 -1 -1 -2 -1h1c-9 -7 -20 -15 -33 -24l2 3c-26 -18 -59 -36 -78 -36c-90 0 -163 56 -163 197v369c0 38 10 68 83 117l-3 -3c25 19 58 40 79 40zM82 210c0 -146 110 -188 178 -171c1 3 2 6 2 9v444
c0 153 -113 193 -177 169c-2 -4 -3 -7 -3 -11v-440zM58 644c0 0 3 2 7 6zM296 58c-4 -4 -8 -7 -13 -10l1 1c8 5 12 9 12 9z" />
    <glyph glyph-name="Oacute" unicode="&#xd3;" horiz-adv-x="344" 
d="M156 775c-10 -9 -10 -26 -10 -26c-46 46 -50 67 -31 86l67 66c10 10 14 17 13 32c39 -39 58 -60 30 -88zM170 711c91 0 163 -56 163 -197v-372c0 -31 -6 -58 -49 -93c0 0 -1 -1 -2 -1h1c-9 -7 -20 -15 -33 -24l2 3c-26 -18 -59 -36 -78 -36c-90 0 -163 56 -163 197v369
c0 38 10 68 83 117l-3 -3c25 19 58 40 79 40zM82 210c0 -146 110 -188 178 -171c1 3 2 6 2 9v444c0 153 -113 193 -177 169c-2 -4 -3 -7 -3 -11v-440zM58 644c0 0 3 2 7 6zM296 58c-4 -4 -8 -7 -13 -10l1 1c8 5 12 9 12 9z" />
    <glyph glyph-name="Obreve" unicode="&#x14e;" horiz-adv-x="344" 
d="M260 801c-56 -56 -118 -55 -165 -7c-12 13 -20 55 -24 77c14 -45 97 -93 158 -32l56 56c5 5 5 18 5 18c12 -58 -11 -94 -30 -112zM71 871c-1 4 -2 8 -2 12zM170 711c91 0 163 -56 163 -197v-372c0 -31 -6 -58 -49 -93c0 0 -1 -1 -2 -1h1c-9 -7 -20 -15 -33 -24l2 3
c-26 -18 -59 -36 -78 -36c-90 0 -163 56 -163 197v369c0 38 10 68 83 117l-3 -3c25 19 58 40 79 40zM82 210c0 -146 110 -188 178 -171c1 3 2 6 2 9v444c0 153 -113 193 -177 169c-2 -4 -3 -7 -3 -11v-440zM58 644c0 0 3 2 7 6zM296 58c-4 -4 -8 -7 -13 -10l1 1
c8 5 12 9 12 9z" />
    <glyph glyph-name="uni01D1" unicode="&#x1d1;" horiz-adv-x="344" 
d="M161 764l-89 88c-27 28 -8 49 31 88c-1 -15 3 -22 13 -32l73 -72l65 66c28 28 49 9 88 -30c-15 0 -22 -3 -32 -13l-94 -95c-13 -13 -26 -16 -47 -3c-3 0 -6 1 -8 3zM170 711c91 0 163 -56 163 -197v-372c0 -31 -6 -58 -49 -93c0 0 -1 -1 -2 -1h1c-9 -7 -20 -15 -33 -24
l2 3c-26 -18 -59 -36 -78 -36c-90 0 -163 56 -163 197v369c0 38 10 68 83 117l-3 -3c25 19 58 40 79 40zM82 210c0 -146 110 -188 178 -171c1 3 2 6 2 9v444c0 153 -113 193 -177 169c-2 -4 -3 -7 -3 -11v-440zM58 644c0 0 3 2 7 6zM296 58c-4 -4 -8 -7 -13 -10l1 1
c8 5 12 9 12 9z" />
    <glyph glyph-name="Ocircumflex" unicode="&#xd4;" horiz-adv-x="344" 
d="M116 784c-10 -10 -14 -17 -13 -32c-39 39 -58 60 -31 88l59 58h-1l16 16l15 14c3 3 6 3 8 3c21 13 35 10 47 -2l94 -95c10 -10 17 -14 32 -13c-39 -40 -60 -59 -88 -31l-66 66zM170 711c91 0 163 -56 163 -197v-372c0 -31 -6 -58 -49 -93c0 0 -1 -1 -2 -1h1
c-9 -7 -20 -15 -33 -24l2 3c-26 -18 -59 -36 -78 -36c-90 0 -163 56 -163 197v369c0 38 10 68 83 117l-3 -3c25 19 58 40 79 40zM82 210c0 -146 110 -188 178 -171c1 3 2 6 2 9v444c0 153 -113 193 -177 169c-2 -4 -3 -7 -3 -11v-440zM58 644c0 0 3 2 7 6zM296 58
c-4 -4 -8 -7 -13 -10l1 1c8 5 12 9 12 9z" />
    <glyph glyph-name="Odieresis" unicode="&#xd6;" horiz-adv-x="344" 
d="M68 775l-40 40c-8 8 -25 8 -25 8c35 35 62 54 84 32l38 -38c10 -10 16 -13 31 -12c-28 -28 -60 -58 -88 -30zM243 775l-40 40c-8 8 -25 8 -25 8c35 35 62 54 85 32l37 -38c10 -10 16 -13 31 -12c-28 -28 -60 -58 -88 -30zM170 711c91 0 163 -56 163 -197v-372
c0 -31 -6 -58 -49 -93c0 0 -1 -1 -2 -1h1c-9 -7 -20 -15 -33 -24l2 3c-26 -18 -59 -36 -78 -36c-90 0 -163 56 -163 197v369c0 38 10 68 83 117l-3 -3c25 19 58 40 79 40zM82 210c0 -146 110 -188 178 -171c1 3 2 6 2 9v444c0 153 -113 193 -177 169c-2 -4 -3 -7 -3 -11
v-440zM58 644c0 0 3 2 7 6zM296 58c-4 -4 -8 -7 -13 -10l1 1c8 5 12 9 12 9z" />
    <glyph glyph-name="uni1ECC" unicode="&#x1ecc;" horiz-adv-x="344" 
d="M170 711c91 0 163 -56 163 -197v-372c0 -31 -6 -58 -49 -93c0 0 -1 -1 -2 -1h1c-9 -7 -20 -15 -33 -24l2 3c-26 -18 -59 -36 -78 -36c-90 0 -163 56 -163 197v369c0 38 10 68 83 117l-3 -3c25 19 58 40 79 40zM82 210c0 -146 110 -188 178 -171c1 3 2 6 2 9v444
c0 153 -113 193 -177 169c-2 -4 -3 -7 -3 -11v-440zM58 644c0 0 3 2 7 6zM296 58c-4 -4 -8 -7 -13 -10l1 1c8 5 12 9 12 9zM212 -60l37 -38c11 -10 16 -12 31 -12c-28 -28 -60 -57 -87 -30l-41 40c-7 9 -24 9 -24 9c35 34 62 53 84 31z" />
    <glyph glyph-name="Ograve" unicode="&#xd2;" horiz-adv-x="344" 
d="M186 775l-70 70c-27 28 -8 49 31 88c-1 -15 2 -22 12 -32l67 -66c19 -19 15 -40 -31 -86c0 0 0 17 -9 26zM170 711c91 0 163 -56 163 -197v-372c0 -31 -6 -58 -49 -93c0 0 -1 -1 -2 -1h1c-9 -7 -20 -15 -33 -24l2 3c-26 -18 -59 -36 -78 -36c-90 0 -163 56 -163 197v369
c0 38 10 68 83 117l-3 -3c25 19 58 40 79 40zM82 210c0 -146 110 -188 178 -171c1 3 2 6 2 9v444c0 153 -113 193 -177 169c-2 -4 -3 -7 -3 -11v-440zM58 644c0 0 3 2 7 6zM296 58c-4 -4 -8 -7 -13 -10l1 1c8 5 12 9 12 9z" />
    <glyph glyph-name="Ohungarumlaut" unicode="&#x150;" horiz-adv-x="344" 
d="M98 755c16 42 -24 134 -68 108l-7 5c35 36 76 46 96 27c35 -37 17 -114 -11 -143zM246 755c16 42 -24 134 -68 108l-7 5c35 36 76 46 96 27c35 -37 17 -114 -11 -143zM170 711c91 0 163 -56 163 -197v-372c0 -31 -6 -58 -49 -93c0 0 -1 -1 -2 -1h1c-9 -7 -20 -15 -33 -24
l2 3c-26 -18 -59 -36 -78 -36c-90 0 -163 56 -163 197v369c0 38 10 68 83 117l-3 -3c25 19 58 40 79 40zM82 210c0 -146 110 -188 178 -171c1 3 2 6 2 9v444c0 153 -113 193 -177 169c-2 -4 -3 -7 -3 -11v-440zM58 644c0 0 3 2 7 6zM296 58c-4 -4 -8 -7 -13 -10l1 1
c8 5 12 9 12 9z" />
    <glyph glyph-name="Omacron" unicode="&#x14c;" horiz-adv-x="344" 
d="M246 762h-212c-13 0 -27 -12 -27 -12c38 52 55 72 96 72h206c11 0 27 12 27 12c-36 -52 -52 -72 -90 -72zM170 711c91 0 163 -56 163 -197v-372c0 -31 -6 -58 -49 -93c0 0 -1 -1 -2 -1h1c-9 -7 -20 -15 -33 -24l2 3c-26 -18 -59 -36 -78 -36c-90 0 -163 56 -163 197v369
c0 38 10 68 83 117l-3 -3c25 19 58 40 79 40zM82 210c0 -146 110 -188 178 -171c1 3 2 6 2 9v444c0 153 -113 193 -177 169c-2 -4 -3 -7 -3 -11v-440zM58 644c0 0 3 2 7 6zM296 58c-4 -4 -8 -7 -13 -10l1 1c8 5 12 9 12 9z" />
    <glyph glyph-name="uni01EA" unicode="&#x1ea;" horiz-adv-x="344" 
d="M333 142c0 -31 -6 -58 -49 -93c0 0 -1 -1 -2 -1h1c-9 -7 -20 -15 -33 -24l2 3c-15 -11 -33 -21 -49 -28v-66c0 -99 84 -120 121 -98c-15 -12 -49 -35 -65 -35c-63 0 -99 40 -99 128c0 16 3 40 20 63h-6c-90 0 -163 56 -163 197v369c0 38 10 68 83 117l-3 -3
c25 19 58 40 79 40c91 0 163 -56 163 -197v-372zM82 210c0 -146 110 -188 178 -171c1 3 2 6 2 9v444c0 153 -113 193 -177 169c-2 -4 -3 -7 -3 -11v-440zM58 644c0 0 3 2 7 6zM296 58c-4 -4 -8 -7 -13 -10l1 1c8 5 12 9 12 9zM324 -165c6 3 9 6 9 6c-2 -2 -5 -5 -9 -6z" />
    <glyph glyph-name="Oslash" unicode="&#xd8;" horiz-adv-x="477" 
d="M384 757c42 -45 52 -68 34 -105l-24 -51c8 -24 12 -53 12 -87v-372c0 -32 -7 -59 -52 -95l1 1c-2 -2 -4 -3 -6 -5c-8 -6 -17 -12 -27 -19l2 2c-27 -17 -59 -35 -78 -35c-45 0 -85 14 -115 45l-36 -78c-5 -12 1 -24 1 -24c-45 43 -55 62 -38 100l35 74
c-7 23 -10 50 -10 80v369c0 38 10 68 83 117l-3 -3c25 19 58 40 79 40c44 0 83 -13 113 -42l27 59c6 11 2 29 2 29zM154 650v-410l162 346c-35 75 -111 93 -159 75c-2 -4 -3 -7 -3 -11zM137 650l-7 -6s3 2 7 6zM334 48v424l-163 -350c34 -75 109 -96 161 -83c1 3 2 6 2 9z
M355 48c9 6 14 10 14 10c-4 -4 -8 -7 -14 -10z" />
    <glyph glyph-name="Oslashacute" unicode="&#x1fe;" horiz-adv-x="477" 
d="M259 775c-10 -9 -10 -26 -10 -26c-46 46 -50 67 -31 86l67 66c10 10 14 17 13 32c39 -39 58 -60 30 -88zM384 757c42 -45 52 -68 34 -105l-24 -51c8 -24 12 -53 12 -87v-372c0 -32 -7 -59 -52 -95l1 1c-2 -2 -4 -3 -6 -5c-8 -6 -17 -12 -27 -19l2 2
c-27 -17 -59 -35 -78 -35c-45 0 -85 14 -115 45l-36 -78c-5 -12 1 -24 1 -24c-45 43 -55 62 -38 100l35 74c-7 23 -10 50 -10 80v369c0 38 10 68 83 117l-3 -3c25 19 58 40 79 40c44 0 83 -13 113 -42l27 59c6 11 2 29 2 29zM154 650v-410l162 346c-35 75 -111 93 -159 75
c-2 -4 -3 -7 -3 -11zM137 650l-7 -6s3 2 7 6zM334 48v424l-163 -350c34 -75 109 -96 161 -83c1 3 2 6 2 9zM355 48c9 6 14 10 14 10c-4 -4 -8 -7 -14 -10z" />
    <glyph glyph-name="Otilde" unicode="&#xd5;" horiz-adv-x="344" 
d="M291 778c-14 -2 -27 -2 -41 0c10 -1 19 -1 29 0c29 0 43 18 64 61c-14 -34 -32 -60 -52 -61zM73 814c-12 1 -22 -5 -32 -15c10 11 21 16 38 17c57 6 114 -29 171 -38c-59 7 -118 45 -177 36zM41 799c-9 -10 -17 -24 -27 -44c8 17 17 33 27 44zM170 711
c91 0 163 -56 163 -197v-372c0 -31 -6 -58 -49 -93c0 0 -1 -1 -2 -1h1c-9 -7 -20 -15 -33 -24l2 3c-26 -18 -59 -36 -78 -36c-90 0 -163 56 -163 197v369c0 38 10 68 83 117l-3 -3c25 19 58 40 79 40zM82 210c0 -146 110 -188 178 -171c1 3 2 6 2 9v444
c0 153 -113 193 -177 169c-2 -4 -3 -7 -3 -11v-440zM58 644c0 0 3 2 7 6zM296 58c-4 -4 -8 -7 -13 -10l1 1c8 5 12 9 12 9z" />
    <glyph glyph-name="OE" unicode="&#x152;" horiz-adv-x="625" 
d="M354 66h232c11 0 24 12 24 12c-50 -73 -68 -81 -112 -81h-225c-14 -11 -28 -19 -41 -27c15 14 24 33 29 55c-4 -2 -7 -5 -11 -7l1 1c-27 -17 -58 -34 -76 -34c-92 0 -164 55 -164 197v369c0 38 9 69 83 118l-3 -4c25 19 58 41 79 41c50 0 94 -17 124 -55
c33 41 54 47 85 47h212c12 0 24 12 24 12c-49 -74 -73 -83 -110 -83h-171v-227c16 11 30 13 49 13h133c11 0 24 12 24 12c-49 -74 -79 -83 -117 -83h-89v-227c0 -20 -3 -37 -9 -52c9 2 19 3 29 3zM82 203c0 -145 110 -189 177 -172c2 3 3 7 3 10v446
c0 153 -114 193 -177 169c-2 -4 -3 -8 -3 -12v-441zM59 639c0 0 3 2 7 6zM297 51c0 0 -6 -5 -16 -12c6 4 12 8 16 12z" />
    <glyph glyph-name="P" unicode="P" horiz-adv-x="361" 
d="M230 698c99 0 121 -76 121 -200v-61c0 -124 -63 -164 -160 -170c-4 -1 -8 -1 -13 -1h-66v-145c0 -87 -61 -119 -102 -145c23 21 32 54 32 92v519c0 10 1 19 3 28c-2 -1 -4 -2 -5 -3l8 12c5 13 14 26 30 40c17 19 36 36 53 36zM199 337c45 0 81 26 81 93v36
c0 118 -12 159 -108 159c-11 0 -35 0 -60 -1v-292c10 4 20 5 32 5h55z" />
    <glyph glyph-name="Thorn" unicode="&#xde;" horiz-adv-x="369" 
d="M239 588c100 0 120 -76 120 -201v-62c0 -124 -63 -164 -161 -170c-4 -1 -8 -1 -12 -1h-73v-33c0 -87 -61 -119 -103 -145c24 21 32 55 32 92v529c0 39 9 63 82 113c0 0 -11 -12 -11 -24v-103c7 4 14 7 20 7zM208 225c44 0 81 27 81 93v37c0 120 -12 159 -109 159
c-12 0 -39 0 -67 -1v-295c11 6 22 7 37 7h58z" />
    <glyph glyph-name="Q" unicode="Q" horiz-adv-x="399" 
d="M356 10c13 -12 33 -17 33 -17c-63 -17 -97 -16 -124 12l-18 18c-26 -16 -55 -32 -73 -32c-90 0 -163 56 -163 197v369c0 38 10 68 83 117l-3 -3c25 19 58 40 79 40c91 0 163 -56 163 -197v-372c0 -26 -4 -49 -31 -77zM82 210c0 -129 86 -177 153 -175l-102 102
c-14 14 -36 20 -36 20c62 12 95 17 122 -9l43 -43v387c0 153 -113 193 -177 169c-2 -4 -3 -7 -3 -11v-440zM58 644c0 0 3 2 7 6zM283 48c5 3 9 6 13 10c0 0 -4 -4 -12 -9z" />
    <glyph glyph-name="R" unicode="R" horiz-adv-x="423" 
d="M388 53c14 0 25 8 25 8s-16 -66 -73 -66c-48 0 -109 212 -153 271h-9h-65v-146c0 -86 -63 -118 -103 -144c23 21 31 54 31 92v519c0 10 1 19 3 28c-2 -1 -3 -2 -4 -3c0 0 2 4 6 9c5 14 15 28 33 43c16 19 35 36 51 36l99 -2c101 0 122 -75 122 -200v-61
c0 -88 -33 -134 -86 -155c43 -78 85 -229 123 -229zM113 332c9 4 19 5 31 5h55c45 0 81 26 81 93v36c0 118 -12 159 -108 159h-59v-293z" />
    <glyph glyph-name="Racute" unicode="&#x154;" horiz-adv-x="423" 
d="M196 775c-10 -9 -10 -26 -10 -26c-46 46 -50 67 -31 86l67 66c10 10 14 17 13 32c39 -39 58 -60 30 -88zM388 53c14 0 25 8 25 8s-16 -66 -73 -66c-48 0 -109 212 -153 271h-9h-65v-146c0 -86 -63 -118 -103 -144c23 21 31 54 31 92v519c0 10 1 19 3 28
c-2 -1 -3 -2 -4 -3c0 0 2 4 6 9c5 14 15 28 33 43c16 19 35 36 51 36l99 -2c101 0 122 -75 122 -200v-61c0 -88 -33 -134 -86 -155c43 -78 85 -229 123 -229zM113 332c9 4 19 5 31 5h55c45 0 81 26 81 93v36c0 118 -12 159 -108 159h-59v-293z" />
    <glyph glyph-name="Rcaron" unicode="&#x158;" horiz-adv-x="423" 
d="M201 764l-89 88c-27 28 -8 49 31 88c-1 -15 3 -22 13 -32l73 -72l65 66c28 28 49 9 88 -30c-15 0 -22 -3 -32 -13l-94 -95c-13 -13 -26 -16 -47 -3c-3 0 -6 1 -8 3zM388 53c14 0 25 8 25 8s-16 -66 -73 -66c-48 0 -109 212 -153 271h-9h-65v-146
c0 -86 -63 -118 -103 -144c23 21 31 54 31 92v519c0 10 1 19 3 28c-2 -1 -3 -2 -4 -3c0 0 2 4 6 9c5 14 15 28 33 43c16 19 35 36 51 36l99 -2c101 0 122 -75 122 -200v-61c0 -88 -33 -134 -86 -155c43 -78 85 -229 123 -229zM113 332c9 4 19 5 31 5h55c45 0 81 26 81 93v36
c0 118 -12 159 -108 159h-59v-293z" />
    <glyph glyph-name="uni0156" unicode="&#x156;" horiz-adv-x="423" 
d="M226 755c16 42 -24 134 -68 108l-7 5c35 36 76 46 96 27c35 -37 17 -114 -11 -143zM388 53c14 0 25 8 25 8s-16 -66 -73 -66c-48 0 -109 212 -153 271h-9h-65v-146c0 -86 -63 -118 -103 -144c23 21 31 54 31 92v519c0 10 1 19 3 28c-2 -1 -3 -2 -4 -3c0 0 2 4 6 9
c5 14 15 28 33 43c16 19 35 36 51 36l99 -2c101 0 122 -75 122 -200v-61c0 -88 -33 -134 -86 -155c43 -78 85 -229 123 -229zM113 332c9 4 19 5 31 5h55c45 0 81 26 81 93v36c0 118 -12 159 -108 159h-59v-293z" />
    <glyph glyph-name="S" unicode="S" horiz-adv-x="377" 
d="M360 186c0 -34 -18 -60 -35 -77l2 1c-20 -28 -89 -119 -150 -119c-68 0 -156 70 -167 115c0 0 32 42 65 54c-3 -15 59 -103 152 -103c21 0 48 16 65 29c54 112 -171 305 -241 395c-71 90 42 171 59 180l4 -1c23 17 58 41 71 45c11 0 173 36 170 -103
c-4 -31 -61 -71 -61 -71c29 62 -29 120 -113 120c-26 0 -46 -1 -61 -2c-26 -26 -61 -64 13 -146c82 -93 227 -223 227 -317z" />
    <glyph glyph-name="Sacute" unicode="&#x15a;" horiz-adv-x="377" 
d="M173 775c-10 -9 -10 -26 -10 -26c-46 46 -50 67 -31 86l67 66c10 10 14 17 13 32c39 -39 58 -60 30 -88zM360 186c0 -34 -18 -60 -35 -77l2 1c-20 -28 -89 -119 -150 -119c-68 0 -156 70 -167 115c0 0 32 42 65 54c-3 -15 59 -103 152 -103c21 0 48 16 65 29
c54 112 -171 305 -241 395c-71 90 42 171 59 180l4 -1c23 17 58 41 71 45c11 0 173 36 170 -103c-4 -31 -61 -71 -61 -71c29 62 -29 120 -113 120c-26 0 -46 -1 -61 -2c-26 -26 -61 -64 13 -146c82 -93 227 -223 227 -317z" />
    <glyph glyph-name="Scaron" unicode="&#x160;" horiz-adv-x="377" 
d="M178 764l-89 88c-27 28 -8 49 31 88c-1 -15 3 -22 13 -32l73 -72l65 66c28 28 49 9 88 -30c-15 0 -22 -3 -32 -13l-94 -95c-13 -13 -26 -16 -47 -3c-3 0 -6 1 -8 3zM360 186c0 -34 -18 -60 -35 -77l2 1c-20 -28 -89 -119 -150 -119c-68 0 -156 70 -167 115
c0 0 32 42 65 54c-3 -15 59 -103 152 -103c21 0 48 16 65 29c54 112 -171 305 -241 395c-71 90 42 171 59 180l4 -1c23 17 58 41 71 45c11 0 173 36 170 -103c-4 -31 -61 -71 -61 -71c29 62 -29 120 -113 120c-26 0 -46 -1 -61 -2c-26 -26 -61 -64 13 -146
c82 -93 227 -223 227 -317z" />
    <glyph glyph-name="Scedilla" unicode="&#x15e;" horiz-adv-x="377" 
d="M360 186c0 -34 -18 -60 -35 -77l2 1c-20 -28 -89 -119 -150 -119c-68 0 -156 70 -167 115c0 0 32 42 65 54c-3 -15 59 -103 152 -103c21 0 48 16 65 29c54 112 -171 305 -241 395c-71 90 42 171 59 180l4 -1c23 17 58 41 71 45c11 0 173 36 170 -103
c-4 -31 -61 -71 -61 -71c29 62 -29 120 -113 120c-26 0 -46 -1 -61 -2c-26 -26 -61 -64 13 -146c82 -93 227 -223 227 -317zM264 -27c4 -3 8 -6 11 -10c29 -30 32 -64 32 -85c0 -79 -41 -118 -108 -118c-18 0 -55 25 -72 37c41 -22 134 2 134 89v31h-43c-42 0 -54 19 -89 77
c0 0 16 -13 33 -13h61c15 0 25 -1 34 -5c-2 3 -4 5 -4 5c4 -3 8 -5 11 -8zM127 -203c-3 2 -6 4 -9 7z" />
    <glyph glyph-name="Scircumflex" unicode="&#x15c;" horiz-adv-x="377" 
d="M133 784c-10 -10 -14 -17 -13 -32c-39 39 -58 60 -31 88l59 58h-1l16 16l15 14c3 3 6 3 8 3c21 13 35 10 47 -2l94 -95c10 -10 17 -14 32 -13c-39 -40 -60 -59 -88 -31l-66 66zM360 186c0 -34 -18 -60 -35 -77l2 1c-20 -28 -89 -119 -150 -119c-68 0 -156 70 -167 115
c0 0 32 42 65 54c-3 -15 59 -103 152 -103c21 0 48 16 65 29c54 112 -171 305 -241 395c-71 90 42 171 59 180l4 -1c23 17 58 41 71 45c11 0 173 36 170 -103c-4 -31 -61 -71 -61 -71c29 62 -29 120 -113 120c-26 0 -46 -1 -61 -2c-26 -26 -61 -64 13 -146
c82 -93 227 -223 227 -317z" />
    <glyph glyph-name="uni0218" unicode="&#x218;" horiz-adv-x="377" 
d="M203 755c16 42 -24 134 -68 108l-7 5c35 36 76 46 96 27c35 -37 17 -114 -11 -143zM360 186c0 -34 -18 -60 -35 -77l2 1c-20 -28 -89 -119 -150 -119c-68 0 -156 70 -167 115c0 0 32 42 65 54c-3 -15 59 -103 152 -103c21 0 48 16 65 29c54 112 -171 305 -241 395
c-71 90 42 171 59 180l4 -1c23 17 58 41 71 45c11 0 173 36 170 -103c-4 -31 -61 -71 -61 -71c29 62 -29 120 -113 120c-26 0 -46 -1 -61 -2c-26 -26 -61 -64 13 -146c82 -93 227 -223 227 -317z" />
    <glyph glyph-name="uni1E62" unicode="&#x1e62;" horiz-adv-x="377" 
d="M360 186c0 -34 -18 -60 -35 -77l2 1c-20 -28 -89 -119 -150 -119c-68 0 -156 70 -167 115c0 0 32 42 65 54c-3 -15 59 -103 152 -103c21 0 48 16 65 29c54 112 -171 305 -241 395c-71 90 42 171 59 180l4 -1c23 17 58 41 71 45c11 0 173 36 170 -103
c-4 -31 -61 -71 -61 -71c29 62 -29 120 -113 120c-26 0 -46 -1 -61 -2c-26 -26 -61 -64 13 -146c82 -93 227 -223 227 -317zM229 -60l37 -38c11 -10 16 -12 31 -12c-28 -28 -60 -57 -87 -30l-41 40c-7 9 -24 9 -24 9c35 34 62 53 84 31z" />
    <glyph glyph-name="uni1E9E" unicode="&#x1e9e;" horiz-adv-x="348" 
d="M207 406c39 -27 131 -102 131 -204c0 -129 -80 -192 -132 -192c-27 0 -66 6 -104 30l-6 4c-2 -35 -16 -66 -86 -113c0 0 12 13 12 25v559c0 78 47 113 86 139c16 32 65 54 65 54c47 -12 108 -97 108 -169c0 -56 -44 -107 -74 -133zM258 173c16 142 -26 184 -84 231l5 4
l-2 1s47 45 47 71c0 104 -84 159 -111 167c-13 -20 -17 -47 -17 -76v-495c7 -2 15 -4 22 -5c56 -8 128 2 140 102z" />
    <glyph glyph-name="uni018F" unicode="&#x18f;" horiz-adv-x="359" 
d="M127 713c128 0 222 -56 222 -199v-386c0 -35 -9 -56 -70 -98c-17 -18 -32 -25 -54 -25h-172c-18 0 -34 -12 -34 -12l12 17l-21 -15c0 0 12 16 12 34v222c0 10 1 19 5 27l-8 -5c45 64 59 84 97 84l161 -1v144c0 166 -201 182 -252 131c0 0 57 82 102 82zM116 77l161 -1
v232c-16 -17 -31 -23 -52 -23h-132l1 -193c0 -7 -1 -13 -2 -19c7 3 15 4 24 4z" />
    <glyph glyph-name="T" unicode="T" horiz-adv-x="376" 
d="M381 700c14 0 25 14 25 14c-40 -62 -71 -82 -107 -82h-70v-510c0 -84 -62 -117 -98 -142c20 21 30 54 30 92v495c0 23 4 42 23 65h-150c-10 0 -24 -11 -24 -11c44 59 70 79 107 79h264z" />
    <glyph glyph-name="Tbar" unicode="&#x166;" horiz-adv-x="416" 
d="M299 632h-70v-254h83c12 0 24 11 24 11c-34 -49 -54 -61 -91 -61h-16v-206c0 -84 -62 -117 -98 -142c20 21 30 54 30 92v256h-88c-11 0 -23 -11 -23 -11c36 47 53 61 91 61h20v189c0 23 4 42 23 65h-150c-10 0 -24 -11 -24 -11c44 59 70 79 107 79h264c14 0 25 14 25 14
c-40 -62 -71 -82 -107 -82z" />
    <glyph glyph-name="Tcaron" unicode="&#x164;" horiz-adv-x="376" 
d="M198 764l-89 88c-27 28 -8 49 31 88c-1 -15 3 -22 13 -32l73 -72l65 66c28 28 49 9 88 -30c-15 0 -22 -3 -32 -13l-94 -95c-13 -13 -26 -16 -47 -3c-3 0 -6 1 -8 3zM381 700c14 0 25 14 25 14c-40 -62 -71 -82 -107 -82h-70v-510c0 -84 -62 -117 -98 -142
c20 21 30 54 30 92v495c0 23 4 42 23 65h-150c-10 0 -24 -11 -24 -11c44 59 70 79 107 79h264z" />
    <glyph glyph-name="uni0162" unicode="&#x162;" horiz-adv-x="376" 
d="M229 122c0 -70 -43 -105 -79 -129c4 -3 18 -12 32 -12h61c15 0 25 -1 34 -5c-2 3 -4 5 -4 5c4 -3 8 -5 11 -8c4 -3 8 -6 11 -10c29 -30 32 -64 32 -85c0 -79 -41 -118 -108 -118c-18 0 -55 25 -72 37c41 -22 134 2 134 89v31h-43c-42 0 -54 19 -88 76l-19 -13
c20 21 30 54 30 92v495c0 23 4 42 23 65h-150c-10 0 -24 -11 -24 -11c44 59 70 79 107 79h264c14 0 25 14 25 14c-40 -62 -71 -82 -107 -82h-70v-510zM147 -203c-3 2 -6 4 -9 7z" />
    <glyph glyph-name="uni021A" unicode="&#x21a;" horiz-adv-x="376" 
d="M223 755c16 42 -24 134 -68 108l-7 5c35 36 76 46 96 27c35 -37 17 -114 -11 -143zM381 700c14 0 25 14 25 14c-40 -62 -71 -82 -107 -82h-70v-510c0 -84 -62 -117 -98 -142c20 21 30 54 30 92v495c0 23 4 42 23 65h-150c-10 0 -24 -11 -24 -11c44 59 70 79 107 79h264z
" />
    <glyph glyph-name="uni1E6C" unicode="&#x1e6c;" horiz-adv-x="376" 
d="M381 700c14 0 25 14 25 14c-40 -62 -71 -82 -107 -82h-70v-510c0 -84 -62 -117 -98 -142c20 21 30 54 30 92v495c0 23 4 42 23 65h-150c-10 0 -24 -11 -24 -11c44 59 70 79 107 79h264zM249 -60l37 -38c11 -10 16 -12 31 -12c-28 -28 -60 -57 -87 -30l-41 40
c-7 9 -24 9 -24 9c35 34 62 53 84 31z" />
    <glyph glyph-name="U" unicode="U" horiz-adv-x="358" 
d="M264 708c73 -45 83 -79 83 -117v-432c0 -82 -55 -115 -96 -140c-17 -15 -36 -28 -51 -28c-90 0 -178 56 -178 197v498c0 11 -12 24 -12 24c73 -45 83 -74 83 -112v-389c0 -150 110 -181 175 -157c6 16 8 35 8 55v577c0 12 -12 24 -12 24z" />
    <glyph glyph-name="Uacute" unicode="&#xda;" horiz-adv-x="358" 
d="M163 775c-10 -9 -10 -26 -10 -26c-46 46 -50 67 -31 86l67 66c10 10 14 17 13 32c39 -39 58 -60 30 -88zM264 708c73 -45 83 -79 83 -117v-432c0 -82 -55 -115 -96 -140c-17 -15 -36 -28 -51 -28c-90 0 -178 56 -178 197v498c0 11 -12 24 -12 24c73 -45 83 -74 83 -112
v-389c0 -150 110 -181 175 -157c6 16 8 35 8 55v577c0 12 -12 24 -12 24z" />
    <glyph glyph-name="Ubreve" unicode="&#x16c;" horiz-adv-x="358" 
d="M267 801c-56 -56 -118 -55 -165 -7c-12 13 -20 55 -24 77c14 -45 97 -93 158 -32l56 56c5 5 5 18 5 18c12 -58 -11 -94 -30 -112zM78 871c-1 4 -2 8 -2 12zM264 708c73 -45 83 -79 83 -117v-432c0 -82 -55 -115 -96 -140c-17 -15 -36 -28 -51 -28c-90 0 -178 56 -178 197
v498c0 11 -12 24 -12 24c73 -45 83 -74 83 -112v-389c0 -150 110 -181 175 -157c6 16 8 35 8 55v577c0 12 -12 24 -12 24z" />
    <glyph glyph-name="uni01D3" unicode="&#x1d3;" horiz-adv-x="358" 
d="M168 764l-89 88c-27 28 -8 49 31 88c-1 -15 3 -22 13 -32l73 -72l65 66c28 28 49 9 88 -30c-15 0 -22 -3 -32 -13l-94 -95c-13 -13 -26 -16 -47 -3c-3 0 -6 1 -8 3zM264 708c73 -45 83 -79 83 -117v-432c0 -82 -55 -115 -96 -140c-17 -15 -36 -28 -51 -28
c-90 0 -178 56 -178 197v498c0 11 -12 24 -12 24c73 -45 83 -74 83 -112v-389c0 -150 110 -181 175 -157c6 16 8 35 8 55v577c0 12 -12 24 -12 24z" />
    <glyph glyph-name="Ucircumflex" unicode="&#xdb;" horiz-adv-x="358" 
d="M123 784c-10 -10 -14 -17 -13 -32c-39 39 -58 60 -31 88l59 58h-1l16 16l15 14c3 3 6 3 8 3c21 13 35 10 47 -2l94 -95c10 -10 17 -14 32 -13c-39 -40 -60 -59 -88 -31l-66 66zM264 708c73 -45 83 -79 83 -117v-432c0 -82 -55 -115 -96 -140c-17 -15 -36 -28 -51 -28
c-90 0 -178 56 -178 197v498c0 11 -12 24 -12 24c73 -45 83 -74 83 -112v-389c0 -150 110 -181 175 -157c6 16 8 35 8 55v577c0 12 -12 24 -12 24z" />
    <glyph glyph-name="Udieresis" unicode="&#xdc;" horiz-adv-x="358" 
d="M75 775l-40 40c-8 8 -25 8 -25 8c35 35 62 54 84 32l38 -38c10 -10 16 -13 31 -12c-28 -28 -60 -58 -88 -30zM250 775l-40 40c-8 8 -25 8 -25 8c35 35 62 54 85 32l37 -38c10 -10 16 -13 31 -12c-28 -28 -60 -58 -88 -30zM264 708c73 -45 83 -79 83 -117v-432
c0 -82 -55 -115 -96 -140c-17 -15 -36 -28 -51 -28c-90 0 -178 56 -178 197v498c0 11 -12 24 -12 24c73 -45 83 -74 83 -112v-389c0 -150 110 -181 175 -157c6 16 8 35 8 55v577c0 12 -12 24 -12 24z" />
    <glyph glyph-name="uni1EE4" unicode="&#x1ee4;" horiz-adv-x="358" 
d="M264 708c73 -45 83 -79 83 -117v-432c0 -82 -55 -115 -96 -140c-17 -15 -36 -28 -51 -28c-90 0 -178 56 -178 197v498c0 11 -12 24 -12 24c73 -45 83 -74 83 -112v-389c0 -150 110 -181 175 -157c6 16 8 35 8 55v577c0 12 -12 24 -12 24zM220 -60l37 -38
c11 -10 16 -12 31 -12c-28 -28 -60 -57 -87 -30l-41 40c-7 9 -24 9 -24 9c35 34 62 53 84 31z" />
    <glyph glyph-name="Ugrave" unicode="&#xd9;" horiz-adv-x="358" 
d="M194 775l-70 70c-27 28 -8 49 31 88c-1 -15 2 -22 12 -32l67 -66c19 -19 15 -40 -31 -86c0 0 0 17 -9 26zM264 708c73 -45 83 -79 83 -117v-432c0 -82 -55 -115 -96 -140c-17 -15 -36 -28 -51 -28c-90 0 -178 56 -178 197v498c0 11 -12 24 -12 24c73 -45 83 -74 83 -112
v-389c0 -150 110 -181 175 -157c6 16 8 35 8 55v577c0 12 -12 24 -12 24z" />
    <glyph glyph-name="Uhungarumlaut" unicode="&#x170;" horiz-adv-x="358" 
d="M105 755c16 42 -24 134 -68 108l-7 5c35 36 76 46 96 27c35 -37 17 -114 -11 -143zM253 755c16 42 -24 134 -68 108l-7 5c35 36 76 46 96 27c35 -37 17 -114 -11 -143zM264 708c73 -45 83 -79 83 -117v-432c0 -82 -55 -115 -96 -140c-17 -15 -36 -28 -51 -28
c-90 0 -178 56 -178 197v498c0 11 -12 24 -12 24c73 -45 83 -74 83 -112v-389c0 -150 110 -181 175 -157c6 16 8 35 8 55v577c0 12 -12 24 -12 24z" />
    <glyph glyph-name="Umacron" unicode="&#x16a;" horiz-adv-x="358" 
d="M253 762h-212c-13 0 -27 -12 -27 -12c38 52 55 72 96 72h206c11 0 27 12 27 12c-36 -52 -52 -72 -90 -72zM264 708c73 -45 83 -79 83 -117v-432c0 -82 -55 -115 -96 -140c-17 -15 -36 -28 -51 -28c-90 0 -178 56 -178 197v498c0 11 -12 24 -12 24c73 -45 83 -74 83 -112
v-389c0 -150 110 -181 175 -157c6 16 8 35 8 55v577c0 12 -12 24 -12 24z" />
    <glyph glyph-name="Uogonek" unicode="&#x172;" horiz-adv-x="358" 
d="M251 19c-14 -12 -28 -22 -41 -26v-60c0 -99 84 -120 121 -98c-15 -12 -49 -35 -65 -35c-63 0 -99 40 -99 128c0 16 3 40 20 63c-85 6 -165 63 -165 197v498c0 11 -12 24 -12 24c73 -45 83 -74 83 -112v-389c0 -150 110 -181 175 -157c6 16 8 35 8 55v577
c0 12 -12 24 -12 24c73 -45 83 -79 83 -117v-432c0 -82 -55 -115 -96 -140zM331 -165c6 3 9 6 9 6c-2 -2 -5 -5 -9 -6z" />
    <glyph glyph-name="Uring" unicode="&#x16e;" horiz-adv-x="358" 
d="M188 753c-63 0 -99 40 -99 129c0 23 6 63 50 91c15 12 34 24 46 24c56 0 100 -34 100 -120v-32c0 -20 -5 -36 -33 -58c0 0 1 0 1 1c-15 -12 -49 -35 -65 -35zM241 864c0 92 -69 117 -107 102c-1 -2 -2 -4 -2 -6v-74c0 -88 66 -115 108 -104c0 2 1 4 1 6v76zM122 960
l-4 -4zM253 788c6 3 9 6 9 6c-2 -2 -5 -5 -9 -6zM264 708c73 -45 83 -79 83 -117v-432c0 -82 -55 -115 -96 -140c-17 -15 -36 -28 -51 -28c-90 0 -178 56 -178 197v498c0 11 -12 24 -12 24c73 -45 83 -74 83 -112v-389c0 -150 110 -181 175 -157c6 16 8 35 8 55v577
c0 12 -12 24 -12 24z" />
    <glyph glyph-name="Utilde" unicode="&#x168;" horiz-adv-x="358" 
d="M298 778c-14 -2 -27 -2 -41 0c10 -1 19 -1 29 0c29 0 43 18 64 61c-14 -34 -32 -60 -52 -61zM80 814c-12 1 -22 -5 -32 -15c10 11 21 16 38 17c57 6 114 -29 171 -38c-59 7 -118 45 -177 36zM48 799c-9 -10 -17 -24 -27 -44c8 17 17 33 27 44zM264 708
c73 -45 83 -79 83 -117v-432c0 -82 -55 -115 -96 -140c-17 -15 -36 -28 -51 -28c-90 0 -178 56 -178 197v498c0 11 -12 24 -12 24c73 -45 83 -74 83 -112v-389c0 -150 110 -181 175 -157c6 16 8 35 8 55v577c0 12 -12 24 -12 24z" />
    <glyph glyph-name="V" unicode="V" horiz-adv-x="452" 
d="M334 615c14 53 38 95 108 97c0 0 -25 -21 -33 -60l-115 -555c-33 -130 -106 -105 -106 -105c-20 3 -38 24 -43 55l-71 533c-11 77 -64 68 -64 68s48 63 86 60c27 -2 39 -35 43 -58l71 -544c3 -18 8 -31 13 -40c1 5 3 10 4 15z" />
    <glyph glyph-name="W" unicode="W" horiz-adv-x="684" 
d="M577 605c8 54 28 100 97 108c0 0 -21 -23 -27 -62l-71 -544c-18 -118 -80 -117 -93 -115c-26 -6 -49 17 -56 55l-74 534l-59 -474c-18 -117 -80 -117 -93 -115c-26 -5 -49 17 -56 55l-71 529c-10 79 -64 73 -64 73s47 63 85 59c27 -2 40 -35 43 -57l72 -545
c4 -21 9 -36 14 -46c2 9 3 17 4 25l62 503c6 43 20 80 58 97c10 7 20 11 30 10c2 0 3 0 5 -1c1 1 2 1 4 1l-1 -1c21 -7 31 -36 34 -57l73 -531c3 -20 8 -34 15 -44l3 23z" />
    <glyph glyph-name="Wacute" unicode="&#x1e82;" horiz-adv-x="684" 
d="M327 775c-10 -9 -10 -26 -10 -26c-46 46 -50 67 -31 86l67 66c10 10 14 17 13 32c39 -39 58 -60 30 -88zM577 605c8 54 28 100 97 108c0 0 -21 -23 -27 -62l-71 -544c-18 -118 -80 -117 -93 -115c-26 -6 -49 17 -56 55l-74 534l-59 -474c-18 -117 -80 -117 -93 -115
c-26 -5 -49 17 -56 55l-71 529c-10 79 -64 73 -64 73s47 63 85 59c27 -2 40 -35 43 -57l72 -545c4 -21 9 -36 14 -46c2 9 3 17 4 25l62 503c6 43 20 80 58 97c10 7 20 11 30 10c2 0 3 0 5 -1c1 1 2 1 4 1l-1 -1c21 -7 31 -36 34 -57l73 -531c3 -20 8 -34 15 -44l3 23z" />
    <glyph glyph-name="Wcircumflex" unicode="&#x174;" horiz-adv-x="684" 
d="M287 784c-10 -10 -14 -17 -13 -32c-39 39 -58 60 -31 88l59 58h-1l16 16l15 14c3 3 6 3 8 3c21 13 35 10 47 -2l94 -95c10 -10 17 -14 32 -13c-39 -40 -60 -59 -88 -31l-66 66zM577 605c8 54 28 100 97 108c0 0 -21 -23 -27 -62l-71 -544c-18 -118 -80 -117 -93 -115
c-26 -6 -49 17 -56 55l-74 534l-59 -474c-18 -117 -80 -117 -93 -115c-26 -5 -49 17 -56 55l-71 529c-10 79 -64 73 -64 73s47 63 85 59c27 -2 40 -35 43 -57l72 -545c4 -21 9 -36 14 -46c2 9 3 17 4 25l62 503c6 43 20 80 58 97c10 7 20 11 30 10c2 0 3 0 5 -1c1 1 2 1 4 1
l-1 -1c21 -7 31 -36 34 -57l73 -531c3 -20 8 -34 15 -44l3 23z" />
    <glyph glyph-name="Wdieresis" unicode="&#x1e84;" horiz-adv-x="684" 
d="M239 775l-40 40c-8 8 -25 8 -25 8c35 35 62 54 84 32l38 -38c10 -10 16 -13 31 -12c-28 -28 -60 -58 -88 -30zM414 775l-40 40c-8 8 -25 8 -25 8c35 35 62 54 85 32l37 -38c10 -10 16 -13 31 -12c-28 -28 -60 -58 -88 -30zM577 605c8 54 28 100 97 108
c0 0 -21 -23 -27 -62l-71 -544c-18 -118 -80 -117 -93 -115c-26 -6 -49 17 -56 55l-74 534l-59 -474c-18 -117 -80 -117 -93 -115c-26 -5 -49 17 -56 55l-71 529c-10 79 -64 73 -64 73s47 63 85 59c27 -2 40 -35 43 -57l72 -545c4 -21 9 -36 14 -46c2 9 3 17 4 25l62 503
c6 43 20 80 58 97c10 7 20 11 30 10c2 0 3 0 5 -1c1 1 2 1 4 1l-1 -1c21 -7 31 -36 34 -57l73 -531c3 -20 8 -34 15 -44l3 23z" />
    <glyph glyph-name="Wgrave" unicode="&#x1e80;" horiz-adv-x="684" 
d="M357 775l-70 70c-27 28 -8 49 31 88c-1 -15 2 -22 12 -32l67 -66c19 -19 15 -40 -31 -86c0 0 0 17 -9 26zM577 605c8 54 28 100 97 108c0 0 -21 -23 -27 -62l-71 -544c-18 -118 -80 -117 -93 -115c-26 -6 -49 17 -56 55l-74 534l-59 -474c-18 -117 -80 -117 -93 -115
c-26 -5 -49 17 -56 55l-71 529c-10 79 -64 73 -64 73s47 63 85 59c27 -2 40 -35 43 -57l72 -545c4 -21 9 -36 14 -46c2 9 3 17 4 25l62 503c6 43 20 80 58 97c10 7 20 11 30 10c2 0 3 0 5 -1c1 1 2 1 4 1l-1 -1c21 -7 31 -36 34 -57l73 -531c3 -20 8 -34 15 -44l3 23z" />
    <glyph glyph-name="X" unicode="X" horiz-adv-x="448" 
d="M372 93c20 -49 59 -27 59 -27c-3 -33 -10 -62 -47 -69c-24 -4 -56 14 -68 40l-90 233l-89 -194c-43 -96 -127 -79 -127 -79c26 15 42 48 57 80l125 279l-87 224c-28 72 -73 54 -73 54s32 61 69 67c26 4 45 -24 54 -45l79 -206l78 173c23 49 57 83 126 71
c0 0 -27 -16 -43 -53l-127 -278z" />
    <glyph glyph-name="Y" unicode="Y" horiz-adv-x="428" 
d="M302 622c20 48 49 84 116 76c0 0 -25 -17 -39 -53l-108 -271c-6 -16 -14 -28 -21 -36v-240c0 -41 -9 -70 -82 -118c0 0 12 14 12 30v239c0 15 1 27 4 38l-108 298c-22 66 -66 50 -66 50s36 60 73 63c25 3 40 -28 50 -54l85 -238c0 2 1 4 2 6z" />
    <glyph glyph-name="Yacute" unicode="&#xdd;" horiz-adv-x="428" 
d="M199 775c-10 -9 -10 -26 -10 -26c-46 46 -50 67 -31 86l67 66c10 10 14 17 13 32c39 -39 58 -60 30 -88zM302 622c20 48 49 84 116 76c0 0 -25 -17 -39 -53l-108 -271c-6 -16 -14 -28 -21 -36v-240c0 -41 -9 -70 -82 -118c0 0 12 14 12 30v239c0 15 1 27 4 38l-108 298
c-22 66 -66 50 -66 50s36 60 73 63c25 3 40 -28 50 -54l85 -238c0 2 1 4 2 6z" />
    <glyph glyph-name="Ycircumflex" unicode="&#x176;" horiz-adv-x="428" 
d="M159 784c-10 -10 -14 -17 -13 -32c-39 39 -58 60 -31 88l59 58h-1l16 16l15 14c3 3 6 3 8 3c21 13 35 10 47 -2l94 -95c10 -10 17 -14 32 -13c-39 -40 -60 -59 -88 -31l-66 66zM302 622c20 48 49 84 116 76c0 0 -25 -17 -39 -53l-108 -271c-6 -16 -14 -28 -21 -36v-240
c0 -41 -9 -70 -82 -118c0 0 12 14 12 30v239c0 15 1 27 4 38l-108 298c-22 66 -66 50 -66 50s36 60 73 63c25 3 40 -28 50 -54l85 -238c0 2 1 4 2 6z" />
    <glyph glyph-name="Ydieresis" unicode="&#x178;" horiz-adv-x="428" 
d="M111 775l-40 40c-8 8 -25 8 -25 8c35 35 62 54 84 32l38 -38c10 -10 16 -13 31 -12c-28 -28 -60 -58 -88 -30zM286 775l-40 40c-8 8 -25 8 -25 8c35 35 62 54 85 32l37 -38c10 -10 16 -13 31 -12c-28 -28 -60 -58 -88 -30zM302 622c20 48 49 84 116 76
c0 0 -25 -17 -39 -53l-108 -271c-6 -16 -14 -28 -21 -36v-240c0 -41 -9 -70 -82 -118c0 0 12 14 12 30v239c0 15 1 27 4 38l-108 298c-22 66 -66 50 -66 50s36 60 73 63c25 3 40 -28 50 -54l85 -238c0 2 1 4 2 6z" />
    <glyph glyph-name="Ygrave" unicode="&#x1ef2;" horiz-adv-x="428" 
d="M229 775l-70 70c-27 28 -8 49 31 88c-1 -15 2 -22 12 -32l67 -66c19 -19 15 -40 -31 -86c0 0 0 17 -9 26zM302 622c20 48 49 84 116 76c0 0 -25 -17 -39 -53l-108 -271c-6 -16 -14 -28 -21 -36v-240c0 -41 -9 -70 -82 -118c0 0 12 14 12 30v239c0 15 1 27 4 38l-108 298
c-22 66 -66 50 -66 50s36 60 73 63c25 3 40 -28 50 -54l85 -238c0 2 1 4 2 6z" />
    <glyph glyph-name="uni0232" unicode="&#x232;" horiz-adv-x="428" 
d="M289 762h-212c-13 0 -27 -12 -27 -12c38 52 55 72 96 72h206c11 0 27 12 27 12c-36 -52 -52 -72 -90 -72zM302 622c20 48 49 84 116 76c0 0 -25 -17 -39 -53l-108 -271c-6 -16 -14 -28 -21 -36v-240c0 -41 -9 -70 -82 -118c0 0 12 14 12 30v239c0 15 1 27 4 38l-108 298
c-22 66 -66 50 -66 50s36 60 73 63c25 3 40 -28 50 -54l85 -238c0 2 1 4 2 6z" />
    <glyph glyph-name="uni1EF8" unicode="&#x1ef8;" horiz-adv-x="428" 
d="M333 778c-14 -2 -27 -2 -41 0c10 -1 19 -1 29 0c29 0 43 18 64 61c-14 -34 -32 -60 -52 -61zM115 814c-12 1 -22 -5 -32 -15c10 11 21 16 38 17c57 6 114 -29 171 -38c-59 7 -118 45 -177 36zM83 799c-9 -10 -17 -24 -27 -44c8 17 17 33 27 44zM302 622
c20 48 49 84 116 76c0 0 -25 -17 -39 -53l-108 -271c-6 -16 -14 -28 -21 -36v-240c0 -41 -9 -70 -82 -118c0 0 12 14 12 30v239c0 15 1 27 4 38l-108 298c-22 66 -66 50 -66 50s36 60 73 63c25 3 40 -28 50 -54l85 -238c0 2 1 4 2 6z" />
    <glyph glyph-name="Z" unicode="Z" horiz-adv-x="456" 
d="M446 710c0 0 -8 -6 -15 -13l-7 -10c-1 0 -1 -1 -1 -1l-277 -595c-4 -8 -7 -15 -12 -22h241c15 0 29 12 29 12c-42 -58 -68 -84 -113 -84h-245l-36 -19s8 6 14 13l9 12l277 594c5 11 11 22 19 32h-241c-23 0 -40 -13 -40 -13c43 61 68 84 113 84h250c14 0 31 12 31 12
l-5 -6c3 1 6 3 9 4z" />
    <glyph glyph-name="Zacute" unicode="&#x179;" horiz-adv-x="456" 
d="M213 775c-10 -9 -10 -26 -10 -26c-46 46 -50 67 -31 86l67 66c10 10 14 17 13 32c39 -39 58 -60 30 -88zM446 710c0 0 -8 -6 -15 -13l-7 -10c-1 0 -1 -1 -1 -1l-277 -595c-4 -8 -7 -15 -12 -22h241c15 0 29 12 29 12c-42 -58 -68 -84 -113 -84h-245l-36 -19s8 6 14 13
l9 12l277 594c5 11 11 22 19 32h-241c-23 0 -40 -13 -40 -13c43 61 68 84 113 84h250c14 0 31 12 31 12l-5 -6c3 1 6 3 9 4z" />
    <glyph glyph-name="Zcaron" unicode="&#x17d;" horiz-adv-x="456" 
d="M218 764l-89 88c-27 28 -8 49 31 88c-1 -15 3 -22 13 -32l73 -72l65 66c28 28 49 9 88 -30c-15 0 -22 -3 -32 -13l-94 -95c-13 -13 -26 -16 -47 -3c-3 0 -6 1 -8 3zM446 710c0 0 -8 -6 -15 -13l-7 -10c-1 0 -1 -1 -1 -1l-277 -595c-4 -8 -7 -15 -12 -22h241
c15 0 29 12 29 12c-42 -58 -68 -84 -113 -84h-245l-36 -19s8 6 14 13l9 12l277 594c5 11 11 22 19 32h-241c-23 0 -40 -13 -40 -13c43 61 68 84 113 84h250c14 0 31 12 31 12l-5 -6c3 1 6 3 9 4z" />
    <glyph glyph-name="Zdotaccent" unicode="&#x17b;" horiz-adv-x="456" 
d="M173 811c-7 8 -24 8 -24 8c35 35 62 53 84 32l37 -38c11 -10 16 -13 31 -12c-28 -28 -60 -58 -87 -30zM446 710c0 0 -8 -6 -15 -13l-7 -10c-1 0 -1 -1 -1 -1l-277 -595c-4 -8 -7 -15 -12 -22h241c15 0 29 12 29 12c-42 -58 -68 -84 -113 -84h-245l-36 -19s8 6 14 13l9 12
l277 594c5 11 11 22 19 32h-241c-23 0 -40 -13 -40 -13c43 61 68 84 113 84h250c14 0 31 12 31 12l-5 -6c3 1 6 3 9 4z" />
    <glyph glyph-name="uni1E92" unicode="&#x1e92;" horiz-adv-x="456" 
d="M446 710c0 0 -8 -6 -15 -13l-7 -10c-1 0 -1 -1 -1 -1l-277 -595c-4 -8 -7 -15 -12 -22h241c15 0 29 12 29 12c-42 -58 -68 -84 -113 -84h-245l-36 -19s8 6 14 13l9 12l277 594c5 11 11 22 19 32h-241c-23 0 -40 -13 -40 -13c43 61 68 84 113 84h250c14 0 31 12 31 12
l-5 -6c3 1 6 3 9 4zM269 -60l37 -38c11 -10 16 -12 31 -12c-28 -28 -60 -57 -87 -30l-41 40c-7 9 -24 9 -24 9c35 34 62 53 84 31z" />
    <glyph glyph-name="a" unicode="a" 
d="M372 6c0 -11 12 -24 12 -24c-75 50 -84 81 -84 125v211c-16 -17 -29 -20 -51 -20h-135v-188c0 -80 -63 -103 -104 -129c24 22 32 55 32 94v456c0 33 7 64 55 104c16 20 63 73 93 73c92 0 182 -57 182 -199v-503zM166 370h134v117c0 154 -117 185 -182 158
c-2 -4 -4 -9 -4 -13v-284c17 18 29 22 52 22z" />
    <glyph glyph-name="aacute" unicode="&#xe1;" 
d="M181 775c-10 -9 -10 -26 -10 -26c-46 46 -50 67 -31 86l67 66c10 10 14 17 13 32c39 -39 58 -60 30 -88zM372 6c0 -11 12 -24 12 -24c-75 50 -84 81 -84 125v211c-16 -17 -29 -20 -51 -20h-135v-188c0 -80 -63 -103 -104 -129c24 22 32 55 32 94v456c0 33 7 64 55 104
c16 20 63 73 93 73c92 0 182 -57 182 -199v-503zM166 370h134v117c0 154 -117 185 -182 158c-2 -4 -4 -9 -4 -13v-284c17 18 29 22 52 22z" />
    <glyph glyph-name="abreve" unicode="&#x103;" 
d="M285 801c-56 -56 -118 -55 -165 -7c-12 13 -20 55 -24 77c14 -45 97 -93 158 -32l56 56c5 5 5 18 5 18c12 -58 -11 -94 -30 -112zM96 871c-1 4 -2 8 -2 12zM372 6c0 -11 12 -24 12 -24c-75 50 -84 81 -84 125v211c-16 -17 -29 -20 -51 -20h-135v-188
c0 -80 -63 -103 -104 -129c24 22 32 55 32 94v456c0 33 7 64 55 104c16 20 63 73 93 73c92 0 182 -57 182 -199v-503zM166 370h134v117c0 154 -117 185 -182 158c-2 -4 -4 -9 -4 -13v-284c17 18 29 22 52 22z" />
    <glyph glyph-name="uni01CE" unicode="&#x1ce;" 
d="M186 764l-89 88c-27 28 -8 49 31 88c-1 -15 3 -22 13 -32l73 -72l65 66c28 28 49 9 88 -30c-15 0 -22 -3 -32 -13l-94 -95c-13 -13 -26 -16 -47 -3c-3 0 -6 1 -8 3zM372 6c0 -11 12 -24 12 -24c-75 50 -84 81 -84 125v211c-16 -17 -29 -20 -51 -20h-135v-188
c0 -80 -63 -103 -104 -129c24 22 32 55 32 94v456c0 33 7 64 55 104c16 20 63 73 93 73c92 0 182 -57 182 -199v-503zM166 370h134v117c0 154 -117 185 -182 158c-2 -4 -4 -9 -4 -13v-284c17 18 29 22 52 22z" />
    <glyph glyph-name="acircumflex" unicode="&#xe2;" 
d="M141 784c-10 -10 -14 -17 -13 -32c-39 39 -58 60 -31 88l59 58h-1l16 16l15 14c3 3 6 3 8 3c21 13 35 10 47 -2l94 -95c10 -10 17 -14 32 -13c-39 -40 -60 -59 -88 -31l-66 66zM372 6c0 -11 12 -24 12 -24c-75 50 -84 81 -84 125v211c-16 -17 -29 -20 -51 -20h-135v-188
c0 -80 -63 -103 -104 -129c24 22 32 55 32 94v456c0 33 7 64 55 104c16 20 63 73 93 73c92 0 182 -57 182 -199v-503zM166 370h134v117c0 154 -117 185 -182 158c-2 -4 -4 -9 -4 -13v-284c17 18 29 22 52 22z" />
    <glyph glyph-name="adieresis" unicode="&#xe4;" 
d="M93 775l-40 40c-8 8 -25 8 -25 8c35 35 62 54 84 32l38 -38c10 -10 16 -13 31 -12c-28 -28 -60 -58 -88 -30zM268 775l-40 40c-8 8 -25 8 -25 8c35 35 62 54 85 32l37 -38c10 -10 16 -13 31 -12c-28 -28 -60 -58 -88 -30zM372 6c0 -11 12 -24 12 -24
c-75 50 -84 81 -84 125v211c-16 -17 -29 -20 -51 -20h-135v-188c0 -80 -63 -103 -104 -129c24 22 32 55 32 94v456c0 33 7 64 55 104c16 20 63 73 93 73c92 0 182 -57 182 -199v-503zM166 370h134v117c0 154 -117 185 -182 158c-2 -4 -4 -9 -4 -13v-284c17 18 29 22 52 22z
" />
    <glyph glyph-name="uni1EA1" unicode="&#x1ea1;" 
d="M300 318c-16 -17 -29 -20 -51 -20h-135v-188c0 -80 -63 -103 -104 -129c24 22 32 55 32 94v456c0 33 7 64 55 104c16 20 63 73 93 73c92 0 182 -57 182 -199v-503c0 -11 12 -24 12 -24c-75 50 -84 81 -84 125v211zM114 348c17 18 29 22 52 22h134v117
c0 154 -117 185 -182 158c-2 -4 -4 -9 -4 -13v-284zM374 -98c11 -10 16 -12 31 -12c-28 -28 -60 -57 -87 -30l-41 40c-7 9 -24 9 -24 9c35 34 62 53 84 31z" />
    <glyph glyph-name="agrave" unicode="&#xe0;" 
d="M212 775l-70 70c-27 28 -8 49 31 88c-1 -15 2 -22 12 -32l67 -66c19 -19 15 -40 -31 -86c0 0 0 17 -9 26zM372 6c0 -11 12 -24 12 -24c-75 50 -84 81 -84 125v211c-16 -17 -29 -20 -51 -20h-135v-188c0 -80 -63 -103 -104 -129c24 22 32 55 32 94v456c0 33 7 64 55 104
c16 20 63 73 93 73c92 0 182 -57 182 -199v-503zM166 370h134v117c0 154 -117 185 -182 158c-2 -4 -4 -9 -4 -13v-284c17 18 29 22 52 22z" />
    <glyph glyph-name="amacron" unicode="&#x101;" 
d="M271 762h-212c-13 0 -27 -12 -27 -12c38 52 55 72 96 72h206c11 0 27 12 27 12c-36 -52 -52 -72 -90 -72zM372 6c0 -11 12 -24 12 -24c-75 50 -84 81 -84 125v211c-16 -17 -29 -20 -51 -20h-135v-188c0 -80 -63 -103 -104 -129c24 22 32 55 32 94v456c0 33 7 64 55 104
c16 20 63 73 93 73c92 0 182 -57 182 -199v-503zM166 370h134v117c0 154 -117 185 -182 158c-2 -4 -4 -9 -4 -13v-284c17 18 29 22 52 22z" />
    <glyph glyph-name="aogonek" unicode="&#x105;" 
d="M328 -67c0 -99 84 -120 121 -98c-15 -12 -49 -35 -65 -35c-63 0 -99 40 -99 128c0 23 6 62 50 92c-30 30 -35 55 -35 87v211c-16 -17 -29 -20 -51 -20h-135v-188c0 -80 -63 -103 -104 -129c24 22 32 55 32 94v456c0 33 7 64 55 104c16 20 63 73 93 73
c92 0 182 -57 182 -199v-503c0 -11 12 -24 12 -24c-21 14 -37 27 -49 38c-2 -2 -7 -8 -7 -14v-73zM166 370h134v117c0 154 -117 185 -182 158c-2 -4 -4 -9 -4 -13v-284c17 18 29 22 52 22zM449 -165c6 3 9 6 9 6c-2 -2 -5 -5 -9 -6z" />
    <glyph glyph-name="aring" unicode="&#xe5;" 
d="M206 753c-63 0 -99 40 -99 129c0 23 6 63 50 91c15 12 34 24 46 24c56 0 100 -34 100 -120v-32c0 -20 -5 -36 -33 -58c0 0 1 0 1 1c-15 -12 -49 -35 -65 -35zM259 864c0 92 -69 117 -107 102c-1 -2 -2 -4 -2 -6v-74c0 -88 66 -115 108 -104c0 2 1 4 1 6v76zM140 960
l-4 -4zM271 788c6 3 9 6 9 6c-2 -2 -5 -5 -9 -6zM372 6c0 -11 12 -24 12 -24c-75 50 -84 81 -84 125v211c-16 -17 -29 -20 -51 -20h-135v-188c0 -80 -63 -103 -104 -129c24 22 32 55 32 94v456c0 33 7 64 55 104c16 20 63 73 93 73c92 0 182 -57 182 -199v-503zM166 370h134
v117c0 154 -117 185 -182 158c-2 -4 -4 -9 -4 -13v-284c17 18 29 22 52 22z" />
    <glyph glyph-name="aringacute" unicode="&#x1fb;" 
d="M211 1070c-10 -9 -10 -26 -10 -26c-46 46 -50 67 -31 86l67 66c10 10 14 17 13 32c39 -39 58 -60 30 -88zM206 753c-63 0 -99 40 -99 129c0 23 6 63 50 91c15 12 34 24 46 24c56 0 100 -34 100 -120v-32c0 -20 -5 -36 -33 -58c0 0 1 0 1 1c-15 -12 -49 -35 -65 -35z
M259 864c0 92 -69 117 -107 102c-1 -2 -2 -4 -2 -6v-74c0 -88 66 -115 108 -104c0 2 1 4 1 6v76zM140 960l-4 -4zM271 788c6 3 9 6 9 6c-2 -2 -5 -5 -9 -6zM372 6c0 -11 12 -24 12 -24c-75 50 -84 81 -84 125v211c-16 -17 -29 -20 -51 -20h-135v-188
c0 -80 -63 -103 -104 -129c24 22 32 55 32 94v456c0 33 7 64 55 104c16 20 63 73 93 73c92 0 182 -57 182 -199v-503zM166 370h134v117c0 154 -117 185 -182 158c-2 -4 -4 -9 -4 -13v-284c17 18 29 22 52 22z" />
    <glyph glyph-name="atilde" unicode="&#xe3;" 
d="M316 778c-14 -2 -27 -2 -41 0c10 -1 19 -1 29 0c29 0 43 18 64 61c-14 -34 -32 -60 -52 -61zM98 814c-12 1 -22 -5 -32 -15c10 11 21 16 38 17c57 6 114 -29 171 -38c-59 7 -118 45 -177 36zM66 799c-9 -10 -17 -24 -27 -44c8 17 17 33 27 44zM372 6c0 -11 12 -24 12 -24
c-75 50 -84 81 -84 125v211c-16 -17 -29 -20 -51 -20h-135v-188c0 -80 -63 -103 -104 -129c24 22 32 55 32 94v456c0 33 7 64 55 104c16 20 63 73 93 73c92 0 182 -57 182 -199v-503zM166 370h134v117c0 154 -117 185 -182 158c-2 -4 -4 -9 -4 -13v-284c17 18 29 22 52 22z
" />
    <glyph glyph-name="ae" unicode="&#xe6;" horiz-adv-x="655" 
d="M386 68h230c11 0 24 11 24 11c-49 -72 -67 -80 -112 -80h-223c-14 -10 -29 -19 -41 -27c23 21 31 54 31 92v242c-15 -15 -28 -18 -49 -18h-134v-186c0 -78 -61 -101 -102 -127c23 22 32 54 32 92v451c0 32 6 63 52 100c15 18 63 74 93 74c49 0 97 -16 131 -54
c37 51 60 59 93 59h210c12 0 24 12 24 12c-49 -74 -72 -83 -109 -83h-170v-226c15 11 29 13 48 13h133c11 0 24 12 24 12c-49 -74 -80 -83 -117 -83h-88v-226c0 -6 0 -13 -1 -18v-31c7 1 13 1 21 1zM164 359h131v115c0 152 -115 182 -179 156c-2 -4 -4 -9 -4 -14v-279
c17 18 29 22 52 22z" />
    <glyph glyph-name="aeacute" unicode="&#x1fd;" horiz-adv-x="655" 
d="M312 775c-10 -9 -10 -26 -10 -26c-46 46 -50 67 -31 86l67 66c10 10 14 17 13 32c39 -39 58 -60 30 -88zM386 68h230c11 0 24 11 24 11c-49 -72 -67 -80 -112 -80h-223c-14 -10 -29 -19 -41 -27c23 21 31 54 31 92v242c-15 -15 -28 -18 -49 -18h-134v-186
c0 -78 -61 -101 -102 -127c23 22 32 54 32 92v451c0 32 6 63 52 100c15 18 63 74 93 74c49 0 97 -16 131 -54c37 51 60 59 93 59h210c12 0 24 12 24 12c-49 -74 -72 -83 -109 -83h-170v-226c15 11 29 13 48 13h133c11 0 24 12 24 12c-49 -74 -80 -83 -117 -83h-88v-226
c0 -6 0 -13 -1 -18v-31c7 1 13 1 21 1zM164 359h131v115c0 152 -115 182 -179 156c-2 -4 -4 -9 -4 -14v-279c17 18 29 22 52 22z" />
    <glyph glyph-name="b" unicode="b" horiz-adv-x="403" 
d="M393 234c0 -118 -108 -182 -146 -201c-18 -17 -36 -25 -60 -25h-138c-10 -10 -23 -19 -39 -28c0 0 12 12 12 24v547c0 38 23 91 82 121l-1 -1l33 29h138c33 0 103 -14 103 -93c0 -65 -58 -145 -160 -213c69 5 176 -40 176 -160zM209 638c0 0 -69 1 -117 -2v-279
c128 73 216 154 216 215c0 56 -36 66 -99 66zM263 73c33 23 60 55 60 96c0 167 -134 177 -220 163c-3 -1 -7 -3 -11 -5v-230c0 -11 -2 -22 -5 -33c12 7 24 9 40 9h136z" />
    <glyph glyph-name="uni1E05" unicode="&#x1e05;" horiz-adv-x="403" 
d="M393 234c0 -118 -108 -182 -146 -201c-18 -17 -36 -25 -60 -25h-138c-10 -10 -23 -19 -39 -28c0 0 12 12 12 24v547c0 38 23 91 82 121l-1 -1l33 29h138c33 0 103 -14 103 -93c0 -65 -58 -145 -160 -213c69 5 176 -40 176 -160zM209 638c0 0 -69 1 -117 -2v-279
c128 73 216 154 216 215c0 56 -36 66 -99 66zM263 73c33 23 60 55 60 96c0 167 -134 177 -220 163c-3 -1 -7 -3 -11 -5v-230c0 -11 -2 -22 -5 -33c12 7 24 9 40 9h136zM94 -60l37 -38c11 -10 16 -12 31 -12c-28 -28 -60 -57 -87 -30l-41 40c-7 9 -24 9 -24 9
c35 34 62 53 84 31z" />
    <glyph glyph-name="c" unicode="c" horiz-adv-x="352" 
d="M82 205c0 -166 202 -183 253 -132c0 0 -57 -81 -103 -81c-128 0 -221 56 -221 198v387c0 36 8 56 70 99c17 17 31 24 53 24h173c18 0 33 12 33 12c-45 -64 -59 -84 -97 -84h-161v-423z" />
    <glyph glyph-name="cacute" unicode="&#x107;" horiz-adv-x="352" 
d="M160 775c-10 -9 -10 -26 -10 -26c-46 46 -50 67 -31 86l67 66c10 10 14 17 13 32c39 -39 58 -60 30 -88zM82 205c0 -166 202 -183 253 -132c0 0 -57 -81 -103 -81c-128 0 -221 56 -221 198v387c0 36 8 56 70 99c17 17 31 24 53 24h173c18 0 33 12 33 12
c-45 -64 -59 -84 -97 -84h-161v-423z" />
    <glyph glyph-name="ccaron" unicode="&#x10d;" horiz-adv-x="352" 
d="M165 764l-89 88c-27 28 -8 49 31 88c-1 -15 3 -22 13 -32l73 -72l65 66c28 28 49 9 88 -30c-15 0 -22 -3 -32 -13l-94 -95c-13 -13 -26 -16 -47 -3c-3 0 -6 1 -8 3zM243 628h-161v-423c0 -166 202 -183 253 -132c0 0 -57 -81 -103 -81c-128 0 -221 56 -221 198v387
c0 36 8 56 70 99c17 17 31 24 53 24h173c18 0 33 12 33 12c-45 -64 -59 -84 -97 -84z" />
    <glyph glyph-name="ccedilla" unicode="&#xe7;" horiz-adv-x="352" 
d="M82 205c0 -166 202 -183 253 -132c0 0 -57 -81 -103 -81c-128 0 -221 56 -221 198v387c0 36 8 56 70 99c17 17 31 24 53 24h173c18 0 33 12 33 12c-45 -64 -59 -84 -97 -84h-161v-423zM251 -27c4 -3 8 -6 11 -10c29 -30 32 -64 32 -85c0 -79 -41 -118 -108 -118
c-18 0 -55 25 -72 37c41 -22 134 2 134 89v31h-43c-42 0 -54 19 -89 77c0 0 16 -13 33 -13h61c15 0 25 -1 34 -5c-2 3 -4 5 -4 5c4 -3 8 -5 11 -8zM114 -203c-3 2 -6 4 -9 7z" />
    <glyph glyph-name="ccircumflex" unicode="&#x109;" horiz-adv-x="352" 
d="M120 784c-10 -10 -14 -17 -13 -32c-39 39 -58 60 -31 88l59 58h-1l16 16l15 14c3 3 6 3 8 3c21 13 35 10 47 -2l94 -95c10 -10 17 -14 32 -13c-39 -40 -60 -59 -88 -31l-66 66zM243 628h-161v-423c0 -166 202 -183 253 -132c0 0 -57 -81 -103 -81
c-128 0 -221 56 -221 198v387c0 36 8 56 70 99c17 17 31 24 53 24h173c18 0 33 12 33 12c-45 -64 -59 -84 -97 -84z" />
    <glyph glyph-name="cdotaccent" unicode="&#x10b;" horiz-adv-x="352" 
d="M120 811c-7 8 -24 8 -24 8c35 35 62 53 84 32l37 -38c11 -10 16 -13 31 -12c-28 -28 -60 -58 -87 -30zM82 205c0 -166 202 -183 253 -132c0 0 -57 -81 -103 -81c-128 0 -221 56 -221 198v387c0 36 8 56 70 99c17 17 31 24 53 24h173c18 0 33 12 33 12
c-45 -64 -59 -84 -97 -84h-161v-423z" />
    <glyph glyph-name="d" unicode="d" horiz-adv-x="397" 
d="M387 518v-336v-8c0 -123 -85 -174 -196 -174h-10h-134c-13 -9 -26 -16 -37 -23c23 21 31 54 31 93v512c0 13 1 25 6 37c-10 -2 -16 -4 -19 -7c0 0 61 88 98 88c10 0 113 -1 124 -2c78 -12 137 -82 137 -180zM229 72c21 0 87 16 87 95v309c0 123 -56 149 -100 149
c-13 0 -60 1 -103 -1v-507c0 -18 -3 -34 -7 -47c7 1 16 2 25 2h98z" />
    <glyph glyph-name="eth" unicode="&#xf0;" horiz-adv-x="549" 
d="M499 518v-336v-8c0 -123 -85 -174 -195 -174v1c-3 -1 -7 -1 -11 -1h-134c-13 -9 -26 -16 -37 -23c24 21 32 54 32 93v258h-81c-11 0 -23 -11 -23 -11c36 47 53 61 91 61h13v204c0 13 1 25 6 37c-10 -2 -17 -4 -20 -7c0 0 62 88 98 88c11 0 113 -1 124 -2
c78 -12 137 -82 137 -180zM341 72c22 0 87 16 87 95v309c0 123 -55 149 -100 149c-13 0 -59 1 -102 -1v-246h86c12 0 24 11 24 11c-34 -49 -54 -61 -91 -61h-19v-211c0 -18 -3 -34 -7 -47c7 2 15 2 24 2h98z" />
    <glyph glyph-name="dcaron" unicode="&#x10f;" horiz-adv-x="397" 
d="M188 764l-89 88c-27 28 -8 49 31 88c-1 -15 3 -22 13 -32l73 -72l65 66c28 28 49 9 88 -30c-15 0 -22 -3 -32 -13l-94 -95c-13 -13 -26 -16 -47 -3c-3 0 -6 1 -8 3zM387 518v-336v-8c0 -123 -85 -174 -196 -174h-10h-134c-13 -9 -26 -16 -37 -23c23 21 31 54 31 93v512
c0 13 1 25 6 37c-10 -2 -16 -4 -19 -7c0 0 61 88 98 88c10 0 113 -1 124 -2c78 -12 137 -82 137 -180zM229 72c21 0 87 16 87 95v309c0 123 -56 149 -100 149c-13 0 -60 1 -103 -1v-507c0 -18 -3 -34 -7 -47c7 1 16 2 25 2h98z" />
    <glyph glyph-name="dcroat" unicode="&#x111;" horiz-adv-x="549" 
d="M499 518v-336v-8c0 -123 -85 -174 -195 -174v1c-3 -1 -7 -1 -11 -1h-134c-13 -9 -26 -16 -37 -23c24 21 32 54 32 93v258h-81c-11 0 -23 -11 -23 -11c36 47 53 61 91 61h13v204c0 13 1 25 6 37c-10 -2 -17 -4 -20 -7c0 0 62 88 98 88c11 0 113 -1 124 -2
c78 -12 137 -82 137 -180zM341 72c22 0 87 16 87 95v309c0 123 -55 149 -100 149c-13 0 -59 1 -102 -1v-246h86c12 0 24 11 24 11c-34 -49 -54 -61 -91 -61h-19v-211c0 -18 -3 -34 -7 -47c7 2 15 2 24 2h98z" />
    <glyph glyph-name="uni1E0D" unicode="&#x1e0d;" horiz-adv-x="397" 
d="M387 518v-336v-8c0 -123 -85 -174 -196 -174h-10h-134c-13 -9 -26 -16 -37 -23c23 21 31 54 31 93v512c0 13 1 25 6 37c-10 -2 -16 -4 -19 -7c0 0 61 88 98 88c10 0 113 -1 124 -2c78 -12 137 -82 137 -180zM229 72c21 0 87 16 87 95v309c0 123 -56 149 -100 149
c-13 0 -60 1 -103 -1v-507c0 -18 -3 -34 -7 -47c7 1 16 2 25 2h98zM239 -60l37 -38c11 -10 16 -12 31 -12c-28 -28 -60 -57 -87 -30l-41 40c-7 9 -24 9 -24 9c35 34 62 53 84 31z" />
    <glyph glyph-name="e" unicode="e" horiz-adv-x="405" 
d="M133 69h233c11 0 23 11 23 11c-49 -72 -67 -80 -112 -80h-228c-14 -9 -27 -17 -39 -25c25 22 32 54 32 92v495c0 21 3 41 20 62c-8 -3 -15 -10 -15 -10c49 74 73 84 111 84h214c11 0 23 11 23 11c-48 -72 -73 -82 -111 -82h-170v-227c15 10 29 12 48 12h133
c13 0 25 13 25 13c-49 -73 -80 -84 -118 -84h-88v-221c0 -21 -4 -39 -10 -54c9 2 19 3 29 3z" />
    <glyph glyph-name="eacute" unicode="&#xe9;" horiz-adv-x="405" 
d="M187 775c-10 -9 -10 -26 -10 -26c-46 46 -50 67 -31 86l67 66c10 10 14 17 13 32c39 -39 58 -60 30 -88zM133 69h233c11 0 23 11 23 11c-49 -72 -67 -80 -112 -80h-228c-14 -9 -27 -17 -39 -25c25 22 32 54 32 92v495c0 21 3 41 20 62c-8 -3 -15 -10 -15 -10
c49 74 73 84 111 84h214c11 0 23 11 23 11c-48 -72 -73 -82 -111 -82h-170v-227c15 10 29 12 48 12h133c13 0 25 13 25 13c-49 -73 -80 -84 -118 -84h-88v-221c0 -21 -4 -39 -10 -54c9 2 19 3 29 3z" />
    <glyph glyph-name="ebreve" unicode="&#x115;" horiz-adv-x="405" 
d="M291 801c-56 -56 -118 -55 -165 -7c-12 13 -20 55 -24 77c14 -45 97 -93 158 -32l56 56c5 5 5 18 5 18c12 -58 -11 -94 -30 -112zM102 871c-1 4 -2 8 -2 12zM133 69h233c11 0 23 11 23 11c-49 -72 -67 -80 -112 -80h-228c-14 -9 -27 -17 -39 -25c25 22 32 54 32 92v495
c0 21 3 41 20 62c-8 -3 -15 -10 -15 -10c49 74 73 84 111 84h214c11 0 23 11 23 11c-48 -72 -73 -82 -111 -82h-170v-227c15 10 29 12 48 12h133c13 0 25 13 25 13c-49 -73 -80 -84 -118 -84h-88v-221c0 -21 -4 -39 -10 -54c9 2 19 3 29 3z" />
    <glyph glyph-name="ecaron" unicode="&#x11b;" horiz-adv-x="405" 
d="M192 764l-89 88c-27 28 -8 49 31 88c-1 -15 3 -22 13 -32l73 -72l65 66c28 28 49 9 88 -30c-15 0 -22 -3 -32 -13l-94 -95c-13 -13 -26 -16 -47 -3c-3 0 -6 1 -8 3zM133 69h233c11 0 23 11 23 11c-49 -72 -67 -80 -112 -80h-228c-14 -9 -27 -17 -39 -25
c25 22 32 54 32 92v495c0 21 3 41 20 62c-8 -3 -15 -10 -15 -10c49 74 73 84 111 84h214c11 0 23 11 23 11c-48 -72 -73 -82 -111 -82h-170v-227c15 10 29 12 48 12h133c13 0 25 13 25 13c-49 -73 -80 -84 -118 -84h-88v-221c0 -21 -4 -39 -10 -54c9 2 19 3 29 3z" />
    <glyph glyph-name="uni0229" unicode="&#x229;" horiz-adv-x="405" 
d="M133 69h233c11 0 23 11 23 11c-49 -72 -67 -80 -112 -80h-228c-14 -9 -27 -17 -39 -25c25 22 32 54 32 92v495c0 21 3 41 20 62c-8 -3 -15 -10 -15 -10c49 74 73 84 111 84h214c11 0 23 11 23 11c-48 -72 -73 -82 -111 -82h-170v-227c15 10 29 12 48 12h133
c13 0 25 13 25 13c-49 -73 -80 -84 -118 -84h-88v-221c0 -21 -4 -39 -10 -54c9 2 19 3 29 3zM278 -27c4 -3 8 -6 11 -10c29 -30 32 -64 32 -85c0 -79 -41 -118 -108 -118c-18 0 -55 25 -72 37c41 -22 134 2 134 89v31h-43c-42 0 -54 19 -89 77c0 0 16 -13 33 -13h61
c15 0 25 -1 34 -5c-2 3 -4 5 -4 5c4 -3 8 -5 11 -8zM141 -203c-3 2 -6 4 -9 7z" />
    <glyph glyph-name="ecircumflex" unicode="&#xea;" horiz-adv-x="405" 
d="M147 784c-10 -10 -14 -17 -13 -32c-39 39 -58 60 -31 88l59 58h-1l16 16l15 14c3 3 6 3 8 3c21 13 35 10 47 -2l94 -95c10 -10 17 -14 32 -13c-39 -40 -60 -59 -88 -31l-66 66zM133 69h233c11 0 23 11 23 11c-49 -72 -67 -80 -112 -80h-228c-14 -9 -27 -17 -39 -25
c25 22 32 54 32 92v495c0 21 3 41 20 62c-8 -3 -15 -10 -15 -10c49 74 73 84 111 84h214c11 0 23 11 23 11c-48 -72 -73 -82 -111 -82h-170v-227c15 10 29 12 48 12h133c13 0 25 13 25 13c-49 -73 -80 -84 -118 -84h-88v-221c0 -21 -4 -39 -10 -54c9 2 19 3 29 3z" />
    <glyph glyph-name="edieresis" unicode="&#xeb;" horiz-adv-x="405" 
d="M99 775l-40 40c-8 8 -25 8 -25 8c35 35 62 54 84 32l38 -38c10 -10 16 -13 31 -12c-28 -28 -60 -58 -88 -30zM274 775l-40 40c-8 8 -25 8 -25 8c35 35 62 54 85 32l37 -38c10 -10 16 -13 31 -12c-28 -28 -60 -58 -88 -30zM133 69h233c11 0 23 11 23 11
c-49 -72 -67 -80 -112 -80h-228c-14 -9 -27 -17 -39 -25c25 22 32 54 32 92v495c0 21 3 41 20 62c-8 -3 -15 -10 -15 -10c49 74 73 84 111 84h214c11 0 23 11 23 11c-48 -72 -73 -82 -111 -82h-170v-227c15 10 29 12 48 12h133c13 0 25 13 25 13c-49 -73 -80 -84 -118 -84
h-88v-221c0 -21 -4 -39 -10 -54c9 2 19 3 29 3z" />
    <glyph glyph-name="edotaccent" unicode="&#x117;" horiz-adv-x="405" 
d="M147 811c-7 8 -24 8 -24 8c35 35 62 53 84 32l37 -38c11 -10 16 -13 31 -12c-28 -28 -60 -58 -87 -30zM133 69h233c11 0 23 11 23 11c-49 -72 -67 -80 -112 -80h-228c-14 -9 -27 -17 -39 -25c25 22 32 54 32 92v495c0 21 3 41 20 62c-8 -3 -15 -10 -15 -10
c49 74 73 84 111 84h214c11 0 23 11 23 11c-48 -72 -73 -82 -111 -82h-170v-227c15 10 29 12 48 12h133c13 0 25 13 25 13c-49 -73 -80 -84 -118 -84h-88v-221c0 -21 -4 -39 -10 -54c9 2 19 3 29 3z" />
    <glyph glyph-name="uni1EB9" unicode="&#x1eb9;" horiz-adv-x="405" 
d="M133 69h233c11 0 23 11 23 11c-49 -72 -67 -80 -112 -80h-228c-14 -9 -27 -17 -39 -25c25 22 32 54 32 92v495c0 21 3 41 20 62c-8 -3 -15 -10 -15 -10c49 74 73 84 111 84h214c11 0 23 11 23 11c-48 -72 -73 -82 -111 -82h-170v-227c15 10 29 12 48 12h133
c13 0 25 13 25 13c-49 -73 -80 -84 -118 -84h-88v-221c0 -21 -4 -39 -10 -54c9 2 19 3 29 3zM243 -60l37 -38c11 -10 16 -12 31 -12c-28 -28 -60 -57 -87 -30l-41 40c-7 9 -24 9 -24 9c35 34 62 53 84 31z" />
    <glyph glyph-name="egrave" unicode="&#xe8;" horiz-adv-x="405" 
d="M217 775l-70 70c-27 28 -8 49 31 88c-1 -15 2 -22 12 -32l67 -66c19 -19 15 -40 -31 -86c0 0 0 17 -9 26zM133 69h233c11 0 23 11 23 11c-49 -72 -67 -80 -112 -80h-228c-14 -9 -27 -17 -39 -25c25 22 32 54 32 92v495c0 21 3 41 20 62c-8 -3 -15 -10 -15 -10
c49 74 73 84 111 84h214c11 0 23 11 23 11c-48 -72 -73 -82 -111 -82h-170v-227c15 10 29 12 48 12h133c13 0 25 13 25 13c-49 -73 -80 -84 -118 -84h-88v-221c0 -21 -4 -39 -10 -54c9 2 19 3 29 3z" />
    <glyph glyph-name="emacron" unicode="&#x113;" horiz-adv-x="405" 
d="M277 762h-212c-13 0 -27 -12 -27 -12c38 52 55 72 96 72h206c11 0 27 12 27 12c-36 -52 -52 -72 -90 -72zM133 69h233c11 0 23 11 23 11c-49 -72 -67 -80 -112 -80h-228c-14 -9 -27 -17 -39 -25c25 22 32 54 32 92v495c0 21 3 41 20 62c-8 -3 -15 -10 -15 -10
c49 74 73 84 111 84h214c11 0 23 11 23 11c-48 -72 -73 -82 -111 -82h-170v-227c15 10 29 12 48 12h133c13 0 25 13 25 13c-49 -73 -80 -84 -118 -84h-88v-221c0 -21 -4 -39 -10 -54c9 2 19 3 29 3z" />
    <glyph glyph-name="eogonek" unicode="&#x119;" horiz-adv-x="405" 
d="M277 0h-43v-67c0 -99 84 -120 121 -98c-15 -12 -49 -35 -65 -35c-63 0 -99 40 -99 128c0 18 4 46 27 72h-169c-14 -9 -27 -17 -39 -25c25 22 32 54 32 92v495c0 21 3 41 20 62c-8 -3 -15 -10 -15 -10c49 74 73 84 111 84h214c11 0 23 11 23 11c-48 -72 -73 -82 -111 -82
h-170v-227c15 10 29 12 48 12h133c13 0 25 13 25 13c-49 -73 -80 -84 -118 -84h-88v-221c0 -21 -4 -39 -10 -54c9 2 19 3 29 3h233c11 0 23 11 23 11c-49 -72 -67 -80 -112 -80zM355 -165c6 3 9 6 9 6c-2 -2 -5 -5 -9 -6z" />
    <glyph glyph-name="uni1EBD" unicode="&#x1ebd;" horiz-adv-x="405" 
d="M321 778c-14 -2 -27 -2 -41 0c10 -1 19 -1 29 0c29 0 43 18 64 61c-14 -34 -32 -60 -52 -61zM103 814c-12 1 -22 -5 -32 -15c10 11 21 16 38 17c57 6 114 -29 171 -38c-59 7 -118 45 -177 36zM71 799c-9 -10 -17 -24 -27 -44c8 17 17 33 27 44zM133 69h233
c11 0 23 11 23 11c-49 -72 -67 -80 -112 -80h-228c-14 -9 -27 -17 -39 -25c25 22 32 54 32 92v495c0 21 3 41 20 62c-8 -3 -15 -10 -15 -10c49 74 73 84 111 84h214c11 0 23 11 23 11c-48 -72 -73 -82 -111 -82h-170v-227c15 10 29 12 48 12h133c13 0 25 13 25 13
c-49 -73 -80 -84 -118 -84h-88v-221c0 -21 -4 -39 -10 -54c9 2 19 3 29 3z" />
    <glyph glyph-name="uni0259" unicode="&#x259;" horiz-adv-x="359" 
d="M127 713c128 0 222 -56 222 -199v-386c0 -35 -9 -56 -70 -98c-17 -18 -32 -25 -54 -25h-172c-18 0 -34 -12 -34 -12l12 17l-21 -15c0 0 12 16 12 34v222c0 10 1 19 5 27l-8 -5c45 64 59 84 97 84l161 -1v144c0 166 -201 182 -252 131c0 0 57 82 102 82zM116 77l161 -1
v232c-16 -17 -31 -23 -52 -23h-132l1 -193c0 -7 -1 -13 -2 -19c7 3 15 4 24 4z" />
    <glyph glyph-name="f" unicode="f" horiz-adv-x="410" 
d="M290 628h-179v-225c16 11 30 13 49 13h138c11 0 25 12 25 12c-49 -73 -80 -82 -117 -82h-95v-226c0 -86 -61 -118 -101 -144c23 22 31 54 31 92v495c0 21 3 41 19 62c-8 -4 -14 -9 -14 -9c48 68 72 83 111 83h219c12 0 24 12 24 12c-49 -74 -72 -83 -110 -83z" />
    <glyph glyph-name="g" unicode="g" horiz-adv-x="372" 
d="M361 369c-3 -4 -6 -8 -8 -12l3 2s-12 -13 -12 -24v-182c0 -82 -54 -109 -95 -133c-18 -16 -37 -29 -53 -29c-92 0 -185 56 -185 198v388c0 34 7 53 64 93c20 25 33 29 59 29h196c13 0 28 12 28 12c-49 -74 -59 -83 -97 -83h-179v-410c0 -160 115 -194 181 -170
c7 17 10 38 10 60v145c0 13 1 23 5 34c-4 -1 -8 -1 -13 -1h-84c-11 0 -24 -12 -24 -12c49 74 58 83 96 83h84c12 0 24 12 24 12z" />
    <glyph glyph-name="gbreve" unicode="&#x11f;" horiz-adv-x="372" 
d="M274 801c-56 -56 -118 -55 -165 -7c-12 13 -20 55 -24 77c14 -45 97 -93 158 -32l56 56c5 5 5 18 5 18c12 -58 -11 -94 -30 -112zM85 871c-1 4 -2 8 -2 12zM361 369c-3 -4 -6 -8 -8 -12l3 2s-12 -13 -12 -24v-182c0 -82 -54 -109 -95 -133c-18 -16 -37 -29 -53 -29
c-92 0 -185 56 -185 198v388c0 34 7 53 64 93c20 25 33 29 59 29h196c13 0 28 12 28 12c-49 -74 -59 -83 -97 -83h-179v-410c0 -160 115 -194 181 -170c7 17 10 38 10 60v145c0 13 1 23 5 34c-4 -1 -8 -1 -13 -1h-84c-11 0 -24 -12 -24 -12c49 74 58 83 96 83h84
c12 0 24 12 24 12z" />
    <glyph glyph-name="gcaron" unicode="&#x1e7;" horiz-adv-x="372" 
d="M175 764l-89 88c-27 28 -8 49 31 88c-1 -15 3 -22 13 -32l73 -72l65 66c28 28 49 9 88 -30c-15 0 -22 -3 -32 -13l-94 -95c-13 -13 -26 -16 -47 -3c-3 0 -6 1 -8 3zM361 369c-3 -4 -6 -8 -8 -12l3 2s-12 -13 -12 -24v-182c0 -82 -54 -109 -95 -133
c-18 -16 -37 -29 -53 -29c-92 0 -185 56 -185 198v388c0 34 7 53 64 93c20 25 33 29 59 29h196c13 0 28 12 28 12c-49 -74 -59 -83 -97 -83h-179v-410c0 -160 115 -194 181 -170c7 17 10 38 10 60v145c0 13 1 23 5 34c-4 -1 -8 -1 -13 -1h-84c-11 0 -24 -12 -24 -12
c49 74 58 83 96 83h84c12 0 24 12 24 12z" />
    <glyph glyph-name="gcircumflex" unicode="&#x11d;" horiz-adv-x="372" 
d="M130 784c-10 -10 -14 -17 -13 -32c-39 39 -58 60 -31 88l59 58h-1l16 16l15 14c3 3 6 3 8 3c21 13 35 10 47 -2l94 -95c10 -10 17 -14 32 -13c-39 -40 -60 -59 -88 -31l-66 66zM361 369c-3 -4 -6 -8 -8 -12l3 2s-12 -13 -12 -24v-182c0 -82 -54 -109 -95 -133
c-18 -16 -37 -29 -53 -29c-92 0 -185 56 -185 198v388c0 34 7 53 64 93c20 25 33 29 59 29h196c13 0 28 12 28 12c-49 -74 -59 -83 -97 -83h-179v-410c0 -160 115 -194 181 -170c7 17 10 38 10 60v145c0 13 1 23 5 34c-4 -1 -8 -1 -13 -1h-84c-11 0 -24 -12 -24 -12
c49 74 58 83 96 83h84c12 0 24 12 24 12z" />
    <glyph glyph-name="uni0123" unicode="&#x123;" horiz-adv-x="372" 
d="M201 755c16 42 -24 134 -68 108l-7 5c35 36 76 46 96 27c35 -37 17 -114 -11 -143zM361 369c-3 -4 -6 -8 -8 -12l3 2s-12 -13 -12 -24v-182c0 -82 -54 -109 -95 -133c-18 -16 -37 -29 -53 -29c-92 0 -185 56 -185 198v388c0 34 7 53 64 93c20 25 33 29 59 29h196
c13 0 28 12 28 12c-49 -74 -59 -83 -97 -83h-179v-410c0 -160 115 -194 181 -170c7 17 10 38 10 60v145c0 13 1 23 5 34c-4 -1 -8 -1 -13 -1h-84c-11 0 -24 -12 -24 -12c49 74 58 83 96 83h84c12 0 24 12 24 12z" />
    <glyph glyph-name="gdotaccent" unicode="&#x121;" horiz-adv-x="372" 
d="M130 811c-7 8 -24 8 -24 8c35 35 62 53 84 32l37 -38c11 -10 16 -13 31 -12c-28 -28 -60 -58 -87 -30zM361 369c-3 -4 -6 -8 -8 -12l3 2s-12 -13 -12 -24v-182c0 -82 -54 -109 -95 -133c-18 -16 -37 -29 -53 -29c-92 0 -185 56 -185 198v388c0 34 7 53 64 93
c20 25 33 29 59 29h196c13 0 28 12 28 12c-49 -74 -59 -83 -97 -83h-179v-410c0 -160 115 -194 181 -170c7 17 10 38 10 60v145c0 13 1 23 5 34c-4 -1 -8 -1 -13 -1h-84c-11 0 -24 -12 -24 -12c49 74 58 83 96 83h84c12 0 24 12 24 12z" />
    <glyph glyph-name="h" unicode="h" horiz-adv-x="384" 
d="M291 594c0 36 18 69 83 109c0 0 -11 -14 -11 -25v-553c0 -88 -62 -119 -104 -145c25 21 32 56 32 93v286c-21 -16 -41 -18 -62 -18h-120v-216c0 -88 -62 -119 -99 -145c21 21 31 56 31 93v521c0 36 14 74 80 109c0 0 -12 -14 -12 -25v-289c19 17 35 20 56 20h126v185z
" />
    <glyph glyph-name="hbar" unicode="&#x127;" horiz-adv-x="640" 
d="M564 577c11 0 26 12 26 12c-35 -52 -51 -72 -89 -72h-28v-392c0 -88 -62 -119 -103 -145c25 21 32 56 32 93v287c-22 -17 -41 -19 -62 -19h-120v-216c0 -88 -62 -119 -99 -145c21 21 31 56 31 93v444h-75c-13 0 -27 -12 -27 -12c38 52 55 72 96 72h6v17
c0 36 13 74 79 109c0 0 -11 -14 -11 -25v-101h182v17c0 36 18 69 83 109c0 0 -12 -14 -12 -25v-101h91zM402 409v108h-182v-128c18 17 34 20 55 20h127z" />
    <glyph glyph-name="hcircumflex" unicode="&#x125;" horiz-adv-x="384" 
d="M136 784c-10 -10 -14 -17 -13 -32c-39 39 -58 60 -31 88l59 58h-1l16 16l15 14c3 3 6 3 8 3c21 13 35 10 47 -2l94 -95c10 -10 17 -14 32 -13c-39 -40 -60 -59 -88 -31l-66 66zM291 594c0 36 18 69 83 109c0 0 -11 -14 -11 -25v-553c0 -88 -62 -119 -104 -145
c25 21 32 56 32 93v286c-21 -16 -41 -18 -62 -18h-120v-216c0 -88 -62 -119 -99 -145c21 21 31 56 31 93v521c0 36 14 74 80 109c0 0 -12 -14 -12 -25v-289c19 17 35 20 56 20h126v185z" />
    <glyph glyph-name="uni1E25" unicode="&#x1e25;" horiz-adv-x="384" 
d="M291 594c0 36 18 69 83 109c0 0 -11 -14 -11 -25v-553c0 -88 -62 -119 -104 -145c25 21 32 56 32 93v286c-21 -16 -41 -18 -62 -18h-120v-216c0 -88 -62 -119 -99 -145c21 21 31 56 31 93v521c0 36 14 74 80 109c0 0 -12 -14 -12 -25v-289c19 17 35 20 56 20h126v185z
M232 -60l37 -38c11 -10 16 -12 31 -12c-28 -28 -60 -57 -87 -30l-41 40c-7 9 -24 9 -24 9c35 34 62 53 84 31z" />
    <glyph glyph-name="i" unicode="i" horiz-adv-x="133" 
d="M111 123c0 -86 -61 -124 -101 -143c23 21 31 53 31 90v523c0 37 9 67 82 110c0 0 -12 -12 -12 -23v-557z" />
    <glyph glyph-name="dotlessi" unicode="&#x131;" horiz-adv-x="133" 
d="M111 123c0 -86 -61 -124 -101 -143c23 21 31 53 31 90v523c0 37 9 67 82 110c0 0 -12 -12 -12 -23v-557z" />
    <glyph glyph-name="iacute" unicode="&#xed;" horiz-adv-x="133" 
d="M120 845c28 28 9 49 -30 88c1 -15 -3 -22 -13 -32l-67 -66c-19 -19 -15 -40 31 -86c0 0 0 17 10 26zM111 123c0 -86 -61 -124 -101 -143c23 21 31 53 31 90v523c0 37 9 67 82 110c0 0 -12 -12 -12 -23v-557z" />
    <glyph glyph-name="ibreve" unicode="&#x12d;" horiz-adv-x="133" 
d="M185 913c12 -58 -11 -94 -30 -112c-56 -56 -118 -55 -165 -7c-12 13 -20 55 -24 77c14 -45 97 -93 158 -32l56 56c5 5 5 18 5 18zM-34 871c-1 4 -2 8 -2 12zM41 593c0 37 9 67 82 110c0 0 -12 -12 -12 -23v-557c0 -86 -61 -124 -101 -143c23 21 31 53 31 90v523z" />
    <glyph glyph-name="uni01D0" unicode="&#x1d0;" horiz-adv-x="133" 
d="M149 902c28 28 49 9 88 -30c-15 0 -22 -3 -32 -13l-94 -95c-13 -13 -26 -16 -47 -3c-3 0 -6 1 -8 3l-89 88c-27 28 -8 49 31 88c-1 -15 3 -22 13 -32l73 -72zM41 593c0 37 9 67 82 110c0 0 -12 -12 -12 -23v-557c0 -86 -61 -124 -101 -143c23 21 31 53 31 90v523z" />
    <glyph glyph-name="icircumflex" unicode="&#xee;" horiz-adv-x="133" 
d="M205 834c10 -10 17 -14 32 -13c-39 -40 -60 -59 -88 -31l-66 66l-72 -72c-10 -10 -14 -17 -13 -32c-39 39 -58 60 -31 88l59 58h-1l16 16l15 14c3 3 6 3 8 3c21 13 35 10 47 -2zM41 593c0 37 9 67 82 110c0 0 -12 -12 -12 -23v-557c0 -86 -61 -124 -101 -143
c23 21 31 53 31 90v523z" />
    <glyph glyph-name="idieresis" unicode="&#xef;" horiz-adv-x="133" 
d="M-37 775c28 -28 60 2 88 30c-15 -1 -21 2 -31 12l-38 38c-22 22 -49 3 -84 -32c0 0 17 0 25 -8zM138 775c28 -28 60 2 88 30c-15 -1 -21 2 -31 12l-37 38c-23 22 -50 3 -85 -32c0 0 17 0 25 -8zM111 123c0 -86 -61 -124 -101 -143c23 21 31 53 31 90v523
c0 37 9 67 82 110c0 0 -12 -12 -12 -23v-557z" />
    <glyph glyph-name="i.loclTRK" horiz-adv-x="133" 
d="M52 771c27 -28 59 2 87 30c-15 -1 -20 2 -31 12l-37 38c-22 21 -49 3 -84 -32c0 0 17 0 24 -8zM111 123c0 -86 -61 -124 -101 -143c23 21 31 53 31 90v523c0 37 9 67 82 110c0 0 -12 -12 -12 -23v-557z" />
    <glyph glyph-name="uni1ECB" unicode="&#x1ecb;" horiz-adv-x="133" 
d="M111 123c0 -86 -61 -124 -101 -143c23 21 31 53 31 90v523c0 37 9 67 82 110c0 0 -12 -12 -12 -23v-557zM88 -140c27 -27 59 2 87 30c-15 0 -20 2 -31 12l-37 38c-22 22 -49 3 -84 -31c0 0 17 0 24 -9z" />
    <glyph glyph-name="igrave" unicode="&#xec;" horiz-adv-x="133" 
d="M11 845l70 -70c9 -9 9 -26 9 -26c46 46 50 67 31 86l-67 66c-10 10 -13 17 -12 32c-39 -39 -58 -60 -31 -88zM111 123c0 -86 -61 -124 -101 -143c23 21 31 53 31 90v523c0 37 9 67 82 110c0 0 -12 -12 -12 -23v-557z" />
    <glyph glyph-name="ij" unicode="&#x133;" horiz-adv-x="475" 
d="M382 594c0 38 19 75 83 117c0 0 -12 -13 -12 -24v-528c0 -75 -47 -109 -86 -134c-21 -18 -44 -34 -60 -34c-82 0 -164 56 -164 197v21c0 38 18 74 79 117c0 0 -12 -16 -12 -34v-77c0 -147 97 -179 164 -161c6 16 8 34 8 53v487zM41 593c0 37 9 67 82 110
c0 0 -12 -12 -12 -23v-557c0 -86 -61 -124 -101 -143c23 21 31 53 31 90v523z" />
    <glyph glyph-name="imacron" unicode="&#x12b;" horiz-adv-x="133" 
d="M204 822h-206c-41 0 -58 -20 -96 -72c0 0 14 12 27 12h212c38 0 54 20 90 72c0 0 -16 -12 -27 -12zM111 123c0 -86 -61 -124 -101 -143c23 21 31 53 31 90v523c0 37 9 67 82 110c0 0 -12 -12 -12 -23v-557z" />
    <glyph glyph-name="iogonek" unicode="&#x12f;" horiz-adv-x="133" 
d="M11 811c-7 8 -24 8 -24 8c35 35 62 53 84 32l37 -38c11 -10 16 -13 31 -12c-28 -28 -60 -58 -87 -30zM111 123c0 -86 -61 -124 -101 -143c23 21 31 53 31 90v523c0 37 9 67 82 110c0 0 -12 -12 -12 -23v-557zM103 -67c0 -99 84 -120 121 -98c-15 -12 -49 -35 -65 -35
c-63 0 -99 40 -99 128c0 23 6 63 51 93c0 0 -8 -8 -8 -15v-73zM224 -165c6 3 9 6 9 6c-2 -2 -5 -5 -9 -6z" />
    <glyph glyph-name="itilde" unicode="&#x129;" horiz-adv-x="133" 
d="M173 778c29 0 43 18 64 61c-14 -34 -32 -60 -52 -61c-14 -2 -27 -2 -41 0c10 -1 19 -1 29 0zM-27 816c57 6 114 -29 171 -38c-59 7 -118 45 -177 36c-12 1 -22 -5 -32 -15c10 11 21 16 38 17zM-65 799c-9 -10 -17 -24 -27 -44c8 17 17 33 27 44zM41 593c0 37 9 67 82 110
c0 0 -12 -12 -12 -23v-557c0 -86 -61 -124 -101 -143c23 21 31 53 31 90v523z" />
    <glyph glyph-name="j" unicode="j" horiz-adv-x="342" 
d="M249 594c0 38 19 75 83 117c0 0 -12 -13 -12 -24v-528c0 -75 -47 -109 -86 -134c-21 -18 -44 -34 -60 -34c-82 0 -164 56 -164 197v21c0 38 18 74 79 117c0 0 -12 -16 -12 -34v-77c0 -147 97 -179 164 -161c6 16 8 34 8 53v487z" />
    <glyph glyph-name="uni0237" unicode="&#x237;" horiz-adv-x="342" 
d="M249 594c0 38 19 75 83 117c0 0 -12 -13 -12 -24v-528c0 -75 -47 -109 -86 -134c-21 -18 -44 -34 -60 -34c-82 0 -164 56 -164 197v21c0 38 18 74 79 117c0 0 -12 -16 -12 -34v-77c0 -147 97 -179 164 -161c6 16 8 34 8 53v487z" />
    <glyph glyph-name="jcircumflex" unicode="&#x135;" horiz-adv-x="342" 
d="M115 784c-10 -10 -14 -17 -13 -32c-39 39 -58 60 -31 88l59 58h-1l16 16l15 14c3 3 6 3 8 3c21 13 35 10 47 -2l94 -95c10 -10 17 -14 32 -13c-39 -40 -60 -59 -88 -31l-66 66zM249 594c0 38 19 75 83 117c0 0 -12 -13 -12 -24v-528c0 -75 -47 -109 -86 -134
c-21 -18 -44 -34 -60 -34c-82 0 -164 56 -164 197v21c0 38 18 74 79 117c0 0 -12 -16 -12 -34v-77c0 -147 97 -179 164 -161c6 16 8 34 8 53v487z" />
    <glyph glyph-name="k" unicode="k" horiz-adv-x="396" 
d="M323 83c24 -44 63 -19 63 -19c-6 -36 -18 -57 -52 -66c-22 -6 -45 6 -57 27l-112 249c-12 23 -25 34 -37 39c-8 -3 -18 -6 -29 -8v-210c0 -54 -35 -77 -89 -115c8 7 18 26 18 47v564c0 38 18 73 83 119c0 0 -12 -19 -12 -31v-325l146 288c22 36 48 67 125 68
c0 0 -16 -4 -22 -14l-163 -323c8 -8 15 -18 20 -27z" />
    <glyph glyph-name="uni0137" unicode="&#x137;" horiz-adv-x="396" 
d="M205 755c16 42 -24 134 -68 108l-7 5c35 36 76 46 96 27c35 -37 17 -114 -11 -143zM323 83c24 -44 63 -19 63 -19c-6 -36 -18 -57 -52 -66c-22 -6 -45 6 -57 27l-112 249c-12 23 -25 34 -37 39c-8 -3 -18 -6 -29 -8v-210c0 -54 -35 -77 -89 -115c8 7 18 26 18 47v564
c0 38 18 73 83 119c0 0 -12 -19 -12 -31v-325l146 288c22 36 48 67 125 68c0 0 -16 -4 -22 -14l-163 -323c8 -8 15 -18 20 -27z" />
    <glyph glyph-name="kgreenlandic" unicode="&#x138;" horiz-adv-x="396" 
d="M323 83c24 -44 63 -19 63 -19c-6 -36 -18 -57 -52 -66c-22 -6 -45 6 -57 27l-112 249c-12 23 -25 34 -37 39c-8 -3 -18 -6 -29 -8v-210c0 -54 -35 -77 -89 -115c8 7 18 26 18 47v564c0 38 18 73 83 119c0 0 -12 -19 -12 -31v-325l146 288c22 36 48 67 125 68
c0 0 -16 -4 -22 -14l-163 -323c8 -8 15 -18 20 -27z" />
    <glyph glyph-name="l" unicode="l" horiz-adv-x="400" 
d="M358 67c15 0 32 12 32 12c-40 -63 -63 -82 -96 -82h-240c-15 -10 -31 -18 -44 -27c24 21 32 54 32 92v614c0 11 -12 24 -12 24c73 -46 82 -68 82 -106v-489c0 -16 -2 -29 -6 -41c8 2 17 3 26 3h226z" />
    <glyph glyph-name="lacute" unicode="&#x13a;" horiz-adv-x="400" 
d="M184 775c-10 -9 -10 -26 -10 -26c-46 46 -50 67 -31 86l67 66c10 10 14 17 13 32c39 -39 58 -60 30 -88zM358 67c15 0 32 12 32 12c-40 -63 -63 -82 -96 -82h-240c-15 -10 -31 -18 -44 -27c24 21 32 54 32 92v614c0 11 -12 24 -12 24c73 -46 82 -68 82 -106v-489
c0 -16 -2 -29 -6 -41c8 2 17 3 26 3h226z" />
    <glyph glyph-name="lcaron" unicode="&#x13e;" horiz-adv-x="400" 
d="M112 764l-89 88c-27 28 -8 49 31 88c-1 -15 3 -22 13 -32l73 -72l65 66c28 28 49 9 88 -30c-15 0 -22 -3 -32 -13l-94 -95c-13 -13 -26 -16 -47 -3c-3 0 -6 1 -8 3zM358 67c15 0 32 12 32 12c-40 -63 -63 -82 -96 -82h-240c-15 -10 -31 -18 -44 -27c24 21 32 54 32 92
v614c0 11 -12 24 -12 24c73 -46 82 -68 82 -106v-489c0 -16 -2 -29 -6 -41c8 2 17 3 26 3h226z" />
    <glyph glyph-name="uni013C" unicode="&#x13c;" horiz-adv-x="400" 
d="M85 755c16 42 -24 134 -68 108l-7 5c35 36 76 46 96 27c35 -37 17 -114 -11 -143zM358 67c15 0 32 12 32 12c-40 -63 -63 -82 -96 -82h-240c-15 -10 -31 -18 -44 -27c24 21 32 54 32 92v614c0 11 -12 24 -12 24c73 -46 82 -68 82 -106v-489c0 -16 -2 -29 -6 -41
c8 2 17 3 26 3h226z" />
    <glyph glyph-name="ldot" unicode="&#x140;" horiz-adv-x="400" 
d="M358 67c15 0 32 12 32 12c-40 -63 -63 -82 -96 -82h-240c-15 -10 -31 -18 -44 -27c24 21 32 54 32 92v614c0 11 -12 24 -12 24c73 -46 82 -68 82 -106v-489c0 -16 -2 -29 -6 -41c8 2 17 3 26 3h226zM236 304l-40 40c-8 8 -25 8 -25 8c35 34 62 53 85 32l36 -39
c11 -10 17 -12 32 -11c-29 -28 -60 -58 -88 -30z" />
    <glyph glyph-name="uni1E37" unicode="&#x1e37;" horiz-adv-x="400" 
d="M358 67c15 0 32 12 32 12c-40 -63 -63 -82 -96 -82h-240c-15 -10 -31 -18 -44 -27c24 21 32 54 32 92v614c0 11 -12 24 -12 24c73 -46 82 -68 82 -106v-489c0 -16 -2 -29 -6 -41c8 2 17 3 26 3h226zM240 -60l37 -38c11 -10 16 -12 31 -12c-28 -28 -60 -57 -87 -30l-41 40
c-7 9 -24 9 -24 9c35 34 62 53 84 31z" />
    <glyph glyph-name="lslash" unicode="&#x142;" horiz-adv-x="440" 
d="M399 67c14 0 31 12 31 12c-40 -63 -62 -82 -95 -82h-241c-15 -10 -31 -18 -44 -27c24 21 32 54 32 92v316l-56 -26c-10 -5 -16 -20 -16 -20c13 58 22 78 57 94l15 7v243c0 11 -12 24 -12 24c73 -46 82 -68 82 -106v-129l70 33c11 5 17 20 17 20c-11 -59 -24 -77 -58 -93
l-29 -14v-306c0 -16 -2 -29 -6 -41c8 2 17 3 26 3h227z" />
    <glyph glyph-name="m" unicode="m" horiz-adv-x="548" 
d="M527 2c0 -11 11 -24 11 -24c-74 50 -83 75 -83 113v501c0 23 -2 37 -9 45c-7 -21 -14 -48 -18 -78l-73 -390c-10 -61 -82 -104 -115 -121c-5 -5 -11 -8 -17 -11l2 3h-1h1c4 10 17 40 12 61l-131 475c-3 13 -7 23 -12 31v-512c0 -39 -9 -70 -84 -119c0 0 13 13 13 24v585
c0 38 9 75 83 123l-5 -6c5 2 10 3 15 3c25 0 42 -36 47 -58l124 -443c4 -17 4 -37 1 -59c3 10 5 20 6 31l71 383c7 59 41 110 96 127c32 28 66 36 66 -32v-652z" />
    <glyph glyph-name="uni1E3F" unicode="&#x1e3f;" horiz-adv-x="548" 
d="M62 775c-10 -9 -10 -26 -10 -26c-46 46 -50 67 -31 86l67 66c10 10 14 17 13 32c39 -39 58 -60 30 -88zM527 2c0 -11 11 -24 11 -24c-74 50 -83 75 -83 113v501c0 23 -2 37 -9 45c-7 -21 -14 -48 -18 -78l-73 -390c-10 -61 -82 -104 -115 -121c-5 -5 -11 -8 -17 -11l2 3
h-1h1c4 10 17 40 12 61l-131 475c-3 13 -7 23 -12 31v-512c0 -39 -9 -70 -84 -119c0 0 13 13 13 24v585c0 38 9 75 83 123l-5 -6c5 2 10 3 15 3c25 0 42 -36 47 -58l124 -443c4 -17 4 -37 1 -59c3 10 5 20 6 31l71 383c7 59 41 110 96 127c32 28 66 36 66 -32v-652z" />
    <glyph glyph-name="n" unicode="n" horiz-adv-x="389" 
d="M295 599c0 39 10 69 84 118c0 0 -12 -13 -12 -24v-595c0 -47 -8 -77 -83 -122c0 0 7 8 10 17l-10 -6s17 37 8 64l-178 522c-6 17 -13 30 -21 38v-513c0 -47 -9 -77 -83 -122c0 0 12 13 12 24v587c0 34 7 62 63 103c2 2 5 4 8 6c4 2 8 5 12 8l-4 -4c4 1 7 2 11 2
c26 0 45 -35 53 -56l130 -387v340z" />
    <glyph glyph-name="nacute" unicode="&#x144;" horiz-adv-x="389" 
d="M179 775c-10 -9 -10 -26 -10 -26c-46 46 -50 67 -31 86l67 66c10 10 14 17 13 32c39 -39 58 -60 30 -88zM295 599c0 39 10 69 84 118c0 0 -12 -13 -12 -24v-595c0 -47 -8 -77 -83 -122c0 0 7 8 10 17l-10 -6s17 37 8 64l-178 522c-6 17 -13 30 -21 38v-513
c0 -47 -9 -77 -83 -122c0 0 12 13 12 24v587c0 34 7 62 63 103c2 2 5 4 8 6c4 2 8 5 12 8l-4 -4c4 1 7 2 11 2c26 0 45 -35 53 -56l130 -387v340z" />
    <glyph glyph-name="napostrophe" unicode="&#x149;" horiz-adv-x="389" 
d="M139 809v87c0 13 -12 26 -12 26c66 0 83 -12 83 -40v-82c0 -14 2 -21 13 -31c-55 0 -84 1 -84 40zM295 599c0 39 10 69 84 118c0 0 -12 -13 -12 -24v-595c0 -47 -8 -77 -83 -122c0 0 7 8 10 17l-10 -6s17 37 8 64l-178 522c-6 17 -13 30 -21 38v-513
c0 -47 -9 -77 -83 -122c0 0 12 13 12 24v587c0 34 7 62 63 103c2 2 5 4 8 6c4 2 8 5 12 8l-4 -4c4 1 7 2 11 2c26 0 45 -35 53 -56l130 -387v340z" />
    <glyph glyph-name="ncaron" unicode="&#x148;" horiz-adv-x="389" 
d="M184 764l-89 88c-27 28 -8 49 31 88c-1 -15 3 -22 13 -32l73 -72l65 66c28 28 49 9 88 -30c-15 0 -22 -3 -32 -13l-94 -95c-13 -13 -26 -16 -47 -3c-3 0 -6 1 -8 3zM295 599c0 39 10 69 84 118c0 0 -12 -13 -12 -24v-595c0 -47 -8 -77 -83 -122c0 0 7 8 10 17l-10 -6
s17 37 8 64l-178 522c-6 17 -13 30 -21 38v-513c0 -47 -9 -77 -83 -122c0 0 12 13 12 24v587c0 34 7 62 63 103c2 2 5 4 8 6c4 2 8 5 12 8l-4 -4c4 1 7 2 11 2c26 0 45 -35 53 -56l130 -387v340z" />
    <glyph glyph-name="uni0146" unicode="&#x146;" horiz-adv-x="389" 
d="M209 755c16 42 -24 134 -68 108l-7 5c35 36 76 46 96 27c35 -37 17 -114 -11 -143zM295 599c0 39 10 69 84 118c0 0 -12 -13 -12 -24v-595c0 -47 -8 -77 -83 -122c0 0 7 8 10 17l-10 -6s17 37 8 64l-178 522c-6 17 -13 30 -21 38v-513c0 -47 -9 -77 -83 -122
c0 0 12 13 12 24v587c0 34 7 62 63 103c2 2 5 4 8 6c4 2 8 5 12 8l-4 -4c4 1 7 2 11 2c26 0 45 -35 53 -56l130 -387v340z" />
    <glyph glyph-name="uni1E45" unicode="&#x1e45;" horiz-adv-x="389" 
d="M139 811c-7 8 -24 8 -24 8c35 35 62 53 84 32l37 -38c11 -10 16 -13 31 -12c-28 -28 -60 -58 -87 -30zM295 599c0 39 10 69 84 118c0 0 -12 -13 -12 -24v-595c0 -47 -8 -77 -83 -122c0 0 7 8 10 17l-10 -6s17 37 8 64l-178 522c-6 17 -13 30 -21 38v-513
c0 -47 -9 -77 -83 -122c0 0 12 13 12 24v587c0 34 7 62 63 103c2 2 5 4 8 6c4 2 8 5 12 8l-4 -4c4 1 7 2 11 2c26 0 45 -35 53 -56l130 -387v340z" />
    <glyph glyph-name="uni1E47" unicode="&#x1e47;" horiz-adv-x="389" 
d="M295 599c0 39 10 69 84 118c0 0 -12 -13 -12 -24v-595c0 -47 -8 -77 -83 -122c0 0 7 8 10 17l-10 -6s17 37 8 64l-178 522c-6 17 -13 30 -21 38v-513c0 -47 -9 -77 -83 -122c0 0 12 13 12 24v587c0 34 7 62 63 103c2 2 5 4 8 6c4 2 8 5 12 8l-4 -4c4 1 7 2 11 2
c26 0 45 -35 53 -56l130 -387v340zM235 -60l37 -38c11 -10 16 -12 31 -12c-28 -28 -60 -57 -87 -30l-41 40c-7 9 -24 9 -24 9c35 34 62 53 84 31z" />
    <glyph glyph-name="eng" unicode="&#x14b;" horiz-adv-x="389" 
d="M333 11c32 -28 37 -62 37 -83c0 -89 -36 -128 -98 -128c-17 0 -51 23 -66 35c37 -22 122 -1 122 98v73v1c-11 -10 -26 -20 -44 -31c0 0 7 8 10 17l-10 -6s17 37 8 64l-178 522c-6 17 -13 30 -21 38v-513c0 -47 -9 -77 -83 -122c0 0 12 13 12 24v587c0 34 7 62 63 103
c2 2 5 4 8 6c4 2 8 5 12 8l-4 -4c4 1 7 2 11 2c26 0 45 -35 53 -56l130 -387v340c0 39 10 69 84 118c0 0 -12 -13 -12 -24v-595c0 -34 -4 -59 -34 -87zM206 -165c-4 1 -7 4 -9 6c0 0 3 -3 9 -6z" />
    <glyph glyph-name="uni0272" unicode="&#x272;" horiz-adv-x="463" 
d="M370 599c0 39 10 69 83 118c0 0 -11 -13 -11 -24v-595c0 -47 -9 -77 -84 -122c0 0 8 9 11 18c-4 -3 -7 -5 -11 -7c0 0 17 37 9 64l-178 522c-6 17 -13 29 -21 38v-513c0 -32 -5 -56 -30 -81c40 -30 45 -67 45 -89c0 -89 -36 -128 -99 -128c-16 0 -50 23 -65 35
c37 -22 121 -1 121 98v73c0 3 -2 6 -3 9c-12 -12 -29 -25 -52 -39c0 0 11 13 11 24v587c0 34 8 61 61 101l12 9c4 2 7 5 11 7c0 0 -2 -2 -3 -4c3 1 6 2 10 2c26 0 45 -35 53 -56l130 -389v342zM19 -165c-4 1 -7 4 -9 6c0 0 3 -3 9 -6z" />
    <glyph glyph-name="ntilde" unicode="&#xf1;" horiz-adv-x="389" 
d="M313 778c-14 -2 -27 -2 -41 0c10 -1 19 -1 29 0c29 0 43 18 64 61c-14 -34 -32 -60 -52 -61zM95 814c-12 1 -22 -5 -32 -15c10 11 21 16 38 17c57 6 114 -29 171 -38c-59 7 -118 45 -177 36zM63 799c-9 -10 -17 -24 -27 -44c8 17 17 33 27 44zM295 599c0 39 10 69 84 118
c0 0 -12 -13 -12 -24v-595c0 -47 -8 -77 -83 -122c0 0 7 8 10 17l-10 -6s17 37 8 64l-178 522c-6 17 -13 30 -21 38v-513c0 -47 -9 -77 -83 -122c0 0 12 13 12 24v587c0 34 7 62 63 103c2 2 5 4 8 6c4 2 8 5 12 8l-4 -4c4 1 7 2 11 2c26 0 45 -35 53 -56l130 -387v340z" />
    <glyph glyph-name="o" unicode="o" horiz-adv-x="344" 
d="M170 711c91 0 163 -56 163 -197v-372c0 -31 -6 -58 -49 -93c0 0 -1 -1 -2 -1h1c-9 -7 -20 -15 -33 -24l2 3c-26 -18 -59 -36 -78 -36c-90 0 -163 56 -163 197v369c0 38 10 68 83 117l-3 -3c25 19 58 40 79 40zM82 210c0 -146 110 -188 178 -171c1 3 2 6 2 9v444
c0 153 -113 193 -177 169c-2 -4 -3 -7 -3 -11v-440zM58 644c0 0 3 2 7 6zM296 58c-4 -4 -8 -7 -13 -10l1 1c8 5 12 9 12 9z" />
    <glyph glyph-name="oacute" unicode="&#xf3;" horiz-adv-x="344" 
d="M156 775c-10 -9 -10 -26 -10 -26c-46 46 -50 67 -31 86l67 66c10 10 14 17 13 32c39 -39 58 -60 30 -88zM170 711c91 0 163 -56 163 -197v-372c0 -31 -6 -58 -49 -93c0 0 -1 -1 -2 -1h1c-9 -7 -20 -15 -33 -24l2 3c-26 -18 -59 -36 -78 -36c-90 0 -163 56 -163 197v369
c0 38 10 68 83 117l-3 -3c25 19 58 40 79 40zM82 210c0 -146 110 -188 178 -171c1 3 2 6 2 9v444c0 153 -113 193 -177 169c-2 -4 -3 -7 -3 -11v-440zM58 644c0 0 3 2 7 6zM296 58c-4 -4 -8 -7 -13 -10l1 1c8 5 12 9 12 9z" />
    <glyph glyph-name="obreve" unicode="&#x14f;" horiz-adv-x="344" 
d="M260 801c-56 -56 -118 -55 -165 -7c-12 13 -20 55 -24 77c14 -45 97 -93 158 -32l56 56c5 5 5 18 5 18c12 -58 -11 -94 -30 -112zM71 871c-1 4 -2 8 -2 12zM170 711c91 0 163 -56 163 -197v-372c0 -31 -6 -58 -49 -93c0 0 -1 -1 -2 -1h1c-9 -7 -20 -15 -33 -24l2 3
c-26 -18 -59 -36 -78 -36c-90 0 -163 56 -163 197v369c0 38 10 68 83 117l-3 -3c25 19 58 40 79 40zM82 210c0 -146 110 -188 178 -171c1 3 2 6 2 9v444c0 153 -113 193 -177 169c-2 -4 -3 -7 -3 -11v-440zM58 644c0 0 3 2 7 6zM296 58c-4 -4 -8 -7 -13 -10l1 1
c8 5 12 9 12 9z" />
    <glyph glyph-name="uni01D2" unicode="&#x1d2;" horiz-adv-x="344" 
d="M161 764l-89 88c-27 28 -8 49 31 88c-1 -15 3 -22 13 -32l73 -72l65 66c28 28 49 9 88 -30c-15 0 -22 -3 -32 -13l-94 -95c-13 -13 -26 -16 -47 -3c-3 0 -6 1 -8 3zM170 711c91 0 163 -56 163 -197v-372c0 -31 -6 -58 -49 -93c0 0 -1 -1 -2 -1h1c-9 -7 -20 -15 -33 -24
l2 3c-26 -18 -59 -36 -78 -36c-90 0 -163 56 -163 197v369c0 38 10 68 83 117l-3 -3c25 19 58 40 79 40zM82 210c0 -146 110 -188 178 -171c1 3 2 6 2 9v444c0 153 -113 193 -177 169c-2 -4 -3 -7 -3 -11v-440zM58 644c0 0 3 2 7 6zM296 58c-4 -4 -8 -7 -13 -10l1 1
c8 5 12 9 12 9z" />
    <glyph glyph-name="ocircumflex" unicode="&#xf4;" horiz-adv-x="344" 
d="M116 784c-10 -10 -14 -17 -13 -32c-39 39 -58 60 -31 88l59 58h-1l16 16l15 14c3 3 6 3 8 3c21 13 35 10 47 -2l94 -95c10 -10 17 -14 32 -13c-39 -40 -60 -59 -88 -31l-66 66zM170 711c91 0 163 -56 163 -197v-372c0 -31 -6 -58 -49 -93c0 0 -1 -1 -2 -1h1
c-9 -7 -20 -15 -33 -24l2 3c-26 -18 -59 -36 -78 -36c-90 0 -163 56 -163 197v369c0 38 10 68 83 117l-3 -3c25 19 58 40 79 40zM82 210c0 -146 110 -188 178 -171c1 3 2 6 2 9v444c0 153 -113 193 -177 169c-2 -4 -3 -7 -3 -11v-440zM58 644c0 0 3 2 7 6zM296 58
c-4 -4 -8 -7 -13 -10l1 1c8 5 12 9 12 9z" />
    <glyph glyph-name="odieresis" unicode="&#xf6;" horiz-adv-x="344" 
d="M68 775l-40 40c-8 8 -25 8 -25 8c35 35 62 54 84 32l38 -38c10 -10 16 -13 31 -12c-28 -28 -60 -58 -88 -30zM243 775l-40 40c-8 8 -25 8 -25 8c35 35 62 54 85 32l37 -38c10 -10 16 -13 31 -12c-28 -28 -60 -58 -88 -30zM170 711c91 0 163 -56 163 -197v-372
c0 -31 -6 -58 -49 -93c0 0 -1 -1 -2 -1h1c-9 -7 -20 -15 -33 -24l2 3c-26 -18 -59 -36 -78 -36c-90 0 -163 56 -163 197v369c0 38 10 68 83 117l-3 -3c25 19 58 40 79 40zM82 210c0 -146 110 -188 178 -171c1 3 2 6 2 9v444c0 153 -113 193 -177 169c-2 -4 -3 -7 -3 -11
v-440zM58 644c0 0 3 2 7 6zM296 58c-4 -4 -8 -7 -13 -10l1 1c8 5 12 9 12 9z" />
    <glyph glyph-name="uni1ECD" unicode="&#x1ecd;" horiz-adv-x="344" 
d="M170 711c91 0 163 -56 163 -197v-372c0 -31 -6 -58 -49 -93c0 0 -1 -1 -2 -1h1c-9 -7 -20 -15 -33 -24l2 3c-26 -18 -59 -36 -78 -36c-90 0 -163 56 -163 197v369c0 38 10 68 83 117l-3 -3c25 19 58 40 79 40zM82 210c0 -146 110 -188 178 -171c1 3 2 6 2 9v444
c0 153 -113 193 -177 169c-2 -4 -3 -7 -3 -11v-440zM58 644c0 0 3 2 7 6zM296 58c-4 -4 -8 -7 -13 -10l1 1c8 5 12 9 12 9zM212 -60l37 -38c11 -10 16 -12 31 -12c-28 -28 -60 -57 -87 -30l-41 40c-7 9 -24 9 -24 9c35 34 62 53 84 31z" />
    <glyph glyph-name="ograve" unicode="&#xf2;" horiz-adv-x="344" 
d="M186 775l-70 70c-27 28 -8 49 31 88c-1 -15 2 -22 12 -32l67 -66c19 -19 15 -40 -31 -86c0 0 0 17 -9 26zM170 711c91 0 163 -56 163 -197v-372c0 -31 -6 -58 -49 -93c0 0 -1 -1 -2 -1h1c-9 -7 -20 -15 -33 -24l2 3c-26 -18 -59 -36 -78 -36c-90 0 -163 56 -163 197v369
c0 38 10 68 83 117l-3 -3c25 19 58 40 79 40zM82 210c0 -146 110 -188 178 -171c1 3 2 6 2 9v444c0 153 -113 193 -177 169c-2 -4 -3 -7 -3 -11v-440zM58 644c0 0 3 2 7 6zM296 58c-4 -4 -8 -7 -13 -10l1 1c8 5 12 9 12 9z" />
    <glyph glyph-name="ohungarumlaut" unicode="&#x151;" horiz-adv-x="344" 
d="M98 755c16 42 -24 134 -68 108l-7 5c35 36 76 46 96 27c35 -37 17 -114 -11 -143zM246 755c16 42 -24 134 -68 108l-7 5c35 36 76 46 96 27c35 -37 17 -114 -11 -143zM170 711c91 0 163 -56 163 -197v-372c0 -31 -6 -58 -49 -93c0 0 -1 -1 -2 -1h1c-9 -7 -20 -15 -33 -24
l2 3c-26 -18 -59 -36 -78 -36c-90 0 -163 56 -163 197v369c0 38 10 68 83 117l-3 -3c25 19 58 40 79 40zM82 210c0 -146 110 -188 178 -171c1 3 2 6 2 9v444c0 153 -113 193 -177 169c-2 -4 -3 -7 -3 -11v-440zM58 644c0 0 3 2 7 6zM296 58c-4 -4 -8 -7 -13 -10l1 1
c8 5 12 9 12 9z" />
    <glyph glyph-name="omacron" unicode="&#x14d;" horiz-adv-x="344" 
d="M246 762h-212c-13 0 -27 -12 -27 -12c38 52 55 72 96 72h206c11 0 27 12 27 12c-36 -52 -52 -72 -90 -72zM170 711c91 0 163 -56 163 -197v-372c0 -31 -6 -58 -49 -93c0 0 -1 -1 -2 -1h1c-9 -7 -20 -15 -33 -24l2 3c-26 -18 -59 -36 -78 -36c-90 0 -163 56 -163 197v369
c0 38 10 68 83 117l-3 -3c25 19 58 40 79 40zM82 210c0 -146 110 -188 178 -171c1 3 2 6 2 9v444c0 153 -113 193 -177 169c-2 -4 -3 -7 -3 -11v-440zM58 644c0 0 3 2 7 6zM296 58c-4 -4 -8 -7 -13 -10l1 1c8 5 12 9 12 9z" />
    <glyph glyph-name="uni01EB" unicode="&#x1eb;" horiz-adv-x="344" 
d="M333 142c0 -31 -6 -58 -49 -93c0 0 -1 -1 -2 -1h1c-9 -7 -20 -15 -33 -24l2 3c-15 -11 -33 -21 -49 -28v-66c0 -99 84 -120 121 -98c-15 -12 -49 -35 -65 -35c-63 0 -99 40 -99 128c0 16 3 40 20 63h-6c-90 0 -163 56 -163 197v369c0 38 10 68 83 117l-3 -3
c25 19 58 40 79 40c91 0 163 -56 163 -197v-372zM82 210c0 -146 110 -188 178 -171c1 3 2 6 2 9v444c0 153 -113 193 -177 169c-2 -4 -3 -7 -3 -11v-440zM58 644c0 0 3 2 7 6zM296 58c-4 -4 -8 -7 -13 -10l1 1c8 5 12 9 12 9zM324 -165c6 3 9 6 9 6c-2 -2 -5 -5 -9 -6z" />
    <glyph glyph-name="oslash" unicode="&#xf8;" horiz-adv-x="477" 
d="M384 757c42 -45 52 -68 34 -105l-24 -51c8 -24 12 -53 12 -87v-372c0 -32 -7 -59 -52 -95l1 1c-2 -2 -4 -3 -6 -5c-8 -6 -17 -12 -27 -19l2 2c-27 -17 -59 -35 -78 -35c-45 0 -85 14 -115 45l-36 -78c-5 -12 1 -24 1 -24c-45 43 -55 62 -38 100l35 74
c-7 23 -10 50 -10 80v369c0 38 10 68 83 117l-3 -3c25 19 58 40 79 40c44 0 83 -13 113 -42l27 59c6 11 2 29 2 29zM154 650v-410l162 346c-35 75 -111 93 -159 75c-2 -4 -3 -7 -3 -11zM137 650l-7 -6s3 2 7 6zM334 48v424l-163 -350c34 -75 109 -96 161 -83c1 3 2 6 2 9z
M355 48c9 6 14 10 14 10c-4 -4 -8 -7 -14 -10z" />
    <glyph glyph-name="oslashacute" unicode="&#x1ff;" horiz-adv-x="477" 
d="M259 775c-10 -9 -10 -26 -10 -26c-46 46 -50 67 -31 86l67 66c10 10 14 17 13 32c39 -39 58 -60 30 -88zM384 757c42 -45 52 -68 34 -105l-24 -51c8 -24 12 -53 12 -87v-372c0 -32 -7 -59 -52 -95l1 1c-2 -2 -4 -3 -6 -5c-8 -6 -17 -12 -27 -19l2 2
c-27 -17 -59 -35 -78 -35c-45 0 -85 14 -115 45l-36 -78c-5 -12 1 -24 1 -24c-45 43 -55 62 -38 100l35 74c-7 23 -10 50 -10 80v369c0 38 10 68 83 117l-3 -3c25 19 58 40 79 40c44 0 83 -13 113 -42l27 59c6 11 2 29 2 29zM154 650v-410l162 346c-35 75 -111 93 -159 75
c-2 -4 -3 -7 -3 -11zM137 650l-7 -6s3 2 7 6zM334 48v424l-163 -350c34 -75 109 -96 161 -83c1 3 2 6 2 9zM355 48c9 6 14 10 14 10c-4 -4 -8 -7 -14 -10z" />
    <glyph glyph-name="otilde" unicode="&#xf5;" horiz-adv-x="344" 
d="M291 778c-14 -2 -27 -2 -41 0c10 -1 19 -1 29 0c29 0 43 18 64 61c-14 -34 -32 -60 -52 -61zM73 814c-12 1 -22 -5 -32 -15c10 11 21 16 38 17c57 6 114 -29 171 -38c-59 7 -118 45 -177 36zM41 799c-9 -10 -17 -24 -27 -44c8 17 17 33 27 44zM170 711
c91 0 163 -56 163 -197v-372c0 -31 -6 -58 -49 -93c0 0 -1 -1 -2 -1h1c-9 -7 -20 -15 -33 -24l2 3c-26 -18 -59 -36 -78 -36c-90 0 -163 56 -163 197v369c0 38 10 68 83 117l-3 -3c25 19 58 40 79 40zM82 210c0 -146 110 -188 178 -171c1 3 2 6 2 9v444
c0 153 -113 193 -177 169c-2 -4 -3 -7 -3 -11v-440zM58 644c0 0 3 2 7 6zM296 58c-4 -4 -8 -7 -13 -10l1 1c8 5 12 9 12 9z" />
    <glyph glyph-name="oe" unicode="&#x153;" horiz-adv-x="625" 
d="M354 66h232c11 0 24 12 24 12c-50 -73 -68 -81 -112 -81h-225c-14 -11 -28 -19 -41 -27c15 14 24 33 29 55c-4 -2 -7 -5 -11 -7l1 1c-27 -17 -58 -34 -76 -34c-92 0 -164 55 -164 197v369c0 38 9 69 83 118l-3 -4c25 19 58 41 79 41c50 0 94 -17 124 -55
c33 41 54 47 85 47h212c12 0 24 12 24 12c-49 -74 -73 -83 -110 -83h-171v-227c16 11 30 13 49 13h133c11 0 24 12 24 12c-49 -74 -79 -83 -117 -83h-89v-227c0 -20 -3 -37 -9 -52c9 2 19 3 29 3zM82 203c0 -145 110 -189 177 -172c2 3 3 7 3 10v446
c0 153 -114 193 -177 169c-2 -4 -3 -8 -3 -12v-441zM59 639c0 0 3 2 7 6zM297 51c0 0 -6 -5 -16 -12c6 4 12 8 16 12z" />
    <glyph glyph-name="p" unicode="p" horiz-adv-x="361" 
d="M230 698c99 0 121 -76 121 -200v-61c0 -124 -63 -164 -160 -170c-4 -1 -8 -1 -13 -1h-66v-145c0 -87 -61 -119 -102 -145c23 21 32 54 32 92v519c0 10 1 19 3 28c-2 -1 -4 -2 -5 -3l8 12c5 13 14 26 30 40c17 19 36 36 53 36zM199 337c45 0 81 26 81 93v36
c0 118 -12 159 -108 159c-11 0 -35 0 -60 -1v-292c10 4 20 5 32 5h55z" />
    <glyph glyph-name="thorn" unicode="&#xfe;" horiz-adv-x="360" 
d="M226 435c103 0 124 -77 124 -206v-63c0 -125 -64 -167 -163 -173c-4 -1 -8 -1 -13 -1h-60v-44c0 -88 -63 -121 -104 -148c23 22 33 55 33 94v456l-3 -2s1 2 3 5v245c0 39 10 65 83 115c0 0 -12 -12 -12 -26v-257c7 5 14 7 20 7zM196 63c45 0 83 27 83 97v37
c0 121 -13 163 -113 163c-10 0 -30 0 -52 -1v-301c10 4 20 5 33 5h49z" />
    <glyph glyph-name="q" unicode="q" horiz-adv-x="399" 
d="M356 10c13 -12 33 -17 33 -17c-63 -17 -97 -16 -124 12l-18 18c-26 -16 -55 -32 -73 -32c-90 0 -163 56 -163 197v369c0 38 10 68 83 117l-3 -3c25 19 58 40 79 40c91 0 163 -56 163 -197v-372c0 -26 -4 -49 -31 -77zM82 210c0 -129 86 -177 153 -175l-102 102
c-14 14 -36 20 -36 20c62 12 95 17 122 -9l43 -43v387c0 153 -113 193 -177 169c-2 -4 -3 -7 -3 -11v-440zM58 644c0 0 3 2 7 6zM283 48c5 3 9 6 13 10c0 0 -4 -4 -12 -9z" />
    <glyph glyph-name="r" unicode="r" horiz-adv-x="423" 
d="M388 53c14 0 25 8 25 8s-16 -66 -73 -66c-48 0 -109 212 -153 271h-9h-65v-146c0 -86 -63 -118 -103 -144c23 21 31 54 31 92v519c0 10 1 19 3 28c-2 -1 -3 -2 -4 -3c0 0 2 4 6 9c5 14 15 28 33 43c16 19 35 36 51 36l99 -2c101 0 122 -75 122 -200v-61
c0 -88 -33 -134 -86 -155c43 -78 85 -229 123 -229zM113 332c9 4 19 5 31 5h55c45 0 81 26 81 93v36c0 118 -12 159 -108 159h-59v-293z" />
    <glyph glyph-name="racute" unicode="&#x155;" horiz-adv-x="423" 
d="M196 775c-10 -9 -10 -26 -10 -26c-46 46 -50 67 -31 86l67 66c10 10 14 17 13 32c39 -39 58 -60 30 -88zM388 53c14 0 25 8 25 8s-16 -66 -73 -66c-48 0 -109 212 -153 271h-9h-65v-146c0 -86 -63 -118 -103 -144c23 21 31 54 31 92v519c0 10 1 19 3 28
c-2 -1 -3 -2 -4 -3c0 0 2 4 6 9c5 14 15 28 33 43c16 19 35 36 51 36l99 -2c101 0 122 -75 122 -200v-61c0 -88 -33 -134 -86 -155c43 -78 85 -229 123 -229zM113 332c9 4 19 5 31 5h55c45 0 81 26 81 93v36c0 118 -12 159 -108 159h-59v-293z" />
    <glyph glyph-name="rcaron" unicode="&#x159;" horiz-adv-x="423" 
d="M201 764l-89 88c-27 28 -8 49 31 88c-1 -15 3 -22 13 -32l73 -72l65 66c28 28 49 9 88 -30c-15 0 -22 -3 -32 -13l-94 -95c-13 -13 -26 -16 -47 -3c-3 0 -6 1 -8 3zM388 53c14 0 25 8 25 8s-16 -66 -73 -66c-48 0 -109 212 -153 271h-9h-65v-146
c0 -86 -63 -118 -103 -144c23 21 31 54 31 92v519c0 10 1 19 3 28c-2 -1 -3 -2 -4 -3c0 0 2 4 6 9c5 14 15 28 33 43c16 19 35 36 51 36l99 -2c101 0 122 -75 122 -200v-61c0 -88 -33 -134 -86 -155c43 -78 85 -229 123 -229zM113 332c9 4 19 5 31 5h55c45 0 81 26 81 93v36
c0 118 -12 159 -108 159h-59v-293z" />
    <glyph glyph-name="uni0157" unicode="&#x157;" horiz-adv-x="423" 
d="M226 755c16 42 -24 134 -68 108l-7 5c35 36 76 46 96 27c35 -37 17 -114 -11 -143zM388 53c14 0 25 8 25 8s-16 -66 -73 -66c-48 0 -109 212 -153 271h-9h-65v-146c0 -86 -63 -118 -103 -144c23 21 31 54 31 92v519c0 10 1 19 3 28c-2 -1 -3 -2 -4 -3c0 0 2 4 6 9
c5 14 15 28 33 43c16 19 35 36 51 36l99 -2c101 0 122 -75 122 -200v-61c0 -88 -33 -134 -86 -155c43 -78 85 -229 123 -229zM113 332c9 4 19 5 31 5h55c45 0 81 26 81 93v36c0 118 -12 159 -108 159h-59v-293z" />
    <glyph glyph-name="s" unicode="s" horiz-adv-x="377" 
d="M360 186c0 -34 -18 -60 -35 -77l2 1c-20 -28 -89 -119 -150 -119c-68 0 -156 70 -167 115c0 0 32 42 65 54c-3 -15 59 -103 152 -103c21 0 48 16 65 29c54 112 -171 305 -241 395c-71 90 42 171 59 180l4 -1c23 17 58 41 71 45c11 0 173 36 170 -103
c-4 -31 -61 -71 -61 -71c29 62 -29 120 -113 120c-26 0 -46 -1 -61 -2c-26 -26 -61 -64 13 -146c82 -93 227 -223 227 -317z" />
    <glyph glyph-name="sacute" unicode="&#x15b;" horiz-adv-x="377" 
d="M173 775c-10 -9 -10 -26 -10 -26c-46 46 -50 67 -31 86l67 66c10 10 14 17 13 32c39 -39 58 -60 30 -88zM360 186c0 -34 -18 -60 -35 -77l2 1c-20 -28 -89 -119 -150 -119c-68 0 -156 70 -167 115c0 0 32 42 65 54c-3 -15 59 -103 152 -103c21 0 48 16 65 29
c54 112 -171 305 -241 395c-71 90 42 171 59 180l4 -1c23 17 58 41 71 45c11 0 173 36 170 -103c-4 -31 -61 -71 -61 -71c29 62 -29 120 -113 120c-26 0 -46 -1 -61 -2c-26 -26 -61 -64 13 -146c82 -93 227 -223 227 -317z" />
    <glyph glyph-name="scaron" unicode="&#x161;" horiz-adv-x="377" 
d="M178 764l-89 88c-27 28 -8 49 31 88c-1 -15 3 -22 13 -32l73 -72l65 66c28 28 49 9 88 -30c-15 0 -22 -3 -32 -13l-94 -95c-13 -13 -26 -16 -47 -3c-3 0 -6 1 -8 3zM360 186c0 -34 -18 -60 -35 -77l2 1c-20 -28 -89 -119 -150 -119c-68 0 -156 70 -167 115
c0 0 32 42 65 54c-3 -15 59 -103 152 -103c21 0 48 16 65 29c54 112 -171 305 -241 395c-71 90 42 171 59 180l4 -1c23 17 58 41 71 45c11 0 173 36 170 -103c-4 -31 -61 -71 -61 -71c29 62 -29 120 -113 120c-26 0 -46 -1 -61 -2c-26 -26 -61 -64 13 -146
c82 -93 227 -223 227 -317z" />
    <glyph glyph-name="scedilla" unicode="&#x15f;" horiz-adv-x="377" 
d="M360 186c0 -34 -18 -60 -35 -77l2 1c-20 -28 -89 -119 -150 -119c-68 0 -156 70 -167 115c0 0 32 42 65 54c-3 -15 59 -103 152 -103c21 0 48 16 65 29c54 112 -171 305 -241 395c-71 90 42 171 59 180l4 -1c23 17 58 41 71 45c11 0 173 36 170 -103
c-4 -31 -61 -71 -61 -71c29 62 -29 120 -113 120c-26 0 -46 -1 -61 -2c-26 -26 -61 -64 13 -146c82 -93 227 -223 227 -317zM264 -27c4 -3 8 -6 11 -10c29 -30 32 -64 32 -85c0 -79 -41 -118 -108 -118c-18 0 -55 25 -72 37c41 -22 134 2 134 89v31h-43c-42 0 -54 19 -89 77
c0 0 16 -13 33 -13h61c15 0 25 -1 34 -5c-2 3 -4 5 -4 5c4 -3 8 -5 11 -8zM127 -203c-3 2 -6 4 -9 7z" />
    <glyph glyph-name="scircumflex" unicode="&#x15d;" horiz-adv-x="377" 
d="M133 784c-10 -10 -14 -17 -13 -32c-39 39 -58 60 -31 88l59 58h-1l16 16l15 14c3 3 6 3 8 3c21 13 35 10 47 -2l94 -95c10 -10 17 -14 32 -13c-39 -40 -60 -59 -88 -31l-66 66zM360 186c0 -34 -18 -60 -35 -77l2 1c-20 -28 -89 -119 -150 -119c-68 0 -156 70 -167 115
c0 0 32 42 65 54c-3 -15 59 -103 152 -103c21 0 48 16 65 29c54 112 -171 305 -241 395c-71 90 42 171 59 180l4 -1c23 17 58 41 71 45c11 0 173 36 170 -103c-4 -31 -61 -71 -61 -71c29 62 -29 120 -113 120c-26 0 -46 -1 -61 -2c-26 -26 -61 -64 13 -146
c82 -93 227 -223 227 -317z" />
    <glyph glyph-name="uni0219" unicode="&#x219;" horiz-adv-x="377" 
d="M203 755c16 42 -24 134 -68 108l-7 5c35 36 76 46 96 27c35 -37 17 -114 -11 -143zM360 186c0 -34 -18 -60 -35 -77l2 1c-20 -28 -89 -119 -150 -119c-68 0 -156 70 -167 115c0 0 32 42 65 54c-3 -15 59 -103 152 -103c21 0 48 16 65 29c54 112 -171 305 -241 395
c-71 90 42 171 59 180l4 -1c23 17 58 41 71 45c11 0 173 36 170 -103c-4 -31 -61 -71 -61 -71c29 62 -29 120 -113 120c-26 0 -46 -1 -61 -2c-26 -26 -61 -64 13 -146c82 -93 227 -223 227 -317z" />
    <glyph glyph-name="uni1E63" unicode="&#x1e63;" horiz-adv-x="377" 
d="M360 186c0 -34 -18 -60 -35 -77l2 1c-20 -28 -89 -119 -150 -119c-68 0 -156 70 -167 115c0 0 32 42 65 54c-3 -15 59 -103 152 -103c21 0 48 16 65 29c54 112 -171 305 -241 395c-71 90 42 171 59 180l4 -1c23 17 58 41 71 45c11 0 173 36 170 -103
c-4 -31 -61 -71 -61 -71c29 62 -29 120 -113 120c-26 0 -46 -1 -61 -2c-26 -26 -61 -64 13 -146c82 -93 227 -223 227 -317zM229 -60l37 -38c11 -10 16 -12 31 -12c-28 -28 -60 -57 -87 -30l-41 40c-7 9 -24 9 -24 9c35 34 62 53 84 31z" />
    <glyph glyph-name="germandbls" unicode="&#xdf;" horiz-adv-x="324" 
d="M207 406c39 -27 131 -102 131 -204c0 -129 -80 -192 -132 -192c-27 0 -66 6 -104 30l-6 4c-2 -35 -16 -66 -86 -113c0 0 12 13 12 25v559c0 78 47 113 86 139c16 32 65 54 65 54c47 -12 108 -97 108 -169c0 -56 -44 -107 -74 -133zM258 173c16 142 -26 184 -84 231l5 4
l-2 1s47 45 47 71c0 104 -84 159 -111 167c-13 -20 -17 -47 -17 -76v-495c7 -2 15 -4 22 -5c56 -8 128 2 140 102z" />
    <glyph glyph-name="t" unicode="t" horiz-adv-x="376" 
d="M381 700c14 0 25 14 25 14c-40 -62 -71 -82 -107 -82h-70v-510c0 -84 -62 -117 -98 -142c20 21 30 54 30 92v495c0 23 4 42 23 65h-150c-10 0 -24 -11 -24 -11c44 59 70 79 107 79h264z" />
    <glyph glyph-name="tbar" unicode="&#x167;" horiz-adv-x="416" 
d="M299 632h-70v-254h83c12 0 24 11 24 11c-34 -49 -54 -61 -91 -61h-16v-206c0 -84 -62 -117 -98 -142c20 21 30 54 30 92v256h-88c-11 0 -23 -11 -23 -11c36 47 53 61 91 61h20v189c0 23 4 42 23 65h-150c-10 0 -24 -11 -24 -11c44 59 70 79 107 79h264c14 0 25 14 25 14
c-40 -62 -71 -82 -107 -82z" />
    <glyph glyph-name="tcaron" unicode="&#x165;" horiz-adv-x="376" 
d="M198 764l-89 88c-27 28 -8 49 31 88c-1 -15 3 -22 13 -32l73 -72l65 66c28 28 49 9 88 -30c-15 0 -22 -3 -32 -13l-94 -95c-13 -13 -26 -16 -47 -3c-3 0 -6 1 -8 3zM381 700c14 0 25 14 25 14c-40 -62 -71 -82 -107 -82h-70v-510c0 -84 -62 -117 -98 -142
c20 21 30 54 30 92v495c0 23 4 42 23 65h-150c-10 0 -24 -11 -24 -11c44 59 70 79 107 79h264z" />
    <glyph glyph-name="uni0163" unicode="&#x163;" horiz-adv-x="376" 
d="M229 122c0 -70 -43 -105 -79 -129c4 -3 18 -12 32 -12h61c15 0 25 -1 34 -5c-2 3 -4 5 -4 5c4 -3 8 -5 11 -8c4 -3 8 -6 11 -10c29 -30 32 -64 32 -85c0 -79 -41 -118 -108 -118c-18 0 -55 25 -72 37c41 -22 134 2 134 89v31h-43c-42 0 -54 19 -88 76l-19 -13
c20 21 30 54 30 92v495c0 23 4 42 23 65h-150c-10 0 -24 -11 -24 -11c44 59 70 79 107 79h264c14 0 25 14 25 14c-40 -62 -71 -82 -107 -82h-70v-510zM147 -203c-3 2 -6 4 -9 7z" />
    <glyph glyph-name="uni021B" unicode="&#x21b;" horiz-adv-x="376" 
d="M223 755c16 42 -24 134 -68 108l-7 5c35 36 76 46 96 27c35 -37 17 -114 -11 -143zM381 700c14 0 25 14 25 14c-40 -62 -71 -82 -107 -82h-70v-510c0 -84 -62 -117 -98 -142c20 21 30 54 30 92v495c0 23 4 42 23 65h-150c-10 0 -24 -11 -24 -11c44 59 70 79 107 79h264z
" />
    <glyph glyph-name="uni1E6D" unicode="&#x1e6d;" horiz-adv-x="376" 
d="M381 700c14 0 25 14 25 14c-40 -62 -71 -82 -107 -82h-70v-510c0 -84 -62 -117 -98 -142c20 21 30 54 30 92v495c0 23 4 42 23 65h-150c-10 0 -24 -11 -24 -11c44 59 70 79 107 79h264zM249 -60l37 -38c11 -10 16 -12 31 -12c-28 -28 -60 -57 -87 -30l-41 40
c-7 9 -24 9 -24 9c35 34 62 53 84 31z" />
    <glyph glyph-name="u" unicode="u" horiz-adv-x="358" 
d="M264 708c73 -45 83 -79 83 -117v-432c0 -82 -55 -115 -96 -140c-17 -15 -36 -28 -51 -28c-90 0 -178 56 -178 197v498c0 11 -12 24 -12 24c73 -45 83 -74 83 -112v-389c0 -150 110 -181 175 -157c6 16 8 35 8 55v577c0 12 -12 24 -12 24z" />
    <glyph glyph-name="uacute" unicode="&#xfa;" horiz-adv-x="358" 
d="M163 775c-10 -9 -10 -26 -10 -26c-46 46 -50 67 -31 86l67 66c10 10 14 17 13 32c39 -39 58 -60 30 -88zM264 708c73 -45 83 -79 83 -117v-432c0 -82 -55 -115 -96 -140c-17 -15 -36 -28 -51 -28c-90 0 -178 56 -178 197v498c0 11 -12 24 -12 24c73 -45 83 -74 83 -112
v-389c0 -150 110 -181 175 -157c6 16 8 35 8 55v577c0 12 -12 24 -12 24z" />
    <glyph glyph-name="ubreve" unicode="&#x16d;" horiz-adv-x="358" 
d="M267 801c-56 -56 -118 -55 -165 -7c-12 13 -20 55 -24 77c14 -45 97 -93 158 -32l56 56c5 5 5 18 5 18c12 -58 -11 -94 -30 -112zM78 871c-1 4 -2 8 -2 12zM264 708c73 -45 83 -79 83 -117v-432c0 -82 -55 -115 -96 -140c-17 -15 -36 -28 -51 -28c-90 0 -178 56 -178 197
v498c0 11 -12 24 -12 24c73 -45 83 -74 83 -112v-389c0 -150 110 -181 175 -157c6 16 8 35 8 55v577c0 12 -12 24 -12 24z" />
    <glyph glyph-name="uni01D4" unicode="&#x1d4;" horiz-adv-x="358" 
d="M168 764l-89 88c-27 28 -8 49 31 88c-1 -15 3 -22 13 -32l73 -72l65 66c28 28 49 9 88 -30c-15 0 -22 -3 -32 -13l-94 -95c-13 -13 -26 -16 -47 -3c-3 0 -6 1 -8 3zM264 708c73 -45 83 -79 83 -117v-432c0 -82 -55 -115 -96 -140c-17 -15 -36 -28 -51 -28
c-90 0 -178 56 -178 197v498c0 11 -12 24 -12 24c73 -45 83 -74 83 -112v-389c0 -150 110 -181 175 -157c6 16 8 35 8 55v577c0 12 -12 24 -12 24z" />
    <glyph glyph-name="ucircumflex" unicode="&#xfb;" horiz-adv-x="358" 
d="M123 784c-10 -10 -14 -17 -13 -32c-39 39 -58 60 -31 88l59 58h-1l16 16l15 14c3 3 6 3 8 3c21 13 35 10 47 -2l94 -95c10 -10 17 -14 32 -13c-39 -40 -60 -59 -88 -31l-66 66zM264 708c73 -45 83 -79 83 -117v-432c0 -82 -55 -115 -96 -140c-17 -15 -36 -28 -51 -28
c-90 0 -178 56 -178 197v498c0 11 -12 24 -12 24c73 -45 83 -74 83 -112v-389c0 -150 110 -181 175 -157c6 16 8 35 8 55v577c0 12 -12 24 -12 24z" />
    <glyph glyph-name="udieresis" unicode="&#xfc;" horiz-adv-x="358" 
d="M75 775l-40 40c-8 8 -25 8 -25 8c35 35 62 54 84 32l38 -38c10 -10 16 -13 31 -12c-28 -28 -60 -58 -88 -30zM250 775l-40 40c-8 8 -25 8 -25 8c35 35 62 54 85 32l37 -38c10 -10 16 -13 31 -12c-28 -28 -60 -58 -88 -30zM264 708c73 -45 83 -79 83 -117v-432
c0 -82 -55 -115 -96 -140c-17 -15 -36 -28 -51 -28c-90 0 -178 56 -178 197v498c0 11 -12 24 -12 24c73 -45 83 -74 83 -112v-389c0 -150 110 -181 175 -157c6 16 8 35 8 55v577c0 12 -12 24 -12 24z" />
    <glyph glyph-name="uni1EE5" unicode="&#x1ee5;" horiz-adv-x="358" 
d="M264 708c73 -45 83 -79 83 -117v-432c0 -82 -55 -115 -96 -140c-17 -15 -36 -28 -51 -28c-90 0 -178 56 -178 197v498c0 11 -12 24 -12 24c73 -45 83 -74 83 -112v-389c0 -150 110 -181 175 -157c6 16 8 35 8 55v577c0 12 -12 24 -12 24zM220 -60l37 -38
c11 -10 16 -12 31 -12c-28 -28 -60 -57 -87 -30l-41 40c-7 9 -24 9 -24 9c35 34 62 53 84 31z" />
    <glyph glyph-name="ugrave" unicode="&#xf9;" horiz-adv-x="358" 
d="M194 775l-70 70c-27 28 -8 49 31 88c-1 -15 2 -22 12 -32l67 -66c19 -19 15 -40 -31 -86c0 0 0 17 -9 26zM264 708c73 -45 83 -79 83 -117v-432c0 -82 -55 -115 -96 -140c-17 -15 -36 -28 -51 -28c-90 0 -178 56 -178 197v498c0 11 -12 24 -12 24c73 -45 83 -74 83 -112
v-389c0 -150 110 -181 175 -157c6 16 8 35 8 55v577c0 12 -12 24 -12 24z" />
    <glyph glyph-name="uhungarumlaut" unicode="&#x171;" horiz-adv-x="358" 
d="M105 755c16 42 -24 134 -68 108l-7 5c35 36 76 46 96 27c35 -37 17 -114 -11 -143zM253 755c16 42 -24 134 -68 108l-7 5c35 36 76 46 96 27c35 -37 17 -114 -11 -143zM264 708c73 -45 83 -79 83 -117v-432c0 -82 -55 -115 -96 -140c-17 -15 -36 -28 -51 -28
c-90 0 -178 56 -178 197v498c0 11 -12 24 -12 24c73 -45 83 -74 83 -112v-389c0 -150 110 -181 175 -157c6 16 8 35 8 55v577c0 12 -12 24 -12 24z" />
    <glyph glyph-name="umacron" unicode="&#x16b;" horiz-adv-x="358" 
d="M253 762h-212c-13 0 -27 -12 -27 -12c38 52 55 72 96 72h206c11 0 27 12 27 12c-36 -52 -52 -72 -90 -72zM264 708c73 -45 83 -79 83 -117v-432c0 -82 -55 -115 -96 -140c-17 -15 -36 -28 -51 -28c-90 0 -178 56 -178 197v498c0 11 -12 24 -12 24c73 -45 83 -74 83 -112
v-389c0 -150 110 -181 175 -157c6 16 8 35 8 55v577c0 12 -12 24 -12 24z" />
    <glyph glyph-name="uogonek" unicode="&#x173;" horiz-adv-x="358" 
d="M251 19c-14 -12 -28 -22 -41 -26v-60c0 -99 84 -120 121 -98c-15 -12 -49 -35 -65 -35c-63 0 -99 40 -99 128c0 16 3 40 20 63c-85 6 -165 63 -165 197v498c0 11 -12 24 -12 24c73 -45 83 -74 83 -112v-389c0 -150 110 -181 175 -157c6 16 8 35 8 55v577
c0 12 -12 24 -12 24c73 -45 83 -79 83 -117v-432c0 -82 -55 -115 -96 -140zM331 -165c6 3 9 6 9 6c-2 -2 -5 -5 -9 -6z" />
    <glyph glyph-name="uring" unicode="&#x16f;" horiz-adv-x="358" 
d="M188 753c-63 0 -99 40 -99 129c0 23 6 63 50 91c15 12 34 24 46 24c56 0 100 -34 100 -120v-32c0 -20 -5 -36 -33 -58c0 0 1 0 1 1c-15 -12 -49 -35 -65 -35zM241 864c0 92 -69 117 -107 102c-1 -2 -2 -4 -2 -6v-74c0 -88 66 -115 108 -104c0 2 1 4 1 6v76zM122 960
l-4 -4zM253 788c6 3 9 6 9 6c-2 -2 -5 -5 -9 -6zM264 708c73 -45 83 -79 83 -117v-432c0 -82 -55 -115 -96 -140c-17 -15 -36 -28 -51 -28c-90 0 -178 56 -178 197v498c0 11 -12 24 -12 24c73 -45 83 -74 83 -112v-389c0 -150 110 -181 175 -157c6 16 8 35 8 55v577
c0 12 -12 24 -12 24z" />
    <glyph glyph-name="utilde" unicode="&#x169;" horiz-adv-x="358" 
d="M298 778c-14 -2 -27 -2 -41 0c10 -1 19 -1 29 0c29 0 43 18 64 61c-14 -34 -32 -60 -52 -61zM80 814c-12 1 -22 -5 -32 -15c10 11 21 16 38 17c57 6 114 -29 171 -38c-59 7 -118 45 -177 36zM48 799c-9 -10 -17 -24 -27 -44c8 17 17 33 27 44zM264 708
c73 -45 83 -79 83 -117v-432c0 -82 -55 -115 -96 -140c-17 -15 -36 -28 -51 -28c-90 0 -178 56 -178 197v498c0 11 -12 24 -12 24c73 -45 83 -74 83 -112v-389c0 -150 110 -181 175 -157c6 16 8 35 8 55v577c0 12 -12 24 -12 24z" />
    <glyph glyph-name="v" unicode="v" horiz-adv-x="452" 
d="M334 615c14 53 38 95 108 97c0 0 -25 -21 -33 -60l-115 -555c-33 -130 -106 -105 -106 -105c-20 3 -38 24 -43 55l-71 533c-11 77 -64 68 -64 68s48 63 86 60c27 -2 39 -35 43 -58l71 -544c3 -18 8 -31 13 -40c1 5 3 10 4 15z" />
    <glyph glyph-name="w" unicode="w" horiz-adv-x="684" 
d="M577 605c8 54 28 100 97 108c0 0 -21 -23 -27 -62l-71 -544c-18 -118 -80 -117 -93 -115c-26 -6 -49 17 -56 55l-74 534l-59 -474c-18 -117 -80 -117 -93 -115c-26 -5 -49 17 -56 55l-71 529c-10 79 -64 73 -64 73s47 63 85 59c27 -2 40 -35 43 -57l72 -545
c4 -21 9 -36 14 -46c2 9 3 17 4 25l62 503c6 43 20 80 58 97c10 7 20 11 30 10c2 0 3 0 5 -1c1 1 2 1 4 1l-1 -1c21 -7 31 -36 34 -57l73 -531c3 -20 8 -34 15 -44l3 23z" />
    <glyph glyph-name="wacute" unicode="&#x1e83;" horiz-adv-x="684" 
d="M350 775c-10 -9 -10 -26 -10 -26c-46 46 -50 67 -31 86l67 66c10 10 14 17 13 32c39 -39 58 -60 30 -88zM577 605c8 54 28 100 97 108c0 0 -21 -23 -27 -62l-71 -544c-18 -118 -80 -117 -93 -115c-26 -6 -49 17 -56 55l-74 534l-59 -474c-18 -117 -80 -117 -93 -115
c-26 -5 -49 17 -56 55l-71 529c-10 79 -64 73 -64 73s47 63 85 59c27 -2 40 -35 43 -57l72 -545c4 -21 9 -36 14 -46c2 9 3 17 4 25l62 503c6 43 20 80 58 97c10 7 20 11 30 10c2 0 3 0 5 -1c1 1 2 1 4 1l-1 -1c21 -7 31 -36 34 -57l73 -531c3 -20 8 -34 15 -44l3 23z" />
    <glyph glyph-name="wcircumflex" unicode="&#x175;" horiz-adv-x="684" 
d="M310 784c-10 -10 -14 -17 -13 -32c-39 39 -58 60 -31 88l59 58h-1l16 16l15 14c3 3 6 3 8 3c21 13 35 10 47 -2l94 -95c10 -10 17 -14 32 -13c-39 -40 -60 -59 -88 -31l-66 66zM577 605c8 54 28 100 97 108c0 0 -21 -23 -27 -62l-71 -544c-18 -118 -80 -117 -93 -115
c-26 -6 -49 17 -56 55l-74 534l-59 -474c-18 -117 -80 -117 -93 -115c-26 -5 -49 17 -56 55l-71 529c-10 79 -64 73 -64 73s47 63 85 59c27 -2 40 -35 43 -57l72 -545c4 -21 9 -36 14 -46c2 9 3 17 4 25l62 503c6 43 20 80 58 97c10 7 20 11 30 10c2 0 3 0 5 -1c1 1 2 1 4 1
l-1 -1c21 -7 31 -36 34 -57l73 -531c3 -20 8 -34 15 -44l3 23z" />
    <glyph glyph-name="wdieresis" unicode="&#x1e85;" horiz-adv-x="684" 
d="M262 775l-40 40c-8 8 -25 8 -25 8c35 35 62 54 84 32l38 -38c10 -10 16 -13 31 -12c-28 -28 -60 -58 -88 -30zM437 775l-40 40c-8 8 -25 8 -25 8c35 35 62 54 85 32l37 -38c10 -10 16 -13 31 -12c-28 -28 -60 -58 -88 -30zM577 605c8 54 28 100 97 108
c0 0 -21 -23 -27 -62l-71 -544c-18 -118 -80 -117 -93 -115c-26 -6 -49 17 -56 55l-74 534l-59 -474c-18 -117 -80 -117 -93 -115c-26 -5 -49 17 -56 55l-71 529c-10 79 -64 73 -64 73s47 63 85 59c27 -2 40 -35 43 -57l72 -545c4 -21 9 -36 14 -46c2 9 3 17 4 25l62 503
c6 43 20 80 58 97c10 7 20 11 30 10c2 0 3 0 5 -1c1 1 2 1 4 1l-1 -1c21 -7 31 -36 34 -57l73 -531c3 -20 8 -34 15 -44l3 23z" />
    <glyph glyph-name="wgrave" unicode="&#x1e81;" horiz-adv-x="684" 
d="M380 775l-70 70c-27 28 -8 49 31 88c-1 -15 2 -22 12 -32l67 -66c19 -19 15 -40 -31 -86c0 0 0 17 -9 26zM577 605c8 54 28 100 97 108c0 0 -21 -23 -27 -62l-71 -544c-18 -118 -80 -117 -93 -115c-26 -6 -49 17 -56 55l-74 534l-59 -474c-18 -117 -80 -117 -93 -115
c-26 -5 -49 17 -56 55l-71 529c-10 79 -64 73 -64 73s47 63 85 59c27 -2 40 -35 43 -57l72 -545c4 -21 9 -36 14 -46c2 9 3 17 4 25l62 503c6 43 20 80 58 97c10 7 20 11 30 10c2 0 3 0 5 -1c1 1 2 1 4 1l-1 -1c21 -7 31 -36 34 -57l73 -531c3 -20 8 -34 15 -44l3 23z" />
    <glyph glyph-name="x" unicode="x" horiz-adv-x="448" 
d="M372 93c20 -49 59 -27 59 -27c-3 -33 -10 -62 -47 -69c-24 -4 -56 14 -68 40l-90 233l-89 -194c-43 -96 -127 -79 -127 -79c26 15 42 48 57 80l125 279l-87 224c-28 72 -73 54 -73 54s32 61 69 67c26 4 45 -24 54 -45l79 -206l78 173c23 49 57 83 126 71
c0 0 -27 -16 -43 -53l-127 -278z" />
    <glyph glyph-name="y" unicode="y" horiz-adv-x="428" 
d="M302 622c20 48 49 84 116 76c0 0 -25 -17 -39 -53l-108 -271c-6 -16 -14 -28 -21 -36v-240c0 -41 -9 -70 -82 -118c0 0 12 14 12 30v239c0 15 1 27 4 38l-108 298c-22 66 -66 50 -66 50s36 60 73 63c25 3 40 -28 50 -54l85 -238c0 2 1 4 2 6z" />
    <glyph glyph-name="yacute" unicode="&#xfd;" horiz-adv-x="428" 
d="M199 775c-10 -9 -10 -26 -10 -26c-46 46 -50 67 -31 86l67 66c10 10 14 17 13 32c39 -39 58 -60 30 -88zM302 622c20 48 49 84 116 76c0 0 -25 -17 -39 -53l-108 -271c-6 -16 -14 -28 -21 -36v-240c0 -41 -9 -70 -82 -118c0 0 12 14 12 30v239c0 15 1 27 4 38l-108 298
c-22 66 -66 50 -66 50s36 60 73 63c25 3 40 -28 50 -54l85 -238c0 2 1 4 2 6z" />
    <glyph glyph-name="ycircumflex" unicode="&#x177;" horiz-adv-x="428" 
d="M159 784c-10 -10 -14 -17 -13 -32c-39 39 -58 60 -31 88l59 58h-1l16 16l15 14c3 3 6 3 8 3c21 13 35 10 47 -2l94 -95c10 -10 17 -14 32 -13c-39 -40 -60 -59 -88 -31l-66 66zM302 622c20 48 49 84 116 76c0 0 -25 -17 -39 -53l-108 -271c-6 -16 -14 -28 -21 -36v-240
c0 -41 -9 -70 -82 -118c0 0 12 14 12 30v239c0 15 1 27 4 38l-108 298c-22 66 -66 50 -66 50s36 60 73 63c25 3 40 -28 50 -54l85 -238c0 2 1 4 2 6z" />
    <glyph glyph-name="ydieresis" unicode="&#xff;" horiz-adv-x="428" 
d="M111 775l-40 40c-8 8 -25 8 -25 8c35 35 62 54 84 32l38 -38c10 -10 16 -13 31 -12c-28 -28 -60 -58 -88 -30zM286 775l-40 40c-8 8 -25 8 -25 8c35 35 62 54 85 32l37 -38c10 -10 16 -13 31 -12c-28 -28 -60 -58 -88 -30zM302 622c20 48 49 84 116 76
c0 0 -25 -17 -39 -53l-108 -271c-6 -16 -14 -28 -21 -36v-240c0 -41 -9 -70 -82 -118c0 0 12 14 12 30v239c0 15 1 27 4 38l-108 298c-22 66 -66 50 -66 50s36 60 73 63c25 3 40 -28 50 -54l85 -238c0 2 1 4 2 6z" />
    <glyph glyph-name="ygrave" unicode="&#x1ef3;" horiz-adv-x="428" 
d="M229 775l-70 70c-27 28 -8 49 31 88c-1 -15 2 -22 12 -32l67 -66c19 -19 15 -40 -31 -86c0 0 0 17 -9 26zM302 622c20 48 49 84 116 76c0 0 -25 -17 -39 -53l-108 -271c-6 -16 -14 -28 -21 -36v-240c0 -41 -9 -70 -82 -118c0 0 12 14 12 30v239c0 15 1 27 4 38l-108 298
c-22 66 -66 50 -66 50s36 60 73 63c25 3 40 -28 50 -54l85 -238c0 2 1 4 2 6z" />
    <glyph glyph-name="uni0233" unicode="&#x233;" horiz-adv-x="428" 
d="M289 762h-212c-13 0 -27 -12 -27 -12c38 52 55 72 96 72h206c11 0 27 12 27 12c-36 -52 -52 -72 -90 -72zM302 622c20 48 49 84 116 76c0 0 -25 -17 -39 -53l-108 -271c-6 -16 -14 -28 -21 -36v-240c0 -41 -9 -70 -82 -118c0 0 12 14 12 30v239c0 15 1 27 4 38l-108 298
c-22 66 -66 50 -66 50s36 60 73 63c25 3 40 -28 50 -54l85 -238c0 2 1 4 2 6z" />
    <glyph glyph-name="uni1EF9" unicode="&#x1ef9;" horiz-adv-x="428" 
d="M333 778c-14 -2 -27 -2 -41 0c10 -1 19 -1 29 0c29 0 43 18 64 61c-14 -34 -32 -60 -52 -61zM115 814c-12 1 -22 -5 -32 -15c10 11 21 16 38 17c57 6 114 -29 171 -38c-59 7 -118 45 -177 36zM83 799c-9 -10 -17 -24 -27 -44c8 17 17 33 27 44zM302 622
c20 48 49 84 116 76c0 0 -25 -17 -39 -53l-108 -271c-6 -16 -14 -28 -21 -36v-240c0 -41 -9 -70 -82 -118c0 0 12 14 12 30v239c0 15 1 27 4 38l-108 298c-22 66 -66 50 -66 50s36 60 73 63c25 3 40 -28 50 -54l85 -238c0 2 1 4 2 6z" />
    <glyph glyph-name="z" unicode="z" horiz-adv-x="456" 
d="M446 710c0 0 -8 -6 -15 -13l-7 -10c-1 0 -1 -1 -1 -1l-277 -595c-4 -8 -7 -15 -12 -22h241c15 0 29 12 29 12c-42 -58 -68 -84 -113 -84h-245l-36 -19s8 6 14 13l9 12l277 594c5 11 11 22 19 32h-241c-23 0 -40 -13 -40 -13c43 61 68 84 113 84h250c14 0 31 12 31 12
l-5 -6c3 1 6 3 9 4z" />
    <glyph glyph-name="zacute" unicode="&#x17a;" horiz-adv-x="456" 
d="M213 775c-10 -9 -10 -26 -10 -26c-46 46 -50 67 -31 86l67 66c10 10 14 17 13 32c39 -39 58 -60 30 -88zM446 710c0 0 -8 -6 -15 -13l-7 -10c-1 0 -1 -1 -1 -1l-277 -595c-4 -8 -7 -15 -12 -22h241c15 0 29 12 29 12c-42 -58 -68 -84 -113 -84h-245l-36 -19s8 6 14 13
l9 12l277 594c5 11 11 22 19 32h-241c-23 0 -40 -13 -40 -13c43 61 68 84 113 84h250c14 0 31 12 31 12l-5 -6c3 1 6 3 9 4z" />
    <glyph glyph-name="zcaron" unicode="&#x17e;" horiz-adv-x="456" 
d="M218 764l-89 88c-27 28 -8 49 31 88c-1 -15 3 -22 13 -32l73 -72l65 66c28 28 49 9 88 -30c-15 0 -22 -3 -32 -13l-94 -95c-13 -13 -26 -16 -47 -3c-3 0 -6 1 -8 3zM446 710c0 0 -8 -6 -15 -13l-7 -10c-1 0 -1 -1 -1 -1l-277 -595c-4 -8 -7 -15 -12 -22h241
c15 0 29 12 29 12c-42 -58 -68 -84 -113 -84h-245l-36 -19s8 6 14 13l9 12l277 594c5 11 11 22 19 32h-241c-23 0 -40 -13 -40 -13c43 61 68 84 113 84h250c14 0 31 12 31 12l-5 -6c3 1 6 3 9 4z" />
    <glyph glyph-name="zdotaccent" unicode="&#x17c;" horiz-adv-x="456" 
d="M173 811c-7 8 -24 8 -24 8c35 35 62 53 84 32l37 -38c11 -10 16 -13 31 -12c-28 -28 -60 -58 -87 -30zM446 710c0 0 -8 -6 -15 -13l-7 -10c-1 0 -1 -1 -1 -1l-277 -595c-4 -8 -7 -15 -12 -22h241c15 0 29 12 29 12c-42 -58 -68 -84 -113 -84h-245l-36 -19s8 6 14 13l9 12
l277 594c5 11 11 22 19 32h-241c-23 0 -40 -13 -40 -13c43 61 68 84 113 84h250c14 0 31 12 31 12l-5 -6c3 1 6 3 9 4z" />
    <glyph glyph-name="uni1E93" unicode="&#x1e93;" horiz-adv-x="456" 
d="M446 710c0 0 -8 -6 -15 -13l-7 -10c-1 0 -1 -1 -1 -1l-277 -595c-4 -8 -7 -15 -12 -22h241c15 0 29 12 29 12c-42 -58 -68 -84 -113 -84h-245l-36 -19s8 6 14 13l9 12l277 594c5 11 11 22 19 32h-241c-23 0 -40 -13 -40 -13c43 61 68 84 113 84h250c14 0 31 12 31 12
l-5 -6c3 1 6 3 9 4zM269 -60l37 -38c11 -10 16 -12 31 -12c-28 -28 -60 -57 -87 -30l-41 40c-7 9 -24 9 -24 9c35 34 62 53 84 31z" />
    <glyph glyph-name="zero" unicode="0" horiz-adv-x="351" 
d="M337 474c17 -204 -17 -335 -72 -414h-1c-14 -23 -47 -65 -103 -69c-77 -7 -137 123 -147 235c-17 200 19 334 71 413c6 15 34 65 99 70c77 7 143 -122 153 -235zM210 40c10 0 23 8 35 15l-20 -5c56 96 59 202 44 379s-90 232 -126 231c-8 0 -16 -2 -23 -4
c-55 -95 -54 -211 -38 -385c15 -177 95 -232 128 -231z" />
    <glyph glyph-name="one" unicode="1" horiz-adv-x="206" 
d="M159 683c10 8 22 17 37 27c0 0 -12 -12 -12 -24v-564c0 -85 -61 -117 -101 -142c23 21 31 53 31 91v521c0 6 0 11 1 16c-55 -59 -105 -3 -105 -3s82 33 149 78z" />
    <glyph glyph-name="two" unicode="2" horiz-adv-x="401" 
d="M362 73c12 0 29 11 29 11c-49 -74 -67 -84 -110 -84h-246c-11 0 -25 -11 -25 -11c7 10 13 19 19 27c50 75 276 415 276 518c0 92 -23 132 -72 132c-43 0 -76 -29 -88 -42h1c-68 -82 -56 -175 -7 -181c-37 -21 -68 -32 -68 -32s-34 32 -34 71c0 99 92 148 92 148
s73 78 114 78c65 0 132 -20 132 -145c0 -94 -169 -378 -238 -490h225z" />
    <glyph glyph-name="three" unicode="3" horiz-adv-x="426" 
d="M200 422c75 8 205 -37 205 -161c0 -85 -53 -152 -97 -192c-27 -32 -75 -78 -126 -78c-68 0 -161 70 -172 115c0 0 31 42 64 54c-3 -15 44 -114 155 -114c10 0 24 7 38 16c37 35 69 91 69 139c0 182 -169 180 -221 170l-11 7l191 250h-243c-16 0 -30 -11 -30 -11
c49 73 71 82 110 82h260c12 0 24 12 24 12c-14 -21 -25 -36 -35 -48z" />
    <glyph glyph-name="four" unicode="4" 
d="M384 361c-14 -22 -27 -38 -39 -49v-190c0 -85 -61 -117 -101 -142c23 21 31 53 31 91v209h-6h-231c-11 0 -28 -12 -28 -12c178 273 121 330 91 345c0 0 45 27 64 51c0 0 74 -55 32 -141l-85 -173h13h150v245c0 37 10 67 82 115c0 0 -12 -25 -12 -36v-324h10
c12 0 29 11 29 11z" />
    <glyph glyph-name="five" unicode="5" horiz-adv-x="437" 
d="M138 454c72 32 275 -19 275 -171c0 -107 -77 -191 -122 -231c-27 -30 -64 -61 -103 -61c-68 0 -166 70 -178 115c0 0 37 37 70 49c-3 -15 44 -109 155 -109c5 0 11 2 18 5l-1 2c46 32 92 106 92 166c0 202 -192 195 -258 174c-13 -11 -26 -20 -39 -25c23 21 19 57 19 68
v135c0 18 2 35 13 53c-6 -3 -10 -7 -10 -7c48 73 69 82 107 82h227c12 0 24 12 24 12c-49 -73 -68 -83 -106 -83h-185v-134c0 -16 -4 -32 -10 -46c7 3 12 6 12 6z" />
    <glyph glyph-name="six" unicode="6" horiz-adv-x="386" 
d="M376 231c0 -104 -106 -178 -139 -199c-13 -17 -37 -41 -75 -41c-77 0 -152 135 -152 248c0 204 43 341 105 414h1c13 16 39 44 53 48c12 0 206 40 197 -112c-3 -30 -65 -54 -65 -54c29 61 -10 114 -93 114c-19 0 -36 -1 -50 -1c-48 -76 -70 -171 -76 -300
c66 56 120 77 163 77c49 0 131 -71 131 -194zM220 38c55 45 85 86 80 212c-5 135 -152 131 -182 107l-36 -29c-1 -17 -1 -34 -1 -51c0 -178 93 -242 118 -242c7 0 14 1 21 3z" />
    <glyph glyph-name="seven" unicode="7" horiz-adv-x="421" 
d="M409 710c-3 -4 -6 -8 -8 -12l2 -2s-266 -300 -275 -653c0 0 -63 -33 -90 -67c0 0 -19 270 270 651h-1h-260c-22 0 -37 -12 -37 -12c42 60 74 83 106 83h269c12 0 24 12 24 12z" />
    <glyph glyph-name="eight" unicode="8" horiz-adv-x="404" 
d="M394 171c0 -51 -54 -94 -82 -113c-26 -26 -77 -67 -137 -67c-112 0 -165 79 -165 125c0 90 43 182 151 252c-65 43 -124 77 -124 145c0 97 88 143 88 143c15 15 66 56 103 56c36 0 141 -21 141 -151c0 -60 -71 -135 -110 -171c69 -53 135 -117 135 -219zM106 549
c0 -55 65 -95 133 -145c26 30 62 80 62 125c0 143 -125 117 -162 106c-24 -31 -33 -49 -33 -86zM77 169c0 -57 51 -119 158 -119c45 0 78 42 78 42l4 -2c4 5 7 10 7 13c0 135 -69 200 -140 249c-81 -50 -107 -129 -107 -183z" />
    <glyph glyph-name="nine" unicode="9" horiz-adv-x="395" 
d="M385 461c0 -160 -28 -289 -75 -365h1c-19 -31 -80 -105 -140 -105c-69 0 -149 70 -161 115c0 0 32 42 65 53c-3 -14 29 -113 139 -113c25 0 59 44 59 44c34 58 40 153 41 275c-63 -57 -107 -91 -151 -91c-49 0 -132 61 -132 184c0 97 79 169 115 197l10 7c3 2 5 4 6 5
c24 16 68 43 95 43c77 0 128 -135 128 -249zM291 367l23 22v34c0 178 -79 235 -104 235c-10 0 -21 -5 -30 -10l1 -1c-56 -45 -89 -79 -75 -208c17 -145 155 -96 185 -72z" />
    <glyph glyph-name="period" unicode="." horiz-adv-x="162" 
d="M65 -25c27 -27 59 2 87 30c-15 0 -20 2 -31 12l-37 38c-22 22 -49 3 -84 -31c0 0 17 0 24 -9z" />
    <glyph glyph-name="comma" unicode="," horiz-adv-x="136" 
d="M10 24l7 -5c44 26 84 -66 68 -108l10 -3c28 29 46 106 11 143c-20 20 -61 9 -96 -27z" />
    <glyph glyph-name="colon" unicode=":" horiz-adv-x="173" 
d="M75 338c28 -27 60 2 88 31c-15 -1 -20 2 -30 12l-38 37c-23 22 -49 4 -85 -31c0 0 17 0 25 -8zM75 83c28 -28 60 2 88 30c-15 -1 -20 2 -30 12l-38 38c-23 22 -49 3 -85 -32c0 0 17 0 25 -8z" />
    <glyph glyph-name="semicolon" unicode=";" horiz-adv-x="173" 
d="M75 231c28 -28 59 2 88 30c-15 -1 -20 2 -30 12l-38 38c-23 22 -49 3 -85 -32c0 0 18 0 25 -8zM24 24l8 -5c44 26 83 -66 68 -109l9 -2c28 29 47 106 11 143c-19 20 -60 9 -96 -27z" />
    <glyph glyph-name="exclam" unicode="!" horiz-adv-x="172" 
d="M132 237c0 -86 -62 -103 -102 -129c23 21 31 54 31 91v402c0 37 10 67 82 111c0 0 -11 -13 -11 -24v-451zM75 -24c28 -28 59 1 87 30c-14 -1 -19 1 -29 11l-39 39c-22 21 -48 3 -84 -33c0 0 17 0 25 -8z" />
    <glyph glyph-name="question" unicode="?" horiz-adv-x="345" 
d="M267 655c36 -27 103 -94 45 -168c-71 -91 -246 -269 -186 -380c0 0 -72 25 -72 91c0 94 88 205 170 297c75 84 36 129 13 158c-18 2 -42 3 -68 3c-83 0 -120 -68 -91 -129c0 0 -65 39 -68 70c-10 151 173 111 185 111c16 -4 57 -39 72 -53zM167 17c10 -10 16 -12 31 -11
c-29 -28 -60 -58 -88 -30l-40 39c-8 8 -25 8 -25 8c35 36 62 54 84 33z" />
    <glyph glyph-name="asterisk" unicode="*" horiz-adv-x="319" 
d="M211 428l-17 108l-77 -78l-107 18l51 -97l-50 -98l108 20l77 -78l16 108l97 49z" />
    <glyph glyph-name="numbersign" unicode="#" horiz-adv-x="500" 
d="M350 277h102c12 0 24 12 24 12c-36 -51 -56 -72 -93 -72h-33v-140c0 -11 12 -27 12 -27c-51 31 -71 52 -71 90v77h-80v-140c0 -11 12 -27 12 -27c-51 33 -71 52 -71 90v77h-119c-11 0 -23 -11 -23 -11c38 51 55 71 93 71h49v83h-105c-11 0 -23 -12 -23 -12
c38 52 55 71 93 71h35v140c0 11 -12 27 -12 27c52 -35 71 -54 71 -91v-76h80v140c0 11 -12 27 -12 27c52 -36 71 -54 71 -91v-76h116c12 0 24 12 24 12c-36 -51 -56 -71 -93 -71h-47v-83zM211 277h80v83h-80v-83z" />
    <glyph glyph-name="slash" unicode="/" horiz-adv-x="355" 
d="M55 4l281 603c18 38 8 60 -34 105c0 0 4 -17 -2 -28l-282 -605c-17 -38 -7 -56 38 -99c0 0 -6 12 -1 24z" />
    <glyph glyph-name="backslash" unicode="\" horiz-adv-x="355" 
d="M300 4c5 -12 -1 -24 -1 -24c45 43 55 61 38 99l-282 605c-6 11 -2 28 -2 28c-42 -45 -52 -67 -34 -105z" />
    <glyph glyph-name="parenleft" unicode="(" horiz-adv-x="254" 
d="M183 -60c0 0 0 16 -11 28c-198 216 -215 539 -49 774c32 43 62 48 121 26c0 0 -19 -4 -29 -15c-175 -195 -186 -485 -36 -693c29 -39 28 -59 4 -120z" />
    <glyph glyph-name="parenright" unicode=")" horiz-adv-x="254" 
d="M10 -47c0 0 19 4 29 15c175 195 187 485 36 693c-29 39 -27 59 -4 120c0 0 1 -16 12 -28c198 -216 214 -539 48 -774c-31 -43 -62 -48 -121 -26z" />
    <glyph glyph-name="braceleft" unicode="{" horiz-adv-x="324" 
d="M213 70c38 0 57 -17 101 -82c0 0 -13 12 -24 12h-90c-28 0 -47 8 -74 39c-41 31 -54 49 -54 80v167c0 40 -50 68 -60 74h-2l1 1h-1h2c10 6 60 34 60 75v166c0 32 13 50 54 80c27 31 46 39 74 39h90c11 0 24 12 24 12c-44 -66 -63 -82 -101 -82h-71v-198
c0 -49 -41 -88 -116 -93c75 -4 116 -43 116 -93v-197h71z" />
    <glyph glyph-name="braceright" unicode="}" horiz-adv-x="324" 
d="M313 361l1 -1h-2c-10 -6 -60 -34 -60 -74v-167c0 -31 -13 -49 -54 -80c-27 -31 -46 -39 -74 -39h-90c-11 0 -24 -12 -24 -12c44 65 63 82 101 82h71v197c0 50 41 89 116 93c-75 5 -116 44 -116 93v198h-71c-38 0 -57 16 -101 82c0 0 13 -12 24 -12h90c28 0 47 -8 74 -39
c41 -30 54 -48 54 -80v-166c0 -41 50 -69 60 -75h2h-1z" />
    <glyph glyph-name="bracketleft" unicode="[" horiz-adv-x="260" 
d="M110 70h108c11 0 26 12 26 12c-43 -65 -57 -82 -95 -82h-115c-12 0 -24 -12 -24 -12c4 6 9 12 12 18c-1 -2 -3 -3 -5 -4c0 0 12 12 12 24v603c0 27 10 44 39 69c13 14 25 23 37 27l6 5s-1 -1 -2 -3c8 3 18 4 28 4h89c12 0 24 12 24 12c-43 -66 -63 -82 -101 -82h-49v-559
c0 -13 -2 -23 -7 -34c5 1 11 2 17 2z" />
    <glyph glyph-name="bracketright" unicode="]" horiz-adv-x="266" 
d="M256 743c-4 -6 -7 -11 -11 -16c2 1 3 2 4 3c0 0 -11 -13 -11 -24v-604c0 -8 -1 -15 -3 -22l3 2c-1 -2 -3 -4 -4 -6c-4 -11 -11 -21 -22 -32c-25 -34 -41 -44 -69 -44h-109c-12 0 -24 -12 -24 -12c44 63 62 82 100 82h58v559c0 13 2 24 7 34c-6 -1 -12 -2 -19 -2h-104
c-12 0 -24 -12 -24 -12c44 64 63 82 109 82h95c11 0 24 12 24 12z" />
    <glyph glyph-name="hyphen" unicode="-" horiz-adv-x="393" 
d="M359 298h-258c-38 0 -55 -14 -91 -61c0 0 12 12 23 12h258c37 0 57 11 92 61c0 0 -12 -12 -24 -12z" />
    <glyph glyph-name="underscore" unicode="_" horiz-adv-x="480" 
d="M444 0h-338c-41 0 -58 -20 -96 -72c0 0 14 12 27 12h344c38 0 54 20 89 72c0 0 -15 -12 -26 -12z" />
    <glyph glyph-name="quotedblleft" unicode="&#x201c;" horiz-adv-x="265" 
d="M52 756c-15 -43 23 -135 68 -110l8 -4c-36 -36 -77 -47 -97 -27c-35 37 -17 114 12 143zM255 642c-36 -36 -77 -47 -97 -27c-35 37 -17 114 12 143l9 -2c-16 -43 24 -135 68 -110z" />
    <glyph glyph-name="quotedblright" unicode="&#x201d;" horiz-adv-x="264" 
d="M10 700c36 36 77 47 96 27c36 -37 18 -114 -11 -143l-9 2c15 43 -24 135 -68 109zM234 727c35 -37 17 -114 -11 -143l-10 2c16 43 -24 135 -68 109l-8 5c36 36 77 47 97 27z" />
    <glyph glyph-name="quoteleft" unicode="&#x2018;" horiz-adv-x="138" 
d="M128 642c-36 -36 -77 -47 -97 -27c-35 37 -17 114 12 143l9 -2c-15 -43 23 -135 68 -110z" />
    <glyph glyph-name="quoteright" unicode="&#x2019;" horiz-adv-x="137" 
d="M106 727c36 -37 18 -114 -11 -143l-9 2c15 43 -24 135 -68 109l-8 5c36 36 77 47 96 27z" />
    <glyph glyph-name="quotedbl" unicode="&#x22;" horiz-adv-x="236" 
d="M93 616c0 -14 2 -21 13 -31c-55 0 -84 1 -84 40v87c0 13 -12 26 -12 26c66 0 83 -12 83 -40v-82zM212 616c0 -14 3 -21 14 -31c-56 0 -84 1 -84 40v87c0 13 -12 26 -12 26c65 0 82 -12 82 -40v-82z" />
    <glyph glyph-name="quotesingle" unicode="'" horiz-adv-x="116" 
d="M93 616c0 -14 2 -21 13 -31c-55 0 -84 1 -84 40v87c0 13 -12 26 -12 26c66 0 83 -12 83 -40v-82z" />
    <glyph glyph-name="space" unicode=" " horiz-adv-x="200" 
 />
    <glyph glyph-name="cent" unicode="&#xa2;" horiz-adv-x="305" 
d="M211 447h-40v-289c36 -5 72 5 89 22c0 0 -41 -78 -71 -78c-6 0 -12 0 -18 1v-8c0 -38 2 -53 -46 -95c0 0 12 12 12 24v85c-64 16 -127 64 -127 155v136c0 23 11 40 36 62c25 29 42 40 67 40h24v25c0 38 -1 55 45 95c0 0 -11 -12 -11 -23v-97h104c9 0 20 10 20 10
c-34 -48 -53 -65 -84 -65zM137 168v279h-70v-159c0 -66 32 -103 70 -120z" />
    <glyph glyph-name="currency" unicode="&#xa4;" horiz-adv-x="346" 
d="M253 222l47 -47c19 -19 22 -32 20 -75c0 0 -1 12 -6 18l-52 52c-10 10 -16 18 -19 30c-7 -11 -15 -21 -24 -29c-6 -6 -20 -19 -46 -20c-19 -1 -37 9 -50 23l-38 -38c-18 -19 -30 -23 -75 -20c0 0 12 1 18 6l52 52c10 10 18 15 29 18c-5 9 -9 19 -10 28c-5 34 0 62 10 83
l-57 58c-18 18 -22 30 -19 75c0 0 0 -12 6 -18l69 -71c7 -7 12 -13 15 -20c4 6 9 11 14 15h1c6 7 20 20 46 21c13 1 27 -4 38 -12l39 39c19 18 32 22 75 19c0 0 -12 0 -18 -6l-52 -52c-9 -9 -16 -14 -26 -17c9 -12 16 -27 18 -40c4 -28 1 -52 -5 -72zM207 170
c27 29 21 58 14 110s-55 64 -66 64c-2 0 -4 0 -6 -1c-26 -29 -21 -57 -13 -110c2 -17 9 -29 17 -39h2h-2c17 -19 42 -25 49 -24h5z" />
    <glyph glyph-name="dollar" unicode="$" horiz-adv-x="377" 
d="M360 185c0 -35 -20 -61 -38 -79l5 3c-15 -21 -60 -79 -107 -105v-37c0 -38 -8 -53 -56 -95c0 0 12 12 12 24v95c-68 1 -154 70 -166 115c0 0 32 41 65 53c-2 -11 37 -71 101 -94v276c-48 55 -98 104 -125 139c-71 91 42 171 59 180l3 -1c20 14 47 32 63 40v15
c0 38 10 55 56 96c0 0 -12 -13 -12 -24v-79c51 3 137 -4 134 -106c-3 -30 -60 -70 -60 -70c23 52 -13 100 -74 115v-238c70 -75 140 -158 140 -223zM133 502c13 -15 28 -30 43 -47v195c-24 0 -43 -1 -56 -2c-26 -26 -60 -64 13 -146zM227 56c20 0 46 16 64 29
c28 55 -13 131 -71 204v-233h7z" />
    <glyph glyph-name="Euro" unicode="&#x20ac;" horiz-adv-x="450" 
d="M190 204c0 -164 192 -182 243 -131c0 0 -63 -81 -100 -81c-128 0 -214 56 -214 198v224h-49c-11 0 -24 -13 -24 -13c4 6 8 11 12 16h-24c-11 0 -24 -12 -24 -12c38 48 48 52 86 52h1c7 5 14 9 22 11v60c-6 -4 -10 -8 -10 -8c4 5 7 10 10 15v42c0 39 9 59 83 108
c0 0 -12 -13 -12 -25v-74h5h198c12 0 25 12 25 12c-48 -72 -48 -66 -87 -66h-141v-61h166c18 0 32 12 32 12c-36 -53 -58 -69 -96 -69h-102v-210z" />
    <glyph glyph-name="sterling" unicode="&#xa3;" horiz-adv-x="497" 
d="M456 70c19 0 31 12 31 12c-43 -62 -73 -82 -111 -82h-274c-11 0 -23 -12 -23 -12c10 15 19 27 27 37l-27 -21s12 12 12 23v272h-57c-12 0 -24 -12 -24 -12c36 45 46 50 81 50v197c0 61 31 90 63 111c28 26 63 56 84 56c89 0 151 -37 151 -148v-21c0 -37 -9 -62 -82 -111
c0 0 12 14 12 28v84c0 109 -84 123 -148 103c-7 -17 -10 -38 -10 -60v-239h114c12 0 24 12 24 12c-34 -49 -47 -50 -84 -50h-54v-189c0 -19 -6 -35 -19 -51c13 9 27 11 43 11h271z" />
    <glyph glyph-name="yen" unicode="&#xa5;" horiz-adv-x="427" 
d="M417 697c0 0 -25 -17 -39 -52l-75 -191h57c11 0 23 12 23 12c-34 -50 -47 -51 -85 -51h-11l-16 -41c-3 -7 -5 -13 -8 -18h97c11 0 23 12 23 12c-34 -50 -47 -51 -85 -51h-48v-219c0 -41 -9 -70 -82 -118c0 0 12 13 12 30v239c0 14 1 26 4 37l-11 31h-118
c-11 0 -24 -11 -24 -11c37 47 47 50 85 50h43l-22 59h-82c-11 0 -24 -11 -24 -11c37 47 47 50 85 50h7l-47 130c-23 67 -66 51 -66 51s36 59 73 63c25 2 40 -29 49 -54l68 -190h36l66 167c20 49 49 85 115 76zM220 412l1 3h-7l4 -9c0 2 1 4 2 6z" />
    <glyph glyph-name="plus" unicode="+" 
d="M360 336c11 0 24 12 24 12c-35 -50 -54 -61 -92 -61h-65v-140c0 -11 11 -27 11 -27c-43 32 -61 43 -61 81v86h-143c-11 0 -24 -12 -24 -12c37 47 54 61 92 61h75v144c0 11 -11 23 -11 23c46 -30 61 -54 61 -91v-76h133z" />
    <glyph glyph-name="multiply" unicode="&#xd7;" horiz-adv-x="336" 
d="M301 214c7 -8 25 -9 25 -9c-60 -10 -82 -5 -109 22l-46 46l-98 -99c-8 -8 -11 -27 -11 -27c-8 53 -13 74 14 100l61 61l-102 101c-7 8 -25 9 -25 9c59 7 82 5 109 -22l53 -53l101 101c8 9 9 25 9 25c11 -54 4 -81 -22 -107l-53 -54z" />
    <glyph glyph-name="divide" unicode="&#xf7;" horiz-adv-x="403" 
d="M190 358c28 -28 60 2 88 30c-15 0 -21 2 -31 12l-37 38c-23 21 -50 3 -85 -32c0 0 17 -1 25 -9zM370 298h-269c-37 0 -55 -14 -91 -61c0 0 12 12 23 12h269c37 0 57 11 91 61c0 0 -12 -12 -23 -12zM190 111c28 -28 60 1 88 30c-15 -1 -21 2 -31 12l-37 38
c-23 21 -50 3 -85 -32c0 0 17 0 25 -8z" />
    <glyph glyph-name="equal" unicode="=" horiz-adv-x="398" 
d="M365 347h-258c-37 0 -55 -14 -92 -61c0 0 13 12 24 12h258c38 0 57 11 91 61c0 0 -12 -12 -23 -12zM360 242h-258c-38 0 -55 -14 -92 -61c0 0 12 12 24 12h258c38 0 57 11 91 61c0 0 -12 -12 -23 -12z" />
    <glyph glyph-name="greater" unicode="&#x3e;" horiz-adv-x="399" 
d="M366 237c7 -4 15 -8 23 -13c0 0 -17 6 -36 -1l-226 -82c-35 -13 -65 -10 -117 22c0 0 16 -7 27 -3l245 90c26 10 44 8 74 -7c-4 2 -9 5 -14 7l-226 82c-36 13 -56 35 -75 92c0 0 7 -15 18 -19l246 -89c33 -12 43 -29 61 -79z" />
    <glyph glyph-name="less" unicode="&#x3c;" horiz-adv-x="399" 
d="M362 160c11 -4 27 3 27 3c-52 -32 -82 -35 -117 -22l-226 82c-19 7 -36 1 -36 1c8 5 16 9 23 13c18 50 28 67 61 79l246 89c11 4 18 19 18 19c-19 -57 -39 -79 -75 -92l-226 -82c-5 -2 -10 -5 -14 -7c30 15 48 17 74 7z" />
    <glyph glyph-name="percent" unicode="%" horiz-adv-x="475" 
d="M94 348c-39 -4 -77 62 -82 120c-9 102 14 167 41 207c6 11 22 38 53 41c39 3 82 -65 87 -123c9 -104 -17 -170 -45 -210c-8 -11 -25 -33 -54 -35zM389 610l-281 -603c-6 -12 0 -24 0 -24c-45 43 -54 61 -36 99l281 605c6 11 2 28 2 28c42 -45 51 -67 34 -105zM75 678
c-28 -48 -22 -97 -14 -187c8 -81 53 -105 69 -107c28 50 21 98 13 188c-8 88 -54 106 -68 106zM463 246c9 -104 -16 -169 -45 -209c-6 -11 -23 -35 -54 -37c-39 -4 -77 62 -82 120c-9 104 15 171 43 212c8 13 24 33 51 36c40 3 82 -65 87 -122zM331 143
c7 -81 53 -105 69 -107c28 49 20 99 12 188s-53 106 -67 106c-28 -48 -22 -98 -14 -187z" />
    <glyph glyph-name="perthousand" unicode="&#x2030;" horiz-adv-x="689" 
d="M94 348c-39 -4 -77 62 -82 120c-9 105 15 171 43 211c8 13 24 34 51 37c39 3 82 -65 87 -123c9 -98 -15 -163 -42 -203h1s-19 -39 -58 -42zM389 610l-281 -603c-6 -12 0 -24 0 -24c-45 43 -54 61 -37 99l282 605c5 11 1 28 1 28c43 -45 52 -67 35 -105zM75 678
c-28 -48 -22 -97 -14 -187c8 -81 53 -105 69 -107c28 50 20 98 13 188c-8 88 -54 106 -68 106zM462 246c10 -104 -15 -169 -44 -209c-6 -11 -23 -35 -54 -37c-39 -4 -78 62 -83 120c-9 104 16 171 44 212c7 13 24 33 51 36c39 3 81 -65 86 -122zM677 246
c10 -105 -17 -171 -45 -211h-1c-7 -11 -23 -33 -52 -35c-39 -4 -77 62 -82 120c-9 104 14 171 43 212c7 13 23 33 50 36c39 3 82 -65 87 -122zM330 143c8 -83 55 -106 70 -107c27 49 20 99 12 188s-54 106 -67 106c-28 -48 -23 -98 -15 -187zM545 143c8 -81 53 -105 69 -107
c28 49 21 99 13 188s-54 106 -67 106c-28 -48 -23 -98 -15 -187z" />
    <glyph glyph-name="at" unicode="@" horiz-adv-x="510" 
d="M173 621c104 0 327 -32 327 -195v-157c0 -35 0 -59 -57 -100c-19 -18 -47 -41 -69 -41c-12 0 -33 12 -51 34c-18 -20 -45 -44 -66 -44c-78 0 -156 53 -156 142v124c0 34 -2 46 51 83c23 34 31 33 60 33h121c11 0 24 12 24 12c-5 -7 -9 -14 -13 -20c4 3 9 7 14 10
c0 0 -12 -17 -12 -28v-190c0 -94 45 -129 90 -112c2 4 3 9 3 14v235c0 146 -296 177 -363 134c-3 -4 -5 -10 -5 -15v-345c0 -137 251 -189 301 -139c0 0 -58 -66 -94 -66c-90 0 -267 55 -267 195v268c0 38 -1 63 71 111l-2 -2c20 20 63 59 93 59zM160 265
c0 -85 97 -116 157 -94c-17 24 -31 58 -31 99v137c0 14 0 24 3 33h-17h-112v-175z" />
    <glyph glyph-name="ampersand" unicode="&#x26;" horiz-adv-x="589" 
d="M556 283c11 0 23 12 23 12c-35 -49 -57 -61 -94 -61h-30c11 -9 15 -17 15 -17c-7 -28 -48 -81 -100 -128l18 -31c19 -33 14 -77 -12 -142c0 0 4 17 -2 26l-58 102c-42 -32 -86 -54 -119 -54c-77 0 -122 59 -148 104c-18 14 -39 38 -39 74c0 63 50 148 107 224l-52 92
c-24 41 -23 77 -14 108c-2 4 -4 8 -4 12c-10 134 136 101 148 101c12 -3 38 -24 56 -40c17 -8 109 -88 38 -178c-21 -27 -53 -64 -86 -105l134 -235c30 32 53 65 65 87h-65c-12 0 -24 -12 -24 -12c35 46 54 61 92 61h151zM99 564l65 -113c13 17 27 32 40 47
c74 84 59 123 39 152c-15 2 -38 3 -66 3c-68 0 -89 -39 -79 -88zM157 44c45 0 89 23 128 54l-128 224c-52 -73 -96 -152 -89 -212c14 -20 53 -66 89 -66z" />
    <glyph glyph-name="copyright" unicode="&#xa9;" horiz-adv-x="451" 
d="M193 626c98 0 248 -52 248 -187v-283c0 -36 -13 -65 -90 -108c9 2 17 5 24 9c-23 -16 -84 -57 -116 -57c-98 0 -248 53 -248 187v283c0 35 12 63 81 105c-6 -2 -11 -4 -16 -7c22 15 85 58 117 58zM373 81v346c0 124 -189 172 -274 150c-8 -7 -20 -21 -20 -32v-346
c0 -122 183 -172 270 -152c7 6 24 21 24 34zM76 568l-7 -5c2 2 5 4 7 5zM192 488h106c6 0 13 6 13 6c-27 -39 -40 -50 -60 -50h-75v-207c0 -96 102 -109 129 -82c0 0 -40 -47 -60 -47c-49 0 -113 30 -113 106v213c0 4 1 8 2 12c-1 0 -2 -1 -2 -1l3 4c2 7 7 13 15 21
c12 14 21 21 32 24c3 1 6 1 10 1zM375 57l8 6c-2 -2 -5 -4 -8 -6z" />
    <glyph glyph-name="registered" unicode="&#xae;" horiz-adv-x="451" 
d="M193 626c98 0 248 -52 248 -187v-283c0 -36 -13 -65 -90 -108c9 2 17 5 24 9c-23 -16 -84 -57 -116 -57c-99 0 -248 53 -248 187v283c0 35 13 63 81 105c-5 -1 -11 -4 -15 -6c22 15 84 57 116 57zM373 81v346c0 124 -189 172 -274 150c-8 -7 -20 -21 -20 -32v-346
c0 -41 21 -74 52 -99c11 11 15 28 15 47v106c-4 -2 -8 -5 -8 -5l8 12v171c0 3 0 6 1 9c-5 -1 -9 -2 -10 -4c0 0 40 53 60 53l48 -2c53 0 68 -37 68 -104v-34c0 -48 -19 -74 -49 -86c24 -42 47 -125 67 -125c8 0 12 6 12 6s-19 -36 -44 -36c-26 0 -61 125 -83 146h-8h-18v-78
c0 -45 -36 -63 -58 -76c60 -49 160 -66 217 -53c7 6 24 21 24 34zM77 569l-8 -6c2 2 5 4 8 6zM269 360c0 65 4 82 -56 82h-23v-145c3 1 5 1 8 1h30c11 0 41 11 41 47v15zM375 57l8 6c-2 -2 -5 -4 -8 -6z" />
    <glyph glyph-name="trademark" unicode="&#x2122;" horiz-adv-x="473" 
d="M68 700h122c5 0 11 6 11 6c-23 -35 -40 -49 -57 -49h-20v-227c0 -41 -39 -56 -58 -68c11 10 15 25 15 43v232c0 7 2 14 8 20h-68c-5 0 -11 -6 -11 -6c23 35 40 49 58 49zM457 378c0 -5 6 -16 6 -16c-34 23 -49 32 -49 50v238c0 7 -1 13 -2 16c-3 -9 -6 -21 -8 -34
l-23 -178c-6 -37 -72 -63 -72 -63s1 0 2 2c-1 -1 -2 -2 -3 -2c0 0 10 14 7 27l-55 225c-1 2 -1 5 -2 7v-236c0 -18 -15 -30 -49 -53c0 0 5 6 5 11v272c0 18 15 34 49 57l-4 -6c5 3 10 5 15 5c12 0 19 -15 21 -25l49 -200l20 157c4 27 29 51 55 59c18 13 38 17 38 -12v-301z
" />
    <glyph glyph-name="uni0308" unicode="&#x308;" horiz-adv-x="0" 
d="M-273 775c28 -28 60 2 88 30c-15 -1 -21 2 -31 12l-38 38c-22 22 -49 3 -84 -32c0 0 17 0 25 -8zM-98 775c28 -28 60 2 88 30c-15 -1 -21 2 -31 12l-37 38c-23 22 -50 3 -85 -32c0 0 17 0 25 -8z" />
    <glyph glyph-name="uni0307" unicode="&#x307;" horiz-adv-x="0" 
d="M-97 771c27 -28 59 2 87 30c-15 -1 -20 2 -31 12l-37 38c-22 21 -49 3 -84 -32c0 0 17 0 24 -8z" />
    <glyph glyph-name="gravecomb" unicode="&#x300;" horiz-adv-x="0" 
d="M-131 845l70 -70c9 -9 9 -26 9 -26c46 46 50 67 31 86l-67 66c-10 10 -13 17 -12 32c-39 -39 -58 -60 -31 -88z" />
    <glyph glyph-name="acutecomb" unicode="&#x301;" horiz-adv-x="0" 
d="M-23 845c28 28 9 49 -30 88c1 -15 -3 -22 -13 -32l-67 -66c-19 -19 -15 -40 31 -86c0 0 0 17 10 26z" />
    <glyph glyph-name="uni030B" unicode="&#x30b;" horiz-adv-x="0" 
d="M-274 868l7 -5c44 26 84 -66 68 -108l10 -3c28 29 46 106 11 143c-20 19 -61 9 -96 -27zM-126 868l7 -5c44 26 84 -66 68 -108l10 -3c28 29 46 106 11 143c-20 19 -61 9 -96 -27z" />
    <glyph glyph-name="uni0302" unicode="&#x302;" horiz-adv-x="0" 
d="M-42 834c10 -10 17 -14 32 -13c-39 -40 -60 -59 -88 -31l-66 66l-72 -72c-10 -10 -14 -17 -13 -32c-39 39 -58 60 -31 88l59 58h-1l16 16l15 14c3 3 6 3 8 3c21 13 35 10 47 -2z" />
    <glyph glyph-name="uni030C" unicode="&#x30c;" horiz-adv-x="0" 
d="M-98 902c28 28 49 9 88 -30c-15 0 -22 -3 -32 -13l-94 -95c-13 -13 -26 -16 -47 -3c-3 0 -6 1 -8 3l-89 88c-27 28 -8 49 31 88c-1 -15 3 -22 13 -32l73 -72z" />
    <glyph glyph-name="uni0306" unicode="&#x306;" horiz-adv-x="0" 
d="M-55 913c12 -58 -11 -94 -30 -112c-56 -56 -118 -55 -165 -7c-12 13 -20 55 -24 77c14 -45 97 -93 158 -32l56 56c5 5 5 18 5 18zM-274 871c-1 4 -2 8 -2 12z" />
    <glyph glyph-name="uni030A" unicode="&#x30a;" horiz-adv-x="0" 
d="M-110 997c56 0 100 -34 100 -120v-32c0 -20 -5 -36 -33 -58c0 0 1 0 1 1c-15 -12 -49 -35 -65 -35c-63 0 -99 40 -99 129c0 23 6 63 50 91c15 12 34 24 46 24zM-163 886c0 -88 66 -115 108 -104c0 2 1 4 1 6v76c0 92 -69 117 -107 102c-1 -2 -2 -4 -2 -6v-74zM-177 956
l4 4zM-42 788c6 3 9 6 9 6c-2 -2 -5 -5 -9 -6z" />
    <glyph glyph-name="tildecomb" unicode="&#x303;" horiz-adv-x="0" 
d="M-74 778c29 0 43 18 64 61c-14 -34 -32 -60 -52 -61c-14 -2 -27 -2 -41 0c10 -1 19 -1 29 0zM-274 816c57 6 114 -29 171 -38c-59 7 -118 45 -177 36c-12 1 -22 -5 -32 -15c10 11 21 16 38 17zM-312 799c-9 -10 -17 -24 -27 -44c8 17 17 33 27 44z" />
    <glyph glyph-name="uni0304" unicode="&#x304;" horiz-adv-x="0" 
d="M-37 822h-206c-41 0 -58 -20 -96 -72c0 0 14 12 27 12h212c38 0 54 20 90 72c0 0 -16 -12 -27 -12z" />
    <glyph glyph-name="uni0312" unicode="&#x312;" horiz-adv-x="0" 
d="M-10 790l-7 5c-44 -26 -83 66 -68 108l-9 3c-28 -29 -47 -106 -11 -143c19 -20 60 -9 95 27z" />
    <glyph glyph-name="dotbelowcomb" unicode="&#x323;" horiz-adv-x="0" 
d="M-97 -140c27 -27 59 2 87 30c-15 0 -20 2 -31 12l-37 38c-22 22 -49 3 -84 -31c0 0 17 0 24 -9z" />
    <glyph glyph-name="uni0326" unicode="&#x326;" horiz-adv-x="0" 
d="M-126 868l7 -5c44 26 84 -66 68 -108l10 -3c28 29 46 106 11 143c-20 19 -61 9 -96 -27z" />
    <glyph glyph-name="uni0327" unicode="&#x327;" horiz-adv-x="0" 
d="M-82 -37c29 -30 32 -64 32 -85c0 -79 -41 -118 -108 -118c-18 0 -55 25 -72 37c41 -22 134 2 134 89v31h-43c-42 0 -54 19 -89 77c0 0 16 -13 33 -13h61c15 0 25 -1 34 -5c-2 3 -4 5 -4 5c4 -3 8 -5 11 -8c4 -3 8 -6 11 -10zM-230 -203c-3 2 -6 4 -9 7z" />
    <glyph glyph-name="uni0328" unicode="&#x328;" horiz-adv-x="0" 
d="M-180 -67c0 -99 84 -120 121 -98c-15 -12 -49 -35 -65 -35c-63 0 -99 40 -99 128c0 23 6 63 51 93c0 0 -8 -8 -8 -15v-73zM-59 -165c6 3 9 6 9 6c-2 -2 -5 -5 -9 -6z" />
    <glyph glyph-name="uni20b1" horiz-adv-x="432" 
d="M364 443h34c11 0 24 12 24 12c-25 -36 -39 -47 -60 -50c-10 -99 -70 -133 -158 -138c-4 -1 -8 -1 -13 -1h-55v-146c0 -86 -62 -118 -102 -144c23 21 31 54 31 92v336h-31c-12 0 -24 -12 -24 -12c25 32 38 44 55 48v63h-31c-12 0 -24 -12 -24 -12c25 32 38 44 55 49v47
c0 10 1 19 3 28c-2 -1 -3 -2 -4 -3c0 0 2 4 6 10c5 13 15 27 32 42c17 19 36 36 52 36l89 -2c88 0 115 -58 120 -156h35c11 0 24 12 24 12c-25 -35 -39 -46 -58 -50v-6v-55zM185 625h-49v-83h153c-8 60 -33 83 -104 83zM292 503h-156v-60h157v23c0 13 0 26 -1 37zM167 337
h46c38 0 70 19 78 67h-155v-72c9 4 19 5 31 5z" />
    <glyph glyph-name="IJacute" horiz-adv-x="475" 
d="M243 775c-10 -9 -10 -26 -10 -26c-46 46 -50 67 -31 86l67 66c10 10 14 17 13 32c39 -39 58 -60 30 -88zM382 594c0 38 19 75 83 117c0 0 -12 -13 -12 -24v-528c0 -76 -48 -110 -87 -135c-21 -18 -43 -33 -58 -33c-83 0 -165 56 -165 197v21c0 38 18 74 79 117
c0 0 -12 -16 -12 -34v-77c0 -148 98 -179 165 -161c5 16 7 34 7 53v487zM41 593c0 37 9 67 82 110c0 0 -12 -12 -12 -23v-557c0 -86 -61 -124 -101 -143c23 21 31 53 31 90v523z" />
    <glyph glyph-name="ijacute" horiz-adv-x="475" 
d="M243 775c-10 -9 -10 -26 -10 -26c-46 46 -50 67 -31 86l67 66c10 10 14 17 13 32c39 -39 58 -60 30 -88zM382 594c0 38 19 75 83 117c0 0 -12 -13 -12 -24v-528c0 -76 -48 -110 -87 -135c-21 -18 -43 -33 -58 -33c-83 0 -165 56 -165 197v21c0 38 18 74 79 117
c0 0 -12 -16 -12 -34v-77c0 -148 98 -179 165 -161c5 16 7 34 7 53v487zM41 593c0 37 9 67 82 110c0 0 -12 -12 -12 -23v-557c0 -86 -61 -124 -101 -143c23 21 31 53 31 90v523z" />
    </font>
</defs>
</svg>
